<svg width="25" height="25" viewBox="0 0 25 25" fill="none" xmlns="http://www.w3.org/2000/svg">
    <path fill-rule="evenodd" clip-rule="evenodd" d="M25 12.5C25 19.4036 19.4036 25 12.5 25C5.59644 25 0 19.4036 0 12.5C0 5.59644 5.59644 0 12.5 0C19.4036 0 25 5.59644 25 12.5ZM6 6.86667C6 6.38802 6.38802 6 6.86667 6H7.73333V9.9C7.73333 10.1393 7.92734 10.3333 8.16667 10.3333H13.3667C13.606 10.3333 13.8 10.1393 13.8 9.9V6H15.4909C15.7872 6 16.063 6.15139 16.2221 6.40137L18.8645 10.5537C18.953 10.6928 19 10.8542 19 11.019V18.1333C19 18.612 18.612 19 18.1333 19H6.86667C6.38802 19 6 18.612 6 18.1333V6.86667ZM8.16667 12.0667C7.92734 12.0667 7.73333 12.2607 7.73333 12.5V16.8333C7.73333 17.0727 7.92734 17.2667 8.16667 17.2667H16.8333C17.0727 17.2667 17.2667 17.0727 17.2667 16.8333V12.5C17.2667 12.2607 17.0727 12.0667 16.8333 12.0667H8.16667ZM12.9333 6.86667H11.2V9.46667H12.9333V6.86667ZM16.4 12.9333V13.8H8.6V12.9333H16.4ZM14.6667 14.6667H8.6V15.5333H14.6667V14.6667Z" fill="#282828"/>
</svg>