<?xml version="1.0" encoding="UTF-8"?>
<svg version="1.1" viewBox="0 0 700 700" xmlns="http://www.w3.org/2000/svg" xmlns:xlink="http://www.w3.org/1999/xlink">
 <g>
  <path d="m433.12 420h-80.105c-2.9375-15.785-13.59-29.047-28.371-35.316-14.785-6.2656-31.723-4.7031-45.109 4.1602-13.387 8.8633-21.438 23.852-21.438 39.906s8.0508 31.043 21.438 39.906c13.387 8.8633 30.324 10.426 45.109 4.1602 14.781-6.2695 25.434-19.531 28.371-35.316h28.961v17.5c0 4.832 3.918 8.75 8.75 8.75s8.75-3.918 8.75-8.75v-17.5h8.75v30.363c0 4.832 3.918 8.75 8.75 8.75s8.75-3.918 8.75-8.75v-30.363h7.3945c4.832 0 8.75-3.918 8.75-8.75s-3.918-8.75-8.75-8.75zm-127.14 39.113c-8.0547 0-15.777-3.1992-21.469-8.8945-5.6953-5.6914-8.8945-13.418-8.8945-21.469s3.1992-15.777 8.8945-21.469c5.6914-5.6953 13.414-8.8945 21.469-8.8945 8.0508 0 15.773 3.1992 21.469 8.8945 5.6953 5.6914 8.8945 13.418 8.8945 21.469s-3.1992 15.777-8.8945 21.469c-5.6953 5.6953-13.418 8.8945-21.469 8.8945z"/>
  <path d="m350 0c-74.262 0-145.48 29.5-197.99 82.012-52.512 52.508-82.012 123.73-82.012 197.99s29.5 145.48 82.012 197.99c52.508 52.512 123.73 82.012 197.99 82.012s145.48-29.5 197.99-82.012c52.512-52.508 82.012-123.73 82.012-197.99-0.082031-74.234-29.605-145.41-82.102-197.9-52.492-52.496-123.66-82.02-197.9-82.102zm-162.88 485.62c0-58.191 31.047-111.96 81.441-141.06 50.395-29.098 112.49-29.098 162.88 0 50.395 29.094 81.441 82.867 81.441 141.06-46.305 36.828-103.72 56.875-162.88 56.875s-116.58-20.047-162.88-56.875zm342.52-14.48c-3.3789-36.711-17.902-71.508-41.621-99.727-23.715-28.223-55.492-48.52-91.07-58.168 27.941-14.172 47.984-40.211 54.535-70.852 6.5508-30.637-1.0898-62.598-20.793-86.957s-49.355-38.516-80.688-38.516-60.984 14.156-80.688 38.516-27.344 56.32-20.793 86.957c6.5508 30.641 26.594 56.68 54.535 70.852-35.578 9.6484-67.355 29.945-91.07 58.168-23.719 28.219-38.242 63.016-41.621 99.727-38.375-36.016-65.039-82.73-76.527-134.09-11.492-51.355-7.2812-104.98 12.082-153.91 19.367-48.934 52.996-90.918 96.52-120.5 43.523-29.586 94.938-45.402 147.56-45.402s104.04 15.816 147.56 45.402c43.523 29.582 77.152 71.566 96.52 120.5 19.363 48.934 23.574 102.56 12.082 153.91-11.488 51.359-38.152 98.074-76.527 134.09zm-179.64-164.15c-22.883 0-44.824-9.0898-61.004-25.27-16.18-16.18-25.27-38.121-25.27-61.004s9.0898-44.824 25.27-61.004c16.18-16.18 38.121-25.27 61.004-25.27s44.824 9.0898 61.004 25.27c16.18 16.18 25.27 38.121 25.27 61.004-0.023438 22.875-9.1172 44.805-25.293 60.98s-38.105 25.27-60.98 25.293z"/>
 </g>
</svg>
