<svg width="25" height="25" viewBox="0 0 25 25" fill="none" xmlns="http://www.w3.org/2000/svg">
<g clip-path="url(#clip0_2228_16359)">
<path d="M10.6095 23.2035C12.6232 23.4242 14.6721 23.2031 16.5483 22.5627C17.3874 22.2823 18.1872 21.9283 18.9338 21.5068L19.0921 22.9492C18.4674 23.262 17.8137 23.5341 17.1373 23.763C15.0045 24.4853 12.6775 24.7316 10.3917 24.4771C7.93197 24.1824 5.65828 23.2309 3.9209 21.7692C2.08656 20.2297 0.825375 18.2914 0.28584 16.1825C-0.379768 13.5942 0.126151 10.8951 1.70868 8.59172C3.29275 6.27084 5.84009 4.49639 8.88477 3.59294C9.86774 3.27159 10.9306 3.15015 11.9829 3.23893C12.4422 3.28057 12.8861 3.40005 13.2864 3.58985C13.6868 3.77965 14.0349 4.03563 14.3089 4.34163C14.3414 4.37978 14.3688 4.42071 14.3906 4.4637C15.1156 5.82479 14.2347 6.67725 13.4008 7.49512C12.9059 7.96509 12.4505 8.41471 12.7227 8.84603C12.819 8.95472 12.9405 9.04665 13.0802 9.11649C13.22 9.18633 13.3752 9.23271 13.5369 9.25293C14.1883 9.36911 14.8614 9.37672 15.5165 9.27531C16.1598 9.18986 16.8255 9.07186 17.459 8.96403C17.9192 8.88468 18.3646 8.80737 18.7927 8.74227L18.4364 10.1095C18.2211 10.144 18.0033 10.1827 17.7831 10.2214C17.1521 10.3312 16.4939 10.4472 15.7614 10.5408C14.8964 10.671 14.0082 10.655 13.1508 10.494C12.307 10.3129 11.6661 9.9528 11.3469 9.434C10.5872 8.23568 11.3816 7.4646 12.213 6.65894C12.7277 6.15845 13.2671 5.64168 13.0048 5.03133C12.693 4.72785 12.2487 4.53717 11.7676 4.50033C10.9648 4.44223 10.1567 4.54123 9.40937 4.78923C6.71872 5.59238 4.46991 7.16542 3.07462 9.22038C1.67494 11.251 1.22695 13.6325 1.81509 15.9159C2.28962 17.7867 3.40593 19.5065 5.03195 20.872C6.53017 22.1318 8.49107 22.9511 10.612 23.2035H10.6095ZM10.1443 20.5485C10.3051 20.8927 10.5866 21.1899 10.9529 21.4026C11.3193 21.6152 11.7542 21.7337 12.2025 21.7431C12.6509 21.7525 13.0925 21.6523 13.4715 21.4552C13.8506 21.2582 14.15 20.9731 14.3319 20.6361C14.5139 20.299 14.5701 19.9252 14.4935 19.5619C14.4169 19.1986 14.211 18.8621 13.9017 18.5951C13.5925 18.328 13.1938 18.1424 12.7562 18.0617C12.3186 17.981 11.8618 18.0088 11.4434 18.1417C10.8833 18.3196 10.4319 18.6729 10.1883 19.1242C9.94478 19.5754 9.92894 20.0877 10.1443 20.5485ZM22.2966 0C22.1209 2.26644 18.5081 3.66211 19.7949 6.0201C19.9788 6.35054 20.2436 6.64628 20.5727 6.88886C20.9018 7.13144 21.2882 7.31565 21.7077 7.43001C22.0419 7.51482 22.3964 7.5302 22.7396 7.47477C22.8965 7.44759 23.0493 7.40596 23.1949 7.35067C25.073 6.6508 25.2982 4.75667 24.7414 3.302C24.2218 1.96126 23.1008 0.775146 22.2966 0ZM24.7068 12.6343C23.2257 12.9148 21.688 12.9267 20.2007 12.6689L21.4206 23.7081C21.4825 24.3937 21.6434 24.8657 22.6579 25C22.9704 24.9916 23.2675 24.8862 23.4893 24.705C23.6976 24.5033 23.8116 24.2473 23.811 23.9827L24.7068 12.6343ZM23.4869 8.38216C22.9177 8.57544 21.8933 8.67717 21.1757 8.38216L20.223 12.0178C21.8042 12.3067 23.3508 12.3617 24.833 12.0178C24.2936 10.2498 23.8432 10.2315 23.4869 8.39233V8.38216ZM15.462 16.4795C15.6901 16.9658 16.1271 17.3664 16.6902 17.6056C17.2534 17.8448 17.9037 17.906 18.518 17.7775L18.0627 13.5844C17.6273 13.5593 17.1911 13.6249 16.7947 13.7753C16.3983 13.9257 16.0545 14.1559 15.7952 14.4446C15.5358 14.7333 15.3693 15.0712 15.311 15.4269C15.2528 15.7826 15.3047 16.1447 15.462 16.4795ZM4.17577 16.6545C4.33775 16.9979 4.61991 17.2942 4.98661 17.5059C5.35331 17.7176 5.78809 17.8352 6.23604 17.8438C6.68398 17.8525 7.12498 17.7518 7.50334 17.5544C7.88169 17.3571 8.18042 17.072 8.36179 16.7351C8.54316 16.3982 8.59903 16.0247 8.52234 15.6618C8.44565 15.2988 8.23984 14.9627 7.93091 14.6959C7.62199 14.429 7.22381 14.2435 6.78667 14.1626C6.34953 14.0817 5.89305 14.1092 5.47489 14.2415C5.19705 14.3294 4.943 14.4614 4.72729 14.6301C4.51158 14.7987 4.33844 15.0007 4.21777 15.2245C4.09711 15.4482 4.03129 15.6893 4.02408 15.934C4.01687 16.1787 4.06842 16.4221 4.17577 16.6504V16.6545ZM5.50459 11.1613C5.66441 11.5026 5.94374 11.7973 6.30726 12.0081C6.67078 12.2189 7.10216 12.3364 7.54686 12.3456C7.99156 12.3549 8.42962 12.2555 8.80563 12.0601C9.18164 11.8646 9.47873 11.5819 9.65934 11.2477C9.83994 10.9134 9.89595 10.5427 9.82028 10.1823C9.74461 9.82185 9.54065 9.48797 9.23421 9.22286C8.92776 8.95774 8.53258 8.77328 8.09864 8.69281C7.6647 8.61234 7.21148 8.63946 6.79628 8.77075C6.23979 8.9473 5.79123 9.29818 5.54906 9.74636C5.30688 10.1946 5.29089 10.7034 5.50459 11.1613Z" fill="#282828"/>
</g>
<defs>
<clipPath id="clip0_2228_16359">
<rect width="25" height="25" fill="white"/>
</clipPath>
</defs>
</svg>
