<?xml version="1.0" encoding="UTF-8"?>
<svg viewBox="0 0 100 100" width="16px" height="16px" version="1.1" xmlns="http://www.w3.org/2000/svg" xmlns:xlink="http://www.w3.org/1999/xlink">
	<g>
		<g>
			<path fill-rule="evenodd" clip-rule="evenodd" fill="#000000" d="M49.877,67.841c-2.487,0-4.665,0.87-6.48,2.648    c-1.834,1.778-2.752,3.862-2.752,6.268c0,2.42,0.918,4.495,2.752,6.244c1.816,1.729,3.992,2.601,6.48,2.601    c2.443,0,4.59-0.872,6.422-2.601c1.837-1.749,2.755-3.822,2.755-6.244c0-2.406-0.918-4.49-2.755-6.268    C54.467,68.712,52.32,67.841,49.877,67.841z M42.957,36.705c0.672,2.745,1.437,6.147,2.293,10.187    c0.878,4.054,1.798,9.12,2.755,15.207h3.687c0.973-6.018,1.871-11.087,2.751-15.172c0.841-4.104,1.626-7.525,2.297-10.259    c0.702-2.904,1.298-5.428,1.757-7.589c0.46-2.151,0.709-3.881,0.709-5.2c0-2.437-0.939-4.528-2.814-6.277    C54.538,15.859,52.344,15,49.822,15c-2.561,0-4.744,0.859-6.578,2.602c-1.831,1.749-2.729,3.84-2.729,6.277    c0,1.224,0.249,3.029,0.764,5.44C41.795,31.738,42.345,34.192,42.957,36.705z M43.274,54.838    c-0.068-0.323-0.135-0.632-0.202-0.949c-5.02,1.133-9.791,3.643-13.694,7.547l5.922,5.816c2.685-2.685,5.96-4.434,9.418-5.251    C44.228,59.408,43.747,57.02,43.274,54.838z M36.509,21.968c0-1.984,0.432-3.802,1.275-5.466    c-12.795,2.263-25.049,8.319-34.949,18.178c0,0,0,0.106-0.106,0.106l5.922,5.922c0-0.106,0-0.106,0.106-0.106    c7.969-8.007,17.736-13.138,28.017-15.426C36.597,23.902,36.509,22.833,36.509,21.968z M39.999,40.288    c-0.379-1.557-0.736-3.092-1.085-4.62c-8.341,1.886-16.268,6.061-22.755,12.549l5.922,5.816    c5.342-5.304,11.877-8.711,18.753-10.237C40.546,42.557,40.267,41.382,39.999,40.288z M95.789,34.681    c-9.601-9.562-21.417-15.549-33.792-17.966c0.798,1.606,1.212,3.354,1.212,5.253c0,0.989-0.1,2.144-0.289,3.459    c9.873,2.407,19.235,7.465,26.946,15.176c0.106,0.106,0.106,0.106,0.212,0.211L96,34.892    C95.894,34.892,95.789,34.787,95.789,34.681z M60.723,35.902c-0.324,1.373-0.67,2.816-1.037,4.333    c-0.289,1.178-0.595,2.457-0.911,3.815c6.514,1.645,12.681,5.002,17.767,10.089c0.106,0,0.106,0,0.106,0.106l5.922-5.922    l-0.106-0.106C76.24,41.992,68.692,37.891,60.723,35.902z M69.245,61.436c-3.641-3.641-8.036-6.068-12.684-7.299    c-0.052,0.252-0.104,0.496-0.156,0.752c-0.484,2.248-0.972,4.71-1.469,7.372c3.102,0.901,6.033,2.564,8.493,4.991    c0,0.106,0,0.106,0.106,0.106l5.816-5.816C69.351,61.436,69.351,61.436,69.245,61.436z"
			/>
		</g>
	</g>
</svg>