<svg width="55" height="55" viewBox="0 0 55 55" version="1.1" xmlns="http://www.w3.org/2000/svg" xmlns:xlink="http://www.w3.org/1999/xlink">
<g id="Canvas" transform="translate(-5774 0)">
<g id="whatsapp">
<g id="Oval">
<mask id="mask0_outline_ins">
<use xlink:href="#path0_fill" fill="white" transform="translate(5774 0)"/>
</mask>
<g mask="url(#mask0_outline_ins)">
<use xlink:href="#path1_stroke_2x" transform="translate(5774 0)" fill="#FF2C5E"/>
</g>
</g>
<g id="Group">
<g id="Shape">
<use xlink:href="#path2_fill" transform="translate(5787.42 13)" fill="#FF2C5E"/>
</g>
</g>
</g>
</g>
<defs>
<path id="path0_fill" fill-rule="evenodd" d="M 27.5 55C 42.6878 55 55 42.6878 55 27.5C 55 12.3122 42.6878 0 27.5 0C 12.3122 0 0 12.3122 0 27.5C 0 42.6878 12.3122 55 27.5 55Z"/>
<path id="path1_stroke_2x" d="M 27.5 56C 43.2401 56 56 43.2401 56 27.5L 54 27.5C 54 42.1355 42.1355 54 27.5 54L 27.5 56ZM 56 27.5C 56 11.7599 43.2401 -1 27.5 -1L 27.5 1C 42.1355 1 54 12.8645 54 27.5L 56 27.5ZM 27.5 -1C 11.7599 -1 -1 11.7599 -1 27.5L 1 27.5C 1 12.8645 12.8645 1 27.5 1L 27.5 -1ZM -1 27.5C -1 43.2401 11.7599 56 27.5 56L 27.5 54C 12.8645 54 1 42.1355 1 27.5L -1 27.5Z"/>
<path id="path2_fill" fill-rule="evenodd" d="M 2.62939 23.0485C 2.05371 24.6539 1.51514 26.2968 1.01514 27.9786C 1.75244 27.7614 2.46533 27.5196 3.17822 27.2778C 4.16992 26.9417 5.16113 26.6055 6.21777 26.3352C 15.8154 32.2637 27.3081 25.6142 28.2832 15.9276C 29.1655 7.15841 22.2861 -0.643777 13.0347 0.0420732C 2.47217 0.825213 -3.87256 13.6575 2.62939 23.0485ZM 18.416 23.0501C 13.7759 22.833 7.39746 16.8657 5.8584 12.46C 4.94531 9.8458 5.99561 4.84598 9.98486 6.0692L 10.0464 6.2001C 11.0552 8.34558 12.5039 11.4263 9.98486 12.8251C 11.2905 15.6349 13.4492 17.5762 16.2632 18.8506C 16.8789 18.4362 17.355 17.8806 17.8315 17.325C 18.0796 17.0357 18.3276 16.7464 18.5952 16.477C 20.229 17.127 21.7559 17.886 23.0806 18.8506C 23.2163 21.9917 20.6157 23.1533 18.416 23.0501Z"/>
</defs>
</svg>
