<svg xmlns="http://www.w3.org/2000/svg" xmlns:xlink="http://www.w3.org/1999/xlink" width="55" height="55" version="1.1" viewBox="0 0 55 55"><g id="Canvas" transform="translate(-5464 0)"><g id="share facebook copy"><g id="Oval"><mask id="mask0_outline_ins"><use fill="#fff" transform="translate(5464 0)" xlink:href="#path0_fill"/></mask><g mask="url(#mask0_outline_ins)"><use fill="#FF2C5E" transform="translate(5464 0)" xlink:href="#path1_stroke_2x"/></g></g><g id="Page 1"><mask id="mask1_outline" mask-type="alpha"><g id="Clip 2"><use fill="#FFF" transform="translate(5476 14.0004)" xlink:href="#path2_fill"/></g></mask><g id="Fill 1" mask="url(#mask1_outline)"><use fill="#FF2C5E" transform="translate(5476 14.0004)" xlink:href="#path3_fill"/></g></g></g></g><defs><path id="path0_fill" fill-rule="evenodd" d="M 27.5 55C 42.6878 55 55 42.6878 55 27.5C 55 12.3122 42.6878 0 27.5 0C 12.3122 0 0 12.3122 0 27.5C 0 42.6878 12.3122 55 27.5 55Z"/><path id="path1_stroke_2x" d="M 27.5 56C 43.2401 56 56 43.2401 56 27.5L 54 27.5C 54 42.1355 42.1355 54 27.5 54L 27.5 56ZM 56 27.5C 56 11.7599 43.2401 -1 27.5 -1L 27.5 1C 42.1355 1 54 12.8645 54 27.5L 56 27.5ZM 27.5 -1C 11.7599 -1 -1 11.7599 -1 27.5L 1 27.5C 1 12.8645 12.8645 1 27.5 1L 27.5 -1ZM -1 27.5C -1 43.2401 11.7599 56 27.5 56L 27.5 54C 12.8645 54 1 42.1355 1 27.5L -1 27.5Z"/><path id="path2_fill" fill-rule="evenodd" d="M 31.353 0L 31.353 30.1559L 0 30.1559L 0 0L 31.353 0Z"/><path id="path3_fill" fill-rule="evenodd" d="M 24.299 16.877C 24.2 17.131 24.058 17.347 23.874 17.524C 23.69 17.702 23.467 17.838 23.206 17.934C 22.945 18.03 22.651 18.078 22.323 18.078C 21.92 18.078 21.585 18.023 21.319 17.916C 21.052 17.808 20.84 17.665 20.682 17.488C 20.523 17.31 20.412 17.109 20.348 16.882C 20.283 16.656 20.251 16.425 20.251 16.188C 20.251 15.997 20.262 15.82 20.285 15.658C 20.308 15.497 20.341 15.321 20.387 15.133L 21.436 15.133L 21.436 15.567C 21.436 15.807 21.45 16.019 21.481 16.204C 21.511 16.388 21.559 16.544 21.626 16.67C 21.695 16.797 21.784 16.894 21.898 16.959C 22.012 17.022 22.15 17.054 22.313 17.054C 22.57 17.054 22.768 16.983 22.903 16.844C 23.039 16.702 23.106 16.496 23.106 16.225C 23.106 16.085 23.098 15.957 23.078 15.841C 23.058 15.724 23.026 15.608 22.979 15.494C 22.932 15.379 22.868 15.258 22.788 15.131C 22.708 15.004 22.605 14.862 22.48 14.706L 21.07 13.03C 20.82 12.709 20.627 12.386 20.491 12.062C 20.356 11.736 20.287 11.388 20.287 11.02C 20.287 10.724 20.333 10.453 20.426 10.206C 20.519 9.958 20.652 9.745 20.825 9.566C 20.999 9.387 21.214 9.247 21.47 9.149C 21.726 9.048 22.016 9 22.34 9C 22.733 9 23.06 9.055 23.323 9.167C 23.586 9.278 23.795 9.424 23.951 9.605C 24.109 9.786 24.219 9.988 24.283 10.214C 24.349 10.437 24.38 10.663 24.38 10.889C 24.38 11.081 24.365 11.258 24.336 11.419C 24.307 11.582 24.273 11.759 24.234 11.954L 23.19 11.954L 23.19 11.531C 23.19 11.059 23.123 10.695 22.987 10.443C 22.852 10.191 22.63 10.065 22.323 10.065C 22.07 10.065 21.88 10.134 21.755 10.276C 21.63 10.417 21.567 10.606 21.567 10.842C 21.567 10.967 21.575 11.081 21.595 11.182C 21.615 11.283 21.643 11.376 21.679 11.46C 21.715 11.546 21.759 11.628 21.812 11.709C 21.863 11.789 21.923 11.873 21.988 11.96L 23.562 13.86C 23.846 14.232 24.066 14.589 24.219 14.933C 24.371 15.275 24.448 15.638 24.448 16.021C 24.448 16.337 24.399 16.623 24.299 16.877L 24.299 16.877ZM 18.9009 17.994L 17.6369 17.994L 17.6369 15.044C 17.6369 14.592 17.6419 14.157 17.6499 13.74C 17.6589 13.322 17.6709 12.939 17.6839 12.588C 17.6969 12.239 17.7139 11.93 17.7319 11.662C 17.7479 11.394 17.7649 11.182 17.7779 11.025L 17.6789 11.025L 16.3319 16.846L 15.4759 16.846L 14.1179 11.025L 14.0199 11.025C 14.0329 11.182 14.0499 11.394 14.0669 11.662C 14.0829 11.93 14.0999 12.239 14.1129 12.588C 14.1269 12.939 14.1389 13.322 14.1479 13.74C 14.1559 14.157 14.1599 14.592 14.1599 15.044L 14.1599 17.994L 12.8979 17.994L 12.8979 9.078L 14.6609 9.078L 15.5179 12.528C 15.6079 12.912 15.6799 13.276 15.7319 13.622C 15.7839 13.968 15.8349 14.295 15.8829 14.601L 15.9249 14.601C 15.9729 14.295 16.0249 13.968 16.0759 13.622C 16.1279 13.276 16.1999 12.912 16.2899 12.528L 17.1729 9.078L 18.9009 9.078L 18.9009 17.994ZM 11.4401 16.877C 11.3391 17.131 11.1971 17.347 11.0141 17.524C 10.8301 17.702 10.6071 17.838 10.3461 17.934C 10.0841 18.03 9.79011 18.078 9.46311 18.078C 9.05911 18.078 8.72511 18.023 8.45811 17.916C 8.19311 17.808 7.98011 17.665 7.82011 17.488C 7.66311 17.31 7.55211 17.109 7.48711 16.882C 7.42311 16.656 7.39111 16.425 7.39111 16.188C 7.39111 15.997 7.40311 15.82 7.42411 15.658C 7.44711 15.497 7.48111 15.321 7.52711 15.133L 8.57511 15.133L 8.57511 15.567C 8.57511 15.807 8.59011 16.019 8.62011 16.204C 8.65011 16.388 8.69811 16.544 8.76711 16.67C 8.83411 16.797 8.92511 16.894 9.03811 16.959C 9.15211 17.022 9.28911 17.054 9.45311 17.054C 9.71111 17.054 9.90711 16.983 10.0431 16.844C 10.1791 16.702 10.2461 16.496 10.2461 16.225C 10.2461 16.085 10.2361 15.957 10.2181 15.841C 10.1981 15.724 10.1661 15.608 10.1181 15.494C 10.0721 15.379 10.0071 15.258 9.92811 15.131C 9.84911 15.004 9.74511 14.862 9.62011 14.706L 8.21011 13.03C 7.96011 12.709 7.76711 12.386 7.63111 12.062C 7.49511 11.736 7.42711 11.388 7.42711 11.02C 7.42711 10.724 7.47311 10.453 7.56711 10.206C 7.65811 9.958 7.79211 9.745 7.96511 9.566C 8.13911 9.387 8.35411 9.247 8.61111 9.149C 8.86511 9.048 9.15511 9 9.47911 9C 9.87111 9 10.2001 9.055 10.4621 9.167C 10.7261 9.278 10.9361 9.424 11.0921 9.605C 11.2481 9.786 11.3601 9.988 11.4231 10.214C 11.4871 10.437 11.5201 10.663 11.5201 10.889C 11.5201 11.081 11.5051 11.258 11.4751 11.419C 11.4451 11.582 11.4121 11.759 11.3741 11.954L 10.3301 11.954L 10.3301 11.531C 10.3301 11.059 10.2621 10.695 10.1261 10.443C 9.99011 10.191 9.76911 10.065 9.46311 10.065C 9.20911 10.065 9.02011 10.134 8.89511 10.276C 8.76911 10.417 8.70611 10.606 8.70611 10.842C 8.70611 10.967 8.71611 11.081 8.73611 11.182C 8.75411 11.283 8.78111 11.376 8.82011 11.46C 8.85511 11.546 8.90011 11.628 8.95111 11.709C 9.00411 11.789 9.06411 11.873 9.12911 11.96L 10.7001 13.86C 10.9861 14.232 11.2061 14.589 11.3591 14.933C 11.5111 15.275 11.5881 15.638 11.5881 16.021C 11.5881 16.337 11.5381 16.623 11.4401 16.877L 11.4401 16.877ZM 15.677 0C 7.019 0 0 6.083 0 13.586C 0 17.8 2.214 21.567 5.69 24.059L 5.69 30.156L 11.798 26.753C 13.039 27.027 14.338 27.172 15.677 27.172C 24.335 27.172 31.354 21.089 31.354 13.586C 31.354 6.083 24.335 0 15.677 0L 15.677 0Z"/></defs></svg>