<svg width="55" height="55" viewBox="0 0 55 55" version="1.1" xmlns="http://www.w3.org/2000/svg" xmlns:xlink="http://www.w3.org/1999/xlink">
<g id="Canvas" transform="translate(-5154 0)">
<g id="share twitter">
<g id="Oval Copy">
<mask id="mask0_outline_ins">
<use xlink:href="#path0_fill" fill="white" transform="translate(5154 0)"/>
</mask>
<g mask="url(#mask0_outline_ins)">
<use xlink:href="#path1_stroke_2x" transform="translate(5154 0)" fill="#FF2C5E"/>
</g>
</g>
<g id="Shape">
<use xlink:href="#path2_fill" transform="translate(5169 17)" fill="#FF2C5E"/>
</g>
</g>
</g>
<defs>
<path id="path0_fill" fill-rule="evenodd" d="M 27.5 55C 42.6878 55 55 42.6878 55 27.5C 55 12.3122 42.6878 0 27.5 0C 12.3122 0 0 12.3122 0 27.5C 0 42.6878 12.3122 55 27.5 55Z"/>
<path id="path1_stroke_2x" d="M 27.5 56C 43.2401 56 56 43.2401 56 27.5L 54 27.5C 54 42.1355 42.1355 54 27.5 54L 27.5 56ZM 56 27.5C 56 11.7599 43.2401 -1 27.5 -1L 27.5 1C 42.1355 1 54 12.8645 54 27.5L 56 27.5ZM 27.5 -1C 11.7599 -1 -1 11.7599 -1 27.5L 1 27.5C 1 12.8645 12.8645 1 27.5 1L 27.5 -1ZM -1 27.5C -1 43.2401 11.7599 56 27.5 56L 27.5 54C 12.8645 54 1 42.1355 1 27.5L -1 27.5Z"/>
<path id="path2_fill" d="M 8.17669 22C 17.9885 22 23.3542 13.5368 23.3542 6.19789C 23.3542 5.95751 23.3495 5.71822 23.3391 5.48C 24.3807 4.69606 25.286 3.71776 26 2.60409C 25.0442 3.04641 24.0157 3.34418 22.9367 3.47844C 24.038 2.79087 24.8835 1.7032 25.2824 0.406589C 24.2517 1.04273 23.1104 1.50509 21.8951 1.75471C 20.9217 0.675196 19.5359 0 18.0014 0C 15.0555 0 12.6667 2.48722 12.6667 5.55308C 12.6667 5.9889 12.7135 6.41282 12.805 6.81945C 8.37158 6.58719 4.44031 4.37719 1.80929 1.01675C 1.35117 1.8375 1.08701 2.79089 1.08701 3.80818C 1.08701 5.73503 2.02876 7.43606 3.46083 8.43118C 2.58566 8.40303 1.76353 8.1529 1.04496 7.73656C 1.04417 7.75987 1.04417 7.78258 1.04417 7.80749C 1.04417 10.4972 2.88291 12.7429 5.32373 13.2517C 4.87549 13.379 4.40389 13.4472 3.91713 13.4472C 3.57394 13.4472 3.23957 13.412 2.91458 13.347C 3.59369 15.5538 5.56296 17.1596 7.8977 17.2045C 6.07196 18.6944 3.77204 19.5818 1.27241 19.5818C 0.842371 19.5818 0.417539 19.5563 0 19.5049C 2.36082 21.0804 5.16407 21.9996 8.17697 21.9996"/>
</defs>
</svg>
