<svg class="logo-letters-svg" width="90px" height="19px" viewBox="0 0 90 19" version="1.1" xmlns="http://www.w3.org/2000/svg"
xmlns:xlink="http://www.w3.org/1999/xlink">
	<title>Live-Ask</title>
	<defs></defs>
	<g id="Symbols" stroke="none" stroke-width="1" fill="none" fill-rule="evenodd">
		<g id="Logo" transform="translate(-61.000000, -6.000000)" fill="#000000">
			<path d="M64.6992188,21.6328125 L72.4453125,21.6328125 L72.4453125,24 L61.734375,24 L61.734375,6.9375 L64.6992188,6.9375 L64.6992188,21.6328125 Z M77.2497991,24 L74.4021429,24 L74.4021429,11.3203125 L77.2497991,11.3203125 L77.2497991,24 Z M74.2263616,8.02734375 C74.2263616,7.58984156 74.3650321,7.22656395 74.6423773,6.9375 C74.9197224,6.64843605 75.3162028,6.50390625 75.8318304,6.50390625 C76.347458,6.50390625 76.7458915,6.64843605 77.0271429,6.9375 C77.3083943,7.22656395 77.4490179,7.58984156 77.4490179,8.02734375 C77.4490179,8.4570334 77.3083943,8.8144517 77.0271429,9.09960938 C76.7458915,9.38476705 76.347458,9.52734375 75.8318304,9.52734375 C75.3162028,9.52734375 74.9197224,9.38476705 74.6423773,9.09960938 C74.3650321,8.8144517 74.2263616,8.4570334 74.2263616,8.02734375 Z M84.5972545,20.390625 L87.2808483,11.3203125 L90.2222545,11.3203125 L85.8277233,24 L83.355067,24 L78.9253795,11.3203125 L81.8785045,11.3203125 L84.5972545,20.390625 Z M97.2064286,24.234375 C96.268924,24.234375 95.4251824,24.0781266 94.6751786,23.765625 C93.9251749,23.4531234 93.2884625,23.0234402 92.7650224,22.4765625 C92.2415823,21.9296848 91.8392426,21.2812537 91.5579911,20.53125 C91.2767397,19.7812463 91.1361161,18.9726606 91.1361161,18.1054688 L91.1361161,17.6367188 C91.1361161,16.6367137 91.2845522,15.7324259 91.5814286,14.9238281 C91.8783051,14.1152303 92.2845511,13.4277372 92.8001786,12.8613281 C93.3158062,12.294919 93.923222,11.8574234 94.6224443,11.5488281 C95.3216665,11.2402328 96.0736121,11.0859375 96.8783036,11.0859375 C97.8001833,11.0859375 98.6009565,11.2402328 99.2806474,11.5488281 C99.9603383,11.8574234 100.522833,12.2890597 100.968147,12.84375 C101.413462,13.3984403 101.74549,14.0585899 101.964241,14.8242188 C102.182992,15.5898476 102.292366,16.4296829 102.292366,17.34375 L102.292366,18.5625 L94.0072099,18.5625 C94.0462726,19.05469 94.1497872,19.5078104 94.3177568,19.921875 C94.4857264,20.3359396 94.7142397,20.6933579 95.0033036,20.9941406 C95.2923676,21.2949234 95.634161,21.5312491 96.0286943,21.703125 C96.4232275,21.8750009 96.8704886,21.9609375 97.3704911,21.9609375 C98.0736197,21.9609375 98.6849417,21.8203139 99.2044755,21.5390625 C99.7240094,21.2578111 100.175177,20.8710962 100.557991,20.3789062 L102.093147,21.84375 C101.890021,22.148439 101.638071,22.4433579 101.337288,22.7285156 C101.036505,23.0136733 100.684946,23.267577 100.282601,23.4902344 C99.8802548,23.7128917 99.4251812,23.8925774 98.9173661,24.0292969 C98.4095511,24.1660163 97.8392443,24.234375 97.2064286,24.234375 Z M96.8665849,13.3710938 C96.085331,13.3710938 95.4544779,13.6445285 94.9740068,14.1914062 C94.4935356,14.738284 94.1868981,15.4999951 94.0540849,16.4765625 L99.4798661,16.4765625 L99.4798661,16.265625 C99.4564285,15.8906231 99.3958823,15.5292986 99.2982255,15.1816406 C99.2005688,14.8339826 99.0501797,14.525392 98.8470536,14.2558594 C98.6439276,13.9863268 98.3802584,13.7714852 98.056038,13.6113281 C97.7318177,13.4511711 97.3353372,13.3710938 96.8665849,13.3710938 Z M109.803884,17.8945312 L103.65154,17.8945312 L103.65154,15.5976562 L109.803884,15.5976562 L109.803884,17.8945312 Z M121.756808,20.0273438 L115.147433,20.0273438 L113.764621,24 L110.682589,24 L117.127902,6.9375 L119.788058,6.9375 L126.245089,24 L123.151339,24 L121.756808,20.0273438 Z M115.979464,17.6367188 L120.924777,17.6367188 L118.452121,10.5585938 L115.979464,17.6367188 Z M134.787857,20.5546875 C134.787857,20.3515615 134.754655,20.1621103 134.688248,19.9863281 C134.621841,19.810546 134.490983,19.6464851 134.29567,19.4941406 C134.100356,19.3417961 133.824968,19.1992194 133.469498,19.0664062 C133.114027,18.9335931 132.651141,18.8085943 132.080826,18.6914062 C131.401135,18.5507805 130.782001,18.3750011 130.223404,18.1640625 C129.664808,17.9531239 129.186297,17.6972671 128.787857,17.3964844 C128.389418,17.0957016 128.078874,16.7421895 127.856217,16.3359375 C127.633559,15.9296855 127.522232,15.4609402 127.522232,14.9296875 C127.522232,14.4140599 127.635512,13.9238304 127.862076,13.4589844 C128.08864,12.9941383 128.414808,12.5859393 128.840592,12.234375 C129.266375,11.8828107 129.781995,11.6035167 130.387467,11.3964844 C130.992938,11.1894521 131.670666,11.0859375 132.42067,11.0859375 C133.209736,11.0859375 133.918714,11.1894521 134.547623,11.3964844 C135.176532,11.6035167 135.70973,11.8886701 136.147232,12.2519531 C136.584734,12.6152362 136.918716,13.0429663 137.149185,13.5351562 C137.379655,14.0273462 137.494889,14.5585909 137.494889,15.1289062 L134.647232,15.1289062 C134.647232,14.8867175 134.600358,14.6503918 134.506607,14.4199219 C134.412857,14.189452 134.272233,13.9843759 134.084732,13.8046875 C133.897231,13.6249991 133.664812,13.4824224 133.387467,13.3769531 C133.110122,13.2714838 132.787859,13.21875 132.42067,13.21875 C132.061293,13.21875 131.748796,13.2636714 131.48317,13.3535156 C131.217543,13.4433598 130.996843,13.5605462 130.82106,13.7050781 C130.645278,13.8496101 130.51442,14.0175772 130.428482,14.2089844 C130.342544,14.4003916 130.299576,14.6015614 130.299576,14.8125 C130.299576,15.0234386 130.338638,15.2109367 130.416764,15.375 C130.494889,15.5390633 130.633559,15.6874993 130.832779,15.8203125 C131.031999,15.9531257 131.299574,16.0761713 131.635514,16.1894531 C131.971453,16.3027349 132.393324,16.414062 132.901139,16.5234375 C133.635517,16.6796883 134.293714,16.8632802 134.875748,17.0742188 C135.457782,17.2851573 135.949965,17.5429672 136.35231,17.8476562 C136.754656,18.1523453 137.061294,18.5117167 137.272232,18.9257812 C137.483171,19.3398458 137.588639,19.8320284 137.588639,20.4023438 C137.588639,20.9648466 137.467546,21.4804664 137.225357,21.9492188 C136.983169,22.4179711 136.637469,22.8222639 136.188248,23.1621094 C135.739027,23.5019548 135.198017,23.7656241 134.565201,23.953125 C133.932385,24.1406259 133.229267,24.234375 132.455826,24.234375 C131.588634,24.234375 130.821064,24.1113294 130.153092,23.8652344 C129.48512,23.6191394 128.924578,23.296877 128.471451,22.8984375 C128.018324,22.499998 127.67653,22.0488306 127.44606,21.5449219 C127.215591,21.0410131 127.100357,20.5273464 127.100357,20.0039062 L129.865982,20.0039062 C129.88942,20.3945332 129.979263,20.7226549 130.135514,20.9882812 C130.291764,21.2539076 130.490981,21.4687492 130.73317,21.6328125 C130.975359,21.7968758 131.248793,21.9160153 131.553482,21.9902344 C131.858171,22.0644535 132.170668,22.1015625 132.490982,22.1015625 C133.240986,22.1015625 133.811293,21.9589858 134.20192,21.6738281 C134.592547,21.3886704 134.787857,21.0156273 134.787857,20.5546875 Z M143.963438,18.5625 L142.697813,19.8632812 L142.697813,24 L139.850156,24 L139.850156,6 L142.697813,6 L142.697813,16.3828125 L143.588438,15.2695312 L147.092344,11.3203125 L150.514219,11.3203125 L145.803281,16.6054688 L151.018125,24 L147.725156,24 L143.963438,18.5625 Z"></path>
		</g>
	</g>
</svg>