<svg width="39" height="45" viewBox="0 0 39 45" fill="none" xmlns="http://www.w3.org/2000/svg">
<path d="M1.66636 10.2545C1.66636 5.51142 5.51142 1.66636 10.2545 1.66636H28.7127C33.4559 1.66636 37.3009 5.51142 37.3009 10.2545V22.56C37.3009 27.3031 33.4558 31.1482 28.7127 31.1482H26.9922C24.7914 31.1482 22.6734 31.9874 21.0698 33.4947L16.3687 37.9137C14.9655 39.2327 12.6604 38.322 12.5377 36.4001L12.3674 33.7318C12.2747 32.279 11.0693 31.1482 9.61364 31.1482C5.22448 31.1482 1.66636 27.5901 1.66636 23.2009V10.2545Z" fill="white" stroke="#282828" stroke-width="3.33273"/>
<path d="M23.0255 9.74226C23.0255 9.7422 23.0254 9.74214 23.0253 9.74214C21.8102 9.72875 20.6294 10.1307 19.677 10.8781C19.5779 10.9559 19.4376 10.9559 19.3384 10.8781C18.386 10.1307 17.2051 9.72875 15.99 9.74214C12.7656 9.74214 10.2546 12.4249 10.2546 15.8536C10.2546 19.282 12.7718 21.4296 16.2449 24.355L16.8247 24.852L18.0991 25.9415C18.0991 25.9416 18.0992 25.9416 18.0993 25.9416C18.0994 25.9416 18.0995 25.9416 18.0996 25.9417C18.501 26.2736 19.0059 26.454 19.5268 26.4514C20.069 26.4491 20.5928 26.2551 21.0053 25.9035C21.6426 25.3618 22.2289 24.852 22.7959 24.3803L22.9933 24.2147C23.981 23.3672 24.8414 22.6407 25.6061 21.9015C27.1802 20.3977 28.7924 18.505 28.7924 15.8538C28.7736 12.4255 26.25 9.74246 23.0256 9.74239C23.0255 9.74239 23.0254 9.74233 23.0255 9.74226Z" fill="black"/>
</svg>
