<svg width="152" height="175" viewBox="0 0 152 175" fill="none" xmlns="http://www.w3.org/2000/svg">
<path d="M6.5 40C6.5 21.4985 21.4985 6.5 40 6.5H112C130.502 6.5 145.5 21.4985 145.5 40V88C145.5 106.502 130.502 121.5 112 121.5H105.289C96.7039 121.5 88.4423 124.773 82.1872 130.653L63.8496 147.89C58.3761 153.036 49.3845 149.483 48.906 141.986L48.2416 131.578C47.8799 125.911 43.1783 121.5 37.5 121.5C20.3792 121.5 6.5 107.621 6.5 90.5V40Z" fill="white" stroke="#282828" stroke-width="13"/>
<path d="M89.8152 38.0017C89.8153 38.0015 89.8151 38.0013 89.8148 38.0013C85.0751 37.949 80.4688 39.517 76.754 42.4323C76.3672 42.7358 75.8199 42.7358 75.4332 42.4323C71.7182 39.517 67.1118 37.949 62.3719 38.0013C49.7945 38.0013 40 48.4659 40 61.8402C40 75.2133 49.8186 83.5905 63.3662 95.0017L65.6278 96.9403L70.5989 101.19C70.5991 101.19 70.5995 101.191 70.5999 101.191C70.6002 101.191 70.6006 101.191 70.6008 101.191C72.1666 102.486 74.1361 103.189 76.1679 103.179C78.2831 103.17 80.3261 102.413 81.9352 101.042C84.421 98.929 86.7082 96.9402 88.9198 95.1005L89.6899 94.4546C93.5427 91.1487 96.8986 88.3147 99.8815 85.4315C106.022 79.5656 112.31 72.1825 112.31 61.8411C112.237 48.4682 102.393 38.0025 89.8157 38.0022C89.8154 38.0022 89.8152 38.002 89.8152 38.0017Z" fill="black"/>
</svg>
