<svg width="152" height="175" viewBox="0 0 152 175" fill="none" xmlns="http://www.w3.org/2000/svg">
<path d="M6.5 40C6.5 21.4985 21.4985 6.5 40 6.5H112C130.502 6.5 145.5 21.4985 145.5 40V88C145.5 106.502 130.502 121.5 112 121.5H105.289C96.7039 121.5 88.4423 124.773 82.1872 130.653L63.8496 147.89C58.3761 153.036 49.3845 149.483 48.906 141.986L48.2416 131.578C47.8799 125.911 43.1783 121.5 37.5 121.5C20.3792 121.5 6.5 107.621 6.5 90.5V40Z" fill="white" stroke="#282828" stroke-width="13"/>
<path d="M75.8007 34C56.6359 34 41 48.5174 41 66.3149C41.0766 75.6711 45.3136 84.5076 52.5589 90.4268L54.1991 91.8184L49.9489 100.544C49.5771 101.288 49.6959 102.183 50.2474 102.806C50.8211 103.412 51.7011 103.617 52.4846 103.328L67.3992 97.7853L68.1693 97.934C70.7028 98.4722 73.2863 98.7396 75.8751 98.7297C95.04 98.7297 110.676 84.2122 110.676 66.4147C110.676 48.6161 94.9655 34.0004 75.8013 34.0004L75.8007 34ZM57.0575 71.2865C55.7391 71.2865 54.4752 70.7627 53.543 69.8305C52.6097 68.8984 52.086 67.6333 52.086 66.3149C52.086 64.9966 52.6098 63.7315 53.543 62.7994C54.4752 61.8672 55.7392 61.3434 57.0575 61.3434C58.3769 61.3434 59.6409 61.8672 60.573 62.7994C61.5052 63.7315 62.029 64.9966 62.029 66.3149C62.0556 67.651 61.5441 68.9405 60.6086 69.895C59.6742 70.8494 58.3936 71.3865 57.0575 71.3865V71.2865ZM75.8007 71.2865C74.4824 71.2865 73.2173 70.7627 72.2851 69.8305C71.353 68.8984 70.8292 67.6333 70.8292 66.3149C70.8292 64.9966 71.353 63.7315 72.2851 62.7994C73.2173 61.8672 74.4824 61.3434 75.8007 61.3434C77.119 61.3434 78.3841 61.8672 79.3163 62.7994C80.2484 63.7315 80.7722 64.9966 80.7722 66.3149C80.7989 67.651 80.2873 68.9405 79.3518 69.895C78.4163 70.8494 77.1368 71.3865 75.8007 71.3865V71.2865ZM94.5439 71.2865C93.2245 71.2865 91.9605 70.7627 91.0283 69.8305C90.0962 68.8984 89.5724 67.6333 89.5724 66.3149C89.5724 64.9966 90.0962 63.7315 91.0283 62.7994C91.9605 61.8672 93.2245 61.3434 94.5439 61.3434C95.8623 61.3434 97.1262 61.8672 98.0584 62.7994C98.9916 63.7315 99.5154 64.9966 99.5154 66.3149C99.5421 67.651 99.0294 68.9405 98.095 69.895C97.1595 70.8494 95.8789 71.3865 94.5439 71.3865L94.5439 71.2865Z" fill="black"/>
</svg>
