<svg width="39" height="45" viewBox="0 0 39 45" fill="none" xmlns="http://www.w3.org/2000/svg">
<path d="M1.68272 10.2545C1.68272 5.51142 5.52778 1.66636 10.2709 1.66636H28.7291C33.4722 1.66636 37.3173 5.51142 37.3173 10.2545V22.56C37.3173 27.3031 33.4722 31.1482 28.7291 31.1482H27.0085C24.8077 31.1482 22.6897 31.9874 21.0862 33.4947L16.3851 37.9137C14.9819 39.2327 12.6767 38.322 12.5541 36.4001L12.3837 33.7318C12.291 32.279 11.0857 31.1482 9.62999 31.1482C5.24084 31.1482 1.68272 27.5901 1.68272 23.2009V10.2545Z" fill="white" stroke="#282828" stroke-width="3.33273"/>
<path d="M19.4489 8.71636C14.5357 8.71636 10.5272 12.4381 10.5272 17.0007C10.5469 19.3993 11.6331 21.6647 13.4905 23.1822L13.911 23.5389L12.8214 25.7759C12.7261 25.9665 12.7565 26.1961 12.8979 26.3557C13.045 26.511 13.2706 26.5636 13.4714 26.4896L17.295 25.0686L17.4924 25.1067C18.1419 25.2447 18.8042 25.3133 19.4679 25.3107C24.3811 25.3107 28.3896 21.589 28.3896 17.0263C28.3896 12.4634 24.362 8.71646 19.449 8.71646L19.4489 8.71636ZM14.6438 18.2753C14.3058 18.2753 13.9818 18.141 13.7428 17.902C13.5035 17.663 13.3693 17.3387 13.3693 17.0007C13.3693 16.6628 13.5035 16.3384 13.7428 16.0995C13.9818 15.8605 14.3058 15.7262 14.6438 15.7262C14.982 15.7262 15.3061 15.8605 15.545 16.0995C15.784 16.3384 15.9183 16.6628 15.9183 17.0007C15.9251 17.3433 15.794 17.6738 15.5541 17.9185C15.3146 18.1632 14.9863 18.3009 14.6438 18.3009V18.2753ZM19.4489 18.2753C19.1109 18.2753 18.7866 18.141 18.5476 17.902C18.3086 17.663 18.1743 17.3387 18.1743 17.0007C18.1743 16.6628 18.3086 16.3384 18.5476 16.0995C18.7866 15.8605 19.1109 15.7262 19.4489 15.7262C19.7868 15.7262 20.1112 15.8605 20.3501 16.0995C20.5891 16.3384 20.7234 16.6628 20.7234 17.0007C20.7302 17.3433 20.5991 17.6738 20.3592 17.9185C20.1194 18.1632 19.7914 18.3009 19.4489 18.3009V18.2753ZM24.2539 18.2753C23.9157 18.2753 23.5916 18.141 23.3527 17.902C23.1137 17.663 22.9794 17.3387 22.9794 17.0007C22.9794 16.6628 23.1137 16.3384 23.3527 16.0995C23.5916 15.8605 23.9157 15.7262 24.2539 15.7262C24.5919 15.7262 24.9159 15.8605 25.1549 16.0995C25.3942 16.3384 25.5284 16.6628 25.5284 17.0007C25.5353 17.3433 25.4038 17.6738 25.1643 17.9185C24.9245 18.1632 24.5962 18.3009 24.2539 18.3009L24.2539 18.2753Z" fill="black"/>
</svg>
