<?xml version="1.0" encoding="UTF-8"?>
<svg width="700pt" height="700pt" version="1.1" viewBox="0 0 700 700" xmlns="http://www.w3.org/2000/svg" xmlns:xlink="http://www.w3.org/1999/xlink">
 <g>
  <path d="m510.82 217.7c-43.75-50.926-100.8-78.75-160.82-78.75s-116.73 27.914-160.82 78.75c-3.3438 3.8633-5.1836 8.8047-5.1836 13.914s1.8398 10.047 5.1836 13.91c43.75 50.926 100.8 78.75 160.82 78.75s116.73-27.914 160.82-78.75c3.3438-3.8633 5.1836-8.8008 5.1836-13.91s-1.8398-10.051-5.1836-13.914zm-160.82 56.262c-11.23 0-22.004-4.4609-29.945-12.402-7.9414-7.9414-12.406-18.715-12.406-29.945 0-11.234 4.4648-22.004 12.406-29.945 7.9414-7.9453 18.715-12.406 29.945-12.406s22.004 4.4609 29.945 12.406c7.9414 7.9414 12.406 18.711 12.406 29.945 0 11.23-4.4648 22.004-12.406 29.945-7.9414 7.9414-18.715 12.402-29.945 12.402z"/>
  <path d="m271.25 556.32c-7.9766-0.007813-15.879-1.5547-23.273-4.5508-11.285-4.6328-20.926-12.531-27.691-22.68s-10.348-22.086-10.285-34.281v-35h-5.9492c-31.988 0.11719-62.707-12.492-85.387-35.043-22.684-22.551-35.469-53.195-35.539-85.184v-215.51c0.023438-31.91 12.703-62.508 35.258-85.078 22.555-22.57 53.145-35.273 85.055-35.32h292.95c31.949 0.023438 62.582 12.723 85.172 35.316 22.59 22.59 35.293 53.223 35.316 85.172v215.42c-0.023438 31.941-12.727 62.566-35.32 85.141-22.594 22.578-53.227 35.262-85.168 35.262h-105.79l-75.602 77.613c-11.465 11.883-27.238 18.633-43.75 18.723zm-67.812-508.9c-20.305 0.046875-39.766 8.1406-54.117 22.508-14.352 14.367-22.422 33.836-22.445 54.141v215.51c0.023438 20.34 8.1172 39.836 22.508 54.207 14.387 14.371 33.895 22.445 54.23 22.445h27.824c5.8008 0 11.367 2.3047 15.469 6.4062 4.1016 4.1016 6.4062 9.668 6.4062 15.469v56.699c-0.039062 3.5352 0.99219 7 2.9609 9.9336 1.9688 2.9375 4.7812 5.207 8.0625 6.5156 3.2422 1.4062 6.8281 1.8008 10.297 1.1289s6.6484-2.375 9.1289-4.8906l81.898-84.262h0.003906c4.0977-4.2578 9.7539-6.6602 15.66-6.6523h115.06c20.336 0 39.844-8.0703 54.23-22.445 14.391-14.371 22.484-33.867 22.508-54.203v-215.77c0-20.355-8.0859-39.871-22.477-54.262-14.391-14.391-33.91-22.477-54.262-22.477z"/>
 </g>
</svg>
