<svg width="152" height="175" viewBox="0 0 152 175" fill="none" xmlns="http://www.w3.org/2000/svg">
<path d="M6.5 40C6.5 21.4985 21.4985 6.5 40 6.5H112C130.502 6.5 145.5 21.4985 145.5 40V88C145.5 106.502 130.502 121.5 112 121.5H105.289C96.7039 121.5 88.4423 124.773 82.1872 130.653L63.8496 147.89C58.3761 153.036 49.3845 149.483 48.906 141.986L48.2416 131.578C47.8799 125.911 43.1783 121.5 37.5 121.5C20.3792 121.5 6.5 107.621 6.5 90.5V40Z" fill="white" stroke="#282828" stroke-width="13"/>
<path d="M121.846 60.3719C109.418 45.9044 93.2104 38 76.1595 38C59.1086 38 42.998 45.93 30.4726 60.3719C29.5227 61.4694 29 62.8732 29 64.3247C29 65.7762 29.5227 67.1789 30.4726 68.2763C42.9014 82.7438 59.1086 90.6482 76.1595 90.6482C93.2104 90.6482 109.321 82.7182 121.846 68.2763C122.796 67.1788 123.319 65.7761 123.319 64.3247C123.319 62.8732 122.796 61.4693 121.846 60.3719ZM76.1595 76.3552C72.9692 76.3552 69.9085 75.0879 67.6525 72.8319C65.3965 70.5759 64.1281 67.5153 64.1281 64.325C64.1281 61.1335 65.3965 58.0739 67.6525 55.818C69.9086 53.5608 72.9692 52.2936 76.1595 52.2936C79.3498 52.2936 82.4106 53.5609 84.6665 55.818C86.9226 58.074 88.1909 61.1335 88.1909 64.325C88.1909 67.5153 86.9225 70.576 84.6665 72.8319C82.4105 75.088 79.3498 76.3552 76.1595 76.3552Z" fill="black"/>
</svg>
