<svg width="39" height="45" viewBox="0 0 39 45" fill="none" xmlns="http://www.w3.org/2000/svg">
<path d="M1.69908 10.2545C1.69908 5.51142 5.54414 1.66636 10.2873 1.66636H28.7454C33.4886 1.66636 37.3336 5.51142 37.3336 10.2545V22.56C37.3336 27.3031 33.4886 31.1482 28.7454 31.1482H27.0249C24.8241 31.1482 22.7061 31.9874 21.1025 33.4947L16.4014 37.9137C14.9982 39.2327 12.6931 38.322 12.5704 36.4001L12.4001 33.7318C12.3074 32.279 11.1021 31.1482 9.64635 31.1482C5.25719 31.1482 1.69908 27.5901 1.69908 23.2009V10.2545Z" fill="white" stroke="#282828" stroke-width="3.33273"/>
<path d="M31.2697 15.4772C28.0834 11.7682 23.9285 9.74182 19.5573 9.74182C15.186 9.74182 11.0559 11.7748 7.8448 15.4772C7.60128 15.7585 7.46729 16.1184 7.46729 16.4905C7.46729 16.8626 7.60128 17.2222 7.8448 17.5036C11.0311 21.2125 15.186 23.2389 19.5573 23.2389C23.9285 23.2389 28.0587 21.2059 31.2697 17.5036C31.5133 17.2222 31.6473 16.8626 31.6473 16.4905C31.6473 16.1184 31.5133 15.7585 31.2697 15.4772ZM19.5573 19.5747C18.7394 19.5747 17.9547 19.2498 17.3764 18.6715C16.798 18.0931 16.4729 17.3085 16.4729 16.4906C16.4729 15.6724 16.798 14.888 17.3764 14.3097C17.9548 13.731 18.7394 13.4062 19.5573 13.4062C20.3751 13.4062 21.1598 13.7311 21.7382 14.3097C22.3165 14.8881 22.6417 15.6724 22.6417 16.4906C22.6417 17.3085 22.3165 18.0931 21.7382 18.6715C21.1598 19.2498 20.3751 19.5747 19.5573 19.5747Z" fill="black"/>
</svg>
