<svg width="114" height="16" viewBox="0 0 114 16" fill="none" xmlns="http://www.w3.org/2000/svg">
<g clip-path="url(#clip0_2110_1270)">
<path d="M80.7853 10.7221V9.99847H79.4925C78.5943 9.99847 78.2451 10.1477 78.2451 10.7575C78.2451 11.2331 78.5563 11.4077 79.1964 11.4077C79.9934 11.4077 80.5677 11.1243 80.7853 10.7398V10.7221ZM83.0295 7.91876V12.9637H81.0054L80.8157 12.187C80.5323 12.6525 79.8036 13.1003 78.5589 13.1003C76.9674 13.1003 76.0667 12.3818 76.0667 10.841C76.0667 9.14331 77.0788 8.5285 79.1028 8.5285H80.7929V8.48549C80.7929 7.61515 80.5399 7.38238 79.3103 7.38238C78.6942 7.38201 78.0788 7.42343 77.4684 7.50636V5.61892C78.174 5.53929 78.8835 5.49875 79.5936 5.49748C82.0832 5.49748 83.0092 6.30458 83.0092 7.91876H83.0295ZM37.4883 8.46525L36.3877 4.8852H36.2232L35.0948 8.46525H37.4883ZM38.1436 10.5728H34.4471L33.6881 12.9511H31.2264L34.7229 2.64609H37.9209L41.3896 12.9511H38.8748L38.1436 10.5728ZM72.7346 9.30776C72.7346 8.02755 72.5449 7.14203 71.3482 7.14203C70.1514 7.14203 69.8655 7.91876 69.8655 9.32294C69.8655 10.6411 70.1489 11.4583 71.3482 11.4583C72.5474 11.4583 72.7346 10.5045 72.7346 9.30776ZM75.0345 9.30776C75.0345 11.4431 74.488 13.1029 72.1375 13.1029C70.7511 13.1029 70.2046 12.6829 69.9339 12.0276L69.7972 12.9612H67.7276V2.62332H69.987V6.36276C70.2982 5.92759 70.8852 5.48989 72.1375 5.48989C74.4905 5.48989 75.0345 6.92696 75.0345 9.28499V9.30776ZM63.596 10.7373V10.0136H62.3158C61.4177 10.0136 61.0685 10.1629 61.0685 10.7727C61.0685 11.2458 61.3797 11.4229 62.0223 11.4229C62.8066 11.4229 63.3785 11.1395 63.596 10.755V10.7373ZM65.8402 7.93394V12.9789H63.8162L63.6264 12.2022C63.3405 12.6677 62.6144 13.1155 61.3671 13.1155C59.7756 13.1155 58.8749 12.397 58.8749 10.8562C58.8749 9.15849 59.887 8.54368 61.911 8.54368H63.596V8.50067C63.596 7.63033 63.343 7.39756 62.1134 7.39756C61.4981 7.39554 60.8835 7.43697 60.2741 7.52154V5.6341C60.9797 5.55441 61.6892 5.51387 62.3993 5.51266C64.9066 5.51266 65.8301 6.31976 65.8301 7.93394H65.8402ZM55.5302 9.30776C55.5302 8.04273 55.3404 7.14455 54.1437 7.14455C52.947 7.14455 52.6586 7.92129 52.6586 9.30776C52.6586 10.6285 52.9445 11.4457 54.1412 11.4457C55.3379 11.4457 55.5327 10.4918 55.5327 9.29258L55.5302 9.30776ZM57.83 9.30776C57.83 11.4457 57.2835 13.118 54.9331 13.118C53.5466 13.118 53.0001 12.6955 52.7294 12.0428L52.5928 12.9764H50.5257V2.62586H52.7825V6.36529C53.0937 5.93265 53.6807 5.49495 54.9331 5.49495C57.286 5.49495 57.83 6.92444 57.83 9.29005V9.30776ZM46.4877 5.63917H48.7471V12.9764H46.4877V5.63917ZM46.3789 3.56957C46.3789 2.50695 46.5965 2.42598 47.6263 2.42598C48.656 2.42598 48.8736 2.50695 48.8736 3.56957C48.8736 4.6322 48.6686 4.73846 47.6263 4.73846C46.5839 4.73846 46.3815 4.60184 46.3815 3.55439L46.3789 3.56957ZM42.4624 2.6385H44.7395V12.9764H42.4624V2.6385ZM113.281 6.14771C113.696 6.64173 113.906 7.27519 113.868 7.91876V12.9688H112.7V8.31598C112.737 7.8476 112.628 7.37921 112.388 6.97504C112.256 6.81529 112.086 6.69112 111.893 6.61381C111.7 6.53649 111.491 6.50847 111.285 6.53228C110.867 6.51652 110.452 6.61259 110.083 6.81059C109.724 7.04277 109.469 7.40573 109.373 7.82262V12.9688H108.204V8.31598C108.237 7.84761 108.135 7.37943 107.91 6.96745C107.787 6.81581 107.628 6.69694 107.448 6.62146C107.268 6.54597 107.072 6.51621 106.878 6.53481C106.454 6.51281 106.031 6.60637 105.656 6.80552C105.289 7.05596 105.026 7.43215 104.917 7.86309V12.9688H103.761V5.63158H104.93V6.59806C105.105 6.22227 105.406 5.91908 105.78 5.74037C106.179 5.56638 106.61 5.4801 107.045 5.48736C108.133 5.48736 108.846 5.88964 109.183 6.68661C109.545 5.88964 110.309 5.48736 111.46 5.48736C112.272 5.48736 112.882 5.70495 113.271 6.13506L113.281 6.14771ZM99.8544 11.7543C100.171 11.5688 100.402 11.2662 100.497 10.9118C100.641 10.3674 100.704 9.80476 100.684 9.24198C100.703 8.67845 100.635 8.11541 100.484 7.57213C100.384 7.21352 100.148 6.90791 99.8266 6.7195C99.4392 6.53026 99.0098 6.44317 98.5793 6.4665C98.1429 6.44091 97.7072 6.52804 97.3142 6.7195C96.9986 6.90845 96.7683 7.21217 96.6716 7.56708C96.5243 8.11352 96.4595 8.67891 96.4793 9.24451C96.4585 9.80648 96.526 10.3682 96.6792 10.9093C96.7816 11.265 97.016 11.5682 97.3345 11.7569C97.7219 11.9461 98.1513 12.0332 98.5818 12.0099C99.0274 12.0385 99.4727 11.9513 99.8747 11.7569L99.8544 11.7543ZM96.7374 12.6373C96.2351 12.3972 95.8381 11.9814 95.6216 11.4684C95.1104 10.029 95.1104 8.45747 95.6216 7.01805C95.8381 6.50512 96.2351 6.08928 96.7374 5.84916C97.3178 5.59747 97.947 5.4782 98.5793 5.50001C99.2125 5.47601 99.843 5.59536 100.424 5.84916C100.919 6.09437 101.311 6.50906 101.527 7.01805C102.034 8.45817 102.034 10.0283 101.527 11.4684C101.311 11.9774 100.919 12.3921 100.424 12.6373C99.8435 12.8926 99.2126 13.012 98.5793 12.9865C97.9472 13.0035 97.3195 12.8781 96.7424 12.6196L96.7374 12.6373ZM90.0985 12.6373C89.5966 12.3958 89.1993 11.9805 88.9802 11.4684C88.4731 10.0283 88.4731 8.45817 88.9802 7.01805C89.1993 6.50598 89.5966 6.0907 90.0985 5.84916C90.6789 5.59747 91.3081 5.4782 91.9404 5.50001C92.579 5.48771 93.2154 5.57827 93.8253 5.7682V6.82577C93.2263 6.60874 92.5926 6.50326 91.9555 6.51457C91.5196 6.49482 91.0854 6.58166 90.6905 6.76757C90.3706 6.95346 90.1356 7.25652 90.0352 7.61262C89.8824 8.15204 89.815 8.71206 89.8354 9.27234C89.8148 9.82763 89.8822 10.3827 90.0352 10.9169C90.1367 11.2686 90.3719 11.5665 90.6905 11.7468C91.0928 11.9281 91.5326 12.0105 91.9733 11.9871C92.6107 12.005 93.2457 11.8993 93.843 11.6759V12.7335C93.5634 12.8218 93.2763 12.8844 92.9853 12.9207C92.6352 12.9732 92.2817 13.0002 91.9277 13.0017C91.3 13.0211 90.6759 12.9001 90.101 12.6475L90.0985 12.6373ZM85.6279 12.9207C85.5647 12.903 85.5065 12.871 85.4578 12.8271C85.409 12.7832 85.3711 12.7287 85.347 12.6677C85.282 12.4714 85.257 12.2641 85.2736 12.0579C85.2562 11.9314 85.2643 11.8027 85.2973 11.6793C85.3303 11.5559 85.3876 11.4403 85.4659 11.3394C85.6903 11.2308 85.9364 11.1744 86.1857 11.1744C86.435 11.1744 86.6811 11.2308 86.9055 11.3394C86.9838 11.4403 87.0412 11.5559 87.0742 11.6793C87.1072 11.8027 87.1152 11.9314 87.0978 12.0579C87.1169 12.1881 87.1098 12.3207 87.0768 12.4481C87.0437 12.5754 86.9855 12.6948 86.9055 12.7993C86.694 12.9399 86.4393 13.0008 86.187 12.9713C85.999 12.9782 85.8111 12.9552 85.6304 12.903L85.6279 12.9207ZM18.4318 13.1737C17.1845 13.2294 17.3236 12.5867 18.0447 11.5949C19.7348 9.31788 22.9379 6.17048 23.0315 3.9339C23.244 1.02433 20.3041 0.0603683 17.2832 0.0881991C15.3151 0.167346 13.3721 0.559352 11.5273 1.2495C6.40135 3.05344 3.17804 5.94784 1.15399 9.1509C-0.996567 12.3261 -0.288148 15.3546 4.24573 15.4584C7.72204 15.3192 9.98139 14.3552 12.3419 13.1484C12.3419 13.1484 5.82703 15.0181 3.42599 13.6418C3.25984 13.5603 3.11809 13.4365 3.01503 13.2828C2.91198 13.1291 2.85127 12.951 2.83901 12.7664C2.83901 11.6329 4.70873 10.4564 5.76377 10.0794V8.1161C6.91983 8.56374 8.17486 8.69283 9.39783 8.48989C10.6208 8.28695 11.7669 7.75943 12.7164 6.96239C12.7627 7.14837 12.7764 7.34098 12.7569 7.53165H13.23C13.264 7.21413 13.1862 6.89469 13.0099 6.62842C12.8838 6.43007 12.7112 6.26552 12.5071 6.1491C12.3029 6.03269 12.0734 5.96794 11.8385 5.96048C12.1148 6.09375 12.3494 6.30028 12.5165 6.55758C11.7003 7.24153 10.7253 7.70933 9.68105 7.918C8.63681 8.12667 7.55688 8.06952 6.5405 7.75177L8.09903 6.21349L7.66891 5.0952C10.9126 3.89952 14.2597 3.00598 17.6677 2.42598L16.7114 1.64419L17.2174 1.33299C19.7905 2.04647 21.4881 2.58032 21.3844 3.94655C21.3321 4.21645 21.2471 4.47897 21.1314 4.72834C20.3724 6.21096 18.1535 8.68536 17.2528 9.7151C16.6767 10.3459 16.1433 11.0145 15.6563 11.7164C15.2518 12.2454 15.0076 12.8794 14.953 13.5431C15.0061 18.034 28.1903 11.4457 30.7381 9.69739C26.9733 11.2989 22.9126 12.8701 18.4343 13.1585L18.4318 13.1737Z" fill="white"/>
</g>
<defs>
<clipPath id="clip0_2110_1270">
<rect width="113.873" height="15.3727" fill="white" transform="translate(0 0.0704193)"/>
</clipPath>
</defs>
</svg>
