<svg width="99" height="25" viewBox="0 0 99 25" fill="none" xmlns="http://www.w3.org/2000/svg">
<path fill-rule="evenodd" clip-rule="evenodd" d="M18.608 1.41089C17.9045 1.76263 17.6927 2.74818 16.9892 2.32565C16.1447 1.90366 14.2449 1.34064 13.5408 1.19962C12.4851 0.988354 11.2185 0.918652 10.092 1.05914C6.92515 1.41088 4.32134 3.24095 2.56205 5.56272C0.450471 8.37779 0.239746 10.9114 0.239746 13.7264C0.239746 19.4976 5.09562 24.6344 10.2335 24.5642C14.3854 24.4945 18.3967 23.7905 20.2268 16.964L19.5935 16.6128C18.1157 22.1014 14.5966 23.9315 11.3596 23.369C4.04091 22.1014 4.39212 16.401 4.39212 11.8974C4.39212 7.81532 6.71442 1.97444 11.2185 1.97444C14.1039 1.97444 15.9334 2.25595 18.8187 9.15262L19.3115 9.29364L18.608 1.41089ZM39.7907 13.164C40.3538 11.8267 40.7055 10.5602 43.1688 10.4894C46.0542 10.4191 46.4767 13.4455 46.4767 15.134V20.0601C46.4064 21.8902 46.688 23.1561 44.5764 23.3685L44.6466 23.8602H51.8248V23.4382C49.784 22.8049 49.5025 21.9609 49.5727 20.0601V14.5715C49.5727 13.3044 49.2912 12.1784 48.5175 10.9119C47.673 9.71563 45.9137 9.43412 44.8579 9.43412C43.1688 9.43412 40.7763 10.0674 39.6503 11.2636C39.6503 11.2636 39.5092 10.2079 38.7355 9.43412C38.7355 9.2931 34.3016 10.2084 34.3016 10.2084V10.7012C36.2019 10.7012 36.5537 12.5307 36.6942 14.009V20.0612C36.6942 21.68 36.6239 22.9465 34.7242 23.51V23.8613H42.0428L42.1131 23.4393C40.424 23.0173 39.7907 22.6655 39.7907 20.0612V13.164Z" fill="white"/>
<path fill-rule="evenodd" clip-rule="evenodd" d="M28.3204 21.1861C28.2501 22.1717 27.8978 23.0162 25.857 23.2977C24.5197 23.509 23.042 22.3829 23.042 20.9749C23.042 18.5823 26.3498 16.7528 28.5311 16.4L28.3204 21.1861ZM27.9681 15.416C26.0678 17.2461 20.1561 15.6975 20.0156 20.7641C20.0156 22.8049 21.9862 24.1422 24.168 24.1422C25.9975 24.1422 27.264 23.791 28.6721 22.7347C28.7424 23.8607 31.2051 24.4243 32.4722 24.3535C33.8095 24.213 34.0905 23.791 35.0052 22.8762L34.5832 22.243C34.2315 22.665 33.6685 23.4387 32.4722 23.1567C31.5574 23.0162 31.5574 21.2569 31.5574 20.5534V13.8675C31.5574 12.6712 31.5574 11.4749 30.4314 10.5602C29.3756 9.78588 27.8276 9.57461 26.5605 9.57461C24.5197 9.57461 20.6489 9.85612 20.6489 12.2487C20.6489 13.0932 21.0714 13.6562 21.9159 13.6562C22.9717 13.6562 23.3235 12.9527 23.605 12.0379C23.9567 10.7709 24.59 10.2781 26.1386 10.2781C27.9681 10.2781 28.2496 12.3194 28.2496 13.7264C28.2496 14.29 28.3901 14.29 27.9681 15.416ZM77.7231 19.4268C77.2314 22.7341 75.5418 23.3685 74.2753 23.3685C70.6859 23.3685 69.5599 19.0048 69.5599 16.6123C69.5599 14.2895 70.8264 10.2781 73.8527 10.2781C75.1192 10.2781 77.2308 10.9114 77.7225 14.5007V19.4268H77.7231ZM77.6534 10.9119C76.3858 9.85612 74.8377 9.36389 73.0784 9.36389C70.8972 9.36389 66.2526 10.9827 66.1818 16.8938C66.111 20.8355 69.2076 24.1428 73.36 24.1428C74.9788 24.1428 76.6673 23.7208 77.8641 22.5947L78.2153 24.1428L83.1414 23.5095L82.9301 23.1572C80.8196 22.8763 80.8893 20.9759 80.8196 19.8499V1.05914L74.9782 1.19963V1.62216C77.1595 1.76264 77.6523 3.0297 77.6523 5.77453V10.9119H77.6534Z" fill="white"/>
<path fill-rule="evenodd" clip-rule="evenodd" d="M93.9804 1.41089H96.9359V8.23731H93.9804V1.41089ZM82.5088 1.41089H85.4649V8.23731H82.5088V1.41089Z" fill="white"/>
<path fill-rule="evenodd" clip-rule="evenodd" d="M60.4116 21.1861C60.3409 22.1717 59.9897 23.0162 57.9483 23.2977C56.6807 23.509 55.1327 22.3829 55.1327 20.9748C55.1327 18.5823 58.44 16.7528 60.6224 16.3999L60.4116 21.1861ZM60.0588 15.416C58.159 17.2461 52.2474 15.6975 52.1766 20.7641C52.1069 22.8049 54.0775 24.1422 56.2587 24.1422C58.0888 24.1422 59.3548 23.791 60.7629 22.7347C60.9044 23.8607 63.2964 24.4243 64.5629 24.3535C65.9002 24.213 66.1817 23.791 67.0965 22.8762L66.6745 22.243C66.3222 22.665 65.7597 23.4387 64.5629 23.1567C63.6482 23.0162 63.6482 21.2569 63.6482 20.5534V13.8675C63.6482 12.6712 63.6482 11.4749 62.5221 10.5601C61.4669 9.78586 59.9189 9.5746 58.6513 9.5746C56.6116 9.5746 52.8109 9.85611 52.8109 12.2487C52.8109 13.0932 53.1621 13.6562 54.0067 13.6562C55.1327 13.6562 55.485 12.9527 55.6963 12.0379C56.0475 10.7709 56.6807 10.2781 58.2293 10.2781C60.0594 10.2781 60.3409 12.3194 60.3409 13.7264C60.3409 14.29 60.4808 14.29 60.0588 15.416ZM91.7281 21.1861C91.6574 22.1717 91.2354 23.0162 89.2648 23.2977C87.9275 23.509 86.4503 22.3829 86.4503 20.9748C86.4503 18.5823 89.7576 16.7528 91.9389 16.3999L91.7281 21.1861ZM91.3764 15.416C89.4755 17.2461 83.5639 15.6975 83.4234 20.7641C83.4234 22.8049 85.3934 24.1422 87.5055 24.1422C89.4053 24.1422 90.6016 23.791 92.0097 22.7347C92.1501 23.8607 94.6129 24.4243 95.8805 24.3535C97.147 24.213 97.4982 23.791 98.4135 22.8762L97.9916 22.243C97.6403 22.665 97.0768 23.4387 95.8811 23.1567C94.9663 23.0162 94.8955 21.2569 94.8955 20.5534V13.8675C94.8955 12.6712 94.8955 11.4749 93.8403 10.5601C92.7839 9.78586 91.2359 9.5746 89.8986 9.5746C87.9286 9.5746 84.0572 9.85611 84.0572 12.2487C84.0572 13.0932 84.4084 13.6562 85.254 13.6562C86.38 13.6562 86.7313 12.9527 87.0133 12.0379C87.3645 10.7709 87.9988 10.2781 89.4766 10.2781C91.3067 10.2781 91.6579 12.3194 91.6579 13.7264C91.6574 14.29 91.7984 14.29 91.3764 15.416Z" fill="white"/>
<path fill-rule="evenodd" clip-rule="evenodd" d="M89.546 8.58906L89.6136 6.9681L89.5568 6.91082L87.6457 7.25231L87.7165 6.47802V6.40778V6.33754L86.2393 5.00024L86.731 4.71874H86.8017V4.6485L86.5202 3.59271L87.5766 3.87421H87.6463V3.80397L87.9278 3.3112L88.6318 4.29621C88.7026 4.36645 88.6318 4.36645 88.7026 4.36645V4.29621L88.3503 2.32565L89.0543 2.81843H89.1251V2.74818L89.6168 1.41089L90.1096 2.74818C90.1804 2.81843 90.1096 2.81843 90.1804 2.81843H90.2511L90.9552 2.32565L90.5321 4.29621C90.5321 4.36645 90.5321 4.36645 90.6029 4.36645H90.6737L91.3777 3.31066L91.589 3.80343C91.589 3.87368 91.589 3.87367 91.6587 3.87367L92.715 3.59217L92.5037 4.64796V4.78844L92.9954 4.9997L91.5884 6.337C91.5884 6.40725 91.5884 6.40724 91.5177 6.40724V6.47748L91.5884 7.25176L89.6876 6.90002V8.58906H89.546Z" fill="white"/>
</svg>
