<svg width="78" height="35" viewBox="0 0 78 35" fill="none" xmlns="http://www.w3.org/2000/svg">
<g clip-path="url(#clip0_2110_1271)">
<mask id="mask0_2110_1271" style="mask-type:luminance" maskUnits="userSpaceOnUse" x="0" y="0" width="78" height="35">
<path d="M0.239746 34.9532H77.8492V0.225777H0.239746V34.9532Z" fill="white"/>
</mask>
<g mask="url(#mask0_2110_1271)">
<path d="M3.08398 4.09949H5.73681V22.2172H14.4193V24.4185H3.08398V4.09949Z" fill="white"/>
<path d="M17.0097 21.2236C18.1859 21.9769 19.8737 22.5486 21.6826 22.5486C24.3656 22.5486 25.9336 21.1325 25.9336 19.0833C25.9336 17.2137 24.848 16.0983 22.105 15.073C18.7888 13.8673 16.7382 12.1186 16.7382 9.28471C16.7382 6.11953 19.3607 3.76782 23.3099 3.76782C25.3604 3.76782 26.8976 4.25003 27.7721 4.76221L27.0485 6.90344C26.4156 6.51138 25.0595 5.9386 23.2194 5.9386C20.4465 5.9386 19.3911 7.59614 19.3911 8.98344C19.3911 10.8831 20.6275 11.8172 23.4315 12.9023C26.8676 14.2293 28.5864 15.8865 28.5864 18.8713C28.5864 22.0071 26.2946 24.7502 21.5017 24.7502C19.5417 24.7502 17.4019 24.1462 16.3169 23.4237L17.0097 21.2236Z" fill="white"/>
<path d="M31.3711 12.9408V12.1896L32.3298 11.2583C34.6389 9.06051 35.6958 7.8932 35.6958 6.5306C35.6958 5.61263 35.2642 4.76496 33.9154 4.76496C33.0951 4.76496 32.413 5.18172 31.9964 5.52923L31.6065 4.66721C32.2196 4.15355 33.1234 3.74946 34.152 3.74946C36.0986 3.74946 36.9197 5.08545 36.9197 6.37859C36.9197 8.04711 35.7099 9.39408 33.8043 11.2304L33.0951 11.8974V11.925H37.1416V12.9408H31.3711Z" fill="white"/>
<path d="M31.3711 12.9408V12.1896L32.3298 11.2583C34.6389 9.06051 35.6958 7.8932 35.6958 6.5306C35.6958 5.61263 35.2642 4.76496 33.9154 4.76496C33.0951 4.76496 32.413 5.18172 31.9964 5.52923L31.6065 4.66721C32.2196 4.15355 33.1234 3.74946 34.152 3.74946C36.0986 3.74946 36.9197 5.08545 36.9197 6.37859C36.9197 8.04711 35.7099 9.39408 33.8043 11.2304L33.0951 11.8974V11.925H37.1416V12.9408H31.3711Z" stroke="white" stroke-width="0.422249" stroke-miterlimit="10"/>
<path d="M2.98584 28.2728H3.6052V32.5291H5.63645V33.0466H2.98584V28.2728Z" fill="white"/>
<path d="M6.30118 33.0466V29.6194H6.92028V33.0466H6.30118ZM6.99162 28.656C6.99162 28.8676 6.84332 29.0373 6.5974 29.0373C6.37076 29.0373 6.22314 28.8676 6.22314 28.656C6.22314 28.4423 6.37885 28.2648 6.61117 28.2648C6.836 28.2648 6.99162 28.4343 6.99162 28.656Z" fill="white"/>
<path d="M8.01495 33.0466V30.0936H7.54199V29.6194H8.01495V29.4553C8.01495 28.9731 8.12613 28.5342 8.40876 28.2583C8.64132 28.0305 8.95142 27.9397 9.23965 27.9397C9.46686 27.9397 9.64952 27.9892 9.76953 28.0393L9.68457 28.5199C9.59319 28.4782 9.47328 28.4423 9.28939 28.4423C8.76157 28.4423 8.62772 28.9024 8.62772 29.4349V29.6194H9.45216V30.0936H8.62772V33.0466H8.01495Z" fill="white"/>
<path d="M12.0829 30.9993C12.0902 30.6096 11.92 29.9941 11.2231 29.9941C10.5891 29.9941 10.3209 30.568 10.2704 30.9993H12.0829ZM10.2647 31.4459C10.2776 32.289 10.8064 32.6351 11.4347 32.6351C11.8792 32.6351 12.153 32.5581 12.3791 32.4586L12.492 32.9057C12.2727 33.0037 11.8914 33.1251 11.3497 33.1251C10.2993 33.1251 9.67188 32.4236 9.67188 31.3899C9.67188 30.3549 10.2776 29.5467 11.2718 29.5467C12.3928 29.5467 12.6823 30.5249 12.6823 31.1541C12.6823 31.2827 12.6748 31.3755 12.6604 31.4459H10.2647Z" fill="white"/>
<path d="M14.8903 32.2965C15.1656 32.4728 15.5597 32.6079 15.9832 32.6079C16.6099 32.6079 16.9777 32.2743 16.9777 31.7938C16.9777 31.3529 16.7233 31.0916 16.0815 30.8509C15.3061 30.568 14.8268 30.1563 14.8268 29.4906C14.8268 28.7474 15.4405 28.1945 16.3636 28.1945C16.8435 28.1945 17.2036 28.3085 17.4066 28.428L17.2378 28.9317C17.0905 28.8385 16.7724 28.7037 16.3427 28.7037C15.6934 28.7037 15.4479 29.0933 15.4479 29.4203C15.4479 29.866 15.7372 30.0857 16.3918 30.3406C17.1961 30.6527 17.5967 31.0419 17.5967 31.7437C17.5967 32.4795 17.0616 33.1251 15.9409 33.1251C15.4823 33.1251 14.9824 32.983 14.7275 32.8126L14.8903 32.2965Z" fill="white"/>
<path d="M20.8976 32.9262C20.7368 33.0037 20.3771 33.1251 19.9171 33.1251C18.8889 33.1251 18.2192 32.4236 18.2192 31.3755C18.2192 30.3195 18.938 29.5467 20.0509 29.5467C20.4187 29.5467 20.7435 29.6397 20.9123 29.731L20.7713 30.2055C20.6233 30.1284 20.3903 30.0438 20.0509 30.0438C19.2706 30.0438 18.8475 30.6319 18.8475 31.3399C18.8475 32.1335 19.354 32.6222 20.031 32.6222C20.3835 32.6222 20.616 32.5371 20.7921 32.4586L20.8976 32.9262Z" fill="white"/>
<path d="M21.6258 33.0466V29.6194H22.2449V33.0466H21.6258ZM22.3158 28.656C22.3158 28.8676 22.1676 29.0373 21.9218 29.0373C21.6959 29.0373 21.5469 28.8676 21.5469 28.656C21.5469 28.4423 21.7025 28.2648 21.9358 28.2648C22.1612 28.2648 22.3158 28.4343 22.3158 28.656Z" fill="white"/>
<path d="M25.4406 30.9993C25.4477 30.6096 25.2776 29.9941 24.5798 29.9941C23.9449 29.9941 23.6774 30.568 23.6285 30.9993H25.4406ZM23.6213 31.4459C23.6354 32.289 24.1637 32.6351 24.7911 32.6351C25.236 32.6351 25.5109 32.5581 25.7368 32.4586L25.8493 32.9057C25.6301 33.0037 25.2497 33.1251 24.706 33.1251C23.6565 33.1251 23.0293 32.4236 23.0293 31.3899C23.0293 30.3549 23.6354 29.5467 24.629 29.5467C25.7498 29.5467 26.0387 30.5249 26.0387 31.1541C26.0387 31.2827 26.0317 31.3755 26.0184 31.4459H23.6213Z" fill="white"/>
<path d="M26.8087 30.5468C26.8087 30.1841 26.8017 29.901 26.7812 29.6194H27.3308L27.3667 30.1841H27.3794C27.5497 29.866 27.9439 29.5467 28.5078 29.5467C28.981 29.5467 29.7136 29.8307 29.7136 31.0071V33.0466H29.0935V31.0707C29.0935 30.5179 28.8887 30.0583 28.3037 30.0583C27.9032 30.0583 27.5848 30.3482 27.4714 30.6942C27.4431 30.7727 27.4298 30.88 27.4298 30.9843V33.0466H26.8087V30.5468Z" fill="white"/>
<path d="M33.1551 32.9262C32.9932 33.0037 32.6336 33.1251 32.1751 33.1251C31.1465 33.1251 30.4766 32.4236 30.4766 31.3755C30.4766 30.3195 31.195 29.5467 32.3081 29.5467C32.6758 29.5467 32.9997 29.6397 33.1697 29.731L33.0282 30.2055C32.8808 30.1284 32.6469 30.0438 32.3081 30.0438C31.5263 30.0438 31.1034 30.6319 31.1034 31.3399C31.1034 32.1335 31.6109 32.6222 32.288 32.6222C32.6408 32.6222 32.873 32.5371 33.0487 32.4586L33.1551 32.9262Z" fill="white"/>
<path d="M36.0036 30.9993C36.0116 30.6096 35.8417 29.9941 35.1441 29.9941C34.5093 29.9941 34.2422 30.568 34.1926 30.9993H36.0036ZM34.1856 31.4459C34.1989 32.289 34.7282 32.6351 35.3555 32.6351C35.8003 32.6351 36.0754 32.5581 36.3007 32.4586L36.4136 32.9057C36.1938 33.0037 35.8127 33.1251 35.2708 33.1251C34.2202 33.1251 33.5928 32.4236 33.5928 31.3899C33.5928 30.3549 34.1989 29.5467 35.1931 29.5467C36.315 29.5467 36.603 30.5249 36.603 31.1541C36.603 31.2827 36.5958 31.3755 36.5823 31.4459H34.1856Z" fill="white"/>
<path d="M37.2888 32.417C37.479 32.5291 37.8035 32.6568 38.1134 32.6568C38.5568 32.6568 38.7689 32.4375 38.7689 32.1459C38.7689 31.85 38.5933 31.6943 38.1419 31.5241C37.5218 31.297 37.2326 30.9651 37.2326 30.5535C37.2326 30.0001 37.6831 29.5467 38.41 29.5467C38.7556 29.5467 39.0584 29.6397 39.2421 29.76L39.0937 30.2132C38.9598 30.1284 38.7126 30.0085 38.3953 30.0085C38.0298 30.0085 37.8322 30.2199 37.8322 30.4744C37.8322 30.7582 38.0298 30.8864 38.4734 31.063C39.0584 31.2827 39.3683 31.5803 39.3683 32.0904C39.3683 32.6988 38.8965 33.1251 38.1003 33.1251C37.7252 33.1251 37.38 33.0257 37.1416 32.8836L37.2888 32.417Z" fill="white"/>
<path d="M41.6047 32.2965C41.8791 32.4728 42.2754 32.6079 42.6979 32.6079C43.3249 32.6079 43.6916 32.2743 43.6916 31.7938C43.6916 31.3529 43.4372 31.0916 42.7952 30.8509C42.0208 30.568 41.5409 30.1563 41.5409 29.4906C41.5409 28.7474 42.1544 28.1945 43.0775 28.1945C43.5576 28.1945 43.9169 28.3085 44.1211 28.428L43.9526 28.9317C43.8048 28.8385 43.4866 28.7037 43.0572 28.7037C42.408 28.7037 42.1614 29.0933 42.1614 29.4203C42.1614 29.866 42.4513 30.0857 43.1066 30.3406C43.9093 30.6527 44.3119 31.0419 44.3119 31.7437C44.3119 32.4795 43.775 33.1251 42.6548 33.1251C42.1971 33.1251 41.6967 32.983 41.4419 32.8126L41.6047 32.2965Z" fill="white"/>
<path d="M45.3281 29.6194L45.7863 31.3607C45.8766 31.7437 45.9702 32.0982 46.0333 32.4518H46.054C46.1321 32.1047 46.2444 31.7359 46.3576 31.3691L46.9147 29.6194H47.4364L47.9647 31.3341C48.0918 31.7437 48.191 32.1047 48.2674 32.4518H48.2898C48.3449 32.1047 48.4369 31.7437 48.5497 31.3399L49.0365 29.6194H49.6499L48.5497 33.0466H47.9856L47.4651 31.4105C47.3442 31.0276 47.2456 30.6874 47.1607 30.284H47.1468C47.0627 30.6942 46.9572 31.0485 46.837 31.4185L46.2881 33.0466H45.7227L44.6943 29.6194H45.3281Z" fill="white"/>
<path d="M50.272 33.0466V29.6194H50.8921V33.0466H50.272ZM50.9633 28.656C50.9633 28.8676 50.8148 29.0373 50.5687 29.0373C50.3423 29.0373 50.1943 28.8676 50.1943 28.656C50.1943 28.4423 50.3493 28.2648 50.583 28.2648C50.8083 28.2648 50.9633 28.4343 50.9633 28.656Z" fill="white"/>
<path d="M52.6688 28.7953V29.6194H53.5579V30.0936H52.6688V31.9426C52.6688 32.367 52.7896 32.6079 53.1348 32.6079C53.3047 32.6079 53.4029 32.5935 53.4947 32.5646L53.5224 33.0403C53.4029 33.0818 53.2125 33.1251 52.9735 33.1251C52.6847 33.1251 52.4516 33.0257 52.3038 32.8625C52.1349 32.6714 52.0644 32.367 52.0644 31.9633V30.0936H51.5347V29.6194H52.0644V28.9814L52.6688 28.7953Z" fill="white"/>
<path d="M53.8691 32.6859L55.4053 30.6666C55.5607 30.4744 55.7015 30.3129 55.8577 30.1284V30.114H54.0098V29.6194H56.6051V30.0085L55.0821 31.9986C54.9338 32.1892 54.7998 32.367 54.6442 32.5371V32.5513H56.6326V33.0466H53.8691V32.6859Z" fill="white"/>
<path d="M59.389 30.9993C59.3968 30.6096 59.2277 29.9941 58.5303 29.9941C57.8955 29.9941 57.628 30.568 57.5782 30.9993H59.389ZM57.5702 31.4459C57.5854 32.289 58.1144 32.6351 58.7425 32.6351C59.1857 32.6351 59.4601 32.5581 59.6865 32.4586L59.799 32.9057C59.5803 33.0037 59.199 33.1251 58.6566 33.1251C57.6073 33.1251 56.979 32.4236 56.979 31.3899C56.979 30.3549 57.5854 29.5467 58.5798 29.5467C59.701 29.5467 59.9892 30.5249 59.9892 31.1541C59.9892 31.2827 59.9829 31.3755 59.9673 31.4459H57.5702Z" fill="white"/>
<path d="M60.7585 30.6874C60.7585 30.284 60.7519 29.9375 60.73 29.6194H61.2743L61.3007 30.2984H61.3232C61.4791 29.8385 61.8589 29.5467 62.2746 29.5467C62.3379 29.5467 62.3875 29.5545 62.4426 29.5632V30.1495C62.3799 30.1351 62.317 30.1351 62.2319 30.1351C61.7947 30.1351 61.485 30.4624 61.4003 30.9279C61.3868 31.0135 61.3786 31.1205 61.3786 31.2199V33.0466H60.7585V30.6874Z" fill="white"/>
<path d="M63.0933 33.0466H63.7135V28.0185H63.0933V33.0466Z" fill="white"/>
<path d="M66.555 31.297C65.8786 31.2827 65.1101 31.4026 65.1101 32.0692C65.1101 32.4795 65.3768 32.6638 65.6884 32.6638C66.1389 32.6638 66.4277 32.3802 66.5265 32.0904C66.5483 32.0194 66.555 31.9489 66.555 31.8915V31.297ZM67.1538 32.2246C67.1538 32.5232 67.1684 32.8126 67.2038 33.0466H66.6458L66.5971 32.6157H66.5759C66.3864 32.8836 66.0184 33.1251 65.5324 33.1251C64.8414 33.1251 64.4888 32.6351 64.4888 32.14C64.4888 31.3109 65.2222 30.8577 66.5409 30.8642V30.7938C66.5409 30.5179 66.4634 30.0001 65.7652 30.0085C65.4403 30.0085 65.1101 30.0997 64.8705 30.2633L64.7295 29.8451C65.0113 29.6673 65.4272 29.5467 65.8566 29.5467C66.9009 29.5467 67.1538 30.2633 67.1538 30.9423V32.2246Z" fill="white"/>
<path d="M68.1573 30.5468C68.1573 30.1841 68.1493 29.901 68.1284 29.6194H68.6782L68.7143 30.1841H68.7278C68.8969 29.866 69.2919 29.5467 69.856 29.5467C70.3288 29.5467 71.0618 29.8307 71.0618 31.0071V33.0466H70.4409V31.0707C70.4409 30.5179 70.2367 30.0583 69.6515 30.0583C69.2495 30.0583 68.9332 30.3482 68.8194 30.6942C68.7913 30.7727 68.7774 30.88 68.7774 30.9843V33.0466H68.1573V30.5468Z" fill="white"/>
<path d="M74.3975 31.0135C74.3975 30.9366 74.3904 30.8287 74.3703 30.7523C74.2782 30.3625 73.9398 30.0355 73.4739 30.0355C72.832 30.0355 72.452 30.603 72.452 31.3529C72.452 32.0486 72.7974 32.6222 73.4599 32.6222C73.8756 32.6222 74.2571 32.3387 74.3703 31.8788C74.3904 31.7938 74.3975 31.7085 74.3975 31.6077V31.0135ZM75.01 28.0185V32.1622C75.01 32.4651 75.0241 32.8126 75.0393 33.0466H74.4887L74.4609 32.4518H74.4406C74.2571 32.8333 73.8469 33.1251 73.2908 33.1251C72.4662 33.1251 71.8248 32.4236 71.8248 31.3819C71.8174 30.2407 72.5299 29.5467 73.3544 29.5467C73.8824 29.5467 74.2284 29.7955 74.383 30.0646H74.3975V28.0185H75.01Z" fill="white"/>
<path fill-rule="evenodd" clip-rule="evenodd" d="M52.5474 4.8625C52.5474 5.44267 53.0175 5.91306 53.5975 5.91306C54.1777 5.91306 54.6478 5.44267 54.6478 4.8625C54.6478 4.28233 54.1777 3.81194 53.5975 3.81194C53.0175 3.81194 52.5474 4.28233 52.5474 4.8625Z" fill="white"/>
<path fill-rule="evenodd" clip-rule="evenodd" d="M58.4961 4.8625C58.4961 5.44267 58.9665 5.91306 59.5469 5.91306C60.1275 5.91306 60.598 5.44267 60.598 4.8625C60.598 4.28233 60.1275 3.81194 59.5469 3.81194C58.9665 3.81194 58.4961 4.28233 58.4961 4.8625Z" fill="white"/>
<path fill-rule="evenodd" clip-rule="evenodd" d="M61.4712 4.8625C61.4712 5.44267 61.9418 5.91306 62.5224 5.91306C63.103 5.91306 63.5734 5.44267 63.5734 4.8625C63.5734 4.28233 63.103 3.81194 62.5224 3.81194C61.9418 3.81194 61.4712 4.28233 61.4712 4.8625Z" fill="white"/>
<path fill-rule="evenodd" clip-rule="evenodd" d="M46.5962 7.72682C46.5962 8.30721 47.0662 8.7778 47.6459 8.7778C48.2259 8.7778 48.6958 8.30721 48.6958 7.72682C48.6958 7.14665 48.2259 6.67627 47.6459 6.67627C47.0662 6.67627 46.5962 7.14665 46.5962 7.72682Z" fill="white"/>
<path fill-rule="evenodd" clip-rule="evenodd" d="M49.5718 7.72682C49.5718 8.30721 50.0422 8.7778 50.6221 8.7778C51.2021 8.7778 51.6723 8.30721 51.6723 7.72682C51.6723 7.14665 51.2021 6.67627 50.6221 6.67627C50.0422 6.67627 49.5718 7.14665 49.5718 7.72682Z" fill="white"/>
<path fill-rule="evenodd" clip-rule="evenodd" d="M52.5474 7.72682C52.5474 8.30721 53.0175 8.7778 53.5975 8.7778C54.1777 8.7778 54.6478 8.30721 54.6478 7.72682C54.6478 7.14665 54.1777 6.67627 53.5975 6.67627C53.0175 6.67627 52.5474 7.14665 52.5474 7.72682Z" fill="white"/>
<path fill-rule="evenodd" clip-rule="evenodd" d="M55.5205 7.72682C55.5205 8.30721 55.9909 8.7778 56.5713 8.7778C57.1517 8.7778 57.6223 8.30721 57.6223 7.72682C57.6223 7.14665 57.1517 6.67627 56.5713 6.67627C55.9909 6.67627 55.5205 7.14665 55.5205 7.72682Z" fill="white"/>
<path fill-rule="evenodd" clip-rule="evenodd" d="M58.4961 7.72682C58.4961 8.30721 58.9665 8.7778 59.5469 8.7778C60.1275 8.7778 60.598 8.30721 60.598 7.72682C60.598 7.14665 60.1275 6.67627 59.5469 6.67627C58.9665 6.67627 58.4961 7.14665 58.4961 7.72682Z" fill="white"/>
<path fill-rule="evenodd" clip-rule="evenodd" d="M61.4712 7.72682C61.4712 8.30721 61.9418 8.7778 62.5224 8.7778C63.103 8.7778 63.5734 8.30721 63.5734 7.72682C63.5734 7.14665 63.103 6.67627 62.5224 6.67627C61.9418 6.67627 61.4712 7.14665 61.4712 7.72682Z" fill="white"/>
<path fill-rule="evenodd" clip-rule="evenodd" d="M64.4453 7.72682C64.4453 8.30721 64.9163 8.7778 65.4973 8.7778C66.0782 8.7778 66.549 8.30721 66.549 7.72682C66.549 7.14665 66.0782 6.67627 65.4973 6.67627C64.9163 6.67627 64.4453 7.14665 64.4453 7.72682Z" fill="white"/>
<path fill-rule="evenodd" clip-rule="evenodd" d="M43.6216 13.5222C43.6216 14.1027 44.0918 14.5732 44.6717 14.5732C45.2517 14.5732 45.7218 14.1027 45.7218 13.5222C45.7218 12.9416 45.2517 12.4712 44.6717 12.4712C44.0918 12.4712 43.6216 12.9416 43.6216 13.5222Z" fill="white"/>
<path fill-rule="evenodd" clip-rule="evenodd" d="M46.5962 13.5222C46.5962 14.1027 47.0662 14.5732 47.6459 14.5732C48.2259 14.5732 48.6958 14.1027 48.6958 13.5222C48.6958 12.9416 48.2259 12.4712 47.6459 12.4712C47.0662 12.4712 46.5962 12.9416 46.5962 13.5222Z" fill="white"/>
<path fill-rule="evenodd" clip-rule="evenodd" d="M49.5718 13.5222C49.5718 14.1027 50.0422 14.5732 50.6221 14.5732C51.2021 14.5732 51.6723 14.1027 51.6723 13.5222C51.6723 12.9416 51.2021 12.4712 50.6221 12.4712C50.0422 12.4712 49.5718 12.9416 49.5718 13.5222Z" fill="white"/>
<path fill-rule="evenodd" clip-rule="evenodd" d="M52.5474 13.5222C52.5474 14.1027 53.0175 14.5732 53.5975 14.5732C54.1777 14.5732 54.6478 14.1027 54.6478 13.5222C54.6478 12.9416 54.1777 12.4712 53.5975 12.4712C53.0175 12.4712 52.5474 12.9416 52.5474 13.5222Z" fill="white"/>
<path fill-rule="evenodd" clip-rule="evenodd" d="M55.5205 13.5222C55.5205 14.1027 55.9909 14.5732 56.5713 14.5732C57.1517 14.5732 57.6223 14.1027 57.6223 13.5222C57.6223 12.9416 57.1517 12.4712 56.5713 12.4712C55.9909 12.4712 55.5205 12.9416 55.5205 13.5222Z" fill="white"/>
<path fill-rule="evenodd" clip-rule="evenodd" d="M58.4961 13.5222C58.4961 14.1027 58.9665 14.5732 59.5469 14.5732C60.1275 14.5732 60.598 14.1027 60.598 13.5222C60.598 12.9416 60.1275 12.4712 59.5469 12.4712C58.9665 12.4712 58.4961 12.9416 58.4961 13.5222Z" fill="white"/>
<path fill-rule="evenodd" clip-rule="evenodd" d="M61.4712 13.5222C61.4712 14.1027 61.9418 14.5732 62.5224 14.5732C63.103 14.5732 63.5734 14.1027 63.5734 13.5222C63.5734 12.9416 63.103 12.4712 62.5224 12.4712C61.9418 12.4712 61.4712 12.9416 61.4712 13.5222Z" fill="white"/>
<path fill-rule="evenodd" clip-rule="evenodd" d="M64.4453 13.5222C64.4453 14.1027 64.9163 14.5732 65.4973 14.5732C66.0782 14.5732 66.549 14.1027 66.549 13.5222C66.549 12.9416 66.0782 12.4712 65.4973 12.4712C64.9163 12.4712 64.4453 12.9416 64.4453 13.5222Z" fill="white"/>
<path fill-rule="evenodd" clip-rule="evenodd" d="M67.4204 13.5222C67.4204 14.1027 67.891 14.5732 68.4718 14.5732C69.0524 14.5732 69.5228 14.1027 69.5228 13.5222C69.5228 12.9416 69.0524 12.4712 68.4718 12.4712C67.891 12.4712 67.4204 12.9416 67.4204 13.5222Z" fill="white"/>
<path fill-rule="evenodd" clip-rule="evenodd" d="M70.396 13.5222C70.396 14.1027 70.8668 14.5732 71.4476 14.5732C72.0284 14.5732 72.4994 14.1027 72.4994 13.5222C72.4994 12.9416 72.0284 12.4712 71.4476 12.4712C70.8668 12.4712 70.396 12.9416 70.396 13.5222Z" fill="white"/>
<path fill-rule="evenodd" clip-rule="evenodd" d="M40.6465 16.3888C40.6465 16.9695 41.1169 17.44 41.6973 17.44C42.2776 17.44 42.7482 16.9695 42.7482 16.3888C42.7482 15.8082 42.2776 15.3377 41.6973 15.3377C41.1169 15.3377 40.6465 15.8082 40.6465 16.3888Z" fill="white"/>
<path fill-rule="evenodd" clip-rule="evenodd" d="M43.6216 16.3888C43.6216 16.9695 44.0918 17.44 44.6717 17.44C45.2517 17.44 45.7218 16.9695 45.7218 16.3888C45.7218 15.8082 45.2517 15.3377 44.6717 15.3377C44.0918 15.3377 43.6216 15.8082 43.6216 16.3888Z" fill="white"/>
<path fill-rule="evenodd" clip-rule="evenodd" d="M46.5962 16.3888C46.5962 16.9695 47.0662 17.44 47.6459 17.44C48.2259 17.44 48.6958 16.9695 48.6958 16.3888C48.6958 15.8082 48.2259 15.3377 47.6459 15.3377C47.0662 15.3377 46.5962 15.8082 46.5962 16.3888Z" fill="white"/>
<path fill-rule="evenodd" clip-rule="evenodd" d="M49.5718 16.3888C49.5718 16.9695 50.0422 17.44 50.6221 17.44C51.2021 17.44 51.6723 16.9695 51.6723 16.3888C51.6723 15.8082 51.2021 15.3377 50.6221 15.3377C50.0422 15.3377 49.5718 15.8082 49.5718 16.3888Z" fill="white"/>
<path fill-rule="evenodd" clip-rule="evenodd" d="M52.5474 16.3888C52.5474 16.9695 53.0175 17.44 53.5975 17.44C54.1777 17.44 54.6478 16.9695 54.6478 16.3888C54.6478 15.8082 54.1777 15.3377 53.5975 15.3377C53.0175 15.3377 52.5474 15.8082 52.5474 16.3888Z" fill="white"/>
<path fill-rule="evenodd" clip-rule="evenodd" d="M55.5205 16.3888C55.5205 16.9695 55.9909 17.44 56.5713 17.44C57.1517 17.44 57.6223 16.9695 57.6223 16.3888C57.6223 15.8082 57.1517 15.3377 56.5713 15.3377C55.9909 15.3377 55.5205 15.8082 55.5205 16.3888Z" fill="white"/>
<path fill-rule="evenodd" clip-rule="evenodd" d="M58.4961 16.3888C58.4961 16.9695 58.9665 17.44 59.5469 17.44C60.1275 17.44 60.598 16.9695 60.598 16.3888C60.598 15.8082 60.1275 15.3377 59.5469 15.3377C58.9665 15.3377 58.4961 15.8082 58.4961 16.3888Z" fill="white"/>
<path fill-rule="evenodd" clip-rule="evenodd" d="M61.4712 16.3888C61.4712 16.9695 61.9418 17.44 62.5224 17.44C63.103 17.44 63.5734 16.9695 63.5734 16.3888C63.5734 15.8082 63.103 15.3377 62.5224 15.3377C61.9418 15.3377 61.4712 15.8082 61.4712 16.3888Z" fill="white"/>
<path fill-rule="evenodd" clip-rule="evenodd" d="M64.4453 16.3888C64.4453 16.9695 64.9163 17.44 65.4973 17.44C66.0782 17.44 66.549 16.9695 66.549 16.3888C66.549 15.8082 66.0782 15.3377 65.4973 15.3377C64.9163 15.3377 64.4453 15.8082 64.4453 16.3888Z" fill="white"/>
<path fill-rule="evenodd" clip-rule="evenodd" d="M67.4204 16.3888C67.4204 16.9695 67.891 17.44 68.4718 17.44C69.0524 17.44 69.5228 16.9695 69.5228 16.3888C69.5228 15.8082 69.0524 15.3377 68.4718 15.3377C67.891 15.3377 67.4204 15.8082 67.4204 16.3888Z" fill="white"/>
<path fill-rule="evenodd" clip-rule="evenodd" d="M70.396 16.3888C70.396 16.9695 70.8668 17.44 71.4476 17.44C72.0284 17.44 72.4994 16.9695 72.4994 16.3888C72.4994 15.8082 72.0284 15.3377 71.4476 15.3377C70.8668 15.3377 70.396 15.8082 70.396 16.3888Z" fill="white"/>
<path fill-rule="evenodd" clip-rule="evenodd" d="M43.6216 10.5964C43.6216 11.1762 44.0918 11.6461 44.6717 11.6461C45.2517 11.6461 45.7218 11.1762 45.7218 10.5964C45.7218 10.0167 45.2517 9.54672 44.6717 9.54672C44.0918 9.54672 43.6216 10.0167 43.6216 10.5964Z" fill="white"/>
<path fill-rule="evenodd" clip-rule="evenodd" d="M46.5962 10.5964C46.5962 11.1762 47.0662 11.6461 47.6459 11.6461C48.2259 11.6461 48.6958 11.1762 48.6958 10.5964C48.6958 10.0167 48.2259 9.54672 47.6459 9.54672C47.0662 9.54672 46.5962 10.0167 46.5962 10.5964Z" fill="white"/>
<path fill-rule="evenodd" clip-rule="evenodd" d="M49.5718 10.5964C49.5718 11.1762 50.0422 11.6461 50.6221 11.6461C51.2021 11.6461 51.6723 11.1762 51.6723 10.5964C51.6723 10.0167 51.2021 9.54672 50.6221 9.54672C50.0422 9.54672 49.5718 10.0167 49.5718 10.5964Z" fill="white"/>
<path fill-rule="evenodd" clip-rule="evenodd" d="M52.5474 10.5964C52.5474 11.1762 53.0175 11.6461 53.5975 11.6461C54.1777 11.6461 54.6478 11.1762 54.6478 10.5964C54.6478 10.0167 54.1777 9.54672 53.5975 9.54672C53.0175 9.54672 52.5474 10.0167 52.5474 10.5964Z" fill="white"/>
<path fill-rule="evenodd" clip-rule="evenodd" d="M55.5205 10.5964C55.5205 11.1762 55.9909 11.6461 56.5713 11.6461C57.1517 11.6461 57.6223 11.1762 57.6223 10.5964C57.6223 10.0167 57.1517 9.54672 56.5713 9.54672C55.9909 9.54672 55.5205 10.0167 55.5205 10.5964Z" fill="white"/>
<path fill-rule="evenodd" clip-rule="evenodd" d="M58.4961 10.5964C58.4961 11.1762 58.9665 11.6461 59.5469 11.6461C60.1275 11.6461 60.598 11.1762 60.598 10.5964C60.598 10.0167 60.1275 9.54672 59.5469 9.54672C58.9665 9.54672 58.4961 10.0167 58.4961 10.5964Z" fill="white"/>
<path fill-rule="evenodd" clip-rule="evenodd" d="M61.4712 10.5964C61.4712 11.1762 61.9418 11.6461 62.5224 11.6461C63.103 11.6461 63.5734 11.1762 63.5734 10.5964C63.5734 10.0167 63.103 9.54672 62.5224 9.54672C61.9418 9.54672 61.4712 10.0167 61.4712 10.5964Z" fill="white"/>
<path fill-rule="evenodd" clip-rule="evenodd" d="M64.4453 10.5964C64.4453 11.1762 64.9163 11.6461 65.4973 11.6461C66.0782 11.6461 66.549 11.1762 66.549 10.5964C66.549 10.0167 66.0782 9.54672 65.4973 9.54672C64.9163 9.54672 64.4453 10.0167 64.4453 10.5964Z" fill="white"/>
<path fill-rule="evenodd" clip-rule="evenodd" d="M46.5962 22.0935C46.5962 22.6742 47.0662 23.1453 47.6459 23.1453C48.2259 23.1453 48.6958 22.6742 48.6958 22.0935C48.6958 21.5126 48.2259 21.0418 47.6459 21.0418C47.0662 21.0418 46.5962 21.5126 46.5962 22.0935Z" fill="white"/>
<path fill-rule="evenodd" clip-rule="evenodd" d="M49.5718 22.0935C49.5718 22.6742 50.0422 23.1453 50.6221 23.1453C51.2021 23.1453 51.6723 22.6742 51.6723 22.0935C51.6723 21.5126 51.2021 21.0418 50.6221 21.0418C50.0422 21.0418 49.5718 21.5126 49.5718 22.0935Z" fill="white"/>
<path fill-rule="evenodd" clip-rule="evenodd" d="M52.5474 22.0935C52.5474 22.6742 53.0175 23.1453 53.5975 23.1453C54.1777 23.1453 54.6478 22.6742 54.6478 22.0935C54.6478 21.5126 54.1777 21.0418 53.5975 21.0418C53.0175 21.0418 52.5474 21.5126 52.5474 22.0935Z" fill="white"/>
<path fill-rule="evenodd" clip-rule="evenodd" d="M58.4961 22.0935C58.4961 22.6742 58.9665 23.1453 59.5469 23.1453C60.1275 23.1453 60.598 22.6742 60.598 22.0935C60.598 21.5126 60.1275 21.0418 59.5469 21.0418C58.9665 21.0418 58.4961 21.5126 58.4961 22.0935Z" fill="white"/>
<path fill-rule="evenodd" clip-rule="evenodd" d="M61.4712 22.0935C61.4712 22.6742 61.9418 23.1453 62.5224 23.1453C63.103 23.1453 63.5734 22.6742 63.5734 22.0935C63.5734 21.5126 63.103 21.0418 62.5224 21.0418C61.9418 21.0418 61.4712 21.5126 61.4712 22.0935Z" fill="white"/>
<path fill-rule="evenodd" clip-rule="evenodd" d="M70.396 22.0935C70.396 22.6742 70.8668 23.1453 71.4476 23.1453C72.0284 23.1453 72.4994 22.6742 72.4994 22.0935C72.4994 21.5126 72.0284 21.0418 71.4476 21.0418C70.8668 21.0418 70.396 21.5126 70.396 22.0935Z" fill="white"/>
<path fill-rule="evenodd" clip-rule="evenodd" d="M52.5474 24.9603C52.5474 25.5409 53.0175 26.0119 53.5975 26.0119C54.1777 26.0119 54.6478 25.5409 54.6478 24.9603C54.6478 24.3795 54.1777 23.9087 53.5975 23.9087C53.0175 23.9087 52.5474 24.3795 52.5474 24.9603Z" fill="white"/>
<path fill-rule="evenodd" clip-rule="evenodd" d="M61.4712 24.9603C61.4712 25.5409 61.9418 26.0119 62.5224 26.0119C63.103 26.0119 63.5734 25.5409 63.5734 24.9603C63.5734 24.3795 63.103 23.9087 62.5224 23.9087C61.9418 23.9087 61.4712 24.3795 61.4712 24.9603Z" fill="white"/>
<path fill-rule="evenodd" clip-rule="evenodd" d="M40.6465 19.1681C40.6465 19.7484 41.1169 20.2189 41.6973 20.2189C42.2776 20.2189 42.7482 19.7484 42.7482 19.1681C42.7482 18.5876 42.2776 18.1171 41.6973 18.1171C41.1169 18.1171 40.6465 18.5876 40.6465 19.1681Z" fill="white"/>
<path fill-rule="evenodd" clip-rule="evenodd" d="M43.6216 19.1681C43.6216 19.7484 44.0918 20.2189 44.6717 20.2189C45.2517 20.2189 45.7218 19.7484 45.7218 19.1681C45.7218 18.5876 45.2517 18.1171 44.6717 18.1171C44.0918 18.1171 43.6216 18.5876 43.6216 19.1681Z" fill="white"/>
<path fill-rule="evenodd" clip-rule="evenodd" d="M46.5962 19.1681C46.5962 19.7484 47.0662 20.2189 47.6459 20.2189C48.2259 20.2189 48.6958 19.7484 48.6958 19.1681C48.6958 18.5876 48.2259 18.1171 47.6459 18.1171C47.0662 18.1171 46.5962 18.5876 46.5962 19.1681Z" fill="white"/>
<path fill-rule="evenodd" clip-rule="evenodd" d="M49.5718 19.1681C49.5718 19.7484 50.0422 20.2189 50.6221 20.2189C51.2021 20.2189 51.6723 19.7484 51.6723 19.1681C51.6723 18.5876 51.2021 18.1171 50.6221 18.1171C50.0422 18.1171 49.5718 18.5876 49.5718 19.1681Z" fill="white"/>
<path fill-rule="evenodd" clip-rule="evenodd" d="M52.5474 19.1681C52.5474 19.7484 53.0175 20.2189 53.5975 20.2189C54.1777 20.2189 54.6478 19.7484 54.6478 19.1681C54.6478 18.5876 54.1777 18.1171 53.5975 18.1171C53.0175 18.1171 52.5474 18.5876 52.5474 19.1681Z" fill="white"/>
<path fill-rule="evenodd" clip-rule="evenodd" d="M55.5205 19.1681C55.5205 19.7484 55.9909 20.2189 56.5713 20.2189C57.1517 20.2189 57.6223 19.7484 57.6223 19.1681C57.6223 18.5876 57.1517 18.1171 56.5713 18.1171C55.9909 18.1171 55.5205 18.5876 55.5205 19.1681Z" fill="white"/>
<path fill-rule="evenodd" clip-rule="evenodd" d="M58.4961 19.1681C58.4961 19.7484 58.9665 20.2189 59.5469 20.2189C60.1275 20.2189 60.598 19.7484 60.598 19.1681C60.598 18.5876 60.1275 18.1171 59.5469 18.1171C58.9665 18.1171 58.4961 18.5876 58.4961 19.1681Z" fill="white"/>
<path fill-rule="evenodd" clip-rule="evenodd" d="M61.4712 19.1681C61.4712 19.7484 61.9418 20.2189 62.5224 20.2189C63.103 20.2189 63.5734 19.7484 63.5734 19.1681C63.5734 18.5876 63.103 18.1171 62.5224 18.1171C61.9418 18.1171 61.4712 18.5876 61.4712 19.1681Z" fill="white"/>
<path fill-rule="evenodd" clip-rule="evenodd" d="M64.4453 19.1681C64.4453 19.7484 64.9163 20.2189 65.4973 20.2189C66.0782 20.2189 66.549 19.7484 66.549 19.1681C66.549 18.5876 66.0782 18.1171 65.4973 18.1171C64.9163 18.1171 64.4453 18.5876 64.4453 19.1681Z" fill="white"/>
<path fill-rule="evenodd" clip-rule="evenodd" d="M67.4204 19.1681C67.4204 19.7484 67.891 20.2189 68.4718 20.2189C69.0524 20.2189 69.5228 19.7484 69.5228 19.1681C69.5228 18.5876 69.0524 18.1171 68.4718 18.1171C67.891 18.1171 67.4204 18.5876 67.4204 19.1681Z" fill="white"/>
<path fill-rule="evenodd" clip-rule="evenodd" d="M70.396 19.1681C70.396 19.7484 70.8668 20.2189 71.4476 20.2189C72.0284 20.2189 72.4994 19.7484 72.4994 19.1681C72.4994 18.5876 72.0284 18.1171 71.4476 18.1171C70.8668 18.1171 70.396 18.5876 70.396 19.1681Z" fill="white"/>
<path fill-rule="evenodd" clip-rule="evenodd" d="M49.7495 24.9229C49.7495 25.5031 50.2193 25.9733 50.7994 25.9733C51.3792 25.9733 51.8489 25.5031 51.8489 24.9229C51.8489 24.3425 51.3792 23.8723 50.7994 23.8723C50.2193 23.8723 49.7495 24.3425 49.7495 24.9229Z" fill="white"/>
<path fill-rule="evenodd" clip-rule="evenodd" d="M37.79 19.0782C37.79 19.6581 38.2604 20.1284 38.8404 20.1284C39.4206 20.1284 39.8909 19.6581 39.8909 19.0782C39.8909 18.4984 39.4206 18.0281 38.8404 18.0281C38.2604 18.0281 37.79 18.4984 37.79 19.0782Z" fill="white"/>
<path fill-rule="evenodd" clip-rule="evenodd" d="M37.7612 21.893C37.7612 22.4739 38.2314 22.9447 38.8116 22.9447C39.3917 22.9447 39.8621 22.4739 39.8621 21.893C39.8621 21.3123 39.3917 20.8414 38.8116 20.8414C38.2314 20.8414 37.7612 21.3123 37.7612 21.893Z" fill="white"/>
<path fill-rule="evenodd" clip-rule="evenodd" d="M73.2485 13.5773C73.2485 14.1581 73.7189 14.629 74.2995 14.629C74.8801 14.629 75.3507 14.1581 75.3507 13.5773C75.3507 12.9965 74.8801 12.5257 74.2995 12.5257C73.7189 12.5257 73.2485 12.9965 73.2485 13.5773Z" fill="white"/>
</g>
</g>
<defs>
<clipPath id="clip0_2110_1271">
<rect width="77.6158" height="34.7279" fill="white" transform="translate(0.239746 0.225357)"/>
</clipPath>
</defs>
</svg>
