<svg width="115" height="25" viewBox="0 0 115 25" fill="none" xmlns="http://www.w3.org/2000/svg">
<g clip-path="url(#clip0_2110_1272)">
<path d="M47.9012 5.23616V19.7193H45.3867V8.35405H45.3532L40.8608 19.7193H39.1845L34.5914 8.35405H34.5579V19.7193H32.2446V5.23616H35.8654L40.0226 15.9644H40.0897L44.4815 5.23616H47.9012ZM49.9798 6.34251C49.9798 5.9402 50.1139 5.60494 50.4156 5.33673C50.7173 5.06853 51.0526 4.93442 51.4549 4.93442C51.8907 4.93442 52.2595 5.06853 52.5277 5.33673C52.7959 5.60494 52.9636 5.9402 52.9636 6.34251C52.9636 6.74482 52.8295 7.08007 52.5277 7.34828C52.226 7.61649 51.8907 7.75059 51.4549 7.75059C51.0191 7.75059 50.6838 7.61649 50.4156 7.34828C50.1474 7.04655 49.9798 6.71129 49.9798 6.34251ZM52.6954 9.3263V19.7193H50.248V9.3263H52.6954ZM60.1046 17.9424C60.4734 17.9424 60.8757 17.8754 61.3115 17.6742C61.7473 17.5066 62.1496 17.2719 62.5184 17.0037V19.2835C62.1161 19.5181 61.6803 19.6858 61.1774 19.7864C60.6745 19.8869 60.1381 19.954 59.5346 19.954C57.9924 19.954 56.752 19.4846 55.8133 18.5124C54.841 17.5401 54.3717 16.2997 54.3717 14.8245C54.3717 13.1482 54.8745 11.7737 55.8468 10.7009C56.819 9.62804 58.1936 9.09162 60.004 9.09162C60.4734 9.09162 60.9427 9.15867 61.3785 9.25925C61.8479 9.35983 62.2167 9.52746 62.4849 9.66156V12.0084C62.1161 11.7402 61.7138 11.5055 61.345 11.3714C60.9427 11.2373 60.5404 11.1367 60.1381 11.1367C59.1658 11.1367 58.3948 11.4384 57.7913 12.0754C57.1878 12.7124 56.9196 13.5506 56.9196 14.6234C56.9196 15.6627 57.2213 16.5008 57.7913 17.0708C58.3612 17.6407 59.1323 17.9424 60.1046 17.9424ZM69.4583 9.15867C69.6594 9.15867 69.827 9.15867 69.9947 9.1922C70.1623 9.22573 70.2964 9.25925 70.397 9.29278V11.7737C70.2629 11.6731 70.0953 11.5725 69.827 11.5055C69.5588 11.4384 69.2906 11.3714 68.9219 11.3714C68.3184 11.3714 67.8155 11.6396 67.4132 12.1425C67.0109 12.6454 66.7762 13.4164 66.7762 14.4893V19.7193H64.3288V9.3263H66.7762V10.9691H66.8097C67.0444 10.3991 67.3797 9.96329 67.8155 9.62804C68.2849 9.3263 68.8213 9.15867 69.4583 9.15867ZM70.5311 14.6904C70.5311 12.9806 71.034 11.6061 71.9727 10.6003C72.9449 9.59451 74.286 9.09162 75.9958 9.09162C77.605 9.09162 78.879 9.56098 79.7842 10.5332C80.6894 11.5055 81.1588 12.813 81.1588 14.4558C81.1588 16.132 80.6559 17.4731 79.7172 18.4788C78.7449 19.4846 77.4374 19.9875 75.7611 19.9875C74.1519 19.9875 72.8779 19.5181 71.9392 18.5794C71.0005 17.6072 70.5311 16.2997 70.5311 14.6904ZM73.0791 14.5899C73.0791 15.6627 73.3137 16.5008 73.8166 17.0708C74.3195 17.6407 75.0235 17.9424 75.9287 17.9424C76.8004 17.9424 77.5045 17.6742 77.9738 17.0708C78.4432 16.5008 78.6779 15.6627 78.6779 14.5228C78.6779 13.4164 78.4432 12.5783 77.9738 11.9748C77.5045 11.4049 76.8004 11.1032 75.9623 11.1032C75.0571 11.1032 74.3866 11.4049 73.8837 12.0084C73.3137 12.6454 73.0791 13.4835 73.0791 14.5899ZM84.8131 12.0754C84.8131 12.4107 84.9137 12.7124 85.1483 12.9136C85.383 13.1147 85.8524 13.3494 86.6235 13.6511C87.5957 14.0534 88.2998 14.4893 88.6685 14.9586C89.0709 15.4615 89.272 16.0315 89.272 16.7355C89.272 17.7078 88.9032 18.4788 88.1321 19.0823C87.3946 19.6858 86.3553 19.954 85.0813 19.954C84.6455 19.954 84.1761 19.8869 83.6397 19.7864C83.1033 19.6858 82.6674 19.5517 82.2986 19.384V16.9702C82.7345 17.2719 83.2374 17.5401 83.7403 17.7078C84.2431 17.8754 84.7125 17.976 85.1483 17.976C85.6847 17.976 86.1206 17.9089 86.3553 17.7413C86.6235 17.5736 86.7576 17.339 86.7576 16.9702C86.7576 16.6349 86.6235 16.3667 86.3553 16.0985C86.0871 15.8638 85.5506 15.5956 84.8131 15.2939C83.9079 14.9251 83.2709 14.4893 82.9021 14.0199C82.5333 13.5506 82.3322 12.9471 82.3322 12.2095C82.3322 11.2708 82.701 10.4997 83.4385 9.89624C84.1761 9.29278 85.1483 8.99104 86.3217 8.99104C86.6905 8.99104 87.0928 9.02457 87.5287 9.12515C87.9645 9.22573 88.3668 9.3263 88.6685 9.42688V11.8072C88.3333 11.6061 87.9645 11.4049 87.5287 11.2373C87.0928 11.0696 86.657 11.0026 86.2547 11.0026C85.7853 11.0026 85.4165 11.1032 85.1819 11.2708C84.9472 11.5055 84.8131 11.7402 84.8131 12.0754ZM90.3113 14.6904C90.3113 12.9806 90.8142 11.6061 91.7529 10.6003C92.7252 9.59451 94.0662 9.09162 95.776 9.09162C97.3853 9.09162 98.6592 9.56098 99.5644 10.5332C100.47 11.5055 100.939 12.813 100.939 14.4558C100.939 16.132 100.436 17.4731 99.4974 18.4788C98.5251 19.4846 97.2176 19.9875 95.5413 19.9875C93.9321 19.9875 92.6581 19.5181 91.7194 18.5794C90.8142 17.6072 90.3113 16.2997 90.3113 14.6904ZM92.8593 14.5899C92.8593 15.6627 93.094 16.5008 93.5968 17.0708C94.0997 17.6407 94.8038 17.9424 95.709 17.9424C96.5806 17.9424 97.2847 17.6742 97.754 17.0708C98.2234 16.5008 98.4581 15.6627 98.4581 14.5228C98.4581 13.4164 98.2234 12.5783 97.754 11.9748C97.2847 11.4049 96.5806 11.1032 95.7425 11.1032C94.8373 11.1032 94.1668 11.4049 93.6639 12.0084C93.1275 12.6454 92.8593 13.4835 92.8593 14.5899ZM109.086 11.3379H105.431V19.7193H102.951V11.3379H101.207V9.3263H102.951V7.88469C102.951 6.81187 103.319 5.90667 104.023 5.20263C104.727 4.49859 105.633 4.16333 106.739 4.16333C107.041 4.16333 107.309 4.19686 107.544 4.19686C107.778 4.19686 107.979 4.26391 108.147 4.33096V6.44308C108.08 6.40956 107.912 6.34251 107.711 6.27546C107.51 6.2084 107.275 6.17488 107.007 6.17488C106.504 6.17488 106.102 6.34251 105.834 6.64424C105.566 6.94597 105.431 7.44886 105.431 8.05232V9.29278H109.086V6.94597L111.533 6.2084V9.29278H114.014V11.3043H111.533V16.1656C111.533 16.8026 111.667 17.2384 111.868 17.5066C112.103 17.7748 112.472 17.9089 112.975 17.9089C113.109 17.9089 113.276 17.8754 113.478 17.8083C113.679 17.7413 113.846 17.6742 113.981 17.5736V19.5852C113.813 19.6858 113.578 19.7528 113.209 19.8199C112.841 19.8869 112.505 19.9205 112.137 19.9205C111.097 19.9205 110.326 19.6522 109.823 19.1158C109.32 18.5794 109.052 17.7413 109.052 16.6349L109.086 11.3379Z" fill="white"/>
<path d="M12.2969 0.408447H0.831055V11.8743H12.2969V0.408447Z" fill="white"/>
<path d="M24.9697 0.408447H13.5039V11.8743H24.9697V0.408447Z" fill="white"/>
<path d="M12.2969 13.0812H0.831055V24.547H12.2969V13.0812Z" fill="white"/>
<path d="M24.9697 13.0812H13.5039V24.547H24.9697V13.0812Z" fill="white"/>
</g>
<defs>
<clipPath id="clip0_2110_1272">
<rect width="113.183" height="24.1386" fill="white" transform="translate(0.831055 0.408447)"/>
</clipPath>
</defs>
</svg>
