<svg width="103" height="88" viewBox="0 0 103 88" fill="none" xmlns="http://www.w3.org/2000/svg">
<g clip-path="url(#clip0_1645_7926)">
<path d="M50.8119 -0.0268776C50.9213 -0.0267221 51.0307 -0.0265665 51.1434 -0.0264063C52.7431 -0.0225757 54.311 0.0135161 55.8947 0.255796C56.0424 0.277082 56.0424 0.277082 56.1931 0.298797C59.6138 0.799731 63.0038 1.77127 66.1349 3.24254C66.3087 3.32212 66.4825 3.40168 66.6563 3.48121C67.922 4.06766 69.1255 4.73593 70.3164 5.46126C70.3901 5.50572 70.4638 5.55017 70.5398 5.59598C71.4806 6.16511 72.3625 6.78546 73.2253 7.46673C73.3758 7.5847 73.5276 7.70052 73.6805 7.81532C75.407 9.11329 77.1073 10.6134 78.5096 12.2601C78.6469 12.4209 78.7859 12.5794 78.9263 12.7375C79.5534 13.4465 80.1379 14.1771 80.6949 14.9425C80.8039 15.0922 80.914 15.2411 81.0243 15.3899C82.1078 16.8639 83.039 18.4332 83.8847 20.0536C83.917 20.1154 83.9493 20.1772 83.9826 20.2408C84.1848 20.6301 84.3787 21.023 84.5674 21.419C84.5969 21.4807 84.6265 21.5423 84.6569 21.6058C86.3941 25.2634 87.4188 29.1848 87.8955 33.1953C87.9055 33.274 87.9155 33.3528 87.9258 33.4339C88.2411 35.9879 88.2221 38.7508 87.8955 41.3022C87.8755 41.4601 87.8755 41.4601 87.8552 41.6211C87.1306 47.2261 85.2062 52.6675 82.0074 57.3453C81.9662 57.4055 81.9251 57.4657 81.8828 57.5277C80.5144 59.5206 78.9543 61.3399 77.2499 63.0521C77.1904 63.112 77.1309 63.1718 77.0697 63.2335C76.6814 63.6206 76.2793 63.9859 75.8632 64.3428C75.7799 64.4159 75.6967 64.4891 75.6109 64.5645C69.1803 70.1153 60.6777 73.1615 52.2039 73.1483C52.1105 73.1483 52.1105 73.1483 52.0153 73.1482C43.2818 73.1288 34.6337 69.9328 27.3926 63.6601C27.3107 63.5878 27.2287 63.5156 27.1443 63.4411C26.5747 62.9292 26.031 62.3924 25.4886 61.8521C25.4162 61.78 25.3438 61.708 25.2692 61.6339C24.85 61.2136 24.4497 60.7835 24.0645 60.332C23.9924 60.2497 23.9202 60.1674 23.8458 60.0827C18.7883 54.2146 15.7526 46.7738 15.019 39.0835C15.0108 38.9981 15.0026 38.9127 14.9942 38.8247C14.914 37.8633 14.9128 36.9009 14.9123 35.9367C14.9122 35.8463 14.9122 35.7558 14.9121 35.6626C14.9137 34.1136 14.9807 32.5982 15.1896 31.0619C15.2038 30.9568 15.218 30.8517 15.2326 30.7433C16.2302 23.6331 19.3919 16.9468 24.2205 11.6388C24.345 11.5018 24.4685 11.364 24.5912 11.2254C25.2285 10.5068 25.8933 9.8152 26.6253 9.19203C26.7442 9.08943 26.8609 8.9843 26.9759 8.87735C27.6445 8.25604 28.3694 7.71411 29.0993 7.16797C29.1545 7.12634 29.2097 7.0847 29.2665 7.04181C30.5963 6.03899 31.9966 5.16166 33.4514 4.3519C33.52 4.31363 33.5886 4.27537 33.6592 4.23594C35.5471 3.19181 37.5413 2.36148 39.5956 1.7065C39.6847 1.67793 39.7738 1.64935 39.8657 1.61991C42.0639 0.922956 44.3031 0.443969 46.5931 0.170461C46.6539 0.163019 46.7148 0.155578 46.7775 0.147911C48.1218 -0.0122806 49.4592 -0.0308648 50.8119 -0.0268776ZM48.2411 1.42383C48.1109 1.43476 48.1109 1.43476 47.978 1.44591C44.0216 1.80807 40.1442 2.79932 36.5235 4.43724C36.4411 4.47428 36.3588 4.51132 36.2739 4.54949C34.3205 5.43532 32.4549 6.50084 30.7207 7.76532C30.6343 7.8277 30.548 7.89007 30.459 7.95433C29.354 8.76802 28.3097 9.64535 27.3073 10.5814C27.1441 10.7293 26.9805 10.8769 26.8166 11.0241C26.7466 11.0869 26.6767 11.1497 26.6046 11.2144C26.5549 11.259 26.5051 11.3035 26.4539 11.3494C26.8808 11.8651 27.3441 12.336 27.8186 12.8078C27.9002 12.8892 27.9817 12.9706 28.0632 13.052C28.276 13.2645 28.489 13.4767 28.7021 13.6888C28.9202 13.906 29.1381 14.1235 29.356 14.341C29.7822 14.7663 30.2087 15.1913 30.6354 15.6162C30.7454 15.5346 30.8554 15.4528 30.9653 15.371C31.0265 15.3254 31.0877 15.2799 31.1508 15.233C31.3313 15.0939 31.4883 14.9456 31.6434 14.7788C32.0461 14.366 32.4876 14.0109 32.9394 13.6535C33.0169 13.5907 33.0943 13.5279 33.1741 13.4631C38.3255 9.37356 44.4489 7.46477 50.9452 7.08264C50.9452 5.19587 50.9452 3.3091 50.9452 1.36516C49.5894 1.35604 49.5894 1.35604 48.2411 1.42383ZM52.1399 1.36516C52.1399 3.25193 52.1399 5.1387 52.1399 7.08264C54.1776 7.20901 54.1776 7.20901 55.2973 6.7413C55.9108 6.65225 56.4488 6.72493 57.004 6.9973C57.0322 7.05363 57.0604 7.10995 57.0894 7.16797C56.667 7.25246 56.667 7.25246 56.236 7.33865C56.4509 7.55352 56.5804 7.55746 56.8777 7.61099C56.9761 7.62955 57.0744 7.64811 57.1758 7.66724C57.2828 7.68729 57.3898 7.70733 57.5001 7.72799C62.6567 8.73722 67.7051 11.2495 71.4724 14.9378C71.6817 15.1396 71.6817 15.1396 72.0231 15.1042C72.2099 14.9671 72.2099 14.9671 72.3909 14.7752C72.4626 14.7034 72.5343 14.6317 72.6082 14.5577C72.7232 14.4401 72.7232 14.4401 72.8405 14.3202C72.9195 14.2406 72.9986 14.1611 73.0801 14.0791C73.2901 13.8677 73.4992 13.6553 73.708 13.4427C73.9213 13.2259 74.1356 13.0101 74.3498 12.7941C74.7699 12.3704 75.1889 11.9456 75.6072 11.5201C75.4916 11.2796 75.3883 11.1111 75.1915 10.9297C75.143 10.8847 75.0945 10.8398 75.0446 10.7934C74.9926 10.7463 74.9407 10.6992 74.8872 10.6507C74.8332 10.6013 74.7792 10.5519 74.7236 10.5011C74.2638 10.0834 73.7923 9.68436 73.3031 9.30136C73.2505 9.26003 73.1978 9.2187 73.1435 9.17611C70.3893 7.02128 67.4011 5.27312 64.1722 3.92522C64.095 3.89292 64.0178 3.86063 63.9382 3.82735C60.1528 2.26616 56.2086 1.6364 52.1399 1.36516ZM48.4065 8.54401C48.3097 8.55515 48.2129 8.56629 48.1132 8.57776C41.7893 9.35857 36.2956 12.2849 31.6594 16.5549C32.0595 17.0358 32.4871 17.4792 32.9308 17.9199C33.0376 18.0266 33.0376 18.0266 33.1467 18.1355C33.3725 18.3608 33.5986 18.5859 33.8248 18.8109C33.9787 18.9644 34.1326 19.1179 34.2865 19.2715C34.6621 19.6462 35.038 20.0207 35.4141 20.395C35.5103 20.3127 35.6065 20.2304 35.7027 20.148C35.7562 20.1022 35.8098 20.0563 35.8649 20.0091C36.015 19.8799 36.1628 19.7485 36.3102 19.6163C37.8149 18.3068 39.4465 17.2185 41.217 16.2989C41.2741 16.2691 41.3313 16.2394 41.3902 16.2087C44.3977 14.6674 47.6083 14.1022 50.9452 13.8241C50.9452 12.05 50.9452 10.2759 50.9452 8.44801C49.6688 8.44635 49.6688 8.44635 48.4065 8.54401ZM52.1399 8.44801C52.0143 10.2374 52.0465 12.0315 52.0546 13.8241C52.1261 13.8297 52.1977 13.8352 52.2714 13.8409C56.5775 14.183 60.6499 15.2903 64.2576 17.7496C64.3126 17.7867 64.3677 17.8239 64.4244 17.8622C65.0863 18.3119 65.7063 18.8007 66.311 19.3246C66.5626 19.5425 66.8174 19.7559 67.0736 19.9683C67.5567 19.5674 67.9997 19.1365 68.439 18.6883C68.3919 18.6685 68.3448 18.6487 68.2963 18.6283C68.0443 18.4879 67.8595 18.3101 67.6497 18.1123C67.0251 17.5254 67.0251 17.5254 66.3056 17.0669C66.2775 16.9824 66.2493 16.8979 66.2203 16.8109C66.4315 16.7686 66.4315 16.7686 66.647 16.7256C66.2078 16.0978 66.2078 16.0978 65.6229 15.6162C65.3323 15.618 65.3323 15.618 65.0256 15.7015C64.8853 15.7192 64.7449 15.7352 64.6042 15.7495C64.5383 15.7567 64.4725 15.7638 64.4046 15.7712C64.3561 15.7764 64.3075 15.7815 64.2576 15.7869C64.2074 15.6549 64.2074 15.6549 64.1562 15.5202C64.0525 15.2747 63.9604 15.1404 63.7829 14.9282C63.5749 14.6775 63.5749 14.6775 63.5002 14.4215C63.3821 14.1064 63.229 13.997 62.9709 13.7921C62.7424 13.599 62.5588 13.3762 62.3658 13.1485C62.2007 12.9608 62.0262 12.7876 61.8468 12.6134C61.3926 12.1619 61.3926 12.1619 61.2708 11.8614C61.2762 11.6321 61.2762 11.6321 61.3562 11.4348C61.7 11.2124 62.087 11.2004 62.4845 11.1497C62.7411 11.0888 62.8059 11.0262 62.9775 10.8374C59.8423 9.51986 56.5772 8.58801 53.1639 8.44801C53.2484 8.58881 53.3329 8.72962 53.4199 8.87469C53.3418 8.84388 53.2637 8.81308 53.1833 8.78135C53.0819 8.74175 52.9804 8.70215 52.8759 8.66135C52.775 8.62175 52.674 8.58214 52.5699 8.54134C52.3298 8.43838 52.3298 8.43838 52.1399 8.44801ZM25.2592 12.6134C24.8725 13.0057 24.5205 13.4166 24.1796 13.8491C24.097 13.9536 24.014 14.0579 23.9308 14.1619C23.1821 15.0975 22.4898 16.0564 21.8458 17.0669C21.8075 17.1266 21.7692 17.1864 21.7297 17.2479C18.1774 22.8154 16.2311 29.3973 16.299 36.0114C16.7496 36.0114 17.2001 36.0114 17.6644 36.0114C17.7207 35.8143 17.777 35.6171 17.835 35.414C17.931 35.1367 17.931 35.1367 18.091 34.902C18.2551 34.8267 18.4199 34.7767 18.5927 34.7244C18.8695 34.6046 19.0327 34.3974 19.2337 34.1783C19.4098 34.0121 19.5573 33.9706 19.7977 33.9633C19.8259 34.1323 19.8541 34.3013 19.8831 34.4753C20.1327 34.4944 20.1327 34.4944 20.3098 34.39C20.3263 34.4518 20.3428 34.5137 20.3598 34.5773C20.4743 35.0028 20.5903 35.4248 20.7364 35.8407C20.7646 35.7844 20.7928 35.7281 20.8218 35.67C21.0189 35.7264 21.216 35.7827 21.4191 35.8407C21.3795 35.7774 21.3795 35.7774 21.3391 35.7127C21.2129 35.4158 21.1952 35.1375 21.1631 34.8167C21.3103 34.8806 21.4576 34.9445 21.6048 35.0084C21.7397 35.0641 21.8779 35.1119 22.0165 35.158C22.1311 34.9288 22.1308 34.729 22.1511 34.473C22.1602 34.3661 22.1692 34.2591 22.1786 34.1489C22.1834 34.0918 22.1882 34.0346 22.1931 33.9758C22.4945 30.4795 23.3899 27.0581 24.9179 23.8937C24.9606 23.8045 24.9606 23.8045 25.0041 23.7134C25.1957 23.3145 25.3952 22.9203 25.6006 22.5284C25.6319 22.4684 25.6632 22.4084 25.6954 22.3466C26.8069 20.234 28.256 18.311 29.8673 16.5549C29.4408 16.0401 28.9787 15.5685 28.5056 15.0965C28.4243 15.0151 28.343 14.9337 28.2616 14.8523C28.0924 14.6829 27.9231 14.5138 27.7536 14.3447C27.536 14.1276 27.3188 13.9101 27.1017 13.6925C26.9344 13.5249 26.7669 13.3575 26.5994 13.1902C26.4801 13.071 26.361 12.9516 26.2419 12.8322C26.1701 12.7607 26.0983 12.6892 26.0243 12.6155C25.9608 12.5521 25.8974 12.4887 25.832 12.4234C25.5629 12.1742 25.4909 12.3838 25.2592 12.6134ZM76.4605 12.2881C75.9794 12.7594 75.4994 13.2318 75.0208 13.7057C74.7986 13.9257 74.576 14.1453 74.3524 14.364C74.1368 14.575 73.9222 14.787 73.7084 14.9998C73.5866 15.1204 73.4638 15.2399 73.3409 15.3594C73.2674 15.4328 73.194 15.5063 73.1183 15.5819C73.0529 15.6464 72.9875 15.7108 72.9202 15.7772C72.7707 15.9456 72.7707 15.9456 72.804 16.1412C72.9038 16.3583 73.0429 16.4831 73.2178 16.6456C73.6555 17.0709 74.0386 17.524 74.4125 18.0056C74.4594 18.0658 74.5063 18.126 74.5546 18.1881C77.8044 22.3821 79.9172 27.2961 80.6633 32.5553C80.6827 32.69 80.6827 32.69 80.7024 32.8273C80.8459 33.9149 80.902 34.999 80.9833 36.0967C82.8419 36.0967 84.7005 36.0967 86.6155 36.0967C86.6155 35.2414 86.61 34.4287 86.5195 33.5847C86.5083 33.48 86.4971 33.3753 86.4855 33.2675C85.6537 25.9741 82.5672 18.9508 77.6552 13.4828C77.609 13.4313 77.5627 13.3797 77.515 13.3266C77.3739 13.1701 77.2321 13.0143 77.0899 12.8588C77.0464 12.8112 77.0029 12.7635 76.9581 12.7145C76.7353 12.4685 76.7353 12.4685 76.4605 12.2881ZM68.183 13.9095C68.1548 13.9658 68.1267 14.0221 68.0977 14.0802C68.1821 14.052 68.2666 14.0238 68.3537 13.9948C68.2974 13.9667 68.241 13.9385 68.183 13.9095ZM68.695 14.3362C68.8064 14.7645 68.9969 15.0402 69.2977 15.3549C69.339 15.3991 69.3804 15.4434 69.423 15.4889C69.7747 15.8578 70.1548 16.1768 70.5724 16.4695C70.685 16.3569 70.7977 16.2443 70.9137 16.1282C70.687 15.9282 70.4591 15.7295 70.2311 15.5309C70.1835 15.4893 70.136 15.4477 70.087 15.4048C69.9291 15.2669 69.7708 15.1295 69.6124 14.9922C69.5353 14.9246 69.5353 14.9246 69.4567 14.8558C69.2146 14.6467 68.9947 14.4586 68.695 14.3362ZM48.9505 15.2909C48.8625 15.3021 48.7745 15.3134 48.6839 15.3251C47.7733 15.449 46.8845 15.6398 45.9958 15.8722C45.8876 15.9004 45.8876 15.9004 45.7772 15.9292C42.5914 16.7788 39.6563 18.4627 37.2062 20.651C37.1255 20.7223 37.0447 20.7936 36.9615 20.867C36.7865 21.0219 36.612 21.1774 36.4382 21.3337C36.8274 21.8007 37.241 22.2331 37.6722 22.6614C37.7397 22.7287 37.8071 22.7961 37.8766 22.8654C38.0903 23.0786 38.3043 23.2915 38.5182 23.5044C38.6639 23.6497 38.8096 23.7949 38.9552 23.9402C39.3107 24.2948 39.6664 24.649 40.0223 25.0031C40.2793 24.8805 40.4487 24.7631 40.6436 24.5544C40.9417 24.2479 41.2577 23.9878 41.601 23.7337C41.6601 23.6898 41.7192 23.6459 41.7801 23.6006C44.4937 21.6154 47.5314 20.6809 50.8599 20.395C50.9496 20.1259 50.9555 19.938 50.9549 19.6556C50.9549 19.5565 50.9549 19.4574 50.9549 19.3553C50.9544 19.2484 50.954 19.1415 50.9536 19.0313C50.9534 18.9218 50.9533 18.8123 50.9532 18.6995C50.9529 18.4087 50.952 18.1178 50.9511 17.827C50.9502 17.5301 50.9498 17.2333 50.9494 16.9364C50.9485 16.3541 50.947 15.7718 50.9452 15.1895C50.7846 15.1884 50.624 15.1876 50.4633 15.187C50.3739 15.1865 50.2844 15.186 50.1923 15.1855C49.7744 15.1917 49.3646 15.2373 48.9505 15.2909ZM52.0546 15.1895C52.0546 16.9073 52.0546 18.6251 52.0546 20.395C52.6741 20.4513 53.2937 20.5076 53.932 20.5657C54.4789 20.6667 55.0149 20.773 55.5533 20.907C55.6116 20.9209 55.6699 20.9348 55.7299 20.9492C58.2281 21.5575 60.4676 22.8862 62.3802 24.5764C62.644 24.459 62.8236 24.3245 63.0266 24.12C63.0847 24.062 63.1427 24.0039 63.2026 23.9441C63.2951 23.8502 63.2951 23.8502 63.3895 23.7544C63.4535 23.6902 63.5174 23.6261 63.5832 23.56C63.7871 23.3552 63.9903 23.1498 64.1936 22.9444C64.3318 22.8053 64.47 22.6663 64.6082 22.5274C64.9469 22.1868 65.2851 21.8458 65.6229 21.5043C65.4741 21.3457 65.3892 21.256 65.1803 21.1843C64.8676 21.0454 64.6567 20.8375 64.4086 20.605C64.2683 20.4622 64.2683 20.4622 64.0869 20.4803C63.984 20.2813 63.9021 20.0966 63.8309 19.883C63.859 19.8143 63.8872 19.7457 63.9162 19.675C64.0123 19.4705 64.0123 19.4705 63.9972 19.296C63.872 19.0161 63.6386 18.8906 63.3882 18.7309C63.3318 18.6944 63.2754 18.6579 63.2174 18.6203C59.8817 16.4998 56.0253 15.1895 52.0546 15.1895ZM71.6818 17.0669C71.6818 17.1795 71.6818 17.2922 71.6818 17.4082C71.8783 17.5703 71.8783 17.5703 72.1084 17.6642C72.1648 17.6361 72.2211 17.6079 72.2791 17.5789C72.1412 17.4047 71.9987 17.2341 71.8524 17.0669C71.7961 17.0669 71.7398 17.0669 71.6818 17.0669ZM30.5607 17.7176C30.1326 18.1526 29.7661 18.6371 29.3961 19.1212C29.2721 19.2829 29.1467 19.4433 29.021 19.6036C25.4507 24.2041 23.3818 30.1922 23.3818 36.0114C24.818 36.0114 26.2542 36.0114 27.7339 36.0114C27.8592 35.6358 27.8592 35.6358 27.981 35.259C28.1646 34.7098 28.355 34.3941 28.8076 34.0235C28.9691 33.8294 28.9869 33.6757 29.026 33.427C29.0413 33.3353 29.0566 33.2436 29.0724 33.1492C29.0963 33.0004 29.0963 33.0004 29.1207 32.8486C29.8713 28.5566 31.6712 24.5496 34.6461 21.3337C34.2464 20.8536 33.8199 20.4097 33.3778 19.9686C33.2712 19.8619 33.2712 19.8619 33.1625 19.7531C33.0133 19.6039 32.8641 19.4548 32.7147 19.3058C32.485 19.0766 32.2558 18.8469 32.0266 18.6171C31.8814 18.472 31.7362 18.327 31.591 18.1819C31.5222 18.1129 31.4533 18.0438 31.3823 17.9727C31.319 17.9097 31.2558 17.8467 31.1906 17.7818C31.1347 17.726 31.0789 17.6702 31.0213 17.6127C30.7943 17.4046 30.816 17.4845 30.5607 17.7176ZM69.463 19.2856C68.9843 19.7644 68.5056 20.2431 68.0123 20.7363C68.1768 21.154 68.1768 21.154 68.4587 21.4457C68.7812 21.7546 69.0509 22.0867 69.319 22.443C69.367 22.5065 69.4149 22.5699 69.4643 22.6353C72.502 26.689 73.7875 31.0995 74.2418 36.0967C76.016 36.0967 77.7901 36.0967 79.618 36.0967C79.618 31.3189 78.287 24.9843 75.0952 21.2483C74.9162 21.1378 74.9162 21.1378 74.7538 21.0777C74.5798 21.4984 74.4631 21.8098 74.4978 22.2724C74.2424 22.3792 74.0863 22.4389 73.8151 22.443C73.2168 22.1696 72.7344 21.5452 72.2832 21.0757C71.9059 20.6866 71.512 20.3803 71.0204 20.1443C70.9346 20.1024 70.9346 20.1024 70.8471 20.0596C70.7846 20.0295 70.7221 19.9994 70.6577 19.9683C70.5082 19.8958 70.3589 19.8229 70.2097 19.7496C70.1406 19.7161 70.0716 19.6825 70.0004 19.648C69.8044 19.5416 69.8044 19.5416 69.463 19.2856ZM65.0256 20.139C65.2179 20.5769 65.4745 20.8993 65.7936 21.2483C65.9062 21.1357 66.0189 21.0231 66.1349 20.907C65.6396 20.4289 65.6396 20.4289 65.0256 20.139ZM52.0546 21.5897C52.0546 23.6173 52.0546 25.6448 52.0546 27.7338C52.7023 27.8465 53.35 27.9591 54.0173 28.0752C54.1225 27.9891 54.1225 27.9891 54.111 27.8135C54.11 27.7432 54.109 27.6729 54.108 27.6005C54.1072 27.53 54.1064 27.4595 54.1056 27.3868C54.1046 27.3324 54.1037 27.2779 54.1026 27.2218C54.1871 27.2218 54.2716 27.2218 54.3586 27.2218C54.4009 27.0951 54.4009 27.0951 54.444 26.9658C54.6673 26.8131 54.6673 26.8131 54.9453 26.6565C55.0366 26.6043 55.1279 26.5522 55.222 26.4985C55.468 26.3685 55.468 26.3685 55.724 26.2831C55.6697 27.4395 55.6697 27.4395 55.3827 27.8192C55.1647 27.9807 54.9389 28.1176 54.7 28.2459C54.9665 28.5124 55.2954 28.4813 55.66 28.5225C55.7762 28.5545 55.7762 28.5545 55.8947 28.5872C55.988 28.7522 55.988 28.7522 56.0654 28.9285C56.2437 29.0394 56.2437 29.0394 56.4494 29.1152C56.5171 29.1428 56.5849 29.1704 56.6547 29.1989C56.7137 29.2223 56.7726 29.2457 56.8334 29.2699C56.9179 29.3121 56.9179 29.3121 57.004 29.3552C57.454 29.3763 57.7749 29.306 58.1187 29.0085C58.2038 28.9265 58.288 28.8435 58.3694 28.7579C58.2849 28.5607 58.2004 28.3636 58.1134 28.1605C58.0008 28.1605 57.8881 28.1605 57.7721 28.1605C57.824 27.7898 57.8797 27.4202 57.9427 27.0512C58.0835 27.0512 58.2243 27.0512 58.3694 27.0512C58.3976 26.9104 58.4257 26.7695 58.4547 26.6245C58.5955 26.6245 58.7364 26.6245 58.8814 26.6245C58.7496 26.9474 58.6141 27.2486 58.4334 27.5472C58.3841 27.6369 58.3348 27.7267 58.2841 27.8192C58.3122 27.8755 58.3404 27.9318 58.3694 27.9898C58.4169 27.9106 58.4645 27.8314 58.5134 27.7498C58.7484 27.4611 58.9526 27.4351 59.3134 27.3818C59.8409 27.2836 60.124 27.086 60.4921 26.7151C60.5374 26.6702 60.5826 26.6252 60.6292 26.5789C60.7699 26.4336 60.7699 26.4336 60.9295 26.1978C60.9275 25.9993 60.9275 25.9993 60.8441 25.8565C60.4841 25.8397 60.2323 25.8733 59.9055 26.0271C59.9055 26.1679 59.9055 26.3087 59.9055 26.4538C59.8298 26.4485 59.7541 26.4432 59.6761 26.4378C59.364 26.4555 59.2187 26.532 58.9668 26.7098C58.9456 26.6465 58.9245 26.5831 58.9028 26.5178C58.7883 26.266 58.6588 26.1254 58.4547 25.9418C58.6059 25.9395 58.757 25.9378 58.9081 25.9365C58.9922 25.9355 59.0764 25.9345 59.1631 25.9335C59.3934 25.9418 59.3934 25.9418 59.6494 26.0271C59.6512 25.9497 59.653 25.8722 59.6548 25.7925C59.7348 25.5151 59.7348 25.5151 60.0015 25.3071C60.4323 25.0948 60.7805 25.213 61.2228 25.3498C61.295 25.3762 61.3671 25.4026 61.4415 25.4298C59.59 23.5209 56.9526 22.3899 54.3853 21.8617C54.3003 21.844 54.2152 21.8263 54.1276 21.8081C53.4264 21.6724 52.7817 21.6382 52.0546 21.5897ZM41.0463 25.8565C41.2062 26.1981 41.2062 26.1981 41.473 26.4538C41.957 26.5456 42.4323 26.5494 42.9237 26.5391C42.9518 26.6236 42.98 26.7081 43.009 26.7951C43.097 26.8022 43.185 26.8092 43.2757 26.8165C43.6064 26.8805 43.6064 26.8805 43.841 27.0565C44.1484 27.2398 44.229 27.2306 44.5717 27.2058C45.064 27.1864 45.3091 27.3322 45.6711 27.6562C46.1139 28.1249 46.1976 28.7439 46.3371 29.3552C46.4085 29.3119 46.4799 29.2685 46.5534 29.2239C47.9227 28.4074 49.2953 27.9946 50.8599 27.7338C50.8599 25.7063 50.8599 23.6787 50.8599 21.5897C47.1514 21.5897 43.7112 23.407 41.0463 25.8565ZM66.7216 22.0004C66.5339 22.1784 66.5339 22.1784 66.5616 22.443C66.5116 22.4514 66.4616 22.4598 66.41 22.4685C66.182 22.5405 66.0828 22.6349 65.9152 22.8044C65.8571 22.8625 65.7991 22.9206 65.7392 22.9804C65.6775 23.0434 65.6158 23.1065 65.5523 23.1714C65.4883 23.2357 65.4244 23.2999 65.3586 23.3662C65.1545 23.5717 64.9514 23.778 64.7482 23.9844C64.6101 24.1239 64.4719 24.2633 64.3336 24.4026C63.9947 24.7443 63.6565 25.0868 63.3189 25.4298C63.3981 25.5371 63.4776 25.6443 63.5572 25.7515C63.6015 25.8112 63.6457 25.8709 63.6913 25.9324C63.8251 26.1051 63.9656 26.2665 64.1136 26.4271C64.3402 26.676 64.5161 26.9344 64.6918 27.2212C65.0396 27.7774 65.3227 28.0063 65.9706 28.1669C66.6629 28.3859 67.0878 29.0263 67.4653 29.6109C67.5728 29.7923 67.5728 29.7923 67.7563 29.8672C67.927 29.8706 68.0977 29.8709 68.2683 29.8672C68.2683 30.008 68.2683 30.1488 68.2683 30.2939C68.1557 30.2939 68.0431 30.2939 67.927 30.2939C68.0422 30.671 68.2053 30.8352 68.5243 31.0619C68.7033 30.7935 68.7394 30.634 68.791 30.3206C68.8053 30.2358 68.8196 30.1509 68.8344 30.0636C68.8447 29.9988 68.855 29.934 68.8657 29.8672C69.0207 29.8166 69.0207 29.8166 69.207 29.7819C69.6212 29.9934 69.9903 30.2727 70.1457 30.7206C70.1472 31.0474 70.1192 31.3593 70.0774 31.6833C70.0582 32.0417 70.1155 32.2622 70.2311 32.598C70.4403 32.5889 70.4403 32.5889 70.6577 32.5126C70.8524 32.1361 70.8584 31.7783 70.8761 31.3626C70.9189 31.1179 70.9693 31.0345 71.1697 30.8913C71.3564 30.9179 71.3564 30.9179 71.5111 30.9766C71.7625 30.5198 71.8562 30.0322 71.7201 29.5196C71.5865 29.1146 71.4244 28.7224 71.2551 28.3312C71.1271 28.5829 71.0161 28.8359 70.9137 29.0992C70.8011 29.0992 70.6885 29.0992 70.5724 29.0992C70.4697 28.9709 70.4697 28.9709 70.3804 28.7952C70.1412 28.3792 69.8318 28.1188 69.463 27.8192C69.3048 27.6791 69.1468 27.5387 68.989 27.3982C68.8683 27.2903 68.8683 27.2903 68.695 27.3072C68.6105 26.9974 68.526 26.6876 68.439 26.3685C68.6925 26.4107 68.6925 26.4107 68.951 26.4538C68.951 26.3412 68.951 26.2285 68.951 26.1125C69.0353 26.1433 69.1195 26.1741 69.2064 26.2058C69.3168 26.2458 69.4273 26.2858 69.5377 26.3258C69.5933 26.3462 69.6488 26.3665 69.706 26.3875C70.0036 26.5006 70.0036 26.5006 70.3164 26.5391C70.2039 26.1453 70.0422 25.848 69.8044 25.5151C69.7586 25.5574 69.7129 25.5996 69.6657 25.6431C69.361 25.8355 69.1059 25.7883 68.759 25.7498C68.6097 25.6858 68.6097 25.6858 68.5367 25.5384C68.4166 25.2999 68.2619 25.1133 68.0923 24.9071C67.7646 24.5077 67.7646 24.5077 67.671 24.3204C68.1617 24.5551 68.1617 24.5551 68.3537 24.7471C68.3537 24.6908 68.3537 24.6345 68.3537 24.5764C68.4945 24.6327 68.6353 24.6891 68.7803 24.7471C68.9046 24.479 68.9046 24.479 68.951 24.1497C68.824 23.9202 68.716 23.7657 68.5457 23.5737C68.503 23.5226 68.4602 23.4715 68.4162 23.4188C68.2839 23.262 68.1489 23.1082 68.0123 22.955C67.9702 22.9077 67.9281 22.8604 67.8847 22.8117C67.699 22.6044 67.5114 22.3994 67.321 22.1964C67.159 22.0164 67.159 22.0164 67.0736 21.8457C66.8849 21.8272 66.8849 21.8272 66.7216 22.0004ZM35.4505 22.402C34.3504 23.5956 33.4402 24.9351 32.6834 26.3685C32.6418 26.4469 32.6003 26.5254 32.5574 26.6063C31.7599 28.1345 30.6354 30.3191 30.6354 32.086C30.7357 32.1176 30.7357 32.1176 30.838 32.15C31.0896 32.2698 31.139 32.3425 31.2327 32.598C31.2749 32.5135 31.2749 32.5135 31.318 32.4273C31.4307 32.4273 31.5433 32.4273 31.6594 32.4273C31.9306 33.0343 32.1717 33.6412 32.2567 34.3047C32.3205 34.3037 32.3843 34.3027 32.4501 34.3017C32.5341 34.3009 32.6182 34.3001 32.7047 34.2993C32.7879 34.2984 32.8711 34.2974 32.9568 34.2963C33.1662 34.3037 33.3372 34.3297 33.5368 34.39C33.639 34.1913 33.639 34.1913 33.7074 33.9633C33.6511 33.8789 33.5948 33.7944 33.5368 33.7073C33.5604 33.3083 33.6858 33.0502 33.9048 32.7206C33.9555 32.6431 34.0062 32.5655 34.0584 32.4856C34.3401 32.085 34.5338 31.8104 34.9928 31.6166C35.3468 31.4494 35.508 31.3436 35.6702 30.9766C35.8814 30.5687 36.0841 30.2869 36.4672 30.0269C36.9059 29.6945 37.1013 29.3304 37.3289 28.8379C37.7081 28.0673 38.132 27.3877 38.6569 26.7098C38.7183 26.6295 38.7797 26.5492 38.8429 26.4665C38.9786 26.2904 39.1155 26.1155 39.2542 25.9418C38.8654 25.4756 38.4529 25.0427 38.0232 24.6141C37.956 24.5467 37.8887 24.4794 37.8194 24.41C37.6783 24.2689 37.5371 24.1278 37.3958 23.9868C37.1784 23.77 36.9615 23.5526 36.7447 23.3352C36.6073 23.1979 36.4699 23.0606 36.3325 22.9234C36.2674 22.8581 36.2022 22.7927 36.1351 22.7254C36.0752 22.6659 36.0154 22.6063 35.9537 22.5449C35.9009 22.4921 35.848 22.4393 35.7936 22.385C35.6192 22.2259 35.6225 22.236 35.4505 22.402ZM69.207 24.6618C69.207 24.8026 69.207 24.9434 69.207 25.0884C69.2915 25.0321 69.376 24.9758 69.463 24.9178C69.3786 24.8333 69.2941 24.7488 69.207 24.6618ZM61.9625 26.7361C61.8782 26.8239 61.7952 26.913 61.7135 27.0032C61.6707 27.0483 61.6278 27.0935 61.5837 27.14C61.4782 27.2515 61.3743 27.3645 61.2708 27.4778C61.4209 27.6638 61.5007 27.7285 61.7385 27.7775C61.8528 27.7849 61.8528 27.7849 61.9695 27.7925C62.0464 27.7981 62.1233 27.8037 62.2025 27.8095C62.2611 27.8127 62.3198 27.8159 62.3802 27.8192C62.4083 27.5939 62.4365 27.3686 62.4655 27.1365C62.6626 27.1365 62.8598 27.1365 63.0629 27.1365C63.0013 27.0538 62.9397 26.971 62.8762 26.8858C62.8242 26.816 62.8242 26.816 62.7712 26.7448C62.4636 26.4706 62.2809 26.4822 61.9625 26.7361ZM40.1076 26.8805C40.1076 26.965 40.1076 27.0494 40.1076 27.1365C40.1639 27.1928 40.2202 27.2491 40.2783 27.3072C40.4582 27.28 40.4582 27.28 40.6196 27.2218C40.5096 27.1044 40.3954 26.9908 40.2783 26.8805C40.222 26.8805 40.1656 26.8805 40.1076 26.8805ZM42.0703 26.9658C42.1548 27.0925 42.1548 27.0925 42.241 27.2218C42.4676 27.2716 42.4676 27.2716 42.721 27.2805C42.8066 27.2861 42.8922 27.2917 42.9803 27.2975C43.0461 27.3007 43.1119 27.3039 43.1797 27.3072C42.9642 27.0917 42.8265 27.0889 42.529 27.0405C42.4006 27.019 42.4006 27.019 42.2697 26.9972C42.2039 26.9868 42.1381 26.9765 42.0703 26.9658ZM63.3189 27.4778C63.0629 27.7338 62.9994 27.9896 62.9655 28.3392C62.9648 28.5236 62.9648 28.5236 63.1322 28.7152C63.3046 28.8593 63.3046 28.8593 63.4895 28.8432C63.4895 28.9277 63.4895 29.0122 63.4895 29.0992C63.4051 29.1274 63.3206 29.1555 63.2335 29.1845C63.3761 29.269 63.3761 29.269 63.5215 29.3552C63.575 29.3869 63.6285 29.4186 63.6836 29.4512C63.8287 29.5387 63.8287 29.5387 64.0016 29.5259C63.9771 29.477 63.9527 29.4282 63.9276 29.3779C63.7816 29.0859 63.6355 28.7939 63.4895 28.5019C63.5846 28.5599 63.6796 28.618 63.7776 28.6779C63.9337 28.7779 63.9337 28.7779 64.0869 28.8432C64.1432 28.815 64.1995 28.7869 64.2576 28.7579C64.1175 28.5443 63.977 28.331 63.8362 28.1178C63.7962 28.0568 63.7562 27.9957 63.7151 27.9328C63.6137 27.7797 63.5092 27.6286 63.4042 27.4778C63.376 27.4778 63.3479 27.4778 63.3189 27.4778ZM70.8284 27.5632C70.9137 27.7338 70.9137 27.7338 70.9137 27.7338L70.8284 27.5632ZM70.9137 27.7338C70.9991 27.9045 70.9991 27.9045 70.9991 27.9045L70.9137 27.7338ZM70.9991 27.9045C71.0844 28.0752 71.0844 28.0752 71.0844 28.0752L70.9991 27.9045ZM71.0844 28.1605C71.1697 28.3312 71.1697 28.3312 71.1697 28.3312L71.0844 28.1605ZM47.5361 30.1842C47.4917 30.2385 47.4917 30.2385 47.4465 30.2939C47.5204 30.3291 47.5943 30.3643 47.6705 30.4006C47.9585 30.5499 47.9585 30.5499 48.2038 30.7419C48.577 30.9509 48.7424 30.9137 49.1532 30.8059C49.3021 30.65 49.3021 30.65 49.4092 30.4646C49.5511 30.3787 49.6933 30.2934 49.8359 30.2086C49.9045 30.1399 49.9731 30.0713 50.0439 30.0006C50.2722 29.7722 50.4963 29.6039 50.7745 29.4406C50.859 29.4406 50.9435 29.4406 51.0306 29.4406C50.9478 29.4916 50.8651 29.5426 50.7799 29.5952C50.4989 29.7573 50.4989 29.7573 50.4332 30.0379C50.5177 30.0379 50.6022 30.0379 50.6892 30.0379C50.7292 30.5373 50.6268 30.7424 50.3479 31.1473C50.3576 31.3444 50.3576 31.3444 50.4332 31.4886C50.354 31.5124 50.354 31.5124 50.2732 31.5366C50.0037 31.7189 50.0019 31.95 49.9212 32.2566C49.7825 32.4113 49.7825 32.4113 49.6652 32.5126C49.6652 32.569 49.6652 32.6253 49.6652 32.6833C49.5881 32.6988 49.511 32.7143 49.4315 32.7303C49.3309 32.7518 49.2302 32.7732 49.1265 32.7953C49.0265 32.8161 48.9265 32.8369 48.8235 32.8583C48.5589 32.9384 48.4668 32.9849 48.2998 33.1953C47.858 33.6598 47.858 33.6598 47.5318 33.7927C47.6163 33.8771 47.7008 33.9616 47.7878 34.0487C47.9286 33.9642 48.0694 33.8797 48.2145 33.7927C48.2145 34.0179 48.2145 34.2432 48.2145 34.4753C48.2708 34.4753 48.3271 34.4753 48.3852 34.4753C48.3852 34.6443 48.3852 34.8133 48.3852 34.9874C48.3007 34.9874 48.2162 34.9874 48.1291 34.9874C48.1291 35.0437 48.1291 35.1 48.1291 35.158C48.0728 35.158 48.0165 35.158 47.9585 35.158C47.9022 35.327 47.8458 35.496 47.7878 35.67C48.0412 35.7123 48.0412 35.7123 48.2998 35.7554C48.3758 36.1506 48.3956 36.3426 48.2145 36.6941C48.2118 36.8657 48.2093 37.0374 48.2128 37.2091C48.2149 37.4231 48.2007 37.6008 48.1291 37.8034C48.0778 37.8284 48.0264 37.8534 47.9735 37.8791C47.7536 37.9916 47.6412 38.121 47.4838 38.3101C47.2043 38.6432 47.2043 38.6432 47.0548 38.7905C46.9144 38.9256 46.9144 38.9256 46.7638 39.1688C46.5401 39.1305 46.3489 39.089 46.1424 38.9928C45.8624 38.8962 45.6648 38.9126 45.3717 38.9448C45.2805 38.9543 45.1894 38.9637 45.0954 38.9735C45.0264 38.9816 44.9575 38.9897 44.8864 38.9981C45.0231 38.4881 45.1539 38.1547 45.5691 37.8034C45.6536 37.719 45.6536 37.719 45.7397 37.6328C45.8998 37.5908 45.8998 37.5908 46.0811 37.5581C46.2636 37.5204 46.2636 37.5204 46.4224 37.4621C46.527 37.2957 46.527 37.2957 46.5931 37.1207C46.6582 37.0961 46.7233 37.0715 46.7904 37.0461C47.1047 36.9145 47.24 36.7042 47.4465 36.4381C47.5303 36.3513 47.6149 36.2651 47.7025 36.1821C47.618 36.0976 47.618 36.0976 47.5318 36.0114C47.1504 36.0331 46.9187 36.2072 46.6198 36.4327C46.5385 36.4933 46.4572 36.554 46.3734 36.6164C46.1659 36.7732 46.1659 36.7732 45.9958 36.9501C45.8171 36.9511 45.8171 36.9511 45.6117 36.9234C45.544 36.9149 45.4762 36.9065 45.4064 36.8977C45.2277 36.8647 45.2277 36.8647 45.0571 36.7794C45.0852 36.6386 45.1134 36.4978 45.1424 36.3527C44.9453 36.4654 44.7482 36.578 44.5451 36.6941C44.5732 36.7786 44.6014 36.863 44.6304 36.9501C44.6867 36.9501 44.743 36.9501 44.8011 36.9501C44.5811 37.176 44.3815 37.372 44.1184 37.5474C44.2091 39.271 45.1825 40.9268 46.4204 42.0979C48.0525 43.4495 50.007 44.1798 52.1399 44.0329C52.572 43.9714 52.9949 43.8752 53.4199 43.7769C53.4264 43.6717 53.4264 43.6717 53.4329 43.5644C53.4527 43.2458 53.4737 42.9274 53.4946 42.6089C53.5013 42.4985 53.508 42.3881 53.515 42.2744C53.5257 42.1147 53.5257 42.1147 53.5366 41.9519C53.5429 41.854 53.5491 41.7561 53.5556 41.6553C53.5895 41.3958 53.6607 41.2004 53.7613 40.9608C53.7368 40.7695 53.7368 40.7695 53.676 40.6195C53.9499 40.6065 54.1603 40.6099 54.421 40.7005C54.8372 40.8343 55.2595 40.8603 55.693 40.9045C55.98 40.9608 55.98 40.9608 56.146 41.0775C56.2834 41.2902 56.2524 41.4827 56.236 41.7289C56.0248 41.8133 56.0248 41.8133 55.8093 41.8995C55.9501 42.0122 56.091 42.1248 56.236 42.2409C56.5058 42.124 56.5767 42.0711 56.748 41.8142C56.7058 41.7825 56.6636 41.7508 56.62 41.7182C56.5778 41.6654 56.5355 41.6126 56.492 41.5582C56.5052 41.4394 56.5052 41.4394 56.5187 41.3182C56.5204 41.0458 56.5204 41.0458 56.353 40.9022C56.0665 40.6827 55.8266 40.5175 55.468 40.4488C55.468 40.3925 55.468 40.3362 55.468 40.2782C55.782 40.2607 55.9615 40.2999 56.236 40.4488C56.271 40.3996 56.306 40.3503 56.342 40.2995C56.388 40.2361 56.434 40.1728 56.4814 40.1075C56.5269 40.0441 56.5724 39.9808 56.6194 39.9155C56.6618 39.8662 56.7043 39.8169 56.748 39.7662C56.8044 39.7662 56.8607 39.7662 56.9187 39.7662C56.9187 39.6817 56.9187 39.5972 56.9187 39.5101C57.2003 39.4538 57.4819 39.3975 57.7721 39.3395C57.7721 39.3113 57.7721 39.2832 57.7721 39.2541C57.7051 39.2396 57.6381 39.2251 57.5691 39.2101C57.0388 39.0878 56.6058 38.9567 56.1507 38.6568C56.1788 38.4878 56.207 38.3189 56.236 38.1448C56.3487 38.1166 56.4613 38.0885 56.5774 38.0594C56.5492 37.975 56.521 37.8905 56.492 37.8034C56.3198 37.7895 56.1476 37.7757 55.9753 37.7618C55.8093 37.7181 55.8093 37.7181 55.6387 37.4621C55.4023 37.3779 55.4023 37.3779 55.132 37.3234C54.8686 37.2639 54.615 37.2062 54.3586 37.1207C54.3305 37.0644 54.3023 37.0081 54.2733 36.9501C53.9635 36.9501 53.6538 36.9501 53.3346 36.9501C53.4473 36.8938 53.5599 36.8374 53.676 36.7794C53.6988 36.7266 53.7217 36.6738 53.7453 36.6194C53.9033 36.3366 54.1551 36.219 54.444 36.0967C54.6995 36.0245 54.9503 35.9744 55.212 35.9261C55.212 35.6444 55.212 35.3628 55.212 35.0727C55.0712 35.1009 54.9304 35.129 54.7853 35.158C54.9288 34.6333 55.0922 34.2742 55.468 33.878C55.3835 33.9062 55.299 33.9343 55.212 33.9633C55.0994 33.8225 54.9867 33.6817 54.8707 33.5367C54.7298 33.6493 54.589 33.7619 54.444 33.878C54.1133 33.7287 54.1133 33.7287 54.0173 33.5367C53.998 33.3913 53.9824 33.2454 53.9693 33.0993C53.9621 33.0216 53.955 32.944 53.9476 32.864C53.9425 32.8044 53.9373 32.7447 53.932 32.6833C53.763 32.6551 53.594 32.627 53.4199 32.598C53.4217 32.5029 53.4235 32.4079 53.4253 32.31C53.4425 32.0149 53.4425 32.0149 53.3346 31.8299C53.1605 31.8134 52.9864 31.7968 52.8123 31.7803C52.6519 31.7446 52.6519 31.7446 52.5239 31.5686C52.5098 31.514 52.4958 31.4595 52.4813 31.4033C52.4813 31.5722 52.4813 31.7412 52.4813 31.9153C52.3418 31.8715 52.2033 31.8247 52.0652 31.7766C51.988 31.7509 51.9108 31.7251 51.8312 31.6986C51.6279 31.5739 51.6279 31.5739 51.5192 31.3429C51.4538 31.0464 51.4156 30.7621 51.3932 30.4592C51.3849 30.3579 51.3765 30.2566 51.3679 30.1522C51.3719 29.8672 51.3719 29.8672 51.4666 29.6382C51.5677 29.4407 51.5677 29.4407 51.4679 29.2432C51.4362 29.1957 51.4045 29.1482 51.3719 29.0992C50.189 29.009 48.4575 29.3737 47.5361 30.1842ZM38.4009 29.3552C38.3526 29.4518 38.3043 29.5484 38.2546 29.6479C38.0473 30.0623 37.8401 30.4768 37.6329 30.8913C37.6094 31.1264 37.5948 31.3615 37.5799 31.5973C37.5396 31.8868 37.477 32.0867 37.2502 32.2783C37.0442 32.5156 36.9995 32.8058 36.9289 33.1046C36.913 33.1658 36.8972 33.2269 36.8809 33.2898C36.8039 33.6045 36.7699 33.8251 36.8649 34.134C37.0389 33.7133 37.1556 33.4019 37.1209 32.9393C37.1772 32.9675 37.2335 32.9956 37.2915 33.0246C37.405 33.7544 37.19 34.2641 36.8517 34.8932C36.8054 34.9814 36.8054 34.9814 36.7582 35.0714C36.7296 35.123 36.701 35.1747 36.6715 35.2279C36.5771 35.4757 36.5771 35.4757 36.6088 36.0114C37.8761 36.0114 39.1433 36.0114 40.4489 36.0114C40.2065 35.8279 40.2065 35.8279 39.9373 35.782C39.6809 35.67 39.6809 35.67 39.5339 35.398C39.4939 35.2903 39.4558 35.1818 39.4196 35.0727C39.2829 34.644 39.2829 34.644 38.9586 34.3477C38.6561 34.2876 38.4368 34.3867 38.1449 34.4753C37.8942 34.4433 37.8942 34.4433 37.7182 34.39C37.69 34.2492 37.6619 34.1084 37.6329 33.9633C37.7426 33.9549 37.7426 33.9549 37.8545 33.9463C38.3163 33.8813 38.6361 33.8306 38.9489 33.4673C39.1717 33.0695 39.3772 32.6957 39.3503 32.23C39.3386 31.8877 39.3619 31.8533 39.5529 31.5953C39.8518 31.164 39.8577 30.7157 39.7663 30.2086C39.5937 29.9435 39.5937 29.9435 39.3396 29.7819C39.2709 29.7185 39.2023 29.6552 39.1316 29.5899C38.8819 29.4194 38.6968 29.3959 38.4009 29.3552ZM72.2791 31.8299C71.9582 32.5222 71.813 33.2175 71.6818 33.9633C71.6254 33.9633 71.5691 33.9633 71.5111 33.9633C71.5111 33.2875 71.5111 32.6116 71.5111 31.9153C71.0992 32.4176 71.0992 32.4176 70.9991 33.0246C70.8433 33.0326 70.8433 33.0326 70.6844 33.0406C70.3949 33.0777 70.3051 33.1181 70.055 33.2966C69.8639 33.5226 69.8639 33.5226 69.9004 33.7873C69.925 33.8736 69.9497 33.9598 69.975 34.0487C70.0035 34.2193 70.0319 34.39 70.0604 34.5607C69.997 34.573 69.9337 34.5853 69.8684 34.598C69.4507 34.8353 69.3531 35.3172 69.207 35.7554C69.2633 35.868 69.3197 35.9807 69.3777 36.0967C70.5323 36.0967 71.6869 36.0967 72.8765 36.0967C72.8062 34.6348 72.8062 34.6348 72.6258 33.1953C72.6113 33.1001 72.5969 33.0048 72.5819 32.9066C72.4973 32.347 72.4973 32.347 72.2791 31.8299ZM34.4671 32.7553C34.286 32.9084 34.1548 33.0685 34.0488 33.2806C34.0356 33.444 34.0253 33.6076 34.0168 33.7713C33.9766 34.3042 33.8312 34.631 33.5368 35.0727C33.5912 35.3107 33.5912 35.3107 33.6968 35.558C33.7566 35.7076 33.8165 35.8572 33.8781 36.0114C34.3568 36.0114 34.8356 36.0114 35.3288 36.0114C35.3698 35.6594 35.4107 35.3074 35.4515 34.9554C35.463 34.8567 35.4745 34.758 35.4863 34.6564C35.5526 34.0844 35.6152 33.5124 35.6702 32.9393C35.0739 32.7042 35.0739 32.7042 34.4671 32.7553ZM47.1051 33.9633C47.1905 34.134 47.1905 34.134 47.1905 34.134L47.1051 33.9633ZM44.3217 34.705C44.1406 35.0075 44.1184 35.234 44.1184 35.5847C44.2787 35.745 44.5484 35.7034 44.7637 35.718C44.8659 35.7252 44.9681 35.7323 45.0734 35.7397C45.192 35.7475 45.192 35.7475 45.3131 35.7554C45.2568 35.9525 45.2004 36.1496 45.1424 36.3527C45.4081 36.2957 45.4081 36.2957 45.4997 36.0914C45.5226 36.0368 45.5455 35.9823 45.5691 35.9261C45.6536 35.9261 45.738 35.9261 45.8251 35.9261C45.8532 35.9824 45.8814 36.0387 45.9104 36.0967C46.1184 36.0737 46.1184 36.0737 46.3371 36.0114C46.3934 35.9269 46.4497 35.8424 46.5078 35.7554C46.4426 35.7307 46.3775 35.7061 46.3104 35.6807C46.0811 35.5847 46.0811 35.5847 45.8251 35.414C45.7124 35.4985 45.5998 35.583 45.4837 35.67C45.5119 35.4729 45.5401 35.2758 45.5691 35.0727C45.6536 35.0445 45.738 35.0164 45.8251 34.9874C45.7702 34.8753 45.715 34.7633 45.6597 34.6514C45.6291 34.589 45.5984 34.5266 45.5667 34.4623C45.4954 34.3079 45.4954 34.3079 45.3984 34.2193C44.8536 34.1213 44.6447 34.2988 44.3217 34.705ZM47.7878 34.4753C47.7596 34.588 47.7315 34.7006 47.7025 34.8167C47.6461 34.8167 47.5898 34.8167 47.5318 34.8167C47.56 34.9575 47.5881 35.0983 47.6171 35.2434C47.5326 35.2856 47.5326 35.2856 47.4465 35.3287C47.5309 35.3287 47.6154 35.3287 47.7025 35.3287C47.7025 35.2724 47.7025 35.2161 47.7025 35.158C47.7588 35.1299 47.8151 35.1017 47.8731 35.0727C47.8855 35.0041 47.8978 34.9354 47.9105 34.8647C47.9585 34.646 47.9585 34.646 48.2145 34.4753C48.0737 34.4753 47.9329 34.4753 47.7878 34.4753ZM47.0198 34.7314C47.0479 34.8158 47.0761 34.9003 47.1051 34.9874C47.2178 34.9029 47.3304 34.8184 47.4465 34.7314C47.3057 34.7314 47.1649 34.7314 47.0198 34.7314ZM46.3371 35.414C46.7173 35.3718 46.7173 35.3718 47.1051 35.3287C47.1051 35.3005 47.1051 35.2724 47.1051 35.2434C46.7663 35.2245 46.6585 35.2533 46.3371 35.414ZM25.5152 37.2061C25.7113 37.4022 25.7669 37.4021 26.0326 37.4248C26.3686 37.4621 26.3686 37.4621 26.4539 37.5474C26.7994 37.5827 26.7994 37.5827 27.1366 37.5474C27.2211 37.4348 27.3056 37.3221 27.3926 37.2061C26.7731 37.2061 26.1535 37.2061 25.5152 37.2061ZM33.7928 37.3768C33.8209 37.4331 33.8491 37.4894 33.8781 37.5474C33.898 38.105 33.898 38.105 33.7928 38.3154C33.7821 38.5635 33.777 38.8087 33.7768 39.0568C33.7757 39.1243 33.7747 39.1918 33.7736 39.2613C33.7728 39.5776 33.7834 39.8232 33.8838 40.1262C34.0081 40.6297 33.9355 41.1147 33.8888 41.6275C33.7435 43.1141 33.7435 43.1141 34.0914 44.5396C34.3926 45.3397 34.5463 45.9499 34.2195 46.7637C34.2195 46.8481 34.2195 46.9326 34.2195 47.0197C34.1631 47.0197 34.1068 47.0197 34.0488 47.0197C34.0862 47.1126 34.0862 47.1126 34.1243 47.2074C34.2101 47.423 34.2939 47.6392 34.3765 47.856C34.4056 47.9324 34.4346 48.0088 34.4646 48.0875C34.4946 48.1663 34.5246 48.2452 34.5555 48.3264C34.5851 48.4042 34.6148 48.482 34.6453 48.5622C34.6745 48.6389 34.7037 48.7157 34.7338 48.7947C34.7625 48.87 34.7913 48.9452 34.8209 49.0228C34.872 49.1584 34.922 49.2944 34.9703 49.431C35.0961 49.7841 35.2411 50.0839 35.4568 50.3904C35.507 50.4635 35.5571 50.5365 35.6088 50.6118C35.6814 50.6923 35.6814 50.6923 35.7555 50.7744C36.0127 50.8012 36.0127 50.8012 36.1719 50.6448C36.262 50.5539 36.262 50.5539 36.3539 50.4611C36.4222 50.3928 36.4905 50.3244 36.5609 50.254C36.6343 50.1793 36.7076 50.1047 36.7832 50.0277C36.8586 49.952 36.934 49.8762 37.0117 49.7982C37.2121 49.5966 37.4119 49.3945 37.6114 49.1921C37.8152 48.9857 38.0196 48.7801 38.2241 48.5744C38.625 48.1706 39.0252 47.7661 39.4249 47.361C39.3436 47.2523 39.2622 47.1437 39.1809 47.035C39.1355 46.9745 39.0902 46.914 39.0436 46.8517C38.9376 46.711 38.83 46.5717 38.7219 46.4327C36.6349 43.7325 35.6458 40.5713 35.3288 37.2061C35.1048 37.2015 34.8808 37.1981 34.6568 37.1954C34.5613 37.1933 34.5613 37.1933 34.4638 37.1911C34.0883 37.1719 34.0883 37.1719 33.7928 37.3768ZM36.6088 37.2061C36.6088 40.58 38.0703 43.9064 40.2783 46.4223C40.8009 45.9901 41.2773 45.5196 41.7553 45.039C41.8386 44.9555 41.922 44.872 42.0053 44.7886C42.2228 44.5708 42.44 44.3527 42.6572 44.1346C42.8796 43.9113 43.1022 43.6883 43.3249 43.4652C43.7603 43.0289 44.1954 42.5923 44.6304 42.1555C44.5895 42.0918 44.5486 42.028 44.5065 41.9622C44.4528 41.8782 44.3991 41.7942 44.3438 41.7076C44.2905 41.6244 44.2373 41.5413 44.1825 41.4556C43.4136 40.2275 42.9356 38.9011 42.753 37.4621C42.4231 37.5509 42.1134 37.6359 41.8143 37.8034C41.7879 37.7366 41.7615 37.6697 41.7343 37.6008C41.6497 37.3833 41.6497 37.3833 41.5583 37.2061C39.925 37.2061 38.2917 37.2061 36.6088 37.2061ZM69.8897 37.2914C70.2511 38.5414 70.2511 38.5414 70.6577 38.9128C70.8082 38.9709 70.8082 38.9709 70.9617 39.0301C71.2551 39.1688 71.2551 39.1688 71.3778 39.3661C71.4758 39.8348 71.4758 39.8348 71.4258 40.1075C71.2526 40.3149 71.0481 40.464 70.8284 40.6195C70.776 40.6594 70.7237 40.6994 70.6697 40.7405C70.2129 41.0624 69.7558 41.1493 69.207 41.2169C69.1507 41.4703 69.0944 41.7237 69.0364 41.9849C68.8674 42.0271 68.8674 42.0271 68.695 42.0702C68.5178 42.3076 68.5178 42.3076 68.3537 42.5822C68.272 42.674 68.272 42.674 68.1887 42.7676C67.9656 43.0729 67.8655 43.3768 67.751 43.7343C67.6154 44.1507 67.4789 44.5131 67.2443 44.8863C67.2443 44.9426 67.2443 44.9989 67.2443 45.057C67.0753 45.1414 67.0753 45.1414 66.903 45.2276C66.9593 45.2558 67.0156 45.2839 67.0736 45.313C67.166 45.2126 67.166 45.2126 67.2603 45.1103C67.4899 44.896 67.6387 44.8193 67.927 44.7156C67.9584 44.8861 67.9884 45.0568 68.0177 45.2276C68.0345 45.3227 68.0513 45.4177 68.0687 45.5156C68.1728 46.6266 67.6754 47.7974 67.2443 48.801C67.217 48.8665 67.1897 48.9319 67.1616 48.9993C67.0346 49.2837 66.9385 49.4644 66.698 49.6677C66.4367 49.7652 66.2762 49.7589 66.0016 49.7184C65.7038 49.6763 65.4843 49.6569 65.1963 49.7504C65.321 50.0339 65.4786 50.2362 65.6923 50.4598C65.7491 50.521 65.806 50.5823 65.8646 50.6454C66.0403 50.7954 66.0403 50.7954 66.2563 50.7678C66.5883 50.649 66.8738 50.4679 67.1746 50.2861C67.415 50.1771 67.415 50.1771 67.6803 50.1798C67.9277 50.1998 67.9277 50.1998 68.0993 50.0601C68.6781 49.393 69.1823 48.556 69.4584 47.7117C69.4881 47.6523 69.5178 47.5929 69.5484 47.5317C69.6457 47.4997 69.6457 47.4997 69.745 47.467C70.119 47.2947 70.233 46.9613 70.4124 46.6037C70.4526 46.5248 70.4927 46.446 70.5341 46.3647C71.9491 43.5172 72.7696 40.4696 72.8765 37.2914C71.8908 37.2914 70.9052 37.2914 69.8897 37.2914ZM74.2418 37.2914C74.1943 37.7279 74.1468 38.1644 74.0978 38.6141C73.6952 42.1081 72.7427 45.7744 70.6759 48.6841C70.2147 49.334 70.0657 49.9658 69.906 50.7378C69.7689 51.3948 69.5547 52.0275 69.3423 52.6633C69.2496 52.9588 69.1965 53.2161 69.2017 53.5265C69.2035 53.6321 69.2052 53.7377 69.207 53.8465C69.3367 53.8576 69.3367 53.8576 69.469 53.8688C70.5091 53.9717 70.5091 53.9717 70.8284 54.1985C71.0075 54.4559 71.024 54.4935 70.9937 54.7852C70.9537 54.9744 70.9048 55.154 70.8451 55.3382C70.804 55.5638 70.804 55.5638 70.9694 55.7442C71.0338 55.8026 71.0981 55.8611 71.1644 55.9212C71.2285 55.9807 71.2927 56.0403 71.3587 56.1016C71.409 56.1459 71.4593 56.1902 71.5111 56.2359C72.463 55.4764 72.463 55.4764 73.0471 54.4439C73.0623 54.2411 73.0623 54.2411 73.0365 54.0438C73.031 53.9784 73.0255 53.9129 73.0198 53.8455C72.9781 53.6593 72.9781 53.6593 72.7918 53.5888C72.707 53.5474 72.707 53.5474 72.6204 53.5052C72.5418 53.3538 72.5418 53.3538 72.5351 53.1638C72.6298 52.9418 72.6298 52.9418 72.7698 52.6838C73.0388 52.1376 73.1436 51.6259 73.2155 51.0234C73.2373 50.854 73.2695 50.6859 73.3031 50.5184C73.5963 50.323 73.7286 50.3325 74.0712 50.3478C74.0712 50.5167 74.0712 50.6857 74.0712 50.8598C74.1275 50.8598 74.1838 50.8598 74.2418 50.8598C74.2583 50.9154 74.2748 50.9711 74.2918 51.0284C74.4113 51.4296 74.533 51.829 74.6685 52.2251C74.9535 52.1301 74.9748 52.0991 75.1218 51.8555C75.1585 51.7953 75.1952 51.7351 75.233 51.6731C75.272 51.6071 75.311 51.5411 75.3512 51.4731C75.3923 51.4043 75.4335 51.3355 75.4758 51.2647C75.6062 51.0451 75.7349 50.8246 75.8632 50.6038C75.9034 50.535 75.9435 50.4663 75.9849 50.3955C76.6325 49.2795 77.1726 48.1305 77.6552 46.9343C77.6857 46.8589 77.7162 46.7835 77.7475 46.7059C78.9268 43.7386 79.618 40.4882 79.618 37.2914C77.8438 37.2914 76.0697 37.2914 74.2418 37.2914ZM80.9833 37.2914C80.9341 37.8142 80.8848 38.3369 80.834 38.8755C80.7084 40.1501 80.5735 41.4144 80.3006 42.6676C80.2746 42.7873 80.2746 42.7873 80.2481 42.9094C79.0974 48.0693 76.6151 52.7277 73.0368 56.6026C72.9821 56.6629 72.9275 56.7231 72.8711 56.7853C72.7984 56.8643 72.7984 56.8643 72.7241 56.9449C72.5956 57.0943 72.5956 57.0943 72.6204 57.3453C72.7804 57.5428 72.7804 57.5428 72.9965 57.7503C73.0364 57.7903 73.0764 57.8303 73.1175 57.8715C73.2499 58.0037 73.3832 58.135 73.5165 58.2663C73.6084 58.3577 73.7002 58.4492 73.792 58.5407C74.0338 58.7816 74.2765 59.0217 74.5192 59.2616C74.7668 59.5066 75.0136 59.7522 75.2605 59.9978C75.7452 60.4797 76.2306 60.9608 76.7166 61.4414C76.8113 61.3612 76.9059 61.2809 77.0004 61.2004C77.0795 61.1333 77.0795 61.1333 77.1601 61.0649C77.8099 60.4922 78.3728 59.7835 78.9094 59.1064C78.989 59.0064 79.0691 58.9068 79.1495 58.8076C80.403 57.2593 81.4718 55.5893 82.434 53.8465C82.4718 53.7787 82.5096 53.7109 82.5485 53.641C85.2963 48.674 86.7008 42.9607 86.7008 37.2914C84.814 37.2914 82.9273 37.2914 80.9833 37.2914ZM57.9427 38.4861C57.9146 38.5424 57.8864 38.5988 57.8574 38.6568C57.9419 38.6286 58.0264 38.6005 58.1134 38.5715C58.0571 38.5433 58.0008 38.5151 57.9427 38.4861ZM16.3843 37.2061C16.3694 38.0856 16.4201 38.9365 16.523 39.8088C16.5304 39.8732 16.5379 39.9375 16.5456 40.0038C17.0276 44.1128 18.2052 48.2119 20.1337 51.8803C20.2345 52.0738 20.3323 52.2685 20.4301 52.4635C21.3372 54.255 22.4139 55.9254 23.6378 57.5159C23.681 57.5725 23.7241 57.629 23.7686 57.6872C24.2131 58.269 24.6714 58.8328 25.1682 59.3713C25.388 59.6115 25.597 59.8602 25.8049 60.1107C25.9583 60.2771 25.9583 60.2771 26.2832 60.4173C27.4942 59.2064 28.7051 57.9955 29.9527 56.7479C29.715 56.3914 29.531 56.1383 29.2433 55.8412C27.4871 53.9371 26.1077 51.6362 24.9929 49.3087C24.9213 49.1602 24.8475 49.0127 24.7735 48.8654C24.0321 47.3498 23.4675 45.7396 23.0763 44.0996C22.9778 43.6198 22.9778 43.6198 22.6485 43.2946C22.5807 43.2566 22.513 43.2187 22.4431 43.1796C22.3558 42.9419 22.3289 42.6994 22.2991 42.4489C22.2608 41.9597 22.2608 41.9597 22.0165 41.5582C21.8745 41.7001 21.9004 41.881 21.8831 42.0755C21.8724 42.1932 21.8724 42.1932 21.8615 42.3132C21.8563 42.3738 21.8511 42.4344 21.8458 42.4969C21.7895 42.3561 21.7332 42.2153 21.6751 42.0702C21.6188 42.0702 21.5625 42.0702 21.5045 42.0702C21.4754 42.0042 21.4754 42.0042 21.4458 41.9369C21.3324 41.7118 21.3324 41.7118 21.1311 41.4729C20.8709 41.1213 20.7635 40.7351 20.6421 40.3188C20.5885 40.0943 20.5885 40.0943 20.3951 40.0222C20.2742 40.2639 20.2802 40.4893 20.2618 40.7582C20.2546 40.8596 20.2475 40.961 20.2401 41.0655C20.2349 41.1436 20.2297 41.2217 20.2244 41.3022C19.8461 40.9869 19.7073 40.6878 19.5391 40.2285C19.4328 39.9633 19.2744 39.7465 19.1151 39.5101C19.0186 39.2852 18.9389 39.0591 18.8591 38.8275C18.595 38.9155 18.5255 38.968 18.347 39.1688C18.3048 39.2146 18.2626 39.2603 18.219 39.3075C17.8566 39.8813 17.7989 40.4727 17.819 41.1369C17.8202 41.2107 17.8213 41.2846 17.8225 41.3607C17.8255 41.5403 17.8301 41.7199 17.835 41.8995C17.7787 41.8995 17.7224 41.8995 17.6644 41.8995C17.654 41.8232 17.6437 41.7469 17.633 41.6682C17.6187 41.565 17.6044 41.4618 17.5897 41.3555C17.5758 41.2545 17.562 41.1536 17.5477 41.0495C17.5109 40.7953 17.4591 40.5472 17.4033 40.2965C17.3085 39.831 17.3007 39.3812 17.307 38.9075C17.3071 38.8282 17.3071 38.7489 17.3072 38.6673C17.3103 38.1742 17.3458 37.6952 17.4083 37.2061C17.0704 37.2061 16.7325 37.2061 16.3843 37.2061ZM54.8707 42.9236C54.8425 43.0362 54.8143 43.1489 54.7853 43.2649C54.8698 43.1804 54.9543 43.0959 55.0413 43.0089C54.985 42.9807 54.9287 42.9526 54.8707 42.9236ZM45.3984 43.0089C44.0185 44.3888 42.6387 45.7686 41.217 47.1903C42.1081 48.9727 45.0855 50.1565 46.8491 50.7744C47.5771 51.0046 48.3101 51.1906 49.0678 51.2864C49.2377 51.0316 49.3188 50.8088 49.4092 50.5184C49.9288 50.5088 50.4286 50.5464 50.9452 50.6038C50.9452 50.294 50.9452 49.9842 50.9452 49.6651C50.8889 49.6369 50.8326 49.6087 50.7745 49.5797C50.7464 49.4953 50.7182 49.4108 50.6892 49.3237C50.7737 49.3237 50.8582 49.3237 50.9452 49.3237C50.9452 49.1829 50.9452 49.0421 50.9452 48.8971C50.8044 48.8971 50.6636 48.8971 50.5185 48.8971C50.4904 48.8407 50.4622 48.7844 50.4332 48.7264C50.5458 48.6701 50.6585 48.6137 50.7745 48.5557C50.6478 48.4712 50.6478 48.4712 50.5185 48.385C50.5907 48.3217 50.6629 48.2583 50.7372 48.193C50.8059 48.1156 50.8745 48.0381 50.9452 47.9584C50.9414 47.7642 50.9414 47.7642 50.8599 47.617C50.8036 47.617 50.7472 47.617 50.6892 47.617C50.6707 47.5352 50.6707 47.5352 50.6519 47.4517C50.6201 47.2778 50.6201 47.2778 50.5185 47.1903C50.5345 46.897 50.5345 46.897 50.6039 46.593C50.7165 46.5367 50.8292 46.4803 50.9452 46.4223C50.9452 46.0562 50.9452 45.6901 50.9452 45.313C50.843 45.2994 50.7408 45.2859 50.6355 45.272C48.9728 45.0392 47.4743 44.548 46.1238 43.5119C45.8893 43.3342 45.6432 43.1721 45.3984 43.0089ZM56.492 44.3743C56.3457 44.5415 56.2032 44.7121 56.0654 44.8863C56.3908 44.7866 56.3908 44.7866 56.604 44.5343C56.6234 44.4815 56.6428 44.4287 56.6627 44.3743C56.6064 44.3743 56.5501 44.3743 56.492 44.3743ZM55.1267 44.5449C54.9155 44.6717 54.9155 44.6717 54.7 44.8009C54.7616 45.0657 54.7616 45.0657 54.9667 45.1956C55.1267 45.3983 55.1267 45.3983 55.13 45.57C55.1132 45.7034 55.0934 45.8364 55.071 45.969C55.0316 46.1868 55.0316 46.1868 55.0573 46.4917C55.0413 46.7637 55.0413 46.7637 54.8707 46.9717C54.8143 47.0157 54.758 47.0597 54.7 47.105C54.3508 46.9886 54.3061 46.8193 54.1293 46.5023C54.0762 46.408 54.023 46.3138 53.9683 46.2166C53.9081 46.1072 53.9081 46.1072 53.8466 45.9956C53.7542 46.1012 53.7542 46.1012 53.66 46.209C53.4199 46.4223 53.4199 46.4223 53.1799 46.449C53.1183 46.4402 53.0567 46.4314 52.9933 46.4223C52.9651 46.3378 52.9369 46.2534 52.9079 46.1663C52.8516 46.1663 52.7953 46.1663 52.7373 46.1663C52.7549 46.1206 52.7725 46.0748 52.7906 46.0276C52.8338 45.7539 52.7504 45.5678 52.6519 45.313C52.4548 45.313 52.2577 45.313 52.0546 45.313C52.0546 46.2423 52.0546 47.1716 52.0546 48.129C52.1391 48.1572 52.2235 48.1854 52.3106 48.2144C52.2824 48.4115 52.2543 48.6086 52.2253 48.8117C52.4969 48.645 52.7091 48.5076 52.9026 48.2517C53.1349 47.9771 53.3408 47.9101 53.676 47.7877C53.6636 47.7296 53.6513 47.6715 53.6386 47.6117C53.5847 47.3301 53.5443 47.0477 53.5053 46.7637C53.6179 46.6792 53.7306 46.5947 53.8466 46.5077C53.932 46.6783 53.932 46.6783 53.9213 46.9717C53.9034 47.2647 53.9034 47.2647 54.0376 47.4227C54.2809 47.599 54.4758 47.5431 54.7617 47.5023C55.0685 47.4139 55.2333 47.2331 55.468 47.0197C55.7133 46.9503 55.7133 46.9503 55.8947 46.9343C56.0497 46.5513 56.0714 46.3123 55.98 45.9103C55.98 45.854 55.98 45.7977 55.98 45.7396C56.0927 45.7396 56.2053 45.7396 56.3214 45.7396C56.295 45.6921 56.2686 45.6446 56.2414 45.5956C56.1458 45.3876 56.1029 45.1967 56.0654 44.9716C56.0119 44.9694 55.9584 44.9672 55.9033 44.9649C55.7987 44.9577 55.7987 44.9577 55.692 44.9503C55.6227 44.9463 55.5534 44.9424 55.482 44.9383C55.2973 44.8863 55.2973 44.8863 55.1873 44.7116C55.1673 44.6566 55.1473 44.6016 55.1267 44.5449ZM66.7323 45.3983C66.6769 45.5514 66.6769 45.5514 66.6203 45.7076C66.4096 46.1421 66.0791 46.2835 65.6539 46.48C65.4252 46.5784 65.4252 46.5784 65.3669 46.849C65.8153 46.8103 66.1872 46.7776 66.5616 46.5077C66.7627 46.1579 66.8555 45.8025 66.8176 45.3983C66.7895 45.3983 66.7613 45.3983 66.7323 45.3983ZM61.8682 46.593C61.9808 46.6775 62.0935 46.762 62.2095 46.849C62.2377 46.7082 62.2658 46.5674 62.2948 46.4223C62.0966 46.4065 62.0966 46.4065 61.8682 46.593ZM60.6735 47.1903C60.589 47.3171 60.589 47.3171 60.5028 47.4463C60.2361 47.5477 60.2361 47.5477 59.9908 47.617C59.9908 47.5607 59.9908 47.5044 59.9908 47.4463C59.8244 47.463 59.8244 47.463 59.6494 47.5317C59.4748 47.8012 59.448 48.0473 59.4254 48.3637C59.4191 48.4477 59.4127 48.5318 59.4061 48.6184C59.4019 48.6822 59.3977 48.746 59.3934 48.8117C59.6046 48.8962 59.6046 48.8962 59.8201 48.9824C60.2116 48.6723 60.4841 48.3796 60.7588 47.9584C60.9935 47.7557 60.9935 47.7557 61.1855 47.617C61.0165 47.4762 60.8476 47.3354 60.6735 47.1903ZM40.1929 48.2144C39.0102 49.3971 37.8274 50.5799 36.6088 51.7985C38.666 54.1984 42.1582 56.2709 45.2277 57.0039C45.3404 57.0039 45.453 57.0039 45.5691 57.0039C45.4671 56.7287 45.3756 56.6457 45.1317 56.4652C44.8864 56.2359 44.8864 56.2359 44.8224 55.9426C44.8984 55.5816 45.0048 55.5114 45.2727 55.2829C45.4356 55.0803 45.4409 54.94 45.4574 54.6829C45.463 54.6061 45.4685 54.5294 45.4743 54.4503C45.4774 54.3919 45.4805 54.3334 45.4837 54.2732C47.1314 53.6086 47.1314 53.6086 47.9371 53.6132C48.1773 53.5848 48.234 53.5183 48.3852 53.3345C48.6021 53.0819 48.8126 52.9989 49.1265 52.8918C49.2113 52.8624 49.2961 52.8331 49.3835 52.8028C49.4483 52.7811 49.5131 52.7595 49.5798 52.7371C49.5517 52.6808 49.5235 52.6245 49.4945 52.5665C49.3287 52.5174 49.3287 52.5174 49.1265 52.4901C49.0111 52.4712 49.0111 52.4712 48.8933 52.4519C48.8101 52.4387 48.7269 52.4254 48.6412 52.4118C45.7341 51.9119 42.8546 50.6214 40.722 48.5524C40.5243 48.3614 40.5243 48.3614 40.1929 48.2144ZM61.7398 49.0428C59.8707 50.5946 57.7066 51.5698 55.3827 52.2251C55.3545 52.3941 55.3263 52.5631 55.2973 52.7371C55.4455 52.7357 55.4455 52.7357 55.5967 52.7341C55.728 52.7333 55.8593 52.7326 55.9907 52.7318C56.0556 52.7311 56.1205 52.7304 56.1874 52.7296C56.4738 52.7284 56.7377 52.7354 57.021 52.7828C57.4284 52.8504 57.8137 52.8003 58.1987 52.6518C58.374 52.3662 58.374 52.3662 58.4547 52.0545C58.7289 51.7836 59.0246 51.7279 59.3934 51.6438C60.2481 51.4319 60.9835 51.1025 61.6275 50.4894C61.783 50.3476 61.9423 50.2377 62.1188 50.1237C62.3838 49.9485 62.3838 49.9485 62.4762 49.7291C62.46 49.372 62.3373 49.0578 62.2095 48.7264C62.0199 48.7264 61.8798 48.9258 61.7398 49.0428ZM52.0546 48.8117C52.0827 48.868 52.1109 48.9244 52.1399 48.9824C52.1681 48.9261 52.1962 48.8697 52.2253 48.8117C52.1689 48.8117 52.1126 48.8117 52.0546 48.8117ZM26.2832 48.8971C27.2421 51.1289 28.673 53.122 30.2477 54.9582C30.4645 55.2117 30.6783 55.4673 30.8914 55.7239C31.3403 55.3445 31.7746 54.9525 32.2034 54.5505C32.2651 54.4932 32.3268 54.4359 32.3904 54.3769C32.449 54.322 32.5077 54.2671 32.5681 54.2105C32.621 54.161 32.674 54.1116 32.7285 54.0606C32.8629 53.9359 32.8629 53.9359 32.9394 53.7612C32.8514 53.7289 32.7634 53.6967 32.6727 53.6635C32.3198 53.5118 32.0909 53.2966 31.8301 53.0198C31.7856 52.974 31.7412 52.9282 31.6954 52.881C31.3581 52.5307 31.036 52.1686 30.7207 51.7985C30.1161 51.0654 30.1161 51.0654 29.3553 50.5184C29.1803 50.5336 29.1803 50.5336 28.998 50.5771C28.6095 50.6449 28.4186 50.5388 28.0913 50.3264C27.6567 50.0116 27.2593 49.6622 26.8738 49.2891C26.6757 49.0983 26.5485 48.9855 26.2832 48.8971ZM63.1482 49.8357C63.01 50.0552 62.9738 50.1495 63.0095 50.4118C63.0271 50.4751 63.0447 50.5385 63.0629 50.6038C63.6527 50.7513 63.6527 50.7513 64.2576 50.7744C63.8549 50.2817 63.8549 50.2817 63.4042 49.8357C63.3197 49.8357 63.2352 49.8357 63.1482 49.8357ZM55.2973 49.9211C55.3584 50.2006 55.3584 50.2006 55.6333 50.3158C56.1039 50.4991 56.6125 50.5847 57.1 50.4384C57.1528 50.4085 57.2056 50.3786 57.26 50.3478C57.2319 50.2914 57.2037 50.2351 57.1747 50.1771C56.9703 50.1381 56.773 50.109 56.5667 50.0864C56.4556 50.0731 56.3445 50.0598 56.23 50.0461C56.1194 50.033 56.0087 50.0199 55.8947 50.0064C55.6954 49.9792 55.4964 49.9503 55.2973 49.9211ZM53.9426 50.5984C53.6364 50.7655 53.4302 50.7908 53.0786 50.7744C52.8149 50.9502 52.7789 51.0156 52.6519 51.2864C52.5956 51.3428 52.5393 51.3991 52.4813 51.4571C52.7463 51.4359 53.0111 51.4121 53.2759 51.3878C53.3511 51.3818 53.4263 51.3758 53.5038 51.3696C53.5761 51.3627 53.6484 51.3559 53.723 51.3488C53.7895 51.343 53.8561 51.3372 53.9247 51.3312C54.1413 51.2767 54.226 51.2086 54.3586 51.0304C54.3586 50.946 54.3586 50.8615 54.3586 50.7744C54.415 50.7463 54.4713 50.7181 54.5293 50.6891C54.5293 50.8299 54.5293 50.9707 54.5293 51.1158C55.0634 51.0637 55.0634 51.0637 55.5533 50.8598C55.4041 50.8044 55.2547 50.7494 55.1053 50.6944C55.0222 50.6637 54.939 50.633 54.8533 50.6014C54.7746 50.574 54.6958 50.5466 54.6146 50.5184C54.555 50.4973 54.4954 50.4762 54.434 50.4544C54.2192 50.4259 54.1268 50.4886 53.9426 50.5984ZM34.8266 53.5294C34.7712 53.5857 34.7159 53.642 34.6589 53.7C34.5957 53.7632 34.5325 53.8264 34.4674 53.8916C34.4001 53.9611 34.3328 54.0306 34.2635 54.1022C34.1939 54.1724 34.1243 54.2426 34.0525 54.3149C33.8298 54.54 33.6086 54.7666 33.3874 54.9932C33.237 55.1458 33.0864 55.2983 32.9358 55.4507C32.5661 55.8251 32.1976 56.2007 31.8301 56.5772C31.9112 56.6729 31.9925 56.7684 32.0739 56.8638C32.1192 56.917 32.1644 56.9702 32.2111 57.025C32.8358 57.7382 33.6384 58.3086 34.3901 58.8813C34.4418 58.9207 34.4934 58.9602 34.5466 59.0008C35.3467 59.6083 36.1726 60.1592 37.0355 60.6734C37.1141 60.7205 37.1141 60.7205 37.1942 60.7685C38.8977 61.7822 40.708 62.5935 42.5823 63.2334C42.6617 63.2606 42.741 63.2877 42.8227 63.3157C44.5297 63.8894 46.2961 64.2656 48.0811 64.4975C48.1535 64.507 48.2259 64.5165 48.3005 64.5264C49.1809 64.6293 50.056 64.6437 50.9452 64.6841C50.9452 62.91 50.9452 61.1359 50.9452 59.308C50.7396 59.2052 50.5899 59.2027 50.3602 59.189C45.8785 58.8938 41.3119 57.4931 37.7799 54.6275C37.4225 54.3395 37.1207 54.2042 36.6765 54.0899C36.2912 53.9724 35.9367 53.7918 35.5748 53.6165C35.197 53.4135 35.197 53.4135 34.8266 53.5294ZM70.0604 56.4919C69.9864 56.614 69.9138 56.7368 69.8417 56.8599C69.8011 56.9282 69.7605 56.9965 69.7187 57.0669C69.6045 57.2677 69.6045 57.2677 69.719 57.5159C70.0551 57.5472 70.194 57.5417 70.4764 57.3453C70.5362 57.2889 70.5961 57.2326 70.6577 57.1746C70.5305 56.8507 70.3371 56.6958 70.0604 56.4919ZM30.6532 57.7438C30.5867 57.8105 30.5202 57.8772 30.4517 57.946C30.3765 58.0211 30.3013 58.0963 30.2239 58.1737C30.1414 58.2567 30.0589 58.3397 29.9763 58.4226C29.8923 58.5068 29.8082 58.591 29.7242 58.6752C29.5025 58.8972 29.281 59.1195 29.0596 59.3418C28.8338 59.5685 28.6078 59.7949 28.3818 60.0213C27.9381 60.466 27.4946 60.9109 27.0513 61.356C27.1508 61.4554 27.1508 61.4554 27.2524 61.5568C27.3936 61.6983 27.5341 61.8406 27.6733 61.9841C28.0969 62.4176 28.5331 62.8163 29.007 63.1941C29.1977 63.3464 29.3859 63.5002 29.573 63.6568C31.7991 65.5118 34.2704 66.9933 36.8649 68.2682C36.9487 68.3095 37.0325 68.3507 37.1188 68.3932C40.8374 70.2024 44.9568 71.2289 49.0625 71.6176C49.1346 71.6245 49.2067 71.6313 49.2809 71.6384C49.8411 71.6861 50.3775 71.6816 50.9452 71.6816C50.9452 69.823 50.9452 67.9644 50.9452 66.0495C50.6335 65.9872 50.3642 65.9482 50.0509 65.9305C45.8769 65.6721 41.7576 64.6948 38.047 62.7194C37.8804 62.6316 37.7125 62.5469 37.5442 62.4624C35.2077 61.277 33.1082 59.6699 31.2021 57.8829C30.9408 57.5795 30.9408 57.5795 30.6532 57.7438ZM71.2887 58.379C71.0544 58.5898 70.8184 58.7859 70.5627 58.9703C69.6888 59.6161 69.2149 60.2557 68.7283 61.2207C67.8555 62.9447 65.2595 64.2648 63.4895 64.8548C63.3459 64.8669 63.2017 64.8736 63.0575 64.8761C62.9826 64.8783 62.9077 64.8805 62.8305 64.8828C62.7664 64.8736 62.7023 64.8643 62.6362 64.8548C62.5799 64.7703 62.5235 64.6858 62.4655 64.5988C62.2611 64.5082 62.2611 64.5082 62.0228 64.4495C61.9442 64.427 61.8655 64.4046 61.7845 64.3815C61.2226 64.2971 60.7183 64.4857 60.1879 64.6524C57.7943 65.4042 55.3098 65.8496 52.8009 65.9394C52.5321 65.9492 52.3114 65.9639 52.0546 66.0495C52.0546 67.9081 52.0546 69.7667 52.0546 71.6816C53.8054 71.6967 53.8054 71.6967 55.5373 71.5803C55.6429 71.5689 55.7485 71.5576 55.8573 71.5459C59.6754 71.1136 63.4339 70.1021 66.903 68.4389C66.9693 68.4072 67.0356 68.3756 67.1039 68.3429C67.4441 68.1792 67.7812 68.0102 68.116 67.8355C68.2677 67.7565 68.4201 67.679 68.5727 67.6015C70.9814 66.3635 73.1456 64.7521 75.1805 62.9774C75.2553 62.9123 75.3301 62.8472 75.4072 62.7801C75.5595 62.6471 75.7116 62.5138 75.8632 62.3801C75.7328 62.0725 75.5504 61.875 75.3155 61.6396C75.2375 61.5611 75.1595 61.4825 75.0791 61.4016C74.9938 61.3166 74.9085 61.2316 74.8232 61.1467C74.7358 61.0592 74.6484 60.9717 74.5611 60.8841C74.3783 60.7011 74.1952 60.5184 74.0119 60.3358C73.7766 60.1015 73.542 59.8664 73.3077 59.631C73.1276 59.4504 72.9472 59.2701 72.7666 59.0899C72.6799 59.0034 72.5933 58.9167 72.5069 58.8298C72.3864 58.7089 72.2653 58.5885 72.1441 58.4682C72.0753 58.3995 72.0064 58.3308 71.9355 58.26C71.6421 58.0044 71.5423 58.1452 71.2887 58.379ZM54.6733 58.9986C53.9685 59.0944 53.2702 59.1701 52.5593 59.1978C52.2828 59.1862 52.2828 59.1862 52.0546 59.308C52.0466 59.4756 52.0446 59.6434 52.0449 59.8112C52.0449 59.9188 52.0449 60.0264 52.0449 60.1373C52.0453 60.2557 52.0458 60.374 52.0462 60.4923C52.0464 60.6128 52.0465 60.7332 52.0466 60.8536C52.0469 61.1711 52.0478 61.4885 52.0487 61.806C52.0496 62.1298 52.05 62.4535 52.0504 62.7772C52.0513 63.4129 52.0528 64.0485 52.0546 64.6841C53.098 64.6468 54.1301 64.6015 55.164 64.4495C55.2676 64.4347 55.3711 64.4199 55.4779 64.4046C56.8622 64.1994 58.2271 63.9042 59.5641 63.4894C59.3315 63.2568 59.0604 63.2001 58.7534 63.1054C58.1365 62.9151 58.1365 62.9151 57.9427 62.7214C57.9306 62.1265 58.2482 61.7903 58.6254 61.356C57.9057 60.4101 57.102 60.2189 55.98 59.9907C56.0245 59.824 56.0689 59.6573 56.1134 59.4907C56.1621 59.2833 56.1621 59.2833 56.1507 58.9666C55.6445 58.8373 55.1813 58.9257 54.6733 58.9986Z" fill="white"/>
<path d="M48.897 75.7773C48.9566 75.7865 49.0162 75.7956 49.0775 75.8051C49.6708 75.899 50.2395 76.0154 50.8064 76.22C51.2521 76.3764 51.6707 76.4725 52.1398 76.3747C52.2435 76.3226 52.3462 76.2685 52.4481 76.213C52.8677 75.9933 53.2918 75.922 53.7558 75.8467C53.8359 75.8327 53.9159 75.8186 53.9983 75.8042C54.7467 75.6757 55.4834 75.5937 56.2429 75.5863C56.3149 75.5855 56.3869 75.5847 56.4611 75.5838C58.7537 75.5628 60.9369 75.7213 63.1481 76.3747C63.2536 76.4055 63.2536 76.4055 63.3613 76.4369C64.2349 76.6968 65.0632 77.0179 65.8871 77.4071C66.8686 77.8632 67.8621 78.2815 68.8672 78.6826C69.1388 78.7913 69.4098 78.9014 69.6807 79.0116C73.4958 80.5487 77.5561 81.0091 81.4481 79.4029C82.018 79.1564 82.5589 78.8676 83.0877 78.5423C83.2084 78.4692 83.3329 78.4026 83.4579 78.3374C83.5143 78.3656 83.5706 78.3937 83.6286 78.4227C83.3296 78.7493 83.0296 79.0748 82.7281 79.3991C82.6335 79.5009 82.5394 79.6032 82.4456 79.7058C80.0941 82.1787 76.4169 83.659 73.047 83.7989C72.9701 83.8024 72.8932 83.8059 72.814 83.8096C68.7675 83.9009 65.016 82.1649 61.7827 79.8734C61.6374 79.7714 61.4921 79.6694 61.3467 79.5674C61.2379 79.4912 61.2379 79.4912 61.1269 79.4134C60.8423 79.2141 60.5577 79.0151 60.2728 78.8163C60.1469 78.7283 60.0213 78.6401 59.8959 78.5515C58.041 77.2438 56.3385 76.9582 54.1025 77.3134C54.202 77.3611 54.3014 77.4089 54.4039 77.4581C55.5899 78.0351 56.7273 78.6818 57.8573 79.3614C57.9563 79.4209 57.9563 79.4209 58.0574 79.4815C59.706 80.4761 61.2431 81.6287 62.7214 82.8602C62.7649 82.8964 62.8085 82.9325 62.8534 82.9698C63.4572 83.4723 64.0451 83.988 64.6198 84.5236C64.8632 84.7452 65.1125 84.9553 65.3668 85.1643C65.2292 85.5083 64.9864 85.7412 64.7268 85.9963C64.6591 86.0635 64.6591 86.0635 64.59 86.132C64.1904 86.5231 63.7657 86.8761 63.3187 87.2123C63.0648 87.0983 62.8887 86.974 62.6947 86.775C62.6493 86.729 62.6039 86.683 62.5571 86.6356C62.4081 86.4746 62.2654 86.3105 62.1227 86.1439C61.7463 85.7121 61.3423 85.3084 60.9366 84.9043C60.8069 84.7751 60.6777 84.6455 60.5485 84.5157C60.1392 84.1061 59.7257 83.7056 59.2855 83.3288C59.065 83.1395 58.8539 82.9409 58.6413 82.7429C58.1682 82.3065 57.6795 81.8942 57.1746 81.4948C57.0907 81.4284 57.0067 81.3619 56.9202 81.2935C55.6983 80.3402 54.4347 79.4795 53.0934 78.702C52.9324 78.6078 52.7735 78.511 52.6151 78.4124C52.5357 78.3648 52.4563 78.3171 52.3745 78.2681C52.3107 78.2288 52.2469 78.1895 52.1811 78.1491C51.5798 77.9571 50.9994 78.2602 50.4651 78.5187C50.3875 78.5561 50.31 78.5935 50.2301 78.632C48.0242 79.7338 45.9726 81.4234 44.1646 83.0885C43.9848 83.2528 43.8025 83.412 43.6169 83.5695C42.8776 84.2128 42.1878 84.9259 41.5582 85.6763C41.4818 85.7653 41.4054 85.8543 41.3288 85.9433C40.9294 86.4092 40.5364 86.8735 40.1928 87.383C39.8147 87.1411 39.4754 86.877 39.1368 86.583C38.7318 86.2353 38.321 85.9045 37.8888 85.5909C38.0309 85.2212 38.3047 84.982 38.5821 84.7109C38.6326 84.6611 38.6831 84.6112 38.7352 84.5599C39.0352 84.2657 39.3385 83.978 39.6591 83.7062C39.8167 83.5724 39.9719 83.4367 40.1265 83.2995C40.8618 82.6498 41.621 82.0415 42.4073 81.4547C42.5716 81.3321 42.7351 81.2085 42.8986 81.0848C44.8555 79.6146 46.98 78.43 49.153 77.3134C48.2123 76.8136 46.9753 77.0437 45.9956 77.3134C44.5167 77.7774 43.2704 78.6816 42.0332 79.5894C40.8903 80.4267 39.7116 81.2103 38.4861 81.9215C38.427 81.9558 38.3679 81.9901 38.307 82.0255C34.979 83.9302 30.9294 84.6475 27.1996 83.6412C24.7076 82.9263 22.427 81.6744 20.5656 79.8734C20.4903 79.8015 20.4149 79.7296 20.3373 79.6554C19.7774 79.1107 19.7774 79.1107 19.627 78.7641C19.9218 78.8729 20.1904 79.0072 20.4636 79.1622C23.4656 80.8483 27.0668 81.0828 30.3846 80.3641C30.4571 80.3488 30.5296 80.3334 30.6043 80.3176C31.8606 80.0284 33.0336 79.4717 34.2034 78.9443C38.844 76.8563 43.7157 74.9676 48.897 75.7773Z" fill="white"/>
<path d="M88.2371 52.2266C88.3216 52.2688 88.3216 52.2688 88.4078 52.3119C88.3767 52.3835 88.3457 52.4551 88.3138 52.5289C87.4076 54.6966 87.0726 56.9727 86.7339 59.2828C86.0714 63.7963 84.6811 67.0253 81.4103 70.2324C81.9772 69.9489 82.3968 69.5498 82.861 69.123C83.7591 68.3065 84.7387 67.6399 85.7624 66.9896C85.8208 66.9524 85.8792 66.9151 85.9394 66.8768C87.4611 65.9182 89.1085 65.1376 90.7205 64.3435C92.9419 63.2488 95.0746 62.0783 96.856 60.3334C96.925 60.2688 96.9939 60.2041 97.065 60.1374C97.9479 59.293 98.5828 58.3288 99.16 57.2614C99.2452 57.1084 99.3306 56.9555 99.4161 56.8027C99.473 56.6996 99.5299 56.5965 99.5867 56.4933C99.8641 57.0482 99.369 58.2694 99.1887 58.8384C98.3101 61.4366 96.7844 63.6625 94.8933 65.6242C94.8477 65.6717 94.8021 65.7191 94.7551 65.768C94.1522 66.3925 93.5316 66.9681 92.8452 67.5016C92.7614 67.5688 92.6776 67.636 92.5912 67.7053C91.0322 68.9458 89.2912 69.9417 87.4477 70.6964C87.3875 70.7214 87.3273 70.7465 87.2653 70.7723C85.4814 71.47 83.5182 71.7293 81.6449 72.0897C81.256 72.1646 80.8674 72.2404 80.4789 72.3171C80.4162 72.3295 80.3534 72.3418 80.2888 72.3546C79.1937 72.5724 78.1232 72.8476 77.0548 73.1739C76.8875 73.2191 76.8875 73.2191 76.7168 73.2191C76.7168 73.1628 76.7168 73.1065 76.7168 73.0484C76.8331 72.9371 76.8331 72.9371 76.9995 72.8031C79.8399 70.3677 81.0087 66.6066 82.1373 63.1743C82.6072 61.7462 83.0797 60.3335 83.7143 58.9681C83.7443 58.9033 83.7742 58.8385 83.8051 58.7718C84.3274 57.6566 84.9672 56.6312 85.6907 55.6353C85.8724 55.3846 86.0499 55.1313 86.226 54.8766C86.7566 54.1096 87.2906 53.3635 87.8958 52.6532C88.01 52.5114 88.1239 52.3692 88.2371 52.2266Z" fill="white"/>
<path d="M14.5079 52.8223C14.8659 52.9537 15.0491 53.216 15.2706 53.5103C15.3316 53.5899 15.3316 53.5899 15.3939 53.6712C15.4811 53.7851 15.5681 53.8992 15.6548 54.0134C15.7842 54.1827 15.9157 54.3502 16.048 54.5173C17.1283 55.8911 18.1353 57.3472 18.9488 58.8962C19.0303 59.0509 19.1143 59.2041 19.1984 59.3574C19.9249 60.7113 20.3892 62.1903 20.8788 63.6419C20.9062 63.723 20.9336 63.8041 20.9619 63.8877C21.0982 64.2915 21.2337 64.6955 21.3675 65.1002C21.8472 66.5391 22.4114 67.9445 23.1215 69.2867C23.1645 69.3684 23.2076 69.4501 23.252 69.5343C23.7833 70.5234 24.4111 71.3752 25.1889 72.1841C25.3456 72.3641 25.3456 72.3641 25.3456 72.5348C25.4019 72.5348 25.4582 72.5348 25.5162 72.5348C25.5162 72.5911 25.5162 72.6474 25.5162 72.7054C25.5659 72.7281 25.6157 72.7508 25.6669 72.7741C25.8628 72.8789 26.0115 72.9959 26.1776 73.1428C26.2299 73.1888 26.2823 73.2348 26.3362 73.2821C26.3754 73.3171 26.4146 73.3521 26.4549 73.3881C26.1546 73.4919 25.9629 73.4535 25.6599 73.3691C25.5683 73.3445 25.4766 73.3199 25.3822 73.2946C25.2823 73.2674 25.1825 73.2402 25.0795 73.2121C24.1585 72.9716 23.2379 72.7747 22.2995 72.6148C22.2389 72.6044 22.1784 72.594 22.116 72.5833C21.619 72.4983 21.1218 72.4154 20.6244 72.333C14.7036 71.3507 9.69452 68.7999 6.11113 63.8526C4.87919 62.1169 3.18442 59.5004 3.32898 57.2597C3.53218 57.5101 3.6849 57.7765 3.83712 58.0602C4.22989 58.7896 4.67185 59.4435 5.20636 60.0758C5.24309 60.1193 5.27982 60.1629 5.31766 60.2077C6.24433 61.2914 7.32441 62.1445 8.53445 62.8919C8.59183 62.9275 8.64921 62.9631 8.70833 62.9998C10.2437 63.9399 11.8819 64.7046 13.494 65.5017C15.6508 66.5685 17.651 67.6383 19.5238 69.1592C20.1855 69.6959 20.8374 70.1678 21.5908 70.5721C21.3339 70.3136 21.0746 70.0579 20.8134 69.8037C20.0979 69.1034 19.4133 68.4239 18.86 67.5853C18.8258 67.5341 18.7916 67.4829 18.7563 67.4302C17.0878 64.9199 16.5793 62.134 16.1248 59.1969C15.8069 57.1426 15.4633 55.1662 14.6575 53.2366C14.6023 53.1006 14.5544 52.9616 14.5079 52.8223Z" fill="white"/>
<path d="M11.1794 42.498C11.2357 42.498 11.2921 42.498 11.3501 42.498C12.9835 46.2951 13.2985 50.3442 13.6702 54.4147C13.8383 56.2551 14.0335 58.0831 14.3368 59.9065C14.3503 59.9901 14.3638 60.0736 14.3777 60.1597C14.6394 61.74 15.2975 63.1421 16.0004 64.5712C16.0393 64.6504 16.0782 64.7297 16.1182 64.8113C16.1532 64.8818 16.1882 64.9522 16.2242 65.0248C16.2996 65.1973 16.2996 65.1973 16.2996 65.368C15.9367 65.2409 15.6377 65.0514 15.3235 64.8346C14.7853 64.4697 14.2406 64.1162 13.6915 63.7679C13.6119 63.7173 13.5322 63.6668 13.4502 63.6147C13.0485 63.3598 12.6464 63.1057 12.2438 62.8522C10.1574 61.5362 8.08686 60.1713 6.22996 58.5411C6.13624 58.4601 6.13624 58.4601 6.04062 58.3775C5.87517 58.234 5.71124 58.0889 5.54728 57.9438C5.48292 57.8883 5.41857 57.8329 5.35227 57.7758C3.03035 55.7446 1.34645 53.0785 0.475144 50.1196C0.456134 50.056 0.437125 49.9924 0.417539 49.9269C0.0378241 48.5383 -0.0397959 47.1322 -0.0282229 45.6999C-0.0261638 45.4264 -0.0264766 45.1529 -0.0270354 44.8794C-0.0265608 44.705 -0.0259549 44.5305 -0.025202 44.3561C-0.0252798 44.2746 -0.0253576 44.1931 -0.0254377 44.1091C-0.0246243 44.0344 -0.0238109 43.9596 -0.0229728 43.8825C-0.0225796 43.8168 -0.0221864 43.7511 -0.0217814 43.6834C0.000465313 43.5221 0.00046531 43.5221 0.171136 43.3514C0.184667 43.4474 0.198197 43.5435 0.212137 43.6424C0.542472 45.8663 1.46013 47.6886 2.90187 49.4102C2.93973 49.4558 2.97758 49.5013 3.01659 49.5483C3.53072 50.1655 4.05851 50.7558 4.63692 51.3136C4.80665 51.4851 4.96137 51.6553 5.11693 51.8386C5.40239 52.1684 5.70624 52.4759 6.01595 52.7826C6.06665 52.8329 6.11734 52.8831 6.16957 52.9348C6.38116 53.1441 6.59304 53.353 6.80535 53.5615C7.45232 54.1977 8.05717 54.8405 8.61936 55.5544C8.7472 55.7064 8.87509 55.8584 9.00303 56.0104C9.42814 56.5301 9.79487 57.0834 10.1607 57.6451C10.9651 58.9322 10.9651 58.9322 11.9474 60.0772C11.8999 59.9994 11.8524 59.9216 11.8034 59.8415C10.9585 58.4225 10.4169 56.9289 10.1554 55.2984C10.1391 55.1984 10.1228 55.0984 10.1061 54.9954C9.85698 52.8605 10.1575 50.7471 10.5801 48.6595C10.595 48.5854 10.61 48.5113 10.6254 48.4349C10.6998 48.0672 10.7753 47.6999 10.8536 47.333C11.1541 45.903 11.3452 44.4667 11.2221 43.0047C11.2142 42.9087 11.2062 42.8127 11.1981 42.7137C11.1919 42.6425 11.1858 42.5714 11.1794 42.498Z" fill="white"/>
<path d="M91.5659 41.8145C91.6222 41.8145 91.6785 41.8145 91.7366 41.8145C91.7348 41.8821 91.733 41.9497 91.7312 42.0194C91.6777 44.3718 92.0102 46.5884 92.4651 48.893C93.2302 52.7862 92.9543 56.2494 90.9686 59.7349C91.5643 58.9212 92.148 58.1013 92.7126 57.2655C93.5773 55.9892 94.4733 54.7496 95.4913 53.5908C95.5339 53.5411 95.5764 53.4914 95.6202 53.4403C95.9812 53.0212 96.3604 52.6274 96.7547 52.2397C96.8815 52.114 97.0083 51.9883 97.135 51.8625C97.3316 51.6681 97.5284 51.4737 97.7254 51.2796C98.4446 50.5701 99.1388 49.8678 99.7581 49.068C99.868 48.9361 99.9782 48.8045 100.089 48.6733C101.481 46.9152 102.456 44.9026 102.745 42.6678C102.801 42.6678 102.857 42.6678 102.916 42.6678C102.981 43.138 103.015 43.595 103.018 44.0695C103.019 44.1362 103.019 44.2028 103.02 44.2715C103.039 47.0511 103.039 47.0511 102.745 48.2146C102.727 48.2865 102.709 48.3584 102.691 48.4324C102.312 49.9197 101.754 51.2965 101.038 52.6521C101.012 52.703 100.985 52.7539 100.958 52.8064C100.499 53.6753 99.9365 54.4417 99.3314 55.2121C99.2673 55.2946 99.2032 55.3771 99.1371 55.4621C97.9975 56.8925 96.6882 58.1181 95.2353 59.2229C95.1852 59.2613 95.135 59.2997 95.0834 59.3392C94.3401 59.9059 93.5694 60.4145 92.7763 60.9083C91.9659 61.4137 91.1696 61.9416 90.3712 62.4657C90.3188 62.4999 90.2664 62.5342 90.2124 62.5695C89.6247 62.954 89.0482 63.3543 88.4725 63.7564C88.3649 63.8314 88.3649 63.8314 88.2551 63.908C87.8608 64.1844 87.4735 64.4666 87.0945 64.7637C86.9578 64.855 86.9578 64.855 86.7871 64.855C86.8329 64.4278 86.9804 64.1022 87.1818 63.7297C88.9862 60.233 89.1273 56.1956 89.4325 52.3511C89.7256 48.6717 90.2301 45.2739 91.5659 41.8145ZM90.7979 59.8203C90.7697 59.8766 90.7416 59.9329 90.7125 59.9909C90.7689 59.9909 90.8252 59.9909 90.8832 59.9909C90.8551 59.9346 90.8269 59.8783 90.7979 59.8203Z" fill="white"/>
<path d="M81.1547 63.1484C81.1547 63.4896 81.028 63.6141 80.8347 63.8951C80.0231 65.119 79.4039 66.4571 78.792 67.7886C78.0023 69.5055 77.1975 71.0861 75.8639 72.45C75.8062 72.5117 75.7486 72.5734 75.6892 72.637C74.6548 73.6623 73.2255 74.315 71.8531 74.7541C71.7711 74.7804 71.7711 74.7804 71.6874 74.8073C71.3741 74.9075 71.0594 75.0026 70.7438 75.0954C71.5493 75.0539 72.317 74.9309 73.1065 74.7701C75.3306 74.3344 77.571 74.1455 79.8278 73.9646C83.977 73.6301 88.7026 73.105 91.6003 69.7306C91.6744 69.6418 91.7484 69.5528 91.8216 69.4633C91.878 69.4914 91.9343 69.5196 91.9923 69.5486C91.404 70.7224 90.7591 71.7154 89.8636 72.6854C89.7124 72.8503 89.569 73.0186 89.4269 73.1914C89.1445 73.521 88.8275 73.795 88.4935 74.0714C88.4508 74.1076 88.408 74.1438 88.364 74.1811C87.4932 74.9162 86.572 75.5388 85.5921 76.1194C85.509 76.1689 85.509 76.1689 85.4242 76.2194C83.4086 77.4024 80.9713 78.1708 78.6286 78.1848C78.5612 78.1854 78.4937 78.186 78.4242 78.1866C78.2072 78.1881 77.9903 78.1887 77.7733 78.1888C77.6988 78.1889 77.6244 78.1889 77.5477 78.189C74.804 78.1856 72.1737 77.5746 69.5166 76.9346C67.5191 76.4539 65.524 75.9949 63.4902 75.6928C63.4902 75.6364 63.4902 75.5801 63.4902 75.5221C63.5528 75.5076 63.6153 75.493 63.6798 75.4781C65.5825 75.0317 67.3998 74.5017 69.1224 73.5594C69.2007 73.5166 69.279 73.4738 69.3597 73.4297C70.1852 72.9556 70.9162 72.3724 71.6071 71.7217C71.6655 71.6668 71.7239 71.6119 71.784 71.5554C72.5778 70.8041 73.3448 70.0256 74.1145 69.2499C74.4138 68.9483 74.7134 68.647 75.0132 68.3459C75.0801 68.2783 75.1469 68.2108 75.2158 68.1412C75.5724 67.783 75.936 67.4394 76.3201 67.1107C76.4895 66.9641 76.6469 66.8084 76.8026 66.6472C77.1299 66.316 77.4732 66.0114 77.8266 65.7085C77.9087 65.6359 77.9907 65.5633 78.0753 65.4885C78.6714 64.9642 79.2875 64.473 79.9227 63.9965C80.0323 63.9141 80.0323 63.9141 80.1442 63.8301C80.4734 63.5854 80.8003 63.3558 81.1547 63.1484Z" fill="white"/>
<path d="M21.846 63.6602C22.2802 63.7964 22.5973 64.0607 22.9501 64.3375C23.0139 64.387 23.0777 64.4366 23.1434 64.4876C23.2743 64.5893 23.4049 64.6912 23.5354 64.7934C23.7067 64.9271 23.8787 65.0599 24.0511 65.1922C24.6057 65.6199 25.1346 66.0628 25.6485 66.5392C25.8273 66.7049 26.0084 66.8662 26.1928 67.0256C26.8179 67.5697 27.4323 68.1272 28.012 68.7196C28.1593 68.864 28.3118 68.9974 28.4689 69.131C28.9584 69.5568 29.4071 70.0225 29.8619 70.4847C30.2299 70.8562 30.6021 71.2144 31.0012 71.5524C31.1467 71.6809 31.2777 71.8162 31.4089 71.959C33.3942 73.9623 36.3584 74.9792 39.0466 75.5562C39.153 75.5796 39.153 75.5796 39.2615 75.6035C39.3242 75.6166 39.3868 75.6298 39.4514 75.6434C39.5958 75.6925 39.5958 75.6925 39.6812 75.8631C39.4768 75.9025 39.2723 75.9416 39.0678 75.9805C39.012 75.9913 38.9562 76.002 38.8986 76.0131C38.5346 76.0821 38.1706 76.1399 37.8037 76.1918C37.23 76.2798 36.6773 76.4142 36.1174 76.5655C35.9104 76.6203 35.7034 76.675 35.4963 76.7297C35.3897 76.7581 35.2831 76.7865 35.1732 76.8157C29.1963 78.4019 22.989 79.7192 17.3189 76.4447C14.787 74.9464 12.4614 72.8751 11.0938 70.231C11.0938 70.1747 11.0938 70.1183 11.0938 70.0603C11.4221 70.1941 11.616 70.4065 11.8618 70.6577C15.2102 74.0466 20.3549 74.1098 24.7914 74.4278C27.0417 74.5897 29.2372 74.8496 31.4508 75.3021C31.8673 75.3859 32.2562 75.463 32.6836 75.4365C32.6287 75.4215 32.5739 75.4065 32.5173 75.3911C29.2159 74.4825 26.9566 72.9983 25.2257 69.9969C24.7349 69.1263 24.301 68.2267 23.8586 67.3309C23.0193 65.5944 23.0193 65.5944 21.9605 63.9908C21.846 63.8308 21.846 63.8308 21.846 63.6602Z" fill="white"/>
<path d="M101.294 27.5645C101.35 27.5645 101.406 27.5645 101.464 27.5645C103.443 32.4285 103.418 38.0536 101.37 42.917C101.332 43.0054 101.332 43.0054 101.294 43.0955C101.264 43.1645 101.235 43.2336 101.205 43.3047C100.763 44.3272 100.257 45.2159 99.5556 46.0803C99.3555 46.3285 99.1614 46.5813 98.9666 46.8337C98.5649 47.3536 98.1585 47.8699 97.7524 48.3863C97.7151 48.4338 97.6778 48.4813 97.6394 48.5302C97.4753 48.7393 97.311 48.9484 97.1458 49.1568C96.4508 50.0336 95.7903 50.9279 95.1546 51.8487C95.0677 51.9747 94.9807 52.1006 94.8936 52.2264C94.8521 52.2866 94.8105 52.3467 94.7677 52.4086C94.6696 52.5486 94.5686 52.6864 94.467 52.8238C94.4388 52.8238 94.4106 52.8238 94.3816 52.8238C94.3716 52.3002 94.3861 51.7834 94.4243 51.2611C94.4613 50.7101 94.4816 50.1599 94.4883 49.6077C94.491 49.5039 94.491 49.5039 94.4938 49.3981C94.5018 47.8918 94.1365 46.4878 93.6568 45.0722C93.4991 44.6054 93.347 44.1368 93.1946 43.6682C93.1642 43.5751 93.1339 43.482 93.1026 43.3861C92.1022 40.3013 91.3686 37.1171 90.9222 33.9055C90.8886 33.6647 90.8528 33.4243 90.8162 33.1839C90.667 32.1345 90.7296 31.0941 90.7975 30.0392C90.9838 30.2254 91.0168 30.323 91.0915 30.5705C91.1144 30.6438 91.1373 30.7171 91.1608 30.7926C91.1853 30.8714 91.2097 30.9501 91.2349 31.0312C91.5012 31.8569 91.8319 32.6079 92.2482 33.3673C92.2894 33.444 92.2894 33.444 92.3313 33.5223C92.7512 34.3054 93.2153 35.06 93.6829 35.8153C95.2892 38.4149 96.6142 40.8098 96.6323 43.9329C96.6328 44.0009 96.6333 44.0689 96.6338 44.139C96.6381 45.3694 96.4913 46.5108 96.1737 47.7036C96.476 46.663 96.731 45.6176 96.963 44.5592C97.4948 42.1449 98.2163 39.9558 99.2287 37.6977C100.039 35.8868 100.832 34.0447 101.208 32.0872C101.232 31.9646 101.232 31.9646 101.256 31.8394C101.375 31.1591 101.403 30.496 101.397 29.8061C101.395 29.6328 101.395 29.4595 101.395 29.2862C101.392 28.7055 101.373 28.1398 101.294 27.5645Z" fill="white"/>
<path d="M1.36499 28.332C1.45308 28.5963 1.4318 28.7237 1.38849 28.9905C1.22937 30.3102 1.28572 31.737 1.62099 33.0255C1.63704 33.0886 1.65309 33.1518 1.66962 33.2168C2.15658 35.0825 2.96329 36.8313 3.76995 38.5754C4.23575 39.5835 4.67159 40.5938 5.03442 41.6444C5.0542 41.7 5.07399 41.7557 5.09438 41.813C5.42791 42.7586 5.6294 43.7327 5.84144 44.7111C5.9683 45.2957 6.10173 45.8785 6.23978 46.4605C6.25935 46.5447 6.27893 46.6289 6.29909 46.7157C6.4417 47.3131 6.62419 47.8914 6.82646 48.4712C6.81398 48.4201 6.80151 48.3689 6.78865 48.3162C6.73163 48.0817 6.67504 47.8471 6.61846 47.6125C6.59882 47.5321 6.57919 47.4516 6.55896 47.3687C5.56939 43.2527 7.30681 39.2764 9.4132 35.8202C9.70422 35.3462 10.0009 34.8763 10.3019 34.4085C10.8463 33.5538 11.1796 32.6423 11.4863 31.6825C11.5997 31.3289 11.7285 30.9828 11.8613 30.6361C11.8894 30.6361 11.9176 30.6361 11.9466 30.6361C12.153 32.5881 11.8723 34.5207 11.5839 36.4496C11.5721 36.5299 11.5603 36.6102 11.5482 36.6929C11.2532 38.683 10.7713 40.6185 10.2148 42.5503C10.1307 42.8423 10.0475 43.1345 9.96431 43.4268C9.73496 44.232 9.50405 45.0366 9.26738 45.8396C9.18785 46.1095 9.10895 46.3796 9.03005 46.6497C8.97817 46.826 8.92511 47.0018 8.87193 47.1777C8.56483 48.2258 8.414 49.2764 8.4265 50.3699C8.42683 50.4439 8.42716 50.5179 8.4275 50.5941C8.4364 51.2786 8.50179 51.9543 8.58117 52.6337C8.61452 52.9259 8.62607 53.2116 8.61851 53.506C8.24293 53.2435 8.03378 52.941 7.80782 52.5513C7.14568 51.4534 6.34153 50.4635 5.50743 49.4926C5.17197 49.101 4.84699 48.7012 4.5224 48.3005C4.44262 48.2032 4.36284 48.1059 4.28306 48.0085C1.79347 44.9546 0.632921 41.7708 0.0849546 37.8896C0.0753981 37.8231 0.0658416 37.7566 0.0559955 37.6881C-0.0281093 36.9967 -0.0193326 36.298 -0.0208815 35.6026C-0.0217032 35.3807 -0.0243543 35.1589 -0.0270483 34.937C-0.0334435 33.9353 0.0640929 32.9842 0.255626 32.0015C0.275687 31.8982 0.295749 31.7949 0.316419 31.6885C0.372385 31.4167 0.432535 31.1464 0.495632 30.8761C0.517268 30.7827 0.538904 30.6892 0.561196 30.5929C1.02032 28.6767 1.02032 28.6767 1.36499 28.332Z" fill="white"/>
<path d="M95.5768 14.252C96.5028 14.769 97.055 15.7765 97.6249 16.6413C97.6814 16.7264 97.6814 16.7264 97.7391 16.8133C98.8491 18.4938 99.5617 20.2863 99.9983 22.2522C100.015 22.3266 100.032 22.4011 100.049 22.4779C100.302 23.6898 100.389 24.8998 100.382 26.1349C100.382 26.1997 100.382 26.2645 100.382 26.3312C100.378 27.3852 100.319 28.4079 100.1 29.4417C100.085 29.5134 100.069 29.5851 100.054 29.6589C99.8229 30.7219 99.4866 31.7205 99.0742 32.7251C98.2796 34.662 97.7198 36.6237 97.3605 38.6846C97.3415 38.7914 97.3225 38.8982 97.3029 39.0083C97.2786 39.151 97.2786 39.151 97.2537 39.2967C97.2262 39.4029 97.2262 39.4029 97.1982 39.5113C97.1419 39.5394 97.0856 39.5676 97.0275 39.5966C97.0121 39.5361 96.9967 39.4756 96.9808 39.4133C96.1413 36.1423 94.6344 33.6806 92.5841 31.0216C90.7994 28.6969 89.1765 26.3273 88.2646 23.5215C88.2445 23.4603 88.2243 23.399 88.2036 23.3359C87.3934 20.8713 87.3934 20.8713 87.5553 20.3108C87.6112 20.3965 87.667 20.4822 87.7246 20.5705C88.2609 21.3794 88.8386 22.0939 89.518 22.7855C89.5982 22.8689 89.6783 22.9524 89.7583 23.0358C90.1951 23.4838 90.6479 23.8878 91.137 24.2772C91.5118 24.5891 91.8641 24.9235 92.2187 25.2581C92.4929 25.5167 92.768 25.772 93.0541 26.0176C94.8795 27.5991 96.0878 29.5987 96.559 31.9652C96.6149 32.2418 96.6743 32.5175 96.7336 32.7933C96.7567 32.9008 96.7797 33.0083 96.8035 33.119C96.8211 33.2009 96.8387 33.2828 96.8569 33.3671C96.8493 33.3011 96.8417 33.2352 96.8339 33.1672C96.6469 31.5038 96.5578 29.8672 96.5679 28.1915C96.5689 28.0142 96.5693 27.8368 96.5697 27.6594C96.5745 25.7016 96.6558 23.768 96.9029 21.8247C96.9106 21.7636 96.9184 21.7025 96.9264 21.6395C96.9482 21.469 96.9706 21.2985 96.993 21.128C97.2437 18.9128 96.8252 16.2952 95.5768 14.4226C95.5768 14.3663 95.5768 14.31 95.5768 14.252Z" fill="white"/>
<path d="M6.57061 15.0195C6.65509 15.0195 6.73958 15.0195 6.82662 15.0195C6.71049 15.3255 6.57165 15.6066 6.41594 15.8942C5.08803 18.5371 5.51457 21.5521 5.86305 24.3748C6.18761 27.015 6.27869 29.5071 6.06441 32.1637C6.05852 32.2374 6.05263 32.311 6.04656 32.3869C6.03543 32.5249 6.02403 32.6628 6.01229 32.8007C5.97613 33.2467 5.9686 33.6871 5.97326 34.1347C5.98351 34.072 5.99375 34.0094 6.0043 33.9449C6.68358 29.8628 8.85371 27.0406 11.9575 24.3739C13.0126 23.4629 13.9546 22.5625 14.6208 21.3294C14.7628 21.0784 14.7628 21.0784 14.9335 20.9077C14.864 24.3148 13.0943 27.5058 11.1787 30.2093C11.0952 30.3279 11.0118 30.4466 10.9284 30.5653C10.5877 31.0494 10.246 31.5327 9.90136 32.014C8.05446 34.599 6.54888 37.1425 5.88793 40.2789C5.6329 40.0238 5.65662 39.7165 5.61592 39.3722C5.32466 37.2436 4.47489 35.2311 3.7122 33.2353C3.14286 31.7426 2.62343 30.2591 2.38917 28.6732C2.38106 28.6198 2.37296 28.5664 2.36461 28.5113C2.27818 27.8608 2.28676 27.2055 2.28783 26.5505C2.28791 26.4877 2.28799 26.425 2.28808 26.3603C2.29574 23.5845 2.86507 21.0581 4.18122 18.6036C4.20954 18.5495 4.23787 18.4954 4.26705 18.4396C4.89409 17.244 5.64392 16.0069 6.57061 15.0195Z" fill="white"/>
<path d="M87.7257 7.76562C89.7771 7.964 91.5996 9.4916 92.8882 11.002C94.7309 13.2725 95.4416 15.8505 95.4235 18.7407C95.4219 18.9957 95.4217 19.2506 95.4218 19.5056C95.4201 20.3759 95.3995 21.2424 95.3515 22.1114C95.3194 22.6933 95.3042 23.2738 95.3046 23.8567C95.3045 24.0017 95.3045 24.0017 95.3044 24.1496C95.3089 24.8766 95.361 25.5888 95.4539 26.3094C95.4838 26.5618 95.4992 26.7981 95.4913 27.0515C95.4349 27.0515 95.3786 27.0515 95.3206 27.0515C95.2925 26.9956 95.2645 26.9397 95.2356 26.8821C94.3034 25.0935 92.7966 23.5989 91.2245 22.358C91.1167 22.2703 91.009 22.1824 90.9015 22.0943C90.3746 21.6628 89.8459 21.2351 89.3044 20.822C86.1088 18.3778 83.9699 15.9534 83.0376 11.9524C83.009 11.8303 83.009 11.8303 82.9797 11.7057C82.9628 11.6297 82.946 11.5537 82.9286 11.4754C82.9135 11.4079 82.8985 11.3403 82.883 11.2707C82.8616 11.0937 82.8616 11.0937 82.9469 10.8377C82.9945 10.9264 83.042 11.015 83.0909 11.1064C83.4739 11.8102 83.8705 12.4488 84.3976 13.0564C84.4688 13.1471 84.5399 13.2377 84.611 13.3284C85.5152 14.3457 86.7225 15.0994 87.8411 15.8585C88.3785 16.2235 88.9094 16.5964 89.4324 16.9819C89.4807 17.0172 89.5289 17.0525 89.5785 17.0889C91.0135 18.1492 92.3078 19.4309 93.1872 20.9926C93.2722 21.1351 93.3574 21.2774 93.4432 21.4193C93.41 21.3379 93.3768 21.2565 93.3425 21.1726C92.6438 19.4001 92.1953 17.5332 91.7282 15.6892C91.7058 15.6008 91.6834 15.5125 91.6603 15.4215C91.5506 14.9881 91.4417 14.5544 91.3343 14.1204C91.1456 13.3637 90.9479 12.6131 90.7041 11.8721C90.6846 11.8121 90.6651 11.7521 90.645 11.6903C90.1321 10.1815 89.1548 8.98228 87.9167 8.00696C87.8537 7.95548 87.7907 7.904 87.7257 7.85096C87.7257 7.8228 87.7257 7.79464 87.7257 7.76562ZM93.6139 21.846C93.6992 22.0167 93.6992 22.0167 93.6992 22.0167L93.6139 21.846ZM93.6992 22.0167C93.7846 22.1873 93.7846 22.1873 93.7846 22.1873L93.6992 22.0167Z" fill="white"/>
<path d="M14.5076 8.36328C14.5076 8.4196 14.5076 8.47592 14.5076 8.53395C14.3852 8.6382 14.258 8.73677 14.1289 8.83263C11.7536 10.6987 11.2407 13.7296 10.6623 16.5239C10.2658 18.4383 9.71012 20.2599 9.02178 22.0903C8.95175 22.2678 8.95175 22.2678 8.96076 22.4436C9.0228 22.3214 9.0228 22.3214 9.0861 22.1966C10.3322 19.7773 12.1964 18.1334 14.3948 16.5945C15.3566 15.9202 16.3029 15.2356 17.153 14.4221C17.23 14.3515 17.307 14.2809 17.3863 14.2081C18.2507 13.3891 18.8376 12.455 19.2864 11.35C19.3145 11.35 19.3427 11.35 19.3717 11.35C19.5191 14.2332 17.9598 16.7998 16.0969 18.8702C15.938 19.0386 15.7784 19.2057 15.6169 19.3716C15.5674 19.4228 15.5179 19.4741 15.4668 19.5269C14.8106 20.2039 14.1455 20.8426 13.3982 21.4196C13.273 21.5176 13.1479 21.6156 13.0229 21.7136C12.0102 22.5057 12.0102 22.5057 11.5088 22.875C11.1945 23.11 10.9051 23.3641 10.6195 23.633C10.5714 23.6779 10.5234 23.7229 10.4739 23.7692C10.3389 23.8958 10.2044 24.023 10.0701 24.1504C10.0117 24.2051 9.9533 24.2599 9.89312 24.3164C8.92121 25.2543 8.09553 26.4166 7.42972 27.5898C7.39991 27.6375 7.3701 27.6853 7.33939 27.7345C7.31123 27.7345 7.28307 27.7345 7.25405 27.7345C7.25462 27.6574 7.25462 27.6574 7.2552 27.5788C7.29406 24.5894 7.29406 24.5894 7.14484 21.6059C6.87888 18.5187 7.01501 14.8463 9.01943 12.294C9.14145 12.1495 9.26419 12.0055 9.38744 11.862C9.46494 11.7671 9.54227 11.6719 9.61945 11.5767C10.7091 10.2474 12.6656 8.36328 14.5076 8.36328ZM8.79009 22.6143C8.87543 22.785 8.87543 22.785 8.87543 22.785L8.79009 22.6143Z" fill="white"/>
<path d="M77.7402 2.90234C78.5404 3.11719 79.3059 3.42212 80.0763 3.7237C80.1788 3.76378 80.1788 3.76378 80.2834 3.80467C84.3173 5.38509 87.2998 7.55008 89.1005 11.6012C89.5565 12.6556 89.8814 13.7471 90.1992 14.8493C90.2448 15.0063 90.2907 15.1632 90.3369 15.32C90.3658 15.4189 90.3658 15.4189 90.3953 15.5198C90.4542 15.6996 90.5254 15.867 90.6046 16.0387C90.7112 16.3 90.7112 16.3 90.6259 16.556C89.5391 15.7323 88.4688 14.9068 87.4702 13.9766C87.28 13.7999 87.0852 13.6296 86.8885 13.4603C86.4943 13.1167 86.1251 12.7505 85.7564 12.3799C85.6913 12.3151 85.6261 12.2502 85.5589 12.1834C85.1537 11.7775 84.7693 11.3596 84.3964 10.9239C84.3164 10.8325 84.2363 10.7411 84.1561 10.6499C83.2544 9.61505 82.4075 8.55114 81.6549 7.40238C80.9811 6.37638 80.2552 5.52413 79.359 4.68787C79.1355 4.46959 78.9337 4.23582 78.7308 3.99852C78.5404 3.77991 78.3371 3.57948 78.1296 3.37702C77.9982 3.24882 77.8679 3.1195 77.7402 2.98768C77.7402 2.95952 77.7402 2.93136 77.7402 2.90234Z" fill="white"/>
<path d="M24.2357 3.41406C24.3202 3.4563 24.3202 3.4563 24.4064 3.4994C24.2825 3.62791 24.1579 3.7558 24.0331 3.88341C23.9291 3.99033 23.9291 3.99033 23.8231 4.09941C23.6384 4.26742 23.6384 4.26742 23.4677 4.26742C23.4677 4.32374 23.4677 4.38006 23.4677 4.43809C23.4114 4.43809 23.3551 4.43809 23.297 4.43809C23.276 4.48726 23.255 4.53643 23.2334 4.58709C23.1092 4.81036 22.9654 4.95086 22.7797 5.12611C22.3897 5.50871 22.0431 5.9119 21.705 6.34076C21.623 6.44472 21.5406 6.54839 21.458 6.65185C20.8352 7.43184 20.2449 8.2259 19.687 9.05354C19.2898 9.64236 18.8734 10.2147 18.4497 10.7845C18.3558 10.9124 18.2645 11.0423 18.1736 11.1723C17.2143 12.5421 15.9574 13.7054 14.6561 14.746C14.3893 14.9608 14.1282 15.1817 13.8675 15.4037C13.4437 15.764 13.0152 16.1179 12.5838 16.4691C12.311 16.6929 12.0434 16.922 11.7767 17.1531C11.7486 17.0968 11.7204 17.0404 11.6914 16.9824C11.7642 16.7728 11.8431 16.5693 11.9261 16.3637C12.1553 15.7746 12.3468 15.1787 12.5198 14.571C12.5498 14.4654 12.5498 14.4654 12.5805 14.3577C12.6815 14.0012 12.7809 13.6442 12.8789 13.2869C13.4313 11.2991 14.4418 9.51422 15.8728 8.02218C15.9365 7.9531 16.0002 7.88402 16.0659 7.81284C17.0633 6.76431 18.2644 6.03446 19.5423 5.37678C19.602 5.34583 19.6617 5.31488 19.7232 5.28299C21.1597 4.5474 22.7042 3.92458 24.2357 3.41406Z" fill="white"/>
<path d="M50.3476 47.2755C50.5076 47.4889 50.5076 47.4889 50.6036 47.7022C50.491 47.8993 50.3784 48.0965 50.2623 48.2996C49.9244 48.2996 49.5865 48.2996 49.2383 48.2996C49.3939 47.5215 49.3939 47.5215 49.6436 47.3342C49.8989 47.2562 50.0825 47.236 50.3476 47.2755Z" fill="white"/>
<path d="M19.2859 44.8008C19.3422 44.8008 19.3985 44.8008 19.4565 44.8008C19.8651 45.6435 20.173 46.3298 20.1392 47.2755C19.9846 47.2328 19.9846 47.2328 19.7979 47.1048C19.5929 46.6633 19.4922 46.2262 19.4079 45.7481C19.3785 45.5649 19.3785 45.5649 19.2859 45.3981C19.2824 45.199 19.2822 44.9999 19.2859 44.8008Z" fill="white"/>
<path d="M50.4337 42.3262C50.5182 42.3262 50.6026 42.3262 50.6897 42.3262C50.6897 42.4107 50.6897 42.4951 50.6897 42.5822C50.7742 42.6103 50.8587 42.6385 50.9457 42.6675C50.9493 42.8097 50.9492 42.952 50.9457 43.0942C50.8604 43.1795 50.8604 43.1795 50.647 43.1902C50.4337 43.1795 50.4337 43.1795 50.3483 43.0942C50.3281 42.5373 50.3281 42.5373 50.4337 42.3262Z" fill="white"/>
<path d="M71.6392 38.4746C71.8526 38.4853 71.8526 38.4853 71.9379 38.5706C71.9539 38.8213 71.9539 38.8213 71.9379 39.0826C71.8816 39.1389 71.8253 39.1953 71.7672 39.2533C71.5432 39.2213 71.5432 39.2213 71.3406 39.168C71.3369 38.9689 71.3371 38.7697 71.3406 38.5706C71.4259 38.4853 71.4259 38.4853 71.6392 38.4746Z" fill="white"/>
<path d="M65.7552 27.3027C65.8581 27.3054 65.8581 27.3054 65.9632 27.3081C65.9913 27.4489 66.0195 27.5897 66.0485 27.7347C65.9077 27.7347 65.7669 27.7347 65.6218 27.7347C65.5655 27.6221 65.5092 27.5095 65.4512 27.3934C65.5365 27.3081 65.5365 27.3081 65.7552 27.3027Z" fill="white"/>
</g>
<defs>
<clipPath id="clip0_1645_7926">
<rect width="103" height="87.3836" fill="white"/>
</clipPath>
</defs>
</svg>
