<svg width="62" height="52" viewBox="0 0 62 52" fill="none" xmlns="http://www.w3.org/2000/svg">
<g clip-path="url(#clip0_2110_1268)">
<path d="M30.5923 0.59004C30.656 0.590131 30.7198 0.590222 30.7855 0.590315C31.718 0.592554 32.632 0.613648 33.5552 0.755246C33.6413 0.767686 33.6413 0.767686 33.7291 0.780377C35.7232 1.07314 37.6993 1.64095 39.5246 2.50082C39.6259 2.54733 39.7272 2.59382 39.8285 2.64031C40.5663 2.98305 41.2679 3.37362 41.9621 3.79753C42.0051 3.82351 42.048 3.84949 42.0923 3.87626C42.6408 4.20888 43.1548 4.57144 43.6578 4.9696C43.7455 5.03855 43.834 5.10623 43.9231 5.17333C44.9296 5.93192 45.9207 6.80866 46.7382 7.77104C46.8182 7.86499 46.8993 7.95767 46.9811 8.05002C47.3467 8.46443 47.6874 8.89142 48.0121 9.33872C48.0756 9.42622 48.1398 9.51324 48.2041 9.60019C48.8357 10.4617 49.3786 11.3789 49.8716 12.3259C49.8904 12.362 49.9092 12.3981 49.9286 12.4353C50.0465 12.6628 50.1595 12.8924 50.2695 13.1239C50.2867 13.1599 50.3039 13.1959 50.3217 13.233C51.3344 15.3707 51.9317 17.6625 52.2096 20.0064C52.2154 20.0524 52.2212 20.0984 52.2272 20.1458C52.4111 21.6385 52.3999 23.2532 52.2096 24.7444C52.1979 24.8366 52.1979 24.8366 52.1861 24.9308C51.7637 28.2065 50.6419 31.3867 48.7772 34.1206C48.7532 34.1558 48.7292 34.191 48.7046 34.2272C47.9069 35.3919 46.9974 36.4552 46.0039 37.4559C45.9692 37.4909 45.9345 37.5259 45.8988 37.5619C45.6725 37.7882 45.4381 38.0016 45.1955 38.2102C45.147 38.253 45.0984 38.2957 45.0484 38.3398C41.2998 41.5839 36.3434 43.3643 31.4037 43.3565C31.3493 43.3565 31.3493 43.3565 31.2937 43.3564C26.2027 43.3451 21.1614 41.4773 16.9404 37.8112C16.8926 37.769 16.8448 37.7267 16.7956 37.6832C16.4636 37.3841 16.1466 37.0704 15.8304 36.7545C15.7882 36.7125 15.746 36.6704 15.7025 36.627C15.4582 36.3814 15.2248 36.1301 15.0003 35.8662C14.9582 35.8181 14.9162 35.77 14.8728 35.7204C11.9246 32.2909 10.155 27.9422 9.72732 23.4477C9.72256 23.3978 9.7178 23.3478 9.71289 23.2964C9.66612 22.7346 9.66546 22.1721 9.66514 21.6086C9.66511 21.5557 9.66507 21.5029 9.66504 21.4484C9.66595 20.5431 9.70501 19.6574 9.82681 18.7596C9.83508 18.6981 9.84336 18.6367 9.85188 18.5734C10.4334 14.4179 12.2765 10.5101 15.0912 7.4079C15.1638 7.32784 15.2358 7.24731 15.3073 7.16632C15.6788 6.74633 16.0664 6.34214 16.493 5.97793C16.5624 5.91797 16.6304 5.85653 16.6975 5.79402C17.0872 5.4309 17.5098 5.11418 17.9353 4.795C17.9674 4.77066 17.9996 4.74633 18.0327 4.72126C18.8079 4.13517 19.6242 3.62242 20.4722 3.14917C20.5122 3.12681 20.5522 3.10444 20.5934 3.0814C21.6939 2.47117 22.8564 1.98589 24.0539 1.60309C24.1058 1.5864 24.1578 1.5697 24.2113 1.55249C25.4927 1.14516 26.7981 0.865221 28.133 0.705372C28.1684 0.701023 28.2039 0.696674 28.2404 0.692193C29.0241 0.598571 29.8037 0.58771 30.5923 0.59004ZM29.0937 1.43789C29.0177 1.44428 29.0177 1.44428 28.9403 1.4508C26.6339 1.66246 24.3737 2.24178 22.2631 3.19905C22.215 3.2207 22.167 3.24234 22.1176 3.26465C20.9789 3.78237 19.8913 4.40509 18.8804 5.14411C18.8301 5.18056 18.7797 5.21702 18.7279 5.25457C18.0837 5.73013 17.4749 6.24287 16.8906 6.78993C16.7955 6.87639 16.7001 6.96265 16.6046 7.04865C16.5638 7.08536 16.523 7.12207 16.481 7.15989C16.452 7.18593 16.423 7.21197 16.3932 7.2388C16.642 7.54016 16.9121 7.81538 17.1887 8.09113C17.2362 8.1387 17.2838 8.18628 17.3313 8.23387C17.4553 8.35803 17.5795 8.48204 17.7037 8.60602C17.8308 8.73298 17.9579 8.86009 18.0849 8.98719C18.3333 9.23576 18.5819 9.48417 18.8307 9.73247C18.8948 9.68478 18.9589 9.63698 19.023 9.58914C19.0587 9.56254 19.0944 9.53593 19.1312 9.50852C19.2364 9.42725 19.3278 9.34055 19.4183 9.24309C19.653 9.0018 19.9104 8.7943 20.1738 8.58538C20.2189 8.54867 20.2641 8.51196 20.3106 8.47414C23.3135 6.08403 26.8831 4.96846 30.67 4.74512C30.67 3.64242 30.67 2.53972 30.67 1.4036C29.8796 1.39827 29.8796 1.39827 29.0937 1.43789ZM31.3664 1.4036C31.3664 2.5063 31.3664 3.60901 31.3664 4.74512C32.5542 4.81898 32.5542 4.81898 33.207 4.54563C33.5646 4.49359 33.8782 4.53606 34.2019 4.69525C34.2183 4.72817 34.2347 4.76108 34.2516 4.795C34.0054 4.84437 34.0054 4.84437 33.7542 4.89474C33.8794 5.02033 33.9549 5.02263 34.1282 5.05391C34.1856 5.06476 34.2429 5.07561 34.302 5.08679C34.3644 5.0985 34.4268 5.11022 34.491 5.12229C37.497 5.71212 40.4399 7.18039 42.636 9.33601C42.758 9.45391 42.758 9.45391 42.957 9.43323C43.0659 9.35309 43.0659 9.35309 43.1714 9.24094C43.2132 9.19901 43.255 9.15707 43.2981 9.11386C43.3651 9.04513 43.3651 9.04513 43.4335 8.97502C43.4796 8.92852 43.5257 8.88203 43.5731 8.83413C43.6956 8.71059 43.8175 8.58647 43.9392 8.46221C44.0635 8.33549 44.1885 8.20934 44.3133 8.08314C44.5582 7.83549 44.8025 7.58721 45.0463 7.33854C44.9789 7.19801 44.9187 7.0995 44.804 6.99352C44.7757 6.96723 44.7475 6.94093 44.7183 6.91384C44.688 6.88632 44.6578 6.85881 44.6266 6.83046C44.5951 6.80159 44.5636 6.77272 44.5312 6.74298C44.2632 6.49886 43.9883 6.26567 43.7032 6.04183C43.6725 6.01768 43.6418 5.99352 43.6102 5.96863C42.0046 4.70926 40.2627 3.68757 38.3805 2.8998C38.3354 2.88093 38.2904 2.86205 38.2441 2.8426C36.0374 1.93018 33.7382 1.56213 31.3664 1.4036ZM29.1901 5.59921C29.1336 5.60572 29.0772 5.61222 29.0191 5.61893C25.3327 6.07527 22.1302 7.78556 19.4276 10.2811C19.6608 10.5621 19.9101 10.8213 20.1687 11.0789C20.231 11.1412 20.231 11.1412 20.2946 11.2048C20.4262 11.3365 20.5581 11.4681 20.6899 11.5996C20.7796 11.6893 20.8693 11.779 20.959 11.8687C21.178 12.0878 21.3971 12.3066 21.6164 12.5254C21.6725 12.4773 21.7285 12.4292 21.7846 12.381C21.8158 12.3543 21.847 12.3275 21.8792 12.2999C21.9666 12.2244 22.0528 12.1476 22.1387 12.0703C23.0159 11.305 23.967 10.6689 24.999 10.1315C25.0324 10.1141 25.0657 10.0967 25.1 10.0788C26.8532 9.17795 28.7248 8.84765 30.67 8.68513C30.67 7.64826 30.67 6.61139 30.67 5.5431C29.9259 5.54213 29.9259 5.54213 29.1901 5.59921ZM31.3664 5.5431C31.2932 6.58891 31.312 7.63745 31.3167 8.68513C31.3584 8.68835 31.4001 8.69158 31.4431 8.6949C33.9532 8.89483 36.3272 9.54198 38.4302 10.9793C38.4623 11.001 38.4944 11.0227 38.5274 11.0451C38.9133 11.3079 39.2747 11.5936 39.6272 11.8998C39.7739 12.0272 39.9224 12.1519 40.0718 12.276C40.3534 12.0417 40.6116 11.7899 40.8677 11.5279C40.8403 11.5163 40.8128 11.5048 40.7845 11.4928C40.6376 11.4108 40.5299 11.3069 40.4076 11.1913C40.0435 10.8483 40.0435 10.8483 39.6241 10.5803C39.6077 10.5309 39.5913 10.4816 39.5743 10.4307C39.6975 10.406 39.6975 10.406 39.8231 10.3808C39.5671 10.014 39.5671 10.014 39.2261 9.73247C39.0567 9.73353 39.0567 9.73353 38.8779 9.78234C38.7962 9.79269 38.7143 9.80202 38.6323 9.8104C38.5939 9.81458 38.5555 9.81875 38.5159 9.82306C38.4876 9.82608 38.4593 9.8291 38.4302 9.83222C38.401 9.75507 38.401 9.75507 38.3711 9.67636C38.3107 9.53286 38.257 9.45438 38.1535 9.33036C38.0322 9.18386 38.0322 9.18386 37.9887 9.03424C37.9198 8.85011 37.8307 8.78614 37.6801 8.66642C37.547 8.55354 37.4399 8.42335 37.3275 8.29023C37.2312 8.18053 37.1295 8.07931 37.0249 7.97755C36.7601 7.71364 36.7601 7.71364 36.6891 7.53804C36.6922 7.404 36.6922 7.404 36.7389 7.28867C36.9393 7.15874 37.1649 7.15168 37.3966 7.1221C37.5462 7.08646 37.584 7.0499 37.684 6.93956C35.8564 6.16953 33.953 5.62492 31.9634 5.5431C32.0126 5.62539 32.0618 5.70768 32.1126 5.79247C32.0671 5.77446 32.0215 5.75646 31.9746 5.73792C31.9155 5.71477 31.8564 5.69163 31.7955 5.66778C31.7366 5.64464 31.6777 5.62149 31.6171 5.59765C31.4771 5.53747 31.4771 5.53747 31.3664 5.5431ZM15.6967 7.97755C15.4713 8.20678 15.2661 8.44696 15.0674 8.69969C15.0192 8.76081 14.9709 8.82173 14.9223 8.88253C14.4859 9.42931 14.0823 9.98976 13.7069 10.5803C13.6846 10.6152 13.6622 10.6501 13.6392 10.6861C11.5685 13.94 10.434 17.7867 10.4735 21.6522C10.7362 21.6522 10.9988 21.6522 11.2694 21.6522C11.3022 21.537 11.3351 21.4218 11.3689 21.3031C11.4249 21.141 11.4249 21.141 11.5181 21.0039C11.6138 20.9598 11.7099 20.9306 11.8106 20.9C11.9719 20.83 12.067 20.7089 12.1843 20.5809C12.2869 20.4838 12.3729 20.4595 12.513 20.4553C12.5295 20.554 12.5459 20.6528 12.5628 20.7545C12.7083 20.7657 12.7083 20.7657 12.8115 20.7046C12.8211 20.7408 12.8308 20.7769 12.8407 20.8141C12.9075 21.0627 12.9751 21.3094 13.0602 21.5525C13.0767 21.5196 13.0931 21.4866 13.11 21.4527C13.2249 21.4856 13.3398 21.5186 13.4582 21.5525C13.4351 21.5154 13.4351 21.5154 13.4116 21.4777C13.338 21.3041 13.3277 21.1415 13.309 20.954C13.3948 20.9913 13.4806 21.0287 13.5664 21.066C13.6451 21.0986 13.7257 21.1265 13.8064 21.1535C13.8732 21.0195 13.8731 20.9027 13.8849 20.7531C13.8902 20.6906 13.8955 20.6281 13.9009 20.5637C13.9037 20.5303 13.9065 20.4969 13.9094 20.4625C14.0851 18.4192 14.6071 16.4196 15.4977 14.5702C15.5226 14.518 15.5226 14.518 15.548 14.4648C15.6597 14.2317 15.776 14.0013 15.8957 13.7722C15.9139 13.7372 15.9322 13.7021 15.951 13.666C16.599 12.4313 17.4436 11.3074 18.383 10.2811C18.1343 9.98021 17.865 9.70462 17.5892 9.42875C17.5418 9.38117 17.4943 9.33359 17.4469 9.286C17.3483 9.18704 17.2496 9.08817 17.1508 8.98937C17.024 8.86247 16.8973 8.73535 16.7708 8.60816C16.6733 8.51023 16.5756 8.41241 16.478 8.31463C16.4084 8.24496 16.339 8.17519 16.2696 8.10542C16.2277 8.06361 16.1858 8.0218 16.1427 7.97873C16.1057 7.94168 16.0687 7.90464 16.0306 7.86647C15.8738 7.72086 15.8318 7.84331 15.6967 7.97755ZM45.5437 7.7874C45.2633 8.06284 44.9835 8.33894 44.7045 8.61592C44.5749 8.7445 44.4452 8.87284 44.3149 9.00066C44.1892 9.12397 44.0641 9.24787 43.9394 9.37222C43.8684 9.4427 43.7968 9.51255 43.7252 9.58239C43.6824 9.62531 43.6395 9.66823 43.5954 9.71245C43.5573 9.75011 43.5192 9.78776 43.4799 9.82656C43.3928 9.925 43.3928 9.925 43.4122 10.0393C43.4704 10.1662 43.5515 10.2391 43.6534 10.3341C43.9086 10.5827 44.1319 10.8475 44.3499 11.1289C44.3772 11.1641 44.4045 11.1993 44.4327 11.2356C46.3271 13.6867 47.5587 16.5587 47.9937 19.6324C48.005 19.7111 48.005 19.7111 48.0165 19.7913C48.1001 20.427 48.1328 21.0605 48.1802 21.7021C49.2637 21.7021 50.3471 21.7021 51.4634 21.7021C51.4634 21.2022 51.4602 20.7272 51.4074 20.2339C51.4009 20.1728 51.3944 20.1116 51.3877 20.0486C50.9028 15.786 49.1035 11.6813 46.2402 8.48563C46.2132 8.4555 46.1862 8.42538 46.1584 8.39434C46.0762 8.30289 45.9935 8.2118 45.9106 8.12093C45.8853 8.0931 45.8599 8.06526 45.8338 8.03658C45.7039 7.89282 45.7039 7.89282 45.5437 7.7874ZM40.7185 8.735C40.7021 8.76792 40.6856 8.80083 40.6687 8.83475C40.718 8.81829 40.7672 8.80183 40.818 8.78487C40.7851 8.76842 40.7523 8.75196 40.7185 8.735ZM41.017 8.98437C41.0819 9.2347 41.1929 9.39582 41.3683 9.57973C41.3924 9.60559 41.4165 9.63145 41.4413 9.6581C41.6464 9.87366 41.8679 10.0601 42.1113 10.2312C42.177 10.1654 42.2427 10.0995 42.3103 10.0317C42.1781 9.91481 42.0453 9.79867 41.9124 9.6826C41.8846 9.65829 41.8569 9.63398 41.8284 9.60893C41.7363 9.52832 41.644 9.44803 41.5517 9.36777C41.5068 9.3283 41.5068 9.3283 41.4609 9.28804C41.3199 9.16585 41.1916 9.0559 41.017 8.98437ZM29.5072 9.54233C29.4559 9.54893 29.4046 9.55553 29.3518 9.56233C28.8209 9.63473 28.3028 9.74628 27.7848 9.88209C27.7217 9.89857 27.7217 9.89857 27.6574 9.91538C25.8003 10.412 24.0893 11.3961 22.661 12.675C22.614 12.7167 22.5669 12.7583 22.5184 12.8012C22.4163 12.8918 22.3146 12.9826 22.2133 13.074C22.4402 13.347 22.6813 13.5996 22.9327 13.85C22.972 13.8893 23.0113 13.9287 23.0519 13.9692C23.1764 14.0938 23.3011 14.2182 23.4259 14.3426C23.5108 14.4275 23.5957 14.5125 23.6806 14.5974C23.8878 14.8046 24.0952 15.0116 24.3026 15.2186C24.4524 15.1469 24.5512 15.0783 24.6648 14.9563C24.8386 14.7772 25.0228 14.6252 25.2229 14.4767C25.2574 14.451 25.2918 14.4253 25.3273 14.3989C26.9092 13.2386 28.6799 12.6925 30.6202 12.5254C30.6725 12.3681 30.676 12.2583 30.6756 12.0932C30.6756 12.0353 30.6756 11.9774 30.6756 11.9178C30.6754 11.8553 30.6751 11.7928 30.6748 11.7284C30.6748 11.6644 30.6747 11.6004 30.6746 11.5345C30.6744 11.3645 30.6739 11.1945 30.6734 11.0246C30.6729 10.8511 30.6727 10.6776 30.6724 10.504C30.6719 10.1637 30.671 9.82342 30.67 9.4831C30.5763 9.48245 30.4827 9.48199 30.3891 9.4816C30.3369 9.48133 30.2848 9.48105 30.2311 9.48076C29.9875 9.48437 29.7486 9.51103 29.5072 9.54233ZM31.3167 9.4831C31.3167 10.4871 31.3167 11.491 31.3167 12.5254C31.6778 12.5583 32.039 12.5912 32.4111 12.6251C32.7299 12.6842 33.0423 12.7463 33.3562 12.8246C33.3902 12.8328 33.4241 12.8409 33.4591 12.8493C34.9154 13.2048 36.2209 13.9814 37.3358 14.9692C37.4896 14.9005 37.5943 14.822 37.7126 14.7025C37.7465 14.6685 37.7803 14.6346 37.8152 14.5996C37.8692 14.5447 37.8692 14.5447 37.9242 14.4888C37.9615 14.4513 37.9987 14.4138 38.0371 14.3751C38.1559 14.2554 38.2744 14.1354 38.3929 14.0154C38.4735 13.9341 38.554 13.8529 38.6346 13.7716C38.8321 13.5726 39.0292 13.3733 39.2261 13.1737C39.1393 13.081 39.0899 13.0286 38.9681 12.9867C38.7858 12.9055 38.6629 12.784 38.5182 12.6481C38.4364 12.5647 38.4364 12.5647 38.3307 12.5753C38.2707 12.4589 38.223 12.351 38.1815 12.2261C38.1979 12.186 38.2143 12.1459 38.2312 12.1046C38.2873 11.9851 38.2873 11.9851 38.2784 11.8831C38.2054 11.7195 38.0694 11.6462 37.9234 11.5529C37.8906 11.5315 37.8577 11.5102 37.8238 11.4882C35.8793 10.2489 33.6313 9.4831 31.3167 9.4831ZM42.758 10.5803C42.758 10.6462 42.758 10.712 42.758 10.7798C42.8726 10.8745 42.8726 10.8745 43.0068 10.9294C43.0396 10.913 43.0724 10.8965 43.1062 10.8796C43.0259 10.7778 42.9428 10.678 42.8575 10.5803C42.8247 10.5803 42.7919 10.5803 42.758 10.5803ZM18.7871 10.9606C18.5376 11.2149 18.324 11.498 18.1083 11.7809C18.036 11.8754 17.9628 11.9692 17.8896 12.0629C15.8083 14.7516 14.6023 18.2512 14.6023 21.6522C15.4395 21.6522 16.2768 21.6522 17.1393 21.6522C17.2124 21.4327 17.2124 21.4327 17.2833 21.2125C17.3904 20.8915 17.5014 20.707 17.7652 20.4904C17.8593 20.377 17.8697 20.2872 17.8925 20.1418C17.9014 20.0882 17.9103 20.0346 17.9195 19.9794C17.9335 19.8925 17.9335 19.8925 17.9477 19.8038C18.3852 17.2953 19.4345 14.9535 21.1687 13.074C20.9357 12.7934 20.687 12.534 20.4293 12.2762C20.3672 12.2139 20.3672 12.2139 20.3038 12.1502C20.2169 12.063 20.1299 11.9759 20.0428 11.8888C19.9089 11.7548 19.7753 11.6206 19.6416 11.4863C19.557 11.4015 19.4724 11.3167 19.3878 11.232C19.3476 11.1916 19.3075 11.1513 19.2661 11.1097C19.2292 11.0729 19.1923 11.036 19.1543 10.9981C19.1218 10.9655 19.0892 10.9329 19.0556 10.8993C18.9233 10.7777 18.9359 10.8244 18.7871 10.9606ZM41.4647 11.877C41.1856 12.1568 40.9065 12.4366 40.619 12.7249C40.7148 12.969 40.7148 12.969 40.8792 13.1395C41.0672 13.32 41.2244 13.5141 41.3807 13.7223C41.4087 13.7594 41.4366 13.7965 41.4654 13.8347C43.2362 16.2038 43.9856 18.7815 44.2504 21.7021C45.2846 21.7021 46.3188 21.7021 47.3843 21.7021C47.3843 18.9098 46.6085 15.2075 44.7478 13.0241C44.6435 12.9595 44.6435 12.9595 44.5488 12.9244C44.4474 13.1702 44.3794 13.3523 44.3996 13.6226C44.2507 13.685 44.1597 13.7199 44.0017 13.7223C43.6528 13.5625 43.3717 13.1976 43.1086 12.9232C42.8887 12.6958 42.6591 12.5168 42.3725 12.3789C42.3225 12.3544 42.3225 12.3544 42.2715 12.3294C42.235 12.3118 42.1986 12.2942 42.1611 12.276C42.0739 12.2336 41.9869 12.191 41.8999 12.1482C41.8597 12.1286 41.8194 12.109 41.7779 12.0888C41.6636 12.0266 41.6636 12.0266 41.4647 11.877ZM38.8779 12.3758C38.99 12.6317 39.1396 12.8201 39.3256 13.0241C39.3913 12.9583 39.4569 12.8925 39.5246 12.8246C39.2358 12.5452 39.2358 12.5452 38.8779 12.3758ZM31.3167 13.2236C31.3167 14.4086 31.3167 15.5936 31.3167 16.8145C31.6942 16.8803 32.0718 16.9462 32.4608 17.014C32.5221 16.9637 32.5221 16.9637 32.5154 16.8611C32.5148 16.82 32.5143 16.7789 32.5137 16.7366C32.5132 16.6954 32.5128 16.6542 32.5123 16.6117C32.5117 16.5799 32.5111 16.548 32.5105 16.5153C32.5598 16.5153 32.609 16.5153 32.6598 16.5153C32.6844 16.4412 32.6844 16.4412 32.7095 16.3656C32.8397 16.2764 32.8397 16.2764 33.0018 16.1848C33.055 16.1544 33.1082 16.1239 33.1631 16.0925C33.3065 16.0165 33.3065 16.0165 33.4557 15.9667C33.4241 16.6425 33.4241 16.6425 33.2567 16.8644C33.1296 16.9588 32.998 17.0388 32.8588 17.1137C33.0141 17.2695 33.2058 17.2514 33.4184 17.2754C33.4861 17.2941 33.4861 17.2941 33.5552 17.3132C33.6096 17.4097 33.6096 17.4097 33.6547 17.5127C33.7586 17.5775 33.7586 17.5775 33.8785 17.6218C33.918 17.638 33.9575 17.6541 33.9982 17.6707C34.0326 17.6844 34.067 17.6981 34.1024 17.7122C34.1516 17.7369 34.1516 17.7369 34.2019 17.7621C34.4642 17.7744 34.6512 17.7334 34.8517 17.5595C34.9013 17.5116 34.9503 17.463 34.9978 17.413C34.9486 17.2978 34.8993 17.1826 34.8486 17.0639C34.7829 17.0639 34.7172 17.0639 34.6496 17.0639C34.6798 16.8472 34.7123 16.6312 34.7491 16.4155C34.8312 16.4155 34.9132 16.4155 34.9978 16.4155C35.0142 16.3332 35.0306 16.2509 35.0475 16.1661C35.1296 16.1661 35.2117 16.1661 35.2963 16.1661C35.2194 16.3549 35.1404 16.5309 35.0351 16.7054C35.0064 16.7579 34.9777 16.8103 34.9481 16.8644C34.9645 16.8973 34.9809 16.9302 34.9978 16.9641C35.0255 16.9178 35.0532 16.8715 35.0817 16.8239C35.2187 16.6551 35.3377 16.6399 35.5481 16.6088C35.8556 16.5513 36.0206 16.4359 36.2352 16.2191C36.2616 16.1929 36.2879 16.1666 36.3151 16.1395C36.3971 16.0546 36.3971 16.0546 36.4902 15.9168C36.489 15.8008 36.489 15.8008 36.4404 15.7173C36.2305 15.7075 36.0837 15.7271 35.8932 15.817C35.8932 15.8993 35.8932 15.9816 35.8932 16.0664C35.8491 16.0633 35.805 16.0602 35.7595 16.057C35.5776 16.0674 35.4929 16.1121 35.346 16.216C35.3337 16.179 35.3214 16.142 35.3087 16.1038C35.242 15.9566 35.1665 15.8745 35.0475 15.7672C35.1356 15.7658 35.2237 15.7648 35.3118 15.764C35.3609 15.7635 35.4099 15.7629 35.4605 15.7623C35.5947 15.7672 35.5947 15.7672 35.744 15.817C35.745 15.7718 35.746 15.7265 35.7471 15.6799C35.7937 15.5178 35.7937 15.5178 35.9492 15.3962C36.2003 15.2721 36.4033 15.3413 36.6611 15.4212C36.7032 15.4366 36.7453 15.452 36.7886 15.4679C35.7093 14.3523 34.1719 13.6913 32.6753 13.3826C32.6258 13.3723 32.5762 13.3619 32.5251 13.3513C32.1164 13.2719 31.7405 13.2519 31.3167 13.2236ZM24.8996 15.7173C24.9928 15.9169 24.9928 15.9169 25.1483 16.0664C25.4304 16.12 25.7075 16.1223 25.9939 16.1163C26.0104 16.1656 26.0268 16.215 26.0437 16.2659C26.095 16.27 26.1463 16.2741 26.1991 16.2784C26.3919 16.3158 26.3919 16.3158 26.5287 16.4186C26.7079 16.5257 26.7549 16.5204 26.9546 16.5059C27.2416 16.4945 27.3845 16.5798 27.5955 16.7691C27.8537 17.043 27.9025 17.4048 27.9837 17.7621C28.0254 17.7368 28.067 17.7114 28.1099 17.6853C28.9081 17.2082 29.7082 16.9669 30.6202 16.8145C30.6202 15.6295 30.6202 14.4445 30.6202 13.2236C28.4584 13.2236 26.453 14.2857 24.8996 15.7173ZM39.8666 13.4636C39.7571 13.5677 39.7571 13.5677 39.7733 13.7223C39.7442 13.7272 39.715 13.7321 39.6849 13.7372C39.552 13.7793 39.4942 13.8345 39.3965 13.9335C39.3626 13.9675 39.3288 14.0014 39.2939 14.0364C39.258 14.0732 39.222 14.1101 39.1849 14.148C39.1477 14.1856 39.1104 14.2232 39.072 14.2619C38.9531 14.382 38.8347 14.5026 38.7162 14.6232C38.6357 14.7047 38.5551 14.7862 38.4745 14.8676C38.277 15.0673 38.0798 15.2674 37.883 15.4679C37.9292 15.5307 37.9756 15.5933 38.0219 15.6559C38.0477 15.6908 38.0735 15.7257 38.1001 15.7617C38.1781 15.8626 38.26 15.9569 38.3463 16.0508C38.4784 16.1963 38.5809 16.3472 38.6833 16.5149C38.8861 16.84 39.0511 16.9737 39.4288 17.0676C39.8324 17.1956 40.08 17.5699 40.3001 17.9115C40.3628 18.0176 40.3628 18.0176 40.4698 18.0613C40.5692 18.0633 40.6688 18.0635 40.7682 18.0613C40.7682 18.1436 40.7682 18.2259 40.7682 18.3107C40.7026 18.3107 40.6369 18.3107 40.5692 18.3107C40.6364 18.5311 40.7315 18.6271 40.9175 18.7596C41.0218 18.6027 41.0428 18.5095 41.0729 18.3263C41.0812 18.2767 41.0896 18.2272 41.0982 18.1761C41.1042 18.1382 41.1102 18.1004 41.1164 18.0613C41.2068 18.0317 41.2068 18.0317 41.3154 18.0115C41.5568 18.1351 41.772 18.2983 41.8626 18.5601C41.8635 18.7511 41.8472 18.9333 41.8228 19.1227C41.8116 19.3322 41.845 19.461 41.9124 19.6573C42.0343 19.652 42.0343 19.652 42.1611 19.6074C42.2745 19.3874 42.2781 19.1782 42.2884 18.9353C42.3133 18.7923 42.3427 18.7435 42.4596 18.6598C42.5684 18.6754 42.5684 18.6754 42.6585 18.7097C42.8051 18.4427 42.8597 18.1578 42.7804 17.8582C42.7025 17.6215 42.608 17.3922 42.5093 17.1636C42.4347 17.3107 42.37 17.4586 42.3103 17.6125C42.2447 17.6125 42.179 17.6125 42.1113 17.6125C42.0515 17.5375 42.0515 17.5375 41.9994 17.4348C41.86 17.1917 41.6796 17.0395 41.4647 16.8644C41.3724 16.7825 41.2803 16.7005 41.1883 16.6183C41.118 16.5553 41.118 16.5553 41.017 16.5651C40.9677 16.3841 40.9185 16.2031 40.8677 16.0165C41.0155 16.0412 41.0155 16.0412 41.1662 16.0664C41.1662 16.0006 41.1662 15.9347 41.1662 15.8669C41.2153 15.8849 41.2644 15.9029 41.315 15.9215C41.3794 15.9448 41.4438 15.9682 41.5082 15.9916C41.5406 16.0035 41.5729 16.0154 41.6063 16.0276C41.7798 16.0938 41.7798 16.0938 41.9621 16.1163C41.8965 15.8861 41.8022 15.7123 41.6636 15.5178C41.637 15.5425 41.6103 15.5672 41.5828 15.5926C41.4052 15.7051 41.2564 15.6775 41.0543 15.6549C40.9672 15.6175 40.9672 15.6175 40.9247 15.5314C40.8546 15.392 40.7645 15.2829 40.6656 15.1624C40.4746 14.929 40.4746 14.929 40.42 14.8196C40.706 14.9567 40.706 14.9567 40.818 15.0689C40.818 15.036 40.818 15.0031 40.818 14.9692C40.9 15.0021 40.9821 15.035 41.0667 15.0689C41.1391 14.9122 41.1391 14.9122 41.1662 14.7198C41.0921 14.5857 41.0292 14.4954 40.9299 14.3832C40.905 14.3533 40.8801 14.3234 40.8544 14.2926C40.7773 14.201 40.6986 14.1111 40.619 14.0216C40.5944 13.9939 40.5699 13.9663 40.5446 13.9378C40.4364 13.8166 40.327 13.6969 40.216 13.5782C40.1215 13.473 40.1215 13.473 40.0718 13.3732C39.9618 13.3624 39.9618 13.3624 39.8666 13.4636ZM21.6376 13.6984C20.9963 14.396 20.4657 15.1788 20.0245 16.0165C20.0003 16.0624 19.9761 16.1083 19.9511 16.1555C19.4862 17.0487 18.8307 18.3254 18.8307 19.358C18.8891 19.3766 18.8891 19.3766 18.9488 19.3955C19.0955 19.4655 19.1243 19.508 19.1789 19.6573C19.2035 19.6079 19.2035 19.6079 19.2286 19.5575C19.2943 19.5575 19.36 19.5575 19.4276 19.5575C19.5857 19.9123 19.7262 20.267 19.7758 20.6548C19.813 20.6542 19.8502 20.6536 19.8885 20.653C19.9375 20.6526 19.9865 20.6521 20.037 20.6516C20.0855 20.6511 20.1339 20.6505 20.1839 20.6499C20.306 20.6542 20.4057 20.6694 20.522 20.7046C20.5816 20.5885 20.5816 20.5885 20.6215 20.4553C20.5887 20.4059 20.5558 20.3565 20.522 20.3056C20.5358 20.0724 20.6089 19.9216 20.7365 19.729C20.7661 19.6837 20.7956 19.6383 20.8261 19.5916C20.9903 19.3575 21.1032 19.197 21.3708 19.0837C21.5771 18.9861 21.6711 18.9242 21.7656 18.7097C21.8888 18.4713 22.0069 18.3066 22.2302 18.1547C22.486 17.9604 22.5999 17.7476 22.7325 17.4597C22.9536 17.0094 23.2007 16.6122 23.5067 16.216C23.5425 16.1691 23.5783 16.1222 23.6151 16.0738C23.6942 15.9709 23.774 15.8687 23.8549 15.7672C23.6282 15.4947 23.3878 15.2417 23.1373 14.9912C23.0981 14.9518 23.0589 14.9125 23.0185 14.8719C22.9362 14.7894 22.8539 14.707 22.7715 14.6246C22.6448 14.4979 22.5184 14.3708 22.392 14.2438C22.3119 14.1635 22.2318 14.0833 22.1517 14.0031C22.1137 13.9649 22.0758 13.9267 22.0366 13.8874C22.0018 13.8526 21.9669 13.8177 21.9309 13.7819C21.9001 13.751 21.8693 13.7202 21.8376 13.6884C21.7359 13.5954 21.7378 13.6014 21.6376 13.6984ZM41.3154 15.0191C41.3154 15.1013 41.3154 15.1836 41.3154 15.2684C41.3647 15.2355 41.4139 15.2026 41.4647 15.1687C41.4154 15.1193 41.3662 15.0699 41.3154 15.0191ZM37.0923 16.2314C37.0432 16.2827 36.9948 16.3347 36.9472 16.3875C36.9222 16.4139 36.8972 16.4402 36.8715 16.4674C36.81 16.5326 36.7495 16.5987 36.6891 16.6649C36.7766 16.7736 36.8231 16.8114 36.9618 16.84C37.0284 16.8444 37.0284 16.8444 37.0964 16.8488C37.1412 16.8521 37.1861 16.8553 37.2322 16.8587C37.2664 16.8606 37.3006 16.8625 37.3358 16.8644C37.3522 16.7327 37.3686 16.601 37.3856 16.4654C37.5005 16.4654 37.6154 16.4654 37.7338 16.4654C37.6979 16.417 37.662 16.3687 37.625 16.3189C37.5947 16.2781 37.5947 16.2781 37.5638 16.2365C37.3844 16.0762 37.278 16.083 37.0923 16.2314ZM24.3524 16.3158C24.3524 16.3651 24.3524 16.4145 24.3524 16.4654C24.3852 16.4983 24.418 16.5312 24.4519 16.5651C24.5567 16.5492 24.5567 16.5492 24.6508 16.5153C24.5867 16.4467 24.5202 16.3802 24.4519 16.3158C24.419 16.3158 24.3862 16.3158 24.3524 16.3158ZM25.4965 16.3656C25.5457 16.4397 25.5457 16.4397 25.596 16.5153C25.7281 16.5444 25.7281 16.5444 25.8758 16.5495C25.9257 16.5528 25.9756 16.5561 26.027 16.5595C26.0653 16.5613 26.1037 16.5632 26.1432 16.5651C26.0176 16.4392 25.9373 16.4376 25.7639 16.4093C25.689 16.3967 25.689 16.3967 25.6127 16.384C25.5744 16.3779 25.536 16.3719 25.4965 16.3656ZM37.883 16.6649C37.7338 16.8145 37.6968 16.964 37.677 17.1683C37.6766 17.2761 37.6766 17.2761 37.7742 17.388C37.8747 17.4723 37.8747 17.4723 37.9825 17.4629C37.9825 17.5122 37.9825 17.5616 37.9825 17.6125C37.9333 17.6289 37.884 17.6454 37.8333 17.6623C37.9164 17.7117 37.9164 17.7117 38.0012 17.7621C38.0323 17.7806 38.0635 17.7991 38.0956 17.8182C38.1802 17.8694 38.1802 17.8694 38.281 17.8618C38.2667 17.8333 38.2525 17.8048 38.2378 17.7753C38.1527 17.6047 38.0676 17.434 37.9825 17.2634C38.0379 17.2973 38.0933 17.3313 38.1504 17.3662C38.2414 17.4247 38.2414 17.4247 38.3307 17.4629C38.3636 17.4464 38.3964 17.4299 38.4302 17.413C38.3485 17.2882 38.2666 17.1635 38.1846 17.0389C38.1613 17.0033 38.138 16.9676 38.114 16.9308C38.0549 16.8413 37.994 16.753 37.9328 16.6649C37.9163 16.6649 37.8999 16.6649 37.883 16.6649ZM42.2606 16.7148C42.3103 16.8145 42.3103 16.8145 42.3103 16.8145L42.2606 16.7148ZM42.3103 16.8145C42.3601 16.9142 42.3601 16.9142 42.3601 16.9142L42.3103 16.8145ZM42.3601 16.9142C42.4098 17.014 42.4098 17.014 42.4098 17.014L42.3601 16.9142ZM42.4098 17.0639C42.4596 17.1636 42.4596 17.1636 42.4596 17.1636L42.4098 17.0639ZM28.6827 18.2466C28.6568 18.2783 28.6568 18.2783 28.6304 18.3107C28.6735 18.3313 28.7166 18.3519 28.761 18.373C28.9289 18.4603 28.9289 18.4603 29.0719 18.5725C29.2894 18.6947 29.3859 18.6729 29.6253 18.6099C29.7121 18.5188 29.7121 18.5188 29.7746 18.4105C29.8573 18.3603 29.9402 18.3104 30.0233 18.2608C30.0633 18.2207 30.1033 18.1806 30.1446 18.1393C30.2777 18.0058 30.4083 17.9074 30.5705 17.812C30.6197 17.812 30.669 17.812 30.7197 17.812C30.6715 17.8418 30.6233 17.8716 30.5736 17.9024C30.4098 17.9971 30.4098 17.9971 30.3715 18.1611C30.4208 18.1611 30.47 18.1611 30.5207 18.1611C30.544 18.4529 30.4844 18.5728 30.3218 18.8094C30.3275 18.9247 30.3275 18.9247 30.3715 19.0089C30.3253 19.0228 30.3253 19.0228 30.2782 19.037C30.1212 19.1435 30.1201 19.2786 30.073 19.4578C29.9922 19.5482 29.9922 19.5482 29.9238 19.6074C29.9238 19.6403 29.9238 19.6732 29.9238 19.7072C29.8789 19.7162 29.8339 19.7253 29.7876 19.7346C29.7289 19.7472 29.6702 19.7597 29.6098 19.7726C29.5515 19.7848 29.4932 19.7969 29.4332 19.8094C29.2789 19.8562 29.2252 19.8835 29.1279 20.0064C28.8704 20.2778 28.8704 20.2778 28.6802 20.3555C28.7294 20.4049 28.7787 20.4543 28.8294 20.5051C28.9115 20.4558 28.9936 20.4064 29.0781 20.3555C29.0781 20.4872 29.0781 20.6188 29.0781 20.7545C29.111 20.7545 29.1438 20.7545 29.1776 20.7545C29.1776 20.8533 29.1776 20.952 29.1776 21.0537C29.1284 21.0537 29.0791 21.0537 29.0284 21.0537C29.0284 21.0867 29.0284 21.1196 29.0284 21.1535C28.9956 21.1535 28.9627 21.1535 28.9289 21.1535C28.8961 21.2522 28.8632 21.351 28.8294 21.4527C28.9772 21.4774 28.9772 21.4774 29.1279 21.5026C29.1722 21.7336 29.1837 21.8458 29.0781 22.0512C29.0766 22.1515 29.0751 22.2519 29.0772 22.3522C29.0784 22.4773 29.0701 22.5812 29.0284 22.6996C28.9984 22.7142 28.9685 22.7288 28.9376 22.7438C28.8095 22.8095 28.744 22.8851 28.6522 22.9957C28.4893 23.1903 28.4893 23.1903 28.4021 23.2764C28.3202 23.3554 28.3202 23.3554 28.2325 23.4975C28.1021 23.4751 27.9906 23.4509 27.8703 23.3947C27.7071 23.3383 27.5919 23.3478 27.421 23.3666C27.3678 23.3722 27.3147 23.3777 27.2599 23.3834C27.2197 23.3881 27.1795 23.3929 27.1381 23.3978C27.2178 23.0997 27.294 22.9049 27.536 22.6996C27.5853 22.6502 27.5853 22.6502 27.6355 22.5998C27.7288 22.5753 27.7288 22.5753 27.8345 22.5562C27.9409 22.5342 27.9409 22.5342 28.0335 22.5001C28.0944 22.4028 28.0944 22.4028 28.133 22.3006C28.1709 22.2862 28.2089 22.2718 28.248 22.2569C28.4312 22.1801 28.5101 22.0572 28.6304 21.9016C28.6793 21.8509 28.7286 21.8005 28.7797 21.752C28.7304 21.7026 28.7304 21.7026 28.6802 21.6522C28.4578 21.6649 28.3228 21.7667 28.1485 21.8985C28.1011 21.9339 28.0538 21.9693 28.0049 22.0058C27.8839 22.0975 27.8839 22.0975 27.7848 22.2008C27.6806 22.2014 27.6806 22.2014 27.5609 22.1852C27.5214 22.1803 27.4819 22.1753 27.4412 22.1702C27.3371 22.151 27.3371 22.151 27.2376 22.1011C27.254 22.0188 27.2704 21.9365 27.2873 21.8517C27.1724 21.9176 27.0575 21.9834 26.9391 22.0512C26.9555 22.1006 26.9719 22.15 26.9888 22.2008C27.0217 22.2008 27.0545 22.2008 27.0883 22.2008C26.9601 22.3329 26.8438 22.4474 26.6904 22.5499C26.7433 23.5573 27.3107 24.525 28.0323 25.2094C28.9837 25.9994 30.123 26.4262 31.3664 26.3403C31.6183 26.3044 31.8648 26.2481 32.1126 26.1907C32.1163 26.1292 32.1163 26.1292 32.1201 26.0665C32.1317 25.8803 32.1439 25.6942 32.1561 25.5081C32.16 25.4436 32.1639 25.379 32.168 25.3126C32.1742 25.2193 32.1742 25.2193 32.1806 25.1241C32.1842 25.0669 32.1879 25.0097 32.1917 24.9508C32.2114 24.7991 32.2529 24.6849 32.3116 24.5449C32.2973 24.4331 32.2973 24.4331 32.2618 24.3454C32.4215 24.3378 32.5442 24.3398 32.6961 24.3927C32.9387 24.4709 33.1849 24.4862 33.4376 24.512C33.6049 24.5449 33.6049 24.5449 33.7017 24.6131C33.7818 24.7374 33.7637 24.8499 33.7542 24.9937C33.6311 25.0431 33.6311 25.0431 33.5054 25.0935C33.5875 25.1593 33.6696 25.2252 33.7542 25.293C33.9114 25.2247 33.9528 25.1938 34.0526 25.0436C34.028 25.0251 34.0034 25.0066 33.978 24.9875C33.9534 24.9567 33.9288 24.9258 33.9034 24.894C33.9111 24.8246 33.9111 24.8246 33.919 24.7537C33.92 24.5945 33.92 24.5945 33.8224 24.5106C33.6554 24.3823 33.5155 24.2858 33.3065 24.2456C33.3065 24.2127 33.3065 24.1798 33.3065 24.1459C33.4895 24.1357 33.5942 24.1586 33.7542 24.2456C33.7746 24.2168 33.795 24.188 33.816 24.1584C33.8428 24.1213 33.8696 24.0843 33.8972 24.0462C33.9237 24.0091 33.9503 23.9721 33.9776 23.9339C34.0024 23.9051 34.0271 23.8763 34.0526 23.8467C34.0855 23.8467 34.1183 23.8467 34.1521 23.8467C34.1521 23.7973 34.1521 23.7479 34.1521 23.697C34.3163 23.6641 34.4805 23.6312 34.6496 23.5973C34.6496 23.5808 34.6496 23.5644 34.6496 23.5474C34.6105 23.5389 34.5715 23.5304 34.5312 23.5217C34.2222 23.4502 33.9697 23.3736 33.7044 23.1983C33.7208 23.0996 33.7373 23.0008 33.7542 22.8991C33.8198 22.8826 33.8855 22.8661 33.9532 22.8492C33.9367 22.7998 33.9203 22.7504 33.9034 22.6996C33.803 22.6915 33.7026 22.6833 33.6022 22.6752C33.5054 22.6497 33.5054 22.6497 33.406 22.5001C33.2682 22.4509 33.2682 22.4509 33.1106 22.419C32.957 22.3842 32.8092 22.3505 32.6598 22.3006C32.6434 22.2677 32.627 22.2347 32.61 22.2008C32.4295 22.2008 32.2489 22.2008 32.0628 22.2008C32.1285 22.1679 32.1942 22.135 32.2618 22.1011C32.2752 22.0702 32.2885 22.0394 32.3022 22.0076C32.3944 21.8423 32.5411 21.7736 32.7095 21.7021C32.8585 21.6599 33.0047 21.6306 33.1572 21.6024C33.1572 21.4378 33.1572 21.2732 33.1572 21.1036C33.0752 21.1201 32.9931 21.1365 32.9085 21.1535C32.9921 20.8468 33.0874 20.6369 33.3065 20.4054C33.2572 20.4218 33.208 20.4383 33.1572 20.4553C33.0916 20.373 33.0259 20.2907 32.9583 20.2059C32.8762 20.2717 32.7941 20.3376 32.7095 20.4054C32.5168 20.3181 32.5168 20.3181 32.4608 20.2059C32.4495 20.1209 32.4405 20.0357 32.4328 19.9503C32.4287 19.9049 32.4245 19.8595 32.4202 19.8128C32.4172 19.7779 32.4142 19.7431 32.4111 19.7072C32.3126 19.6907 32.2141 19.6742 32.1126 19.6573C32.1136 19.6017 32.1146 19.5462 32.1157 19.489C32.1257 19.3165 32.1257 19.3165 32.0628 19.2084C31.9613 19.1987 31.8598 19.189 31.7583 19.1794C31.6649 19.1586 31.6649 19.1586 31.5903 19.0557C31.5821 19.0238 31.5738 18.9919 31.5654 18.9591C31.5654 19.0578 31.5654 19.1566 31.5654 19.2583C31.4841 19.2327 31.4033 19.2054 31.3229 19.1773C31.2779 19.1622 31.2329 19.1472 31.1865 19.1317C31.0679 19.0588 31.0679 19.0588 31.0046 18.9238C30.9665 18.7505 30.9442 18.5844 30.9311 18.4073C30.9263 18.3481 30.9214 18.2889 30.9164 18.2279C30.9187 18.0613 30.9187 18.0613 30.9739 17.9275C31.0328 17.8121 31.0328 17.8121 30.9747 17.6966C30.9562 17.6689 30.9377 17.6411 30.9187 17.6125C30.2292 17.5597 29.2198 17.7729 28.6827 18.2466ZM23.3575 17.7621C23.3293 17.8185 23.3012 17.875 23.2722 17.9331C23.1514 18.1754 23.0306 18.4176 22.9098 18.6598C22.8961 18.7972 22.8876 18.9346 22.8789 19.0724C22.8554 19.2416 22.8189 19.3585 22.6867 19.4705C22.5666 19.6091 22.5405 19.7787 22.4994 19.9534C22.4901 19.9891 22.4809 20.0248 22.4714 20.0616C22.4265 20.2456 22.4067 20.3745 22.4621 20.555C22.5635 20.3091 22.6315 20.1271 22.6113 19.8568C22.6441 19.8732 22.6769 19.8897 22.7108 19.9067C22.7769 20.3331 22.6516 20.6311 22.4544 20.9987C22.4274 21.0502 22.4274 21.0502 22.3999 21.1028C22.3832 21.133 22.3665 21.1632 22.3493 21.1944C22.2943 21.3391 22.2943 21.3391 22.3128 21.6522C23.0515 21.6522 23.7902 21.6522 24.5513 21.6522C24.41 21.545 24.41 21.545 24.2531 21.5182C24.1036 21.4527 24.1036 21.4527 24.0179 21.2938C23.9946 21.2308 23.9724 21.1674 23.9513 21.1036C23.8716 20.8531 23.8716 20.8531 23.6826 20.6799C23.5062 20.6448 23.3784 20.7027 23.2082 20.7545C23.0621 20.7358 23.0621 20.7358 22.9595 20.7046C22.9431 20.6223 22.9267 20.54 22.9098 20.4553C22.9737 20.4503 22.9737 20.4503 23.039 20.4453C23.3082 20.4073 23.4945 20.3777 23.6769 20.1654C23.8068 19.9329 23.9266 19.7144 23.9109 19.4422C23.9041 19.2422 23.9177 19.2221 24.029 19.0713C24.2032 18.8192 24.2067 18.5572 24.1534 18.2608C24.0528 18.1059 24.0528 18.1059 23.9047 18.0115C23.8646 17.9744 23.8246 17.9374 23.7834 17.8992C23.6379 17.7996 23.5299 17.7859 23.3575 17.7621ZM43.1062 19.2084C42.9192 19.613 42.8345 20.0194 42.758 20.4553C42.7252 20.4553 42.6924 20.4553 42.6585 20.4553C42.6585 20.0603 42.6585 19.6653 42.6585 19.2583C42.4184 19.5519 42.4184 19.5519 42.3601 19.9067C42.2693 19.9113 42.2693 19.9113 42.1766 19.916C42.0079 19.9377 41.9555 19.9613 41.8098 20.0656C41.6983 20.1977 41.6983 20.1977 41.7196 20.3524C41.734 20.4028 41.7483 20.4532 41.7631 20.5051C41.7797 20.6049 41.7963 20.7046 41.8129 20.8044C41.7759 20.8116 41.739 20.8188 41.7009 20.8262C41.4575 20.9649 41.4006 21.2465 41.3154 21.5026C41.3483 21.5684 41.3811 21.6343 41.4149 21.7021C42.088 21.7021 42.761 21.7021 43.4545 21.7021C43.4135 20.8477 43.4135 20.8477 43.3083 20.0064C43.2999 19.9507 43.2915 19.8951 43.2828 19.8377C43.2334 19.5106 43.2334 19.5106 43.1062 19.2084ZM21.0643 19.7492C20.9588 19.8387 20.8823 19.9323 20.8205 20.0563C20.8128 20.1518 20.8068 20.2474 20.8018 20.343C20.7784 20.6545 20.6936 20.8455 20.522 21.1036C20.5538 21.2427 20.5538 21.2427 20.6153 21.3873C20.6502 21.4747 20.685 21.5621 20.721 21.6522C21 21.6522 21.2791 21.6522 21.5666 21.6522C21.5905 21.4465 21.6144 21.2408 21.6381 21.035C21.6448 20.9774 21.6516 20.9197 21.6585 20.8603C21.6971 20.526 21.7336 20.1917 21.7656 19.8568C21.4181 19.7194 21.4181 19.7194 21.0643 19.7492ZM28.4315 20.4553C28.4812 20.555 28.4812 20.555 28.4812 20.555L28.4315 20.4553ZM26.8089 20.8887C26.7033 21.0655 26.6904 21.1979 26.6904 21.4029C26.7838 21.4965 26.9411 21.4722 27.0666 21.4808C27.1261 21.485 27.1857 21.4891 27.2471 21.4935C27.3163 21.498 27.3163 21.498 27.3868 21.5026C27.354 21.6178 27.3211 21.733 27.2873 21.8517C27.4422 21.8184 27.4422 21.8184 27.4956 21.699C27.509 21.6671 27.5223 21.6352 27.536 21.6024C27.5853 21.6024 27.6345 21.6024 27.6853 21.6024C27.7017 21.6353 27.7181 21.6682 27.735 21.7021C27.8563 21.6886 27.8563 21.6886 27.9837 21.6522C28.0166 21.6029 28.0494 21.5535 28.0832 21.5026C28.0453 21.4882 28.0073 21.4738 27.9682 21.459C27.8345 21.4029 27.8345 21.4029 27.6853 21.3031C27.6196 21.3525 27.554 21.4019 27.4863 21.4527C27.5027 21.3375 27.5191 21.2223 27.536 21.1036C27.5853 21.0872 27.6345 21.0707 27.6853 21.0537C27.6533 20.9882 27.6211 20.9228 27.5889 20.8574C27.571 20.8209 27.5531 20.7845 27.5347 20.7469C27.4931 20.6566 27.4931 20.6566 27.4366 20.6049C27.119 20.5476 26.9972 20.6513 26.8089 20.8887ZM28.8294 20.7545C28.813 20.8203 28.7966 20.8862 28.7797 20.954C28.7468 20.954 28.714 20.954 28.6802 20.954C28.6966 21.0363 28.713 21.1186 28.7299 21.2034C28.6807 21.2281 28.6807 21.2281 28.6304 21.2532C28.6797 21.2532 28.7289 21.2532 28.7797 21.2532C28.7797 21.2203 28.7797 21.1874 28.7797 21.1535C28.8125 21.137 28.8453 21.1206 28.8792 21.1036C28.8863 21.0635 28.8935 21.0234 28.9009 20.9821C28.9289 20.8543 28.9289 20.8543 29.0781 20.7545C28.9961 20.7545 28.914 20.7545 28.8294 20.7545ZM28.3817 20.9041C28.3981 20.9535 28.4145 21.0029 28.4315 21.0537C28.4971 21.0044 28.5628 20.955 28.6304 20.9041C28.5484 20.9041 28.4663 20.9041 28.3817 20.9041ZM27.9837 21.3031C28.2054 21.2784 28.2054 21.2784 28.4315 21.2532C28.4315 21.2368 28.4315 21.2203 28.4315 21.2034C28.2339 21.1924 28.1711 21.2092 27.9837 21.3031ZM15.846 22.3505C15.9603 22.4651 15.9927 22.465 16.1475 22.4783C16.3434 22.5001 16.3434 22.5001 16.3932 22.5499C16.5945 22.5706 16.5945 22.5706 16.7911 22.5499C16.8404 22.4841 16.8896 22.4183 16.9404 22.3505C16.5792 22.3505 16.2181 22.3505 15.846 22.3505ZM20.6712 22.4502C20.6876 22.4831 20.7041 22.516 20.721 22.5499C20.7326 22.8758 20.7326 22.8758 20.6712 22.9988C20.665 23.1438 20.662 23.2871 20.6619 23.4321C20.6613 23.4715 20.6607 23.511 20.6601 23.5516C20.6596 23.7365 20.6658 23.88 20.7243 24.0571C20.7968 24.3514 20.7544 24.6348 20.7272 24.9345C20.6425 25.8033 20.6425 25.8033 20.8453 26.6365C21.0209 27.1041 21.1105 27.4607 20.92 27.9363C20.92 27.9857 20.92 28.035 20.92 28.0859C20.8871 28.0859 20.8543 28.0859 20.8205 28.0859C20.8423 28.1402 20.8423 28.1402 20.8645 28.1956C20.9145 28.3216 20.9634 28.448 21.0115 28.5747C21.0284 28.6194 21.0454 28.664 21.0629 28.71C21.0803 28.7561 21.0978 28.8021 21.1158 28.8496C21.1331 28.8951 21.1504 28.9406 21.1682 28.9874C21.1852 29.0323 21.2022 29.0771 21.2198 29.1233C21.2365 29.1673 21.2533 29.2113 21.2706 29.2566C21.3003 29.3358 21.3295 29.4154 21.3577 29.4952C21.431 29.7016 21.5155 29.8768 21.6413 30.0559C21.6705 30.0986 21.6997 30.1413 21.7299 30.1853C21.7722 30.2323 21.7722 30.2323 21.8154 30.2803C21.9653 30.296 21.9653 30.296 22.0581 30.2046C22.1106 30.1514 22.1106 30.1514 22.1642 30.0972C22.204 30.0573 22.2439 30.0173 22.2849 29.9762C22.3276 29.9325 22.3704 29.8889 22.4144 29.8439C22.4584 29.7997 22.5024 29.7554 22.5476 29.7098C22.6644 29.592 22.7809 29.4738 22.8972 29.3556C23.016 29.2349 23.1352 29.1148 23.2544 28.9945C23.4881 28.7585 23.7214 28.5221 23.9544 28.2854C23.907 28.2219 23.8596 28.1584 23.8121 28.0949C23.7857 28.0595 23.7593 28.0241 23.7321 27.9877C23.6703 27.9055 23.6076 27.8241 23.5446 27.7428C22.328 26.1647 21.7514 24.3172 21.5666 22.3505C21.436 22.3478 21.3055 22.3458 21.1749 22.3442C21.1192 22.343 21.1192 22.343 21.0624 22.3417C20.8435 22.3305 20.8435 22.3305 20.6712 22.4502ZM22.3128 22.3505C22.3128 24.3223 23.1647 26.2664 24.4519 27.7368C24.7565 27.4842 25.0342 27.2092 25.3129 26.9283C25.3614 26.8795 25.41 26.8307 25.4586 26.782C25.5854 26.6547 25.712 26.5272 25.8386 26.3997C25.9683 26.2693 26.098 26.1389 26.2278 26.0086C26.4816 25.7535 26.7353 25.4984 26.9888 25.2431C26.965 25.2058 26.9412 25.1686 26.9166 25.1301C26.8853 25.081 26.854 25.0319 26.8218 24.9813C26.7907 24.9327 26.7597 24.8841 26.7278 24.8341C26.2795 24.1163 26.0009 23.3411 25.8945 22.5001C25.7021 22.552 25.5216 22.6017 25.3473 22.6996C25.3319 22.6605 25.3165 22.6214 25.3006 22.5811C25.2513 22.454 25.2513 22.454 25.198 22.3505C24.2459 22.3505 23.2938 22.3505 22.3128 22.3505ZM41.7134 22.4003C41.924 23.1309 41.924 23.1309 42.1611 23.3479C42.2488 23.3819 42.2488 23.3819 42.3383 23.4165C42.5093 23.4975 42.5093 23.4975 42.5808 23.6129C42.638 23.8868 42.638 23.8868 42.6088 24.0462C42.5078 24.1674 42.3886 24.2545 42.2606 24.3454C42.2301 24.3687 42.1995 24.3921 42.1681 24.4161C41.9018 24.6042 41.6353 24.655 41.3154 24.6945C41.2826 24.8426 41.2498 24.9908 41.2159 25.1434C41.1174 25.1681 41.1174 25.1681 41.017 25.1932C40.9136 25.332 40.9136 25.332 40.818 25.4925C40.7704 25.5461 40.7704 25.5461 40.7218 25.6008C40.5917 25.7792 40.5334 25.9569 40.4666 26.1658C40.3876 26.4092 40.3081 26.621 40.1713 26.8391C40.1713 26.872 40.1713 26.9049 40.1713 26.9388C40.0728 26.9882 40.0728 26.9882 39.9723 27.0386C40.0051 27.055 40.038 27.0715 40.0718 27.0884C40.1257 27.0298 40.1257 27.0298 40.1806 26.97C40.3144 26.8448 40.4012 26.7999 40.5692 26.7393C40.5876 26.8389 40.605 26.9387 40.6221 27.0386C40.6319 27.0941 40.6417 27.1497 40.6518 27.2069C40.7125 27.8562 40.4226 28.5404 40.1713 29.127C40.1554 29.1653 40.1395 29.2035 40.1231 29.2429C40.0491 29.4091 39.993 29.5147 39.8528 29.6335C39.7005 29.6905 39.6069 29.6868 39.4469 29.6632C39.2733 29.6385 39.1453 29.6272 38.9774 29.6819C39.0501 29.8475 39.142 29.9658 39.2665 30.0964C39.2997 30.1322 39.3329 30.168 39.367 30.2049C39.4694 30.2926 39.4694 30.2926 39.5953 30.2764C39.7889 30.207 39.9553 30.1012 40.1307 29.9949C40.2708 29.9312 40.2708 29.9312 40.4255 29.9328C40.5697 29.9445 40.5697 29.9445 40.6697 29.8628C41.0071 29.473 41.301 28.9838 41.4619 28.4903C41.4792 28.4556 41.4966 28.4209 41.5144 28.3851C41.5711 28.3664 41.5711 28.3664 41.629 28.3473C41.847 28.2466 41.9135 28.0518 42.0181 27.8428C42.0415 27.7967 42.0649 27.7506 42.089 27.7031C42.9139 26.0389 43.3922 24.2578 43.4545 22.4003C42.8799 22.4003 42.3053 22.4003 41.7134 22.4003ZM44.2504 22.4003C44.2227 22.6554 44.195 22.9105 44.1664 23.1734C43.9317 25.2154 43.3765 27.3581 42.1717 29.0586C41.9029 29.4385 41.816 29.8077 41.7229 30.2589C41.643 30.6429 41.5181 31.0127 41.3943 31.3843C41.3402 31.557 41.3093 31.7073 41.3123 31.8888C41.3133 31.9505 41.3144 32.0122 41.3154 32.0758C41.391 32.0822 41.391 32.0822 41.4682 32.0888C42.0745 32.1489 42.0745 32.1489 42.2606 32.2815C42.365 32.4319 42.3746 32.4539 42.357 32.6244C42.3336 32.735 42.3051 32.84 42.2703 32.9476C42.2463 33.0794 42.2463 33.0794 42.3428 33.1849C42.3803 33.219 42.4178 33.2532 42.4564 33.2883C42.4938 33.3231 42.5312 33.3579 42.5697 33.3937C42.599 33.4196 42.6283 33.4455 42.6585 33.4722C43.2135 33.0284 43.2135 33.0284 43.5539 32.4249C43.5628 32.3064 43.5628 32.3064 43.5477 32.1911C43.5445 32.1529 43.5413 32.1146 43.538 32.0752C43.5137 31.9664 43.5137 31.9664 43.4051 31.9252C43.3557 31.901 43.3557 31.901 43.3052 31.8763C43.2594 31.7878 43.2594 31.7878 43.2555 31.6768C43.3107 31.547 43.3107 31.547 43.3923 31.3963C43.5491 31.077 43.6102 30.778 43.6521 30.4258C43.6648 30.3268 43.6836 30.2286 43.7032 30.1307C43.8741 30.0165 43.9512 30.0221 44.1509 30.031C44.1509 30.1297 44.1509 30.2285 44.1509 30.3302C44.1837 30.3302 44.2166 30.3302 44.2504 30.3302C44.26 30.3627 44.2696 30.3953 44.2795 30.4288C44.3492 30.6632 44.4201 30.8967 44.4991 31.1282C44.6652 31.0727 44.6777 31.0545 44.7634 30.9121C44.7848 30.877 44.8062 30.8418 44.8282 30.8055C44.8509 30.767 44.8736 30.7284 44.8971 30.6887C44.921 30.6485 44.945 30.6083 44.9697 30.5669C45.0457 30.4385 45.1208 30.3096 45.1955 30.1806C45.2189 30.1404 45.2424 30.1003 45.2665 30.0589C45.644 29.4067 45.9588 28.7351 46.2402 28.036C46.2579 27.992 46.2757 27.9479 46.294 27.9025C46.9814 26.1683 47.3843 24.2687 47.3843 22.4003C46.3501 22.4003 45.3159 22.4003 44.2504 22.4003ZM48.1802 22.4003C48.1515 22.7058 48.1228 23.0113 48.0932 23.3261C48.02 24.0711 47.9413 24.81 47.7823 25.5424C47.7671 25.6123 47.7671 25.6123 47.7516 25.6837C47.0808 28.6993 45.6339 31.4219 43.5479 33.6865C43.5161 33.7218 43.4842 33.757 43.4513 33.7933C43.4089 33.8395 43.4089 33.8395 43.3657 33.8866C43.2907 33.9739 43.2907 33.9739 43.3052 34.1206C43.3985 34.236 43.3985 34.236 43.5244 34.3573C43.5477 34.3807 43.571 34.4041 43.595 34.4282C43.6722 34.5054 43.7498 34.5821 43.8275 34.6589C43.8811 34.7123 43.9346 34.7658 43.9881 34.8192C44.1291 34.96 44.2706 35.1004 44.4121 35.2406C44.5564 35.3837 44.7003 35.5273 44.8442 35.6709C45.1267 35.9525 45.4097 36.2337 45.693 36.5145C45.7482 36.4677 45.8034 36.4207 45.8585 36.3737C45.9045 36.3345 45.9045 36.3345 45.9516 36.2945C46.3303 35.9598 46.6584 35.5456 46.9713 35.1499C47.0177 35.0914 47.0643 35.0332 47.1112 34.9752C47.8419 34.0703 48.465 33.0943 49.0259 32.0758C49.0479 32.0361 49.0699 31.9965 49.0926 31.9557C50.6944 29.0528 51.5132 25.7137 51.5132 22.4003C50.4133 22.4003 49.3134 22.4003 48.1802 22.4003ZM34.7491 23.0986C34.7327 23.1315 34.7162 23.1644 34.6993 23.1983C34.7486 23.1818 34.7978 23.1654 34.8486 23.1484C34.8157 23.132 34.7829 23.1155 34.7491 23.0986ZM10.5232 22.3505C10.5145 22.8645 10.5441 23.3618 10.6041 23.8716C10.6084 23.9092 10.6128 23.9468 10.6172 23.9856C10.8982 26.387 11.5847 28.7827 12.7089 30.9267C12.7676 31.0397 12.8247 31.1535 12.8817 31.2675C13.4104 32.3145 14.0381 33.2908 14.7516 34.2203C14.7767 34.2534 14.8019 34.2864 14.8278 34.3204C15.0869 34.6604 15.3541 34.9899 15.6437 35.3047C15.7718 35.4451 15.8936 35.5904 16.0148 35.7368C16.1042 35.8341 16.1042 35.8341 16.2937 35.916C16.9995 35.2083 17.7054 34.5006 18.4327 33.7715C18.2942 33.5631 18.1869 33.4152 18.0192 33.2416C16.9954 32.1287 16.1913 30.784 15.5415 29.4237C15.4997 29.3369 15.4567 29.2507 15.4136 29.1646C14.9814 28.2789 14.6523 27.3378 14.4242 26.3793C14.3668 26.0989 14.3668 26.0989 14.1748 25.9088C14.1353 25.8866 14.0958 25.8645 14.0551 25.8416C14.0042 25.7027 13.9885 25.561 13.9712 25.4146C13.9489 25.1287 13.9489 25.1287 13.8064 24.894C13.7237 24.977 13.7387 25.0827 13.7287 25.1964C13.7224 25.2651 13.7224 25.2651 13.7161 25.3353C13.713 25.3707 13.71 25.4061 13.7069 25.4426C13.6741 25.3603 13.6413 25.278 13.6074 25.1932C13.5746 25.1932 13.5418 25.1932 13.5079 25.1932C13.491 25.1547 13.491 25.1547 13.4737 25.1153C13.4077 24.9838 13.4077 24.9838 13.2903 24.8441C13.1386 24.6386 13.076 24.4129 13.0052 24.1697C12.974 24.0385 12.974 24.0385 12.8613 23.9963C12.7908 24.1376 12.7943 24.2693 12.7835 24.4264C12.7794 24.4857 12.7752 24.545 12.7709 24.6061C12.7679 24.6517 12.7649 24.6974 12.7618 24.7444C12.5412 24.5601 12.4603 24.3853 12.3623 24.1169C12.3003 23.9619 12.2079 23.8352 12.1151 23.697C12.0589 23.5656 12.0124 23.4334 11.9658 23.2981C11.8119 23.3495 11.7714 23.3802 11.6674 23.4975C11.6428 23.5243 11.6181 23.551 11.5928 23.5786C11.3815 23.9139 11.3479 24.2596 11.3596 24.6478C11.3603 24.6909 11.3609 24.7341 11.3616 24.7786C11.3634 24.8836 11.366 24.9885 11.3689 25.0935C11.3361 25.0935 11.3032 25.0935 11.2694 25.0935C11.2634 25.0489 11.2574 25.0043 11.2512 24.9583C11.2428 24.898 11.2345 24.8377 11.2259 24.7756C11.2178 24.7165 11.2097 24.6575 11.2014 24.5967C11.18 24.4481 11.1498 24.3031 11.1173 24.1566C11.062 23.8845 11.0575 23.6217 11.0611 23.3448C11.0611 23.2985 11.0612 23.2522 11.0612 23.2044C11.063 22.9162 11.0837 22.6363 11.1202 22.3505C10.9232 22.3505 10.7262 22.3505 10.5232 22.3505ZM32.9583 25.692C32.9418 25.7578 32.9254 25.8236 32.9085 25.8915C32.9578 25.8421 33.007 25.7927 33.0577 25.7419C33.0249 25.7254 32.9921 25.7089 32.9583 25.692ZM27.4366 25.7419C26.6322 26.5483 25.8278 27.3548 24.999 28.1856C25.5185 29.2273 27.2541 29.9192 28.2822 30.2803C28.7066 30.4149 29.1339 30.5236 29.5756 30.5796C29.6746 30.4306 29.7219 30.3004 29.7746 30.1307C30.0775 30.1251 30.3688 30.147 30.67 30.1806C30.67 29.9995 30.67 29.8185 30.67 29.632C30.6371 29.6155 30.6043 29.5991 30.5705 29.5821C30.5541 29.5327 30.5377 29.4834 30.5207 29.4325C30.57 29.4325 30.6192 29.4325 30.67 29.4325C30.67 29.3502 30.67 29.2679 30.67 29.1831C30.5879 29.1831 30.5058 29.1831 30.4213 29.1831C30.4048 29.1502 30.3884 29.1173 30.3715 29.0834C30.4372 29.0505 30.5028 29.0175 30.5705 28.9836C30.4966 28.9342 30.4966 28.9342 30.4213 28.8839C30.4633 28.8468 30.5054 28.8098 30.5487 28.7717C30.5887 28.7264 30.6288 28.6811 30.67 28.6345C30.6677 28.521 30.6677 28.521 30.6202 28.435C30.5874 28.435 30.5546 28.435 30.5207 28.435C30.51 28.3872 30.51 28.3872 30.499 28.3384C30.4804 28.2367 30.4804 28.2367 30.4213 28.1856C30.4306 28.0142 30.4306 28.0142 30.471 27.8365C30.5367 27.8036 30.6023 27.7707 30.67 27.7368C30.67 27.5228 30.67 27.3089 30.67 27.0884C30.6104 27.0805 30.5508 27.0726 30.4895 27.0645C29.5202 26.9284 28.6467 26.6414 27.8594 26.0358C27.7227 25.932 27.5793 25.8372 27.4366 25.7419ZM33.9034 26.5398C33.8181 26.6375 33.7351 26.7373 33.6547 26.8391C33.8444 26.7808 33.8444 26.7808 33.9687 26.6333C33.98 26.6025 33.9913 26.5716 34.0029 26.5398C33.9701 26.5398 33.9372 26.5398 33.9034 26.5398ZM33.1075 26.6396C32.9844 26.7136 32.9844 26.7136 32.8588 26.7892C32.8947 26.9439 32.8947 26.9439 33.0142 27.0199C33.1075 27.1383 33.1075 27.1383 33.1094 27.2386C33.0997 27.3166 33.0881 27.3944 33.075 27.4718C33.0521 27.5991 33.0521 27.5991 33.0671 27.7773C33.0577 27.9363 33.0577 27.9363 32.9583 28.0578C32.9254 28.0836 32.8926 28.1093 32.8588 28.1358C32.6552 28.0678 32.6292 27.9688 32.5261 27.7835C32.4951 27.7284 32.4641 27.6734 32.4322 27.6166C32.3971 27.5526 32.3971 27.5526 32.3613 27.4874C32.3074 27.5491 32.3074 27.5491 32.2525 27.6121C32.1126 27.7368 32.1126 27.7368 31.9727 27.7524C31.9368 27.7472 31.9009 27.7421 31.8639 27.7368C31.8474 27.6874 31.831 27.638 31.8141 27.5872C31.7813 27.5872 31.7485 27.5872 31.7146 27.5872C31.7249 27.5604 31.7351 27.5337 31.7457 27.5061C31.7709 27.3461 31.7223 27.2374 31.6649 27.0884C31.55 27.0884 31.4351 27.0884 31.3167 27.0884C31.3167 27.6316 31.3167 28.1747 31.3167 28.7343C31.3659 28.7507 31.4152 28.7672 31.4659 28.7841C31.4495 28.8993 31.4331 29.0145 31.4162 29.1332C31.5745 29.0358 31.6982 28.9555 31.811 28.806C31.9464 28.6455 32.0665 28.6063 32.2618 28.5348C32.2546 28.5008 32.2475 28.4669 32.2401 28.4319C32.2086 28.2673 32.1851 28.1023 32.1623 27.9363C32.228 27.8869 32.2937 27.8375 32.3613 27.7867C32.4111 27.8864 32.4111 27.8864 32.4048 28.0578C32.3944 28.2291 32.3944 28.2291 32.4727 28.3214C32.6144 28.4245 32.7281 28.3918 32.8947 28.368C33.0736 28.3163 33.1696 28.2106 33.3065 28.0859C33.4495 28.0454 33.4495 28.0454 33.5552 28.036C33.6456 27.8122 33.6582 27.6725 33.6049 27.4375C33.6049 27.4046 33.6049 27.3717 33.6049 27.3378C33.6706 27.3378 33.7363 27.3378 33.8039 27.3378C33.7885 27.31 33.7731 27.2823 33.7573 27.2536C33.7016 27.1321 33.6766 27.0205 33.6547 26.8889C33.6235 26.8877 33.5924 26.8864 33.5602 26.885C33.4993 26.8808 33.4993 26.8808 33.437 26.8765C33.3967 26.8742 33.3563 26.8718 33.3146 26.8695C33.207 26.8391 33.207 26.8391 33.1429 26.737C33.1312 26.7048 33.1195 26.6727 33.1075 26.6396ZM39.8728 27.1383C39.8405 27.2278 39.8405 27.2278 39.8075 27.3191C39.6847 27.573 39.492 27.6556 39.2442 27.7705C39.1109 27.828 39.1109 27.828 39.0769 27.9862C39.3382 27.9636 39.5551 27.9444 39.7733 27.7867C39.8905 27.5823 39.9446 27.3745 39.9226 27.1383C39.9061 27.1383 39.8897 27.1383 39.8728 27.1383ZM37.0373 27.8365C37.103 27.8859 37.1687 27.9353 37.2363 27.9862C37.2527 27.9039 37.2692 27.8216 37.2861 27.7368C37.1705 27.7276 37.1705 27.7276 37.0373 27.8365ZM36.3409 28.1856C36.2917 28.2597 36.2917 28.2597 36.2414 28.3353C36.086 28.3945 36.086 28.3945 35.943 28.435C35.943 28.4021 35.943 28.3692 35.943 28.3353C35.846 28.345 35.846 28.345 35.744 28.3851C35.6422 28.5426 35.6266 28.6865 35.6134 28.8714C35.6097 28.9205 35.606 28.9696 35.6021 29.0203C35.5997 29.0575 35.5973 29.0948 35.5947 29.1332C35.7179 29.1826 35.7179 29.1826 35.8435 29.233C36.0717 29.0517 36.2305 28.8807 36.3907 28.6345C36.5275 28.5161 36.5275 28.5161 36.6394 28.435C36.5409 28.3527 36.4424 28.2704 36.3409 28.1856ZM24.4021 28.7841C23.7126 29.4754 23.0232 30.1666 22.3128 30.8788C23.512 32.2815 25.5477 33.4927 27.3371 33.9211C27.4027 33.9211 27.4684 33.9211 27.536 33.9211C27.4766 33.7602 27.4232 33.7117 27.2811 33.6063C27.1381 33.4722 27.1381 33.4722 27.1008 33.3008C27.1451 33.0898 27.2071 33.0488 27.3632 32.9153C27.4582 32.7968 27.4613 32.7149 27.4709 32.5646C27.4742 32.5197 27.4774 32.4749 27.4808 32.4287C27.4826 32.3945 27.4844 32.3603 27.4863 32.3251C28.4468 31.9367 28.4468 31.9367 28.9165 31.9394C29.0565 31.9228 29.0895 31.8839 29.1776 31.7765C29.3041 31.6289 29.4268 31.5804 29.6098 31.5178C29.6592 31.5007 29.7087 31.4835 29.7596 31.4658C29.7974 31.4531 29.8351 31.4405 29.8741 31.4274C29.8576 31.3945 29.8412 31.3616 29.8243 31.3277C29.7277 31.299 29.7277 31.299 29.6098 31.2831C29.5425 31.272 29.5425 31.272 29.4738 31.2607C29.4253 31.253 29.3768 31.2452 29.3269 31.2373C27.6322 30.9451 25.9537 30.1909 24.7105 28.9817C24.5953 28.8701 24.5953 28.8701 24.4021 28.7841ZM36.9625 29.2683C35.8729 30.1752 34.6114 30.7452 33.2567 31.1282C33.2403 31.2269 33.2239 31.3257 33.207 31.4274C33.2934 31.4266 33.2934 31.4266 33.3815 31.4257C33.458 31.4252 33.5346 31.4247 33.6112 31.4243C33.649 31.4239 33.6868 31.4235 33.7258 31.423C33.8928 31.4223 34.0466 31.4264 34.2118 31.4541C34.4493 31.4936 34.6738 31.4643 34.8983 31.3776C35.0005 31.2106 35.0005 31.2106 35.0475 31.0284C35.2074 30.8701 35.3797 30.8376 35.5947 30.7884C36.093 30.6646 36.5216 30.472 36.8971 30.1138C36.9877 30.0309 37.0806 29.9667 37.1835 29.9C37.3379 29.7976 37.3379 29.7976 37.3918 29.6694C37.3823 29.4607 37.3108 29.2771 37.2363 29.0834C37.1258 29.0834 37.0441 29.1999 36.9625 29.2683ZM31.3167 29.1332C31.3331 29.1662 31.3495 29.1991 31.3664 29.233C31.3828 29.2001 31.3992 29.1672 31.4162 29.1332C31.3833 29.1332 31.3505 29.1332 31.3167 29.1332ZM16.2937 29.1831C16.8526 30.4875 17.6867 31.6524 18.6047 32.7255C18.7311 32.8736 18.8557 33.023 18.9799 33.173C19.2416 32.9512 19.4948 32.7222 19.7447 32.4872C19.7807 32.4537 19.8167 32.4202 19.8537 32.3857C19.8879 32.3537 19.9221 32.3216 19.9573 32.2885C19.9882 32.2596 20.019 32.2307 20.0508 32.2009C20.1292 32.128 20.1292 32.128 20.1738 32.0259C20.1225 32.0071 20.0712 31.9882 20.0183 31.9688C19.8126 31.8802 19.6791 31.7544 19.5271 31.5926C19.5012 31.5659 19.4753 31.5391 19.4486 31.5115C19.252 31.3068 19.0642 31.0951 18.8804 30.8788C18.5279 30.4504 18.5279 30.4504 18.0845 30.1307C17.9824 30.1396 17.9824 30.1396 17.8762 30.165C17.6497 30.2046 17.5385 30.1426 17.3476 30.0185C17.0943 29.8345 16.8627 29.6303 16.6379 29.4123C16.5224 29.3007 16.4483 29.2348 16.2937 29.1831ZM37.7835 29.7317C37.703 29.86 37.6818 29.9151 37.7027 30.0684C37.7129 30.1054 37.7232 30.1424 37.7338 30.1806C38.0776 30.2668 38.0776 30.2668 38.4302 30.2803C38.1955 29.9924 38.1955 29.9924 37.9328 29.7317C37.8835 29.7317 37.8343 29.7317 37.7835 29.7317ZM33.207 29.7816C33.2426 29.945 33.2426 29.945 33.4028 30.0123C33.6772 30.1194 33.9736 30.1694 34.2578 30.084C34.2886 30.0665 34.3194 30.049 34.3511 30.031C34.3347 29.9981 34.3183 29.9651 34.3014 29.9312C34.1822 29.9084 34.0672 29.8915 33.9469 29.8782C33.8822 29.8705 33.8174 29.8627 33.7507 29.8547C33.6862 29.847 33.6217 29.8394 33.5552 29.8315C33.439 29.8155 33.323 29.7987 33.207 29.7816ZM32.4173 30.1775C32.2388 30.2751 32.1185 30.2899 31.9136 30.2803C31.7599 30.3831 31.7389 30.4213 31.6649 30.5796C31.6321 30.6125 31.5992 30.6454 31.5654 30.6793C31.7199 30.6669 31.8743 30.653 32.0286 30.6388C32.0725 30.6353 32.1163 30.6318 32.1615 30.6282C32.2036 30.6242 32.2458 30.6201 32.2892 30.616C32.328 30.6126 32.3669 30.6092 32.4068 30.6057C32.5331 30.5739 32.5825 30.5341 32.6598 30.43C32.6598 30.3806 32.6598 30.3312 32.6598 30.2803C32.6926 30.2639 32.7254 30.2474 32.7593 30.2305C32.7593 30.3128 32.7593 30.395 32.7593 30.4798C33.0706 30.4494 33.0706 30.4494 33.3562 30.3302C33.2692 30.2979 33.1821 30.2657 33.0951 30.2336C33.0466 30.2156 32.9981 30.1977 32.9481 30.1792C32.9022 30.1632 32.8563 30.1472 32.809 30.1307C32.7743 30.1184 32.7395 30.106 32.7037 30.0933C32.5785 30.0766 32.5246 30.1133 32.4173 30.1775ZM21.2739 31.8905C21.2416 31.9234 21.2093 31.9563 21.1761 31.9901C21.1393 32.0271 21.1024 32.064 21.0645 32.1021C21.0253 32.1427 20.986 32.1834 20.9456 32.2252C20.905 32.2662 20.8645 32.3073 20.8227 32.3495C20.6928 32.4811 20.5639 32.6135 20.4349 32.746C20.3472 32.8351 20.2595 32.9243 20.1716 33.0133C19.9561 33.2322 19.7413 33.4517 19.5271 33.6717C19.5744 33.7276 19.6218 33.7834 19.6692 33.8392C19.6956 33.8703 19.722 33.9014 19.7492 33.9334C20.1134 34.3502 20.5812 34.6836 21.0194 35.0183C21.0495 35.0414 21.0796 35.0644 21.1107 35.0881C21.577 35.4432 22.0585 35.7652 22.5615 36.0657C22.6073 36.0932 22.6073 36.0932 22.654 36.1213C23.647 36.7137 24.7024 37.1878 25.795 37.5619C25.8412 37.5777 25.8875 37.5936 25.9351 37.6099C26.9302 37.9452 27.9599 38.1651 29.0004 38.3006C29.0426 38.3062 29.0848 38.3118 29.1283 38.3175C29.6415 38.3777 30.1516 38.3861 30.67 38.4097C30.67 37.3728 30.67 36.336 30.67 35.2677C30.5501 35.2076 30.4629 35.2061 30.329 35.1981C27.7164 35.0256 25.0544 34.207 22.9955 32.5322C22.7871 32.3639 22.6112 32.2848 22.3523 32.218C22.1277 32.1493 21.921 32.0438 21.71 31.9414C21.4898 31.8227 21.4898 31.8227 21.2739 31.8905ZM41.8129 33.6219C41.7698 33.6932 41.7274 33.765 41.6854 33.8369C41.6617 33.8769 41.6381 33.9168 41.6137 33.9579C41.5471 34.0753 41.5471 34.0753 41.6139 34.2203C41.8098 34.2386 41.8907 34.2354 42.0554 34.1206C42.0903 34.0877 42.1251 34.0548 42.1611 34.0208C42.0869 33.8316 41.9742 33.741 41.8129 33.6219ZM18.8411 34.3535C18.8023 34.3925 18.7635 34.4315 18.7236 34.4717C18.6798 34.5156 18.6359 34.5595 18.5908 34.6048C18.5427 34.6533 18.4946 34.7018 18.4465 34.7502C18.3975 34.7995 18.3485 34.8487 18.2995 34.8978C18.1703 35.0276 18.0412 35.1575 17.9121 35.2875C17.7805 35.4199 17.6487 35.5523 17.517 35.6846C17.2583 35.9445 16.9998 36.2045 16.7414 36.4646C16.7994 36.5227 16.7994 36.5227 16.8586 36.582C16.941 36.6647 17.0228 36.7478 17.104 36.8317C17.3509 37.0851 17.6052 37.3181 17.8814 37.5389C17.9926 37.6279 18.1023 37.7178 18.2114 37.8093C19.509 38.8934 20.9496 39.7593 22.4621 40.5044C22.5109 40.5285 22.5598 40.5526 22.6101 40.5775C24.7778 41.6348 27.1791 42.2347 29.5725 42.4619C29.6145 42.4659 29.6565 42.4699 29.6998 42.4741C30.0264 42.5019 30.3391 42.4993 30.67 42.4993C30.67 41.4131 30.67 40.3268 30.67 39.2077C30.4883 39.1712 30.3313 39.1485 30.1486 39.1381C27.7155 38.9871 25.3142 38.4159 23.1511 37.2615C23.0541 37.2101 22.9562 37.1606 22.8581 37.1112C21.496 36.4184 20.2722 35.4792 19.161 34.4348C19.0087 34.2575 19.0087 34.2575 18.8411 34.3535ZM42.5289 34.7247C42.3923 34.8479 42.2547 34.9625 42.1057 35.0703C41.5962 35.4478 41.32 35.8216 41.0364 36.3855C40.5276 37.3931 39.0143 38.1646 37.9825 38.5095C37.8988 38.5165 37.8147 38.5204 37.7307 38.5219C37.687 38.5232 37.6433 38.5245 37.5983 38.5258C37.561 38.5204 37.5236 38.515 37.4851 38.5095C37.4522 38.4601 37.4194 38.4107 37.3856 38.3598C37.2664 38.3069 37.2664 38.3069 37.1275 38.2726C37.0817 38.2594 37.0358 38.2463 36.9886 38.2328C36.661 38.1835 36.367 38.2938 36.0579 38.3912C34.6626 38.8306 33.2143 39.0909 31.7517 39.1434C31.595 39.1491 31.4664 39.1576 31.3167 39.2077C31.3167 40.2939 31.3167 41.3802 31.3167 42.4993C32.3373 42.5081 32.3373 42.5081 33.3469 42.4401C33.4084 42.4335 33.47 42.4268 33.5334 42.42C35.7591 42.1674 37.9501 41.5762 39.9723 40.6041C40.011 40.5856 40.0496 40.5671 40.0894 40.5481C40.2878 40.4523 40.4843 40.3536 40.6794 40.2515C40.7679 40.2053 40.8567 40.16 40.9456 40.1148C42.3498 39.3912 43.6114 38.4494 44.7976 37.4122C44.8412 37.3742 44.8848 37.3361 44.9297 37.2969C45.0185 37.2192 45.1071 37.1413 45.1955 37.0631C45.1195 36.8834 45.0132 36.768 44.8763 36.6304C44.8308 36.5845 44.7853 36.5386 44.7384 36.4912C44.6887 36.4416 44.639 36.3919 44.5893 36.3423C44.5383 36.2912 44.4874 36.24 44.4365 36.1888C44.3299 36.0819 44.2232 35.9751 44.1163 35.8684C43.9792 35.7314 43.8424 35.594 43.7058 35.4565C43.6009 35.3509 43.4957 35.2455 43.3904 35.1402C43.3399 35.0896 43.2894 35.039 43.239 34.9882C43.1688 34.9175 43.0982 34.8472 43.0275 34.7769C42.9874 34.7367 42.9473 34.6966 42.9059 34.6552C42.7349 34.5058 42.6767 34.5881 42.5289 34.7247ZM32.8432 35.0869C32.4323 35.1428 32.0253 35.1871 31.6109 35.2033C31.4497 35.1965 31.4497 35.1965 31.3167 35.2677C31.312 35.3656 31.3108 35.4637 31.311 35.5618C31.311 35.6247 31.311 35.6876 31.311 35.7524C31.3113 35.8215 31.3115 35.8907 31.3118 35.9599C31.3119 36.0302 31.312 36.1006 31.312 36.171C31.3122 36.3565 31.3127 36.5421 31.3133 36.7276C31.3138 36.9168 31.314 37.106 31.3142 37.2952C31.3148 37.6667 31.3156 38.0382 31.3167 38.4097C31.9249 38.3879 32.5266 38.3614 33.1293 38.2726C33.1896 38.2639 33.25 38.2553 33.3122 38.2464C34.1192 38.1264 34.9148 37.9539 35.6942 37.7115C35.5586 37.5755 35.4006 37.5424 35.2217 37.487C34.862 37.3758 34.862 37.3758 34.7491 37.2626C34.742 36.9149 34.9272 36.7185 35.147 36.4646C34.7275 35.9118 34.259 35.8 33.6049 35.6667C33.6308 35.5693 33.6568 35.4719 33.6827 35.3744C33.7111 35.2533 33.7111 35.2533 33.7044 35.0682C33.4093 34.9926 33.1393 35.0443 32.8432 35.0869Z" fill="white"/>
<path d="M29.4756 44.8933C29.5104 44.8986 29.5451 44.9039 29.5809 44.9095C29.9267 44.9643 30.2582 45.0324 30.5887 45.152C30.8485 45.2434 31.0925 45.2996 31.3659 45.2424C31.4264 45.212 31.4863 45.1803 31.5457 45.1479C31.7902 45.0195 32.0375 44.9778 32.308 44.9338C32.3546 44.9256 32.4013 44.9174 32.4494 44.9089C32.8856 44.8339 33.3151 44.7859 33.7578 44.7816C33.7998 44.7811 33.8417 44.7807 33.885 44.7802C35.2214 44.7679 36.4941 44.8605 37.7831 45.2424C37.8446 45.2604 37.8446 45.2604 37.9073 45.2787C38.4166 45.4306 38.8995 45.6183 39.3798 45.8457C39.9519 46.1123 40.531 46.3568 41.1169 46.5912C41.2753 46.6547 41.4332 46.7191 41.5912 46.7835C43.8151 47.6818 46.182 47.9509 48.4508 47.0122C48.783 46.8681 49.0983 46.6993 49.4066 46.5092C49.4769 46.4665 49.5495 46.4276 49.6224 46.3895C49.6552 46.4059 49.688 46.4224 49.7219 46.4393C49.5476 46.6302 49.3727 46.8205 49.1969 47.0099C49.1418 47.0695 49.087 47.1293 49.0322 47.1892C47.6615 48.6345 45.5179 49.4996 43.5535 49.5814C43.5087 49.5834 43.4638 49.5855 43.4177 49.5876C41.0588 49.641 38.8719 48.6264 36.9871 47.2872C36.9024 47.2275 36.8177 47.1679 36.733 47.1083C36.6695 47.0638 36.6695 47.0638 36.6048 47.0183C36.439 46.9018 36.273 46.7855 36.1069 46.6693C36.0336 46.6179 35.9603 46.5664 35.8873 46.5146C34.806 45.7503 33.8135 45.5834 32.5101 45.791C32.568 45.8189 32.626 45.8468 32.6857 45.8755C33.3772 46.2128 34.0401 46.5907 34.6989 46.9879C34.7566 47.0227 34.7566 47.0227 34.8155 47.0581C35.7766 47.6394 36.6726 48.313 37.5343 49.0328C37.5597 49.0539 37.5851 49.075 37.6113 49.0968C37.9632 49.3905 38.3059 49.6919 38.641 50.0049C38.7828 50.1344 38.9282 50.2572 39.0764 50.3793C38.9962 50.5804 38.8547 50.7166 38.7033 50.8656C38.6639 50.9049 38.6639 50.9049 38.6236 50.9449C38.3906 51.1735 38.1431 51.3798 37.8825 51.5763C37.7345 51.5097 37.6319 51.437 37.5188 51.3207C37.4923 51.2938 37.4658 51.267 37.4385 51.2393C37.3517 51.1451 37.2685 51.0493 37.1853 50.9519C36.9659 50.6995 36.7304 50.4636 36.4939 50.2274C36.4183 50.1519 36.343 50.0761 36.2677 50.0003C36.0291 49.7609 35.788 49.5268 35.5314 49.3066C35.4029 49.196 35.2799 49.0799 35.1559 48.9642C34.8801 48.7092 34.5952 48.4682 34.3009 48.2348C34.252 48.196 34.203 48.1571 34.1526 48.1171C33.4403 47.56 32.7037 47.0569 31.9218 46.6026C31.828 46.5475 31.7353 46.4909 31.643 46.4333C31.5967 46.4055 31.5504 46.3776 31.5027 46.3489C31.4656 46.326 31.4284 46.303 31.39 46.2794C31.0395 46.1672 30.7012 46.3444 30.3897 46.4954C30.3445 46.5173 30.2993 46.5391 30.2527 46.5617C28.9668 47.2056 27.7708 48.193 26.7169 49.1662C26.6121 49.2622 26.5058 49.3552 26.3977 49.4473C25.9667 49.8233 25.5646 50.24 25.1976 50.6786C25.153 50.7306 25.1085 50.7826 25.0639 50.8346C24.831 51.107 24.6019 51.3783 24.4016 51.6761C24.1812 51.5347 23.9834 51.3804 23.786 51.2085C23.55 51.0053 23.3105 50.812 23.0585 50.6287C23.1414 50.4126 23.301 50.2728 23.4627 50.1144C23.4921 50.0853 23.5216 50.0561 23.5519 50.0261C23.7268 49.8542 23.9036 49.686 24.0905 49.5272C24.1824 49.449 24.2728 49.3697 24.363 49.2895C24.7916 48.9098 25.2342 48.5543 25.6926 48.2114C25.7883 48.1397 25.8836 48.0675 25.9789 47.9952C27.1197 47.1359 28.3581 46.4436 29.6249 45.791C29.0765 45.4989 28.3554 45.6334 27.7843 45.791C26.9222 46.0622 26.1956 46.5906 25.4745 47.1212C24.8082 47.6105 24.1211 48.0685 23.4067 48.4842C23.3723 48.5042 23.3378 48.5243 23.3023 48.5449C21.3623 49.6581 19.0017 50.0773 16.8274 49.4892C15.3748 49.0714 14.0453 48.3397 12.9603 47.2872C12.9164 47.2451 12.8724 47.2031 12.8272 47.1598C12.5008 46.8414 12.5008 46.8414 12.4131 46.6388C12.585 46.7024 12.7415 46.7809 12.9008 46.8715C14.6507 47.8569 16.75 47.994 18.6841 47.574C18.7263 47.565 18.7686 47.556 18.8122 47.5467C19.5445 47.3778 20.2283 47.0524 20.9102 46.7442C23.6154 45.5239 26.4552 44.42 29.4756 44.8933Z" fill="white"/>
<path d="M52.4085 31.1282C52.4577 31.1529 52.4577 31.1529 52.5079 31.1781C52.4899 31.2199 52.4718 31.2618 52.4531 31.3049C51.9249 32.5718 51.7296 33.902 51.5322 35.2521C51.146 37.89 50.3356 39.7772 48.4288 41.6515C48.7593 41.4858 49.0039 41.2525 49.2745 41.0031C49.7981 40.5259 50.3691 40.1364 50.9658 39.7563C50.9999 39.7345 51.0339 39.7128 51.069 39.6904C51.9561 39.1301 52.9164 38.6739 53.8561 38.2098C55.151 37.57 56.3943 36.8859 57.4327 35.8662C57.4729 35.8284 57.5131 35.7906 57.5545 35.7516C58.0692 35.2581 58.4393 34.6946 58.7758 34.0707C58.8255 33.9813 58.8752 33.892 58.925 33.8027C58.9583 33.7424 58.9914 33.6822 59.0245 33.6219C59.1863 33.9461 58.8976 34.6599 58.7925 34.9924C58.2803 36.5109 57.3909 37.8118 56.2886 38.9583C56.262 38.9861 56.2354 39.0138 56.208 39.0424C55.8565 39.4073 55.4948 39.7437 55.0947 40.0555C55.0458 40.0948 54.997 40.1341 54.9466 40.1746C54.0378 40.8996 53.0229 41.4816 51.9483 41.9227C51.9132 41.9373 51.8781 41.952 51.842 41.967C50.8021 42.3748 49.6576 42.5264 48.5656 42.737C48.339 42.7808 48.1124 42.8251 47.8859 42.8699C47.8494 42.8771 47.8128 42.8843 47.7751 42.8918C47.1367 43.0191 46.5127 43.1799 45.8899 43.3707C45.7924 43.3971 45.7924 43.3971 45.6929 43.3971C45.6929 43.3641 45.6929 43.3312 45.6929 43.2973C45.7607 43.2322 45.7607 43.2322 45.8577 43.1539C47.5134 41.7306 48.1947 39.5324 48.8527 37.5265C49.1266 36.6918 49.402 35.8662 49.772 35.0682C49.7894 35.0303 49.8069 34.9925 49.8249 34.9535C50.1294 34.3017 50.5023 33.7024 50.9241 33.1204C51.03 32.9739 51.1335 32.8258 51.2361 32.677C51.5454 32.2287 51.8567 31.7927 52.2095 31.3776C52.2761 31.2946 52.3424 31.2116 52.4085 31.1282Z" fill="white"/>
<path d="M9.42888 31.4773C9.63752 31.5541 9.74432 31.7074 9.87347 31.8794C9.90905 31.926 9.90905 31.926 9.94533 31.9734C9.99617 32.04 10.0469 32.1067 10.0974 32.1735C10.1729 32.2724 10.2495 32.3703 10.3266 32.468C10.9564 33.2709 11.5434 34.1219 12.0176 35.0272C12.0651 35.1176 12.1141 35.2071 12.1631 35.2967C12.5866 36.088 12.8573 36.9524 13.1427 37.8007C13.1586 37.8481 13.1746 37.8955 13.1911 37.9444C13.2706 38.1804 13.3495 38.4165 13.4275 38.653C13.7072 39.4939 14.0361 40.3153 14.45 41.0998C14.4751 41.1475 14.5002 41.1953 14.5261 41.2445C14.8358 41.8226 15.2018 42.3204 15.6552 42.7931C15.7465 42.8983 15.7465 42.8983 15.7465 42.9981C15.7793 42.9981 15.8122 42.9981 15.846 42.9981C15.846 43.031 15.846 43.0639 15.846 43.0978C15.875 43.1111 15.904 43.1243 15.9338 43.138C16.048 43.1992 16.1347 43.2676 16.2315 43.3534C16.262 43.3803 16.2926 43.4072 16.324 43.4349C16.3468 43.4553 16.3697 43.4758 16.3932 43.4968C16.2181 43.5575 16.1063 43.535 15.9298 43.4857C15.8763 43.4713 15.8229 43.457 15.7679 43.4422C15.7096 43.4262 15.6514 43.4103 15.5914 43.394C15.0545 43.2534 14.5179 43.1383 13.9708 43.0448C13.9355 43.0388 13.9002 43.0327 13.8639 43.0264C13.5742 42.9768 13.2843 42.9283 12.9944 42.8801C9.54296 42.3061 6.62297 40.8153 4.53409 37.9238C3.81595 36.9094 2.82801 35.3803 2.91228 34.0707C3.03073 34.217 3.11976 34.3728 3.20849 34.5385C3.43745 34.9649 3.69508 35.347 4.00667 35.7166C4.02808 35.742 4.04949 35.7674 4.07155 35.7937C4.61174 36.427 5.24135 36.9256 5.94673 37.3624C5.98017 37.3832 6.01362 37.404 6.04809 37.4255C6.9431 37.9749 7.89806 38.4218 8.8378 38.8877C10.0951 39.5111 11.2611 40.1364 12.3528 41.0253C12.7385 41.3389 13.1185 41.6147 13.5577 41.851C13.408 41.6999 13.2568 41.5505 13.1046 41.4019C12.6875 40.9927 12.2884 40.5955 11.9659 40.1054C11.9459 40.0755 11.926 40.0456 11.9054 40.0148C10.9328 38.5477 10.6364 36.9195 10.3714 35.2029C10.1861 34.0023 9.98579 32.8472 9.51607 31.7195C9.48389 31.64 9.45595 31.5587 9.42888 31.4773Z" fill="white"/>
<path d="M7.48903 25.4426C7.52186 25.4426 7.55469 25.4426 7.58852 25.4426C8.54066 27.6618 8.72434 30.0282 8.94097 32.4072C9.03899 33.4828 9.15277 34.5511 9.32959 35.6168C9.33745 35.6656 9.3453 35.7145 9.3534 35.7648C9.50595 36.6884 9.88958 37.5078 10.2993 38.343C10.322 38.3893 10.3447 38.4356 10.368 38.4834C10.3884 38.5245 10.4088 38.5657 10.4298 38.6082C10.4737 38.709 10.4737 38.709 10.4737 38.8087C10.2622 38.7345 10.0879 38.6237 9.90477 38.497C9.59101 38.2837 9.27351 38.0771 8.9534 37.8736C8.90697 37.844 8.86055 37.8144 8.81272 37.784C8.57858 37.635 8.34416 37.4865 8.10948 37.3384C6.89325 36.5693 5.68627 35.7715 4.60382 34.8188C4.54918 34.7715 4.54918 34.7715 4.49344 34.7232C4.397 34.6393 4.30143 34.5545 4.20585 34.4697C4.16834 34.4373 4.13083 34.4049 4.09218 34.3715C2.73865 33.1844 1.75705 31.6262 1.24913 29.8969C1.23805 29.8598 1.22697 29.8226 1.21555 29.7844C0.994205 28.9728 0.948958 28.151 0.955704 27.3139C0.956904 27.154 0.956722 26.9942 0.956396 26.8344C0.956673 26.7324 0.957026 26.6305 0.957465 26.5285C0.95742 26.4809 0.957374 26.4333 0.957328 26.3842C0.957802 26.3405 0.958276 26.2968 0.958765 26.2518C0.958994 26.2134 0.959223 26.1749 0.959459 26.1354C0.972428 26.0411 0.972428 26.0411 1.07192 25.9413C1.0798 25.9975 1.08769 26.0536 1.09582 26.1114C1.28838 27.4111 1.82332 28.4762 2.66376 29.4824C2.68583 29.509 2.70789 29.5356 2.73063 29.563C3.03033 29.9238 3.338 30.2688 3.67518 30.5948C3.77412 30.695 3.86431 30.7944 3.95499 30.9016C4.1214 31.0944 4.29852 31.2741 4.47906 31.4533C4.50862 31.4827 4.53817 31.512 4.56861 31.5423C4.69196 31.6646 4.81547 31.7867 4.93923 31.9085C5.31637 32.2803 5.66896 32.656 5.99668 33.0733C6.0712 33.1621 6.14575 33.251 6.22033 33.3398C6.46814 33.6435 6.68192 33.9669 6.8952 34.2952C7.36411 35.0474 7.36411 35.0474 7.93673 35.7165C7.90903 35.6711 7.88133 35.6256 7.85279 35.5788C7.36026 34.7495 7.04455 33.8766 6.89209 32.9236C6.8826 32.8652 6.87311 32.8068 6.86333 32.7465C6.71813 31.4988 6.8933 30.2637 7.13965 29.0436C7.14837 29.0003 7.15709 28.957 7.16608 28.9124C7.20944 28.6975 7.25346 28.4828 7.29908 28.2683C7.47427 27.4326 7.58567 26.5932 7.5139 25.7387C7.50928 25.6826 7.50467 25.6265 7.49991 25.5687C7.49632 25.5271 7.49273 25.4855 7.48903 25.4426Z" fill="white"/>
<path d="M54.3482 25.0436C54.3811 25.0436 54.4139 25.0436 54.4477 25.0436C54.4467 25.0831 54.4456 25.1227 54.4446 25.1634C54.4134 26.5382 54.6072 27.8337 54.8724 29.1806C55.3184 31.456 55.1575 33.48 54 35.5171C54.3473 35.0415 54.6876 34.5623 55.0167 34.0738C55.5207 33.3279 56.043 32.6035 56.6365 31.9262C56.6613 31.8971 56.6861 31.8681 56.7116 31.8382C56.9221 31.5933 57.1431 31.3631 57.373 31.1366C57.4469 31.0631 57.5208 30.9896 57.5947 30.9161C57.7093 30.8025 57.824 30.6889 57.9388 30.5754C58.3581 30.1608 58.7627 29.7503 59.1237 29.2829C59.1878 29.2058 59.252 29.1289 59.3165 29.0522C60.1283 28.0247 60.6966 26.8485 60.8648 25.5424C60.8977 25.5424 60.9305 25.5424 60.9643 25.5424C61.0028 25.8172 61.0225 26.0842 61.0242 26.3616C61.0245 26.4005 61.0249 26.4395 61.0252 26.4796C61.0366 28.1041 61.0366 28.1041 60.8648 28.7841C60.8544 28.8261 60.844 28.8681 60.8333 28.9114C60.6125 29.7806 60.2872 30.5853 59.8699 31.3776C59.8544 31.4073 59.8389 31.4371 59.8229 31.4677C59.5559 31.9756 59.2278 32.4235 58.875 32.8738C58.8376 32.922 58.8003 32.9702 58.7617 33.0199C58.0974 33.8558 57.3342 34.5721 56.4873 35.2178C56.458 35.2402 56.4288 35.2627 56.3987 35.2858C55.9654 35.617 55.5161 35.9142 55.0538 36.2028C54.5814 36.4982 54.1172 36.8067 53.6518 37.113C53.6212 37.133 53.5907 37.1531 53.5592 37.1737C53.2166 37.3984 52.8806 37.6324 52.545 37.8673C52.4822 37.9112 52.4822 37.9112 52.4182 37.956C52.1884 38.1175 51.9626 38.2824 51.7417 38.4561C51.662 38.5095 51.662 38.5095 51.5625 38.5095C51.5892 38.2598 51.6752 38.0695 51.7926 37.8518C52.8444 35.8082 52.9267 33.4486 53.1046 31.2016C53.2754 29.0513 53.5695 27.0655 54.3482 25.0436ZM53.9005 35.5669C53.8841 35.5998 53.8677 35.6328 53.8508 35.6667C53.8836 35.6667 53.9164 35.6667 53.9503 35.6667C53.9338 35.6338 53.9174 35.6008 53.9005 35.5669Z" fill="white"/>
<path d="M48.2796 37.512C48.2796 37.7114 48.2058 37.7841 48.0931 37.9484C47.62 38.6637 47.2591 39.4457 46.9023 40.2239C46.442 41.2273 45.9728 42.1511 45.1955 42.9482C45.1619 42.9843 45.1282 43.0203 45.0936 43.0575C44.4906 43.6567 43.6574 44.0382 42.8574 44.2948C42.8096 44.3102 42.8096 44.3102 42.7609 44.3259C42.5782 44.3845 42.3948 44.4401 42.2107 44.4943C42.6803 44.47 43.1278 44.3981 43.5881 44.3041C44.8846 44.0495 46.1906 43.9391 47.5062 43.8334C49.9249 43.6379 52.6796 43.331 54.3687 41.3589C54.412 41.307 54.4551 41.255 54.4978 41.2026C54.5306 41.2191 54.5634 41.2355 54.5973 41.2525C54.2543 41.9385 53.8784 42.5189 53.3564 43.0857C53.2682 43.1822 53.1846 43.2805 53.1018 43.3815C52.9372 43.5742 52.7524 43.7343 52.5577 43.8958C52.5328 43.9169 52.5079 43.9381 52.4822 43.9599C51.9746 44.3895 51.4376 44.7534 50.8664 45.0928C50.8179 45.1217 50.8179 45.1217 50.7685 45.1512C49.5936 45.8426 48.1728 46.2916 46.8071 46.2999C46.7678 46.3002 46.7285 46.3006 46.6879 46.3009C46.5615 46.3018 46.435 46.3021 46.3085 46.3022C46.2651 46.3022 46.2217 46.3023 46.177 46.3023C44.5776 46.3003 43.0443 45.9432 41.4954 45.5692C40.331 45.2882 39.168 45.0199 37.9824 44.8434C37.9824 44.8105 37.9824 44.7776 37.9824 44.7436C38.0189 44.7352 38.0553 44.7267 38.0929 44.7179C39.2021 44.4571 40.2614 44.1473 41.2656 43.5966C41.3113 43.5715 41.3569 43.5465 41.4039 43.5208C41.8852 43.2437 42.3113 42.9029 42.714 42.5225C42.7481 42.4905 42.7821 42.4584 42.8171 42.4253C43.2799 41.9863 43.727 41.5313 44.1757 41.0779C44.3502 40.9017 44.5248 40.7256 44.6996 40.5496C44.7385 40.5101 44.7775 40.4706 44.8177 40.4299C45.0255 40.2206 45.2375 40.0198 45.4614 39.8277C45.5602 39.742 45.6519 39.651 45.7426 39.5568C45.9335 39.3633 46.1336 39.1852 46.3396 39.0082C46.3874 38.9658 46.4353 38.9233 46.4845 38.8796C46.8321 38.5732 47.1912 38.2861 47.5615 38.0076C47.6254 37.9595 47.6254 37.9595 47.6906 37.9104C47.8825 37.7674 48.0731 37.6332 48.2796 37.512Z" fill="white"/>
<path d="M13.7068 37.8112C13.9599 37.8909 14.1448 38.0453 14.3504 38.2071C14.3876 38.2361 14.4248 38.265 14.4631 38.2948C14.5394 38.3543 14.6156 38.4138 14.6917 38.4735C14.7915 38.5517 14.8918 38.6293 14.9922 38.7066C15.3156 38.9566 15.6239 39.2154 15.9234 39.4939C16.0276 39.5907 16.1333 39.685 16.2407 39.7781C16.6051 40.0961 16.9633 40.422 17.3012 40.7682C17.387 40.8526 17.4759 40.9305 17.5675 41.0086C17.8529 41.2574 18.1144 41.5297 18.3796 41.7997C18.5941 42.0169 18.8111 42.2262 19.0437 42.4238C19.1285 42.4989 19.2049 42.578 19.2814 42.6614C20.4387 43.8322 22.1666 44.4265 23.7336 44.7637C23.7956 44.7774 23.7956 44.7774 23.8589 44.7914C23.8954 44.7991 23.932 44.8068 23.9696 44.8147C24.0538 44.8434 24.0538 44.8434 24.1035 44.9431C23.9844 44.9661 23.8652 44.989 23.746 45.0117C23.7135 45.018 23.6809 45.0243 23.6474 45.0308C23.4352 45.0711 23.223 45.1049 23.0091 45.1352C22.6747 45.1866 22.3525 45.2652 22.0261 45.3536C21.9054 45.3856 21.7848 45.4176 21.6641 45.4496C21.6019 45.4662 21.5398 45.4828 21.4757 45.4999C17.9916 46.4269 14.3731 47.1967 11.0678 45.283C9.59189 44.4074 8.23622 43.1968 7.43896 41.6515C7.43896 41.6186 7.43896 41.5857 7.43896 41.5517C7.63039 41.6299 7.7434 41.754 7.88667 41.9009C9.83857 43.8815 12.8376 43.9184 15.4238 44.1043C16.7355 44.1989 18.0154 44.3508 19.3058 44.6152C19.5486 44.6642 19.7753 44.7093 20.0245 44.6938C19.9925 44.685 19.9605 44.6763 19.9275 44.6673C18.003 44.1362 16.6859 43.2688 15.6769 41.5147C15.3908 41.0058 15.1379 40.4801 14.88 39.9566C14.3908 38.9417 14.3908 38.9417 13.7736 38.0045C13.7068 37.911 13.7068 37.911 13.7068 37.8112Z" fill="white"/>
<path d="M60.0191 16.7148C60.0519 16.7148 60.0847 16.7148 60.1185 16.7148C61.2719 19.5575 61.2574 22.8451 60.0637 25.6874C60.0416 25.7391 60.0416 25.7391 60.0191 25.7917C60.002 25.8321 59.9849 25.8724 59.9672 25.914C59.7099 26.5116 59.4147 27.031 59.0058 27.5362C58.8891 27.6812 58.776 27.829 58.6625 27.9765C58.4283 28.2803 58.1914 28.5821 57.9546 28.8839C57.9329 28.9116 57.9112 28.9394 57.8888 28.968C57.7931 29.0902 57.6973 29.2124 57.6011 29.3342C57.1959 29.8466 56.8109 30.3693 56.4403 30.9075C56.3896 30.9811 56.3389 31.0546 56.2882 31.1282C56.2639 31.1633 56.2397 31.1985 56.2147 31.2347C56.1576 31.3165 56.0987 31.397 56.0394 31.4773C56.023 31.4773 56.0066 31.4773 55.9897 31.4773C55.9839 31.1713 55.9923 30.8693 56.0146 30.564C56.0361 30.242 56.048 29.9204 56.0519 29.5977C56.0535 29.5371 56.0535 29.5371 56.0551 29.4752C56.0598 28.5949 55.8468 27.7743 55.5672 26.947C55.4752 26.6742 55.3866 26.4003 55.2977 26.1264C55.28 26.072 55.2624 26.0176 55.2441 25.9616C54.6609 24.1587 54.2333 22.2977 53.9731 20.4207C53.9535 20.28 53.9326 20.1395 53.9113 19.999C53.8243 19.3857 53.8608 18.7776 53.9004 18.1611C54.009 18.27 54.0282 18.327 54.0718 18.4716C54.0851 18.5145 54.0985 18.5573 54.1122 18.6014C54.1264 18.6475 54.1407 18.6935 54.1554 18.7409C54.3106 19.2234 54.5034 19.6624 54.7461 20.1062C54.7701 20.151 54.7701 20.151 54.7945 20.1968C55.0393 20.6544 55.3098 21.0955 55.5824 21.5369C56.5188 23.0562 57.2912 24.4559 57.3017 26.2811C57.302 26.3209 57.3023 26.3606 57.3026 26.4016C57.3051 27.1207 57.2195 27.7878 57.0344 28.4849C57.2106 27.8767 57.3593 27.2658 57.4945 26.6472C57.8045 25.2362 58.2251 23.9568 58.8153 22.637C59.2877 21.5787 59.7496 20.5021 59.9693 19.3581C59.9831 19.2864 59.9831 19.2864 59.9972 19.2132C60.0661 18.8156 60.0828 18.4281 60.079 18.0249C60.0781 17.9236 60.078 17.8223 60.078 17.721C60.0765 17.3816 60.0652 17.051 60.0191 16.7148Z" fill="white"/>
<path d="M1.76769 17.1636C1.81904 17.3181 1.80664 17.3926 1.78139 17.5484C1.68864 18.3197 1.72148 19.1536 1.91693 19.9067C1.92628 19.9436 1.93564 19.9805 1.94527 20.0185C2.22914 21.1089 2.6994 22.1309 3.16963 23.1502C3.44116 23.7395 3.69522 24.3299 3.90673 24.9439C3.91826 24.9764 3.9298 25.0089 3.94168 25.0424C4.13611 25.595 4.25356 26.1644 4.37717 26.7362C4.45112 27.0779 4.5289 27.4185 4.60938 27.7586C4.62079 27.8078 4.6322 27.857 4.64395 27.9077C4.72709 28.2569 4.83347 28.5949 4.95137 28.9338C4.9441 28.9039 4.93683 28.874 4.92933 28.8432C4.89609 28.7061 4.86311 28.569 4.83012 28.4319C4.81868 28.3849 4.80723 28.3378 4.79544 28.2894C4.21858 25.8838 5.23138 23.5599 6.45927 21.54C6.62892 21.263 6.80188 20.9883 6.97732 20.715C7.29467 20.2154 7.48894 19.6827 7.66773 19.1217C7.73383 18.9151 7.80892 18.7128 7.88633 18.5102C7.90275 18.5102 7.91916 18.5102 7.93608 18.5102C8.05637 19.6511 7.89274 20.7805 7.72466 21.9078C7.71779 21.9548 7.71091 22.0017 7.70383 22.0501C7.53184 23.2132 7.25094 24.3443 6.92657 25.4733C6.87756 25.644 6.829 25.8148 6.78054 25.9856C6.64684 26.4562 6.51223 26.9264 6.37427 27.3957C6.32791 27.5535 6.28192 27.7114 6.23592 27.8692C6.20568 27.9722 6.17475 28.075 6.14375 28.1778C5.96473 28.7903 5.8768 29.4043 5.88409 30.0434C5.88429 30.0867 5.88448 30.1299 5.88468 30.1745C5.88986 30.5745 5.92798 30.9694 5.97426 31.3665C5.99369 31.5372 6.00043 31.7042 5.99602 31.8763C5.77708 31.7229 5.65516 31.546 5.52344 31.3183C5.13746 30.6767 4.66869 30.0981 4.18246 29.5307C3.98691 29.3018 3.79747 29.0682 3.60826 28.834C3.56175 28.7771 3.51525 28.7202 3.46874 28.6633C2.01747 26.8785 1.34095 25.0178 1.02152 22.7494C1.01595 22.7106 1.01038 22.6717 1.00464 22.6317C0.955608 22.2276 0.960725 21.8192 0.959822 21.4128C0.959343 21.2831 0.957797 21.1535 0.956227 21.0238C0.952499 20.4384 1.00936 19.8825 1.12101 19.3082C1.1327 19.2478 1.1444 19.1875 1.15645 19.1253C1.18907 18.9664 1.22413 18.8084 1.26092 18.6505C1.27353 18.5959 1.28614 18.5413 1.29913 18.485C1.56678 17.3651 1.56678 17.3651 1.76769 17.1636Z" fill="white"/>
<path d="M56.6868 8.93451C57.2265 9.23671 57.5485 9.82549 57.8806 10.331C57.9136 10.3807 57.9136 10.3807 57.9472 10.4314C58.5943 11.4136 59.0097 12.4612 59.2642 13.6101C59.2739 13.6537 59.2836 13.6972 59.2936 13.7421C59.4411 14.4504 59.4917 15.1576 59.488 15.8794C59.4879 15.9172 59.4878 15.9551 59.4878 15.9941C59.4853 16.6101 59.4514 17.2078 59.3232 17.812C59.3144 17.8539 59.3056 17.8958 59.2966 17.939C59.162 18.5602 58.9659 19.1438 58.7255 19.7309C58.2623 20.863 57.936 22.0095 57.7265 23.2139C57.7154 23.2763 57.7044 23.3388 57.6929 23.4031C57.6788 23.4865 57.6788 23.4865 57.6643 23.5716C57.6483 23.6337 57.6483 23.6337 57.6319 23.6971C57.5991 23.7135 57.5663 23.73 57.5324 23.7469C57.5234 23.7116 57.5145 23.6762 57.5052 23.6398C57.0158 21.7281 56.1374 20.2894 54.9422 18.7353C53.9019 17.3767 52.9558 15.9918 52.4242 14.352C52.4125 14.3162 52.4007 14.2804 52.3886 14.2435C51.9164 12.8031 51.9164 12.8031 52.0107 12.4755C52.0433 12.5256 52.0759 12.5757 52.1094 12.6273C52.4221 13.1001 52.7588 13.5177 53.1549 13.9219C53.2016 13.9706 53.2483 14.0194 53.295 14.0682C53.5496 14.33 53.8136 14.5661 54.0987 14.7937C54.3171 14.976 54.5225 15.1714 54.7292 15.3669C54.889 15.5181 55.0494 15.6673 55.2162 15.8108C56.2803 16.7351 56.9846 17.9038 57.2593 19.2868C57.2919 19.4485 57.3265 19.6096 57.3611 19.7708C57.3745 19.8336 57.388 19.8965 57.4018 19.9612C57.4121 20.009 57.4224 20.0569 57.4329 20.1062C57.4285 20.0676 57.4241 20.029 57.4195 19.9893C57.3106 19.0172 57.2586 18.0607 57.2645 17.0814C57.2651 16.9777 57.2653 16.874 57.2656 16.7704C57.2683 15.6261 57.3158 14.4961 57.4598 13.3603C57.4643 13.3246 57.4688 13.2889 57.4734 13.2521C57.4862 13.1524 57.4992 13.0528 57.5123 12.9532C57.6584 11.6585 57.4145 10.1286 56.6868 9.03426C56.6868 9.00134 56.6868 8.96842 56.6868 8.93451Z" fill="white"/>
<path d="M4.80267 9.38336C4.85191 9.38336 4.90116 9.38336 4.9519 9.38336C4.8842 9.56221 4.80327 9.72648 4.7125 9.89456C3.93842 11.4391 4.18706 13.2012 4.3902 14.8509C4.5794 16.394 4.6325 17.8505 4.50758 19.4031C4.50415 19.4462 4.50072 19.4892 4.49718 19.5335C4.49069 19.6142 4.48404 19.6948 4.4772 19.7754C4.45612 20.0361 4.45173 20.2935 4.45445 20.555C4.46042 20.5184 4.46639 20.4818 4.47255 20.4441C4.86852 18.0584 6.13356 16.409 7.94286 14.8504C8.55791 14.318 9.10707 13.7918 9.49541 13.0711C9.57819 12.9244 9.57819 12.9244 9.67768 12.8246C9.63714 14.8159 8.60553 16.6808 7.4889 18.2608C7.44023 18.3302 7.39159 18.3995 7.34297 18.4689C7.14437 18.7518 6.94518 19.0343 6.74428 19.3156C5.66765 20.8264 4.78999 22.3129 4.4047 24.1459C4.25604 23.9969 4.26987 23.8172 4.24614 23.616C4.07636 22.372 3.581 21.1958 3.1364 20.0294C2.80451 19.157 2.50172 18.29 2.36516 17.3631C2.36043 17.3319 2.35571 17.3007 2.35084 17.2685C2.30046 16.8883 2.30546 16.5053 2.30609 16.1225C2.30613 16.0858 2.30618 16.0491 2.30623 16.0113C2.31069 14.3891 2.64258 12.9125 3.4098 11.478C3.42632 11.4464 3.44283 11.4148 3.45984 11.3822C3.82536 10.6834 4.26247 9.96044 4.80267 9.38336Z" fill="white"/>
<path d="M52.1097 5.14412C53.3055 5.26006 54.3679 6.15285 55.1191 7.03561C56.1933 8.36256 56.6076 9.86926 56.597 11.5584C56.5961 11.7074 56.596 11.8564 56.596 12.0054C56.5951 12.5141 56.583 13.0205 56.555 13.5284C56.5364 13.8684 56.5275 14.2077 56.5277 14.5484C56.5277 14.6331 56.5277 14.6331 56.5276 14.7196C56.5302 15.1444 56.5606 15.5607 56.6148 15.9819C56.6322 16.1293 56.6412 16.2675 56.6365 16.4155C56.6037 16.4155 56.5709 16.4155 56.537 16.4155C56.5207 16.3829 56.5043 16.3502 56.4875 16.3166C55.9441 15.2712 55.0657 14.3977 54.1493 13.6725C54.0864 13.6212 54.0237 13.5699 53.961 13.5184C53.6538 13.2662 53.3456 13.0162 53.03 12.7748C51.1672 11.3463 49.9203 9.92937 49.3769 7.59104C49.3601 7.51966 49.3601 7.51966 49.3431 7.44683C49.3333 7.40242 49.3234 7.35801 49.3133 7.31225C49.3045 7.27278 49.2957 7.23331 49.2867 7.19264C49.2743 7.08918 49.2743 7.08918 49.324 6.93956C49.3517 6.99138 49.3794 7.0432 49.4079 7.09659C49.6312 7.50793 49.8623 7.88113 50.1697 8.23627C50.2111 8.28924 50.2526 8.34223 50.294 8.39525C50.8212 8.98979 51.5249 9.43026 52.177 9.87392C52.4903 10.0872 52.7997 10.3052 53.1046 10.5305C53.1327 10.5511 53.1608 10.5717 53.1898 10.593C54.0263 11.2127 54.7807 11.9618 55.2934 12.8745C55.3429 12.9578 55.3926 13.0409 55.4426 13.1239C55.4233 13.0763 55.4039 13.0287 55.384 12.9797C54.9766 11.9438 54.7152 10.8527 54.4429 9.77495C54.4298 9.72333 54.4168 9.67171 54.4033 9.61853C54.3394 9.3652 54.2759 9.11175 54.2133 8.85808C54.1033 8.41587 53.988 7.97717 53.8459 7.54408C53.8346 7.50903 53.8232 7.47398 53.8114 7.43786C53.5125 6.55605 52.9427 5.85518 52.2211 5.28517C52.1843 5.25508 52.1476 5.22499 52.1097 5.19399C52.1097 5.17753 52.1097 5.16108 52.1097 5.14412ZM55.5421 13.3732C55.5919 13.473 55.5919 13.473 55.5919 13.473L55.5421 13.3732ZM55.5919 13.473C55.6416 13.5727 55.6416 13.5727 55.6416 13.5727L55.5919 13.473Z" fill="white"/>
<path d="M9.42852 5.49323C9.42852 5.52614 9.42852 5.55906 9.42852 5.59297C9.35718 5.6539 9.28301 5.71151 9.20778 5.76753C7.82311 6.85815 7.52413 8.62953 7.18697 10.2626C6.95585 11.3814 6.63192 12.4461 6.23067 13.5158C6.18984 13.6196 6.18984 13.6196 6.1951 13.7223C6.23126 13.6509 6.23126 13.6509 6.26816 13.578C6.99457 12.164 8.08125 11.2033 9.36276 10.3038C9.92344 9.90977 10.4751 9.50969 10.9706 9.03424C11.0155 8.99297 11.0604 8.95169 11.1066 8.90917C11.6105 8.43052 11.9527 7.88457 12.2142 7.2388C12.2307 7.2388 12.2471 7.2388 12.264 7.2388C12.3499 8.92381 11.4409 10.4239 10.355 11.6339C10.2624 11.7323 10.1693 11.8299 10.0752 11.9269C10.0463 11.9569 10.0175 11.9868 9.98772 12.0177C9.60515 12.4134 9.21748 12.7866 8.78184 13.1239C8.70888 13.1811 8.63595 13.2384 8.56304 13.2957C7.97273 13.7586 7.97273 13.7586 7.68045 13.9744C7.4972 14.1118 7.32849 14.2603 7.16202 14.4175C7.13401 14.4437 7.106 14.47 7.07715 14.497C6.99846 14.571 6.92008 14.6454 6.84178 14.7198C6.80773 14.7518 6.77368 14.7838 6.7386 14.8168C6.17204 15.365 5.69072 16.0443 5.3026 16.7299C5.28522 16.7579 5.26784 16.7858 5.24994 16.8145C5.23352 16.8145 5.21711 16.8145 5.2002 16.8145C5.20053 16.7695 5.20053 16.7695 5.20087 16.7235C5.22352 14.9764 5.22352 14.9764 5.13653 13.2327C4.9815 11.4284 5.06085 9.28213 6.2293 7.79052C6.30043 7.70604 6.37198 7.62191 6.44382 7.53804C6.489 7.48253 6.53407 7.42693 6.57907 7.37127C7.21426 6.5944 8.35475 5.49323 9.42852 5.49323ZM6.09561 13.8221C6.14535 13.9218 6.14535 13.9218 6.14535 13.9218L6.09561 13.8221Z" fill="white"/>
<path d="M46.29 2.30133C46.7565 2.42689 47.2027 2.60511 47.6518 2.78136C47.7116 2.80479 47.7116 2.80479 47.7725 2.82869C50.124 3.75235 51.8626 5.01765 52.9123 7.38531C53.1782 8.00152 53.3675 8.63944 53.5528 9.28362C53.5794 9.37536 53.6061 9.46706 53.6331 9.5587C53.6499 9.61649 53.6499 9.61649 53.6671 9.67544C53.7015 9.78054 53.743 9.87836 53.7891 9.97873C53.8513 10.1315 53.8513 10.1315 53.8015 10.2811C53.168 9.79966 52.5441 9.31721 51.9619 8.77358C51.8511 8.67031 51.7375 8.57079 51.6229 8.47181C51.3931 8.27102 51.1779 8.05696 50.963 7.8404C50.925 7.8025 50.887 7.7646 50.8478 7.72556C50.6116 7.48832 50.3875 7.24406 50.1702 6.98944C50.1235 6.93601 50.0768 6.88263 50.03 6.8293C49.5044 6.2245 49.0107 5.60271 48.572 4.93133C48.1793 4.3317 47.7561 3.8336 47.2337 3.34486C47.1034 3.21729 46.9858 3.08067 46.8675 2.94198C46.7565 2.81422 46.638 2.69707 46.517 2.57875C46.4404 2.50382 46.3645 2.42825 46.29 2.3512C46.29 2.33475 46.29 2.31829 46.29 2.30133Z" fill="white"/>
<path d="M15.0996 2.60057C15.1489 2.62526 15.1489 2.62526 15.1991 2.65044C15.1269 2.72555 15.0543 2.80029 14.9815 2.87487C14.9209 2.93736 14.9209 2.93736 14.8591 3.00112C14.7514 3.09931 14.7514 3.09931 14.6519 3.09931C14.6519 3.13222 14.6519 3.16514 14.6519 3.19905C14.6191 3.19905 14.5863 3.19905 14.5524 3.19905C14.5402 3.22779 14.5279 3.25653 14.5153 3.28614C14.4429 3.41662 14.3591 3.49874 14.2509 3.60116C14.0235 3.82477 13.8215 4.06041 13.6244 4.31105C13.5766 4.37181 13.5285 4.43239 13.4804 4.49286C13.1173 4.94872 12.7733 5.4128 12.448 5.89651C12.2165 6.24063 11.9737 6.57511 11.7267 6.90815C11.672 6.9829 11.6188 7.05879 11.5658 7.13477C11.0066 7.93536 10.2739 8.61522 9.51536 9.22342C9.35981 9.34893 9.20763 9.47802 9.05561 9.60779C8.80856 9.81835 8.55877 10.0252 8.30729 10.2304C8.14827 10.3612 7.99228 10.4951 7.83685 10.6302C7.82044 10.5973 7.80402 10.5644 7.78711 10.5305C7.82952 10.408 7.87552 10.289 7.92391 10.1689C8.05755 9.82453 8.16914 9.47626 8.26999 9.12114C8.28752 9.05941 8.28752 9.05941 8.3054 8.99645C8.36428 8.78809 8.42219 8.57949 8.47931 8.37065C8.80137 7.20888 9.39038 6.16574 10.2246 5.29374C10.2617 5.25336 10.2989 5.21299 10.3371 5.17139C10.9186 4.55859 11.6187 4.13203 12.3637 3.74766C12.3984 3.72957 12.4332 3.71148 12.4691 3.69284C13.3065 3.26294 14.2068 2.89894 15.0996 2.60057Z" fill="white"/>
<path d="M30.3215 28.2355C30.4148 28.3602 30.4148 28.3602 30.4707 28.4849C30.4051 28.6001 30.3394 28.7153 30.2717 28.834C30.0748 28.834 29.8778 28.834 29.6748 28.834C29.7655 28.3793 29.7655 28.3793 29.9111 28.2698C30.0599 28.2242 30.1669 28.2124 30.3215 28.2355Z" fill="white"/>
<path d="M12.2144 26.7892C12.2473 26.7892 12.2801 26.7892 12.3139 26.7892C12.5521 27.2817 12.7316 27.6828 12.7119 28.2355C12.6217 28.2106 12.6217 28.2106 12.5129 28.1358C12.3934 27.8777 12.3347 27.6223 12.2856 27.3429C12.2684 27.2358 12.2684 27.2358 12.2144 27.1383C12.2124 27.022 12.2123 26.9056 12.2144 26.7892Z" fill="white"/>
<path d="M30.3713 25.3429C30.4205 25.3429 30.4698 25.3429 30.5205 25.3429C30.5205 25.3922 30.5205 25.4416 30.5205 25.4925C30.5698 25.5089 30.619 25.5254 30.6697 25.5424C30.6719 25.6255 30.6718 25.7086 30.6697 25.7917C30.62 25.8416 30.62 25.8416 30.4956 25.8478C30.3713 25.8416 30.3713 25.8416 30.3215 25.7917C30.3097 25.4663 30.3097 25.4663 30.3713 25.3429Z" fill="white"/>
<path d="M42.7333 23.0923C42.8576 23.0986 42.8576 23.0986 42.9074 23.1484C42.9167 23.2949 42.9167 23.2949 42.9074 23.4477C42.8746 23.4806 42.8417 23.5135 42.8079 23.5474C42.6773 23.5287 42.6773 23.5287 42.5592 23.4976C42.5571 23.3812 42.5571 23.2648 42.5592 23.1484C42.6089 23.0986 42.6089 23.0986 42.7333 23.0923Z" fill="white"/>
<path d="M39.3037 16.562C39.3637 16.5636 39.3637 16.5636 39.4249 16.5651C39.4414 16.6474 39.4578 16.7297 39.4747 16.8145C39.3926 16.8145 39.3105 16.8145 39.226 16.8145C39.1931 16.7487 39.1603 16.6828 39.1265 16.615C39.1762 16.5651 39.1762 16.5651 39.3037 16.562Z" fill="white"/>
</g>
<defs>
<clipPath id="clip0_2110_1268">
<rect width="60.0423" height="51.0704" fill="white" transform="translate(0.972168 0.605637)"/>
</clipPath>
</defs>
</svg>
