<svg width="115" height="24" viewBox="0 0 115 24" fill="none" xmlns="http://www.w3.org/2000/svg">
<path d="M14.6379 19.1848C16.138 19.1724 17.5514 18.9492 18.8035 18.5277C19.1259 18.4161 19.4234 18.3046 19.7086 18.1806C19.3614 19.036 18.8407 19.7427 18.1712 20.2758C16.8571 21.2428 15.295 21.9123 13.6089 22.1727C14.0428 21.4288 14.3775 20.3998 14.6379 19.1848ZM7.60837 21.2676C7.57118 21.2428 7.54638 21.218 7.50919 21.1932C6.92649 20.9081 6.67854 19.5939 6.98848 17.5855C8.11668 18.0938 9.34405 18.4905 10.6458 18.7757C11.6252 18.9864 12.6047 19.1104 13.5593 19.16C13.0882 21.1932 12.4931 22.2594 12.0964 22.2594C12.0716 22.2594 12.0468 22.2594 12.022 22.2718C10.4351 22.2718 8.93493 21.8999 7.60837 21.2676ZM2.14097 14.7836C2.05418 14.4365 1.99219 14.0893 1.9674 13.7298C2.31453 14.2381 2.74846 14.7216 3.26916 15.2051C4.05022 15.9242 4.96765 16.5565 5.98426 17.1144C5.7735 18.2798 5.71151 19.346 5.84789 20.2014C4.08741 18.8501 2.77325 16.9656 2.14097 14.7836ZM15.3074 11.9321C15.3074 11.523 15.3074 11.1015 15.295 10.6923C16.6091 10.6056 17.8365 10.2584 18.8283 9.68812C19.7582 11.523 20.2541 13.4446 20.2417 15.2671C20.2417 15.8002 20.1921 16.2961 20.1177 16.7672C19.6466 17.0524 19.0887 17.3127 18.4812 17.5235C17.3902 17.8954 16.1504 18.0938 14.8486 18.131C15.1586 16.2465 15.3074 14.0645 15.3074 11.9321ZM10.8566 17.7467C9.54242 17.4615 8.30264 17.0524 7.18685 16.5193C7.55878 14.858 8.24065 12.8495 9.33166 10.618C9.49283 10.2956 9.654 9.97327 9.81517 9.66333C10.5714 10.0105 11.4021 10.2708 12.2699 10.4568C12.927 10.5932 13.5841 10.6799 14.2288 10.6923C14.2412 11.0891 14.2412 11.4982 14.2412 11.9197C14.2412 14.4117 14.0428 16.4821 13.7576 18.1062C12.8154 18.0814 11.836 17.9574 10.8566 17.7467ZM3.98823 14.4241C3.09559 13.5934 2.4757 12.7132 2.15336 11.8329C2.40132 10.8535 2.88483 9.87409 3.5915 8.93186C4.26098 8.03922 5.10403 7.23337 6.07105 6.53909C6.3438 7.035 6.74053 7.53091 7.23644 7.98963C7.70755 8.43595 8.25305 8.83268 8.86054 9.17982C8.68697 9.50216 8.5258 9.8245 8.36463 10.1468C7.4224 12.0685 6.65374 14.1389 6.20742 16.011C5.38917 15.5523 4.63291 15.0192 3.98823 14.4241ZM14.5883 4.58025C15.7909 5.47289 16.8943 6.63828 17.8241 7.98963C17.9977 8.24998 18.1588 8.51033 18.32 8.77069C17.477 9.2542 16.4108 9.55175 15.2454 9.63853C15.1462 7.80366 14.9354 6.04319 14.5883 4.58025ZM12.4931 9.42777C11.7244 9.2666 10.993 9.03104 10.3235 8.7335C11.3153 7.01021 12.3939 5.49768 13.4601 4.38189C13.7948 5.69605 14.0676 7.45653 14.1916 9.63853C13.6213 9.62613 13.051 9.55175 12.4931 9.42777ZM7.9679 7.23337C7.53398 6.82424 7.19924 6.39032 6.97608 5.9688C7.9679 5.37371 9.0713 4.8902 10.2367 4.53066C10.931 4.3199 11.6376 4.17113 12.3443 4.05955C11.3277 5.20014 10.3235 6.63828 9.39364 8.26238C8.84814 7.95244 8.37703 7.6053 7.9679 7.23337ZM5.68672 3.84879C5.67432 3.89838 5.66192 3.96036 5.64953 4.00996C5.53795 4.50587 5.55034 5.01417 5.68672 5.52248C4.54613 6.30354 3.55431 7.23337 2.77325 8.28718C2.53769 8.60952 2.31453 8.93186 2.12857 9.2542C2.69886 7.097 3.97583 5.21254 5.68672 3.84879ZM6.67854 4.23312C6.79012 3.68762 7.12486 3.19171 7.63316 2.78258C8.87294 2.41065 10.3111 2.49743 11.8236 3.05533C11.1913 3.16691 10.5466 3.31568 9.92675 3.50165C8.76136 3.84878 7.65796 4.3323 6.65374 4.91499C6.61655 4.69183 6.62895 4.46867 6.67854 4.23312ZM15.2702 2.84457C15.6297 2.60901 15.9644 2.44784 16.2496 2.38585C16.7827 2.59661 17.3034 2.86936 17.8117 3.2165C17.0059 3.00574 16.1504 2.88176 15.2702 2.84457ZM13.4849 1.71637C13.9188 1.76596 14.3775 1.84035 14.8486 1.95193C14.5511 2.1131 14.2536 2.31147 13.9312 2.54702C13.7948 2.22468 13.6461 1.95193 13.4849 1.71637ZM12.3443 2.1255C11.8608 1.93954 11.3897 1.80316 10.931 1.70397C11.3029 1.66678 11.6872 1.64199 12.0716 1.64199C12.2575 1.64199 12.4683 1.86515 12.7038 2.27427C12.5799 2.22468 12.4559 2.17509 12.3443 2.1255ZM0.69043 11.9569C0.69043 13.0355 0.839203 14.0893 1.12435 15.0811C1.13675 15.1431 1.16154 15.2175 1.17394 15.2795C1.17394 15.2919 1.18634 15.3043 1.18634 15.3167C2.62448 19.9534 6.95129 23.338 12.0592 23.338C14.4271 23.338 16.6215 22.619 18.444 21.3792C18.4564 21.3668 18.4812 21.3544 18.4936 21.3544C18.6052 21.28 18.7043 21.2056 18.8035 21.1188C20.8987 19.5691 22.4485 17.3251 23.0931 14.7216C23.1303 14.5976 23.1551 14.4861 23.1923 14.3621C23.1923 14.3373 23.2047 14.3001 23.2047 14.2753C23.3659 13.5314 23.4403 12.7504 23.4403 11.9569C23.4403 10.4196 23.1427 8.93186 22.5476 7.53091C22.4361 7.25816 22.1261 7.13419 21.8534 7.24577C21.5806 7.35735 21.4566 7.66729 21.5682 7.94004C22.1013 9.21701 22.3741 10.5684 22.3741 11.9569C22.3741 12.8124 22.2625 13.643 22.0765 14.4365C21.9154 14.9324 21.6426 15.4035 21.2707 15.825C21.2831 15.639 21.2831 15.4655 21.2831 15.2795C21.2831 13.2463 20.7252 11.1015 19.6838 9.08063C20.4524 8.42355 20.9359 7.6177 21.0971 6.71267C21.1467 6.42752 20.9607 6.15477 20.6756 6.09278C20.3904 6.04319 20.1177 6.22915 20.0557 6.5143C19.9441 7.10939 19.6342 7.66729 19.1507 8.12601C19.0019 7.87805 18.8407 7.6301 18.6796 7.38214C17.7497 6.01839 16.6463 4.84061 15.4437 3.89838C17.0431 3.99756 18.506 4.39428 19.6962 5.05137C19.8821 5.16294 20.1301 5.15055 20.3037 5.01417C20.5268 4.82821 20.564 4.49347 20.3656 4.27031C18.6548 1.88994 15.7041 0.563385 12.0592 0.563385C5.7983 0.575783 0.69043 5.68365 0.69043 11.9569Z" fill="white"/>
<mask id="mask0_2110_1273" style="mask-type:luminance" maskUnits="userSpaceOnUse" x="0" y="0" width="24" height="24">
<path d="M14.6379 19.1848C16.138 19.1724 17.5514 18.9492 18.8035 18.5277C19.1259 18.4161 19.4234 18.3046 19.7086 18.1806C19.3614 19.036 18.8407 19.7427 18.1712 20.2758C16.8571 21.2428 15.295 21.9123 13.6089 22.1727C14.0428 21.4288 14.3775 20.3998 14.6379 19.1848ZM7.60837 21.2676C7.57118 21.2428 7.54638 21.218 7.50919 21.1932C6.92649 20.9081 6.67854 19.5939 6.98848 17.5855C8.11668 18.0938 9.34405 18.4905 10.6458 18.7757C11.6252 18.9864 12.6047 19.1104 13.5593 19.16C13.0882 21.1932 12.4931 22.2594 12.0964 22.2594C12.0716 22.2594 12.0468 22.2594 12.022 22.2718C10.4351 22.2718 8.93493 21.8999 7.60837 21.2676ZM2.14097 14.7836C2.05418 14.4365 1.99219 14.0893 1.9674 13.7298C2.31453 14.2381 2.74846 14.7216 3.26916 15.2051C4.05022 15.9242 4.96765 16.5565 5.98426 17.1144C5.7735 18.2798 5.71151 19.346 5.84789 20.2014C4.08741 18.8501 2.77325 16.9656 2.14097 14.7836ZM15.3074 11.9321C15.3074 11.523 15.3074 11.1015 15.295 10.6923C16.6091 10.6056 17.8365 10.2584 18.8283 9.68812C19.7582 11.523 20.2541 13.4446 20.2417 15.2671C20.2417 15.8002 20.1921 16.2961 20.1177 16.7672C19.6466 17.0524 19.0887 17.3127 18.4812 17.5235C17.3902 17.8954 16.1504 18.0938 14.8486 18.131C15.1586 16.2465 15.3074 14.0645 15.3074 11.9321ZM10.8566 17.7467C9.54242 17.4615 8.30264 17.0524 7.18685 16.5193C7.55878 14.858 8.24065 12.8495 9.33166 10.618C9.49283 10.2956 9.654 9.97327 9.81517 9.66333C10.5714 10.0105 11.4021 10.2708 12.2699 10.4568C12.927 10.5932 13.5841 10.6799 14.2288 10.6923C14.2412 11.0891 14.2412 11.4982 14.2412 11.9197C14.2412 14.4117 14.0428 16.4821 13.7576 18.1062C12.8154 18.0814 11.836 17.9574 10.8566 17.7467ZM3.98823 14.4241C3.09559 13.5934 2.4757 12.7132 2.15336 11.8329C2.40132 10.8535 2.88483 9.87409 3.5915 8.93186C4.26098 8.03922 5.10403 7.23337 6.07105 6.53909C6.3438 7.035 6.74053 7.53091 7.23644 7.98963C7.70755 8.43595 8.25305 8.83268 8.86054 9.17982C8.68697 9.50216 8.5258 9.8245 8.36463 10.1468C7.4224 12.0685 6.65374 14.1389 6.20742 16.011C5.38917 15.5523 4.63291 15.0192 3.98823 14.4241ZM14.5883 4.58025C15.7909 5.47289 16.8943 6.63828 17.8241 7.98963C17.9977 8.24998 18.1588 8.51033 18.32 8.77069C17.477 9.2542 16.4108 9.55175 15.2454 9.63853C15.1462 7.80366 14.9354 6.04319 14.5883 4.58025ZM12.4931 9.42777C11.7244 9.2666 10.993 9.03104 10.3235 8.7335C11.3153 7.01021 12.3939 5.49768 13.4601 4.38189C13.7948 5.69605 14.0676 7.45653 14.1916 9.63853C13.6213 9.62613 13.051 9.55175 12.4931 9.42777ZM7.9679 7.23337C7.53398 6.82424 7.19924 6.39032 6.97608 5.9688C7.9679 5.37371 9.0713 4.8902 10.2367 4.53066C10.931 4.3199 11.6376 4.17113 12.3443 4.05955C11.3277 5.20014 10.3235 6.63828 9.39364 8.26238C8.84814 7.95244 8.37703 7.6053 7.9679 7.23337ZM5.68672 3.84879C5.67432 3.89838 5.66192 3.96036 5.64953 4.00996C5.53795 4.50587 5.55034 5.01417 5.68672 5.52248C4.54613 6.30354 3.55431 7.23337 2.77325 8.28718C2.53769 8.60952 2.31453 8.93186 2.12857 9.2542C2.69886 7.097 3.97583 5.21254 5.68672 3.84879ZM6.67854 4.23312C6.79012 3.68762 7.12486 3.19171 7.63316 2.78258C8.87294 2.41065 10.3111 2.49743 11.8236 3.05533C11.1913 3.16691 10.5466 3.31568 9.92675 3.50165C8.76136 3.84878 7.65796 4.3323 6.65374 4.91499C6.61655 4.69183 6.62895 4.46867 6.67854 4.23312ZM15.2702 2.84457C15.6297 2.60901 15.9644 2.44784 16.2496 2.38585C16.7827 2.59661 17.3034 2.86936 17.8117 3.2165C17.0059 3.00574 16.1504 2.88176 15.2702 2.84457ZM13.4849 1.71637C13.9188 1.76596 14.3775 1.84035 14.8486 1.95193C14.5511 2.1131 14.2536 2.31147 13.9312 2.54702C13.7948 2.22468 13.6461 1.95193 13.4849 1.71637ZM12.3443 2.1255C11.8608 1.93954 11.3897 1.80316 10.931 1.70397C11.3029 1.66678 11.6872 1.64199 12.0716 1.64199C12.2575 1.64199 12.4683 1.86515 12.7038 2.27427C12.5799 2.22468 12.4559 2.17509 12.3443 2.1255ZM0.69043 11.9569C0.69043 13.0355 0.839203 14.0893 1.12435 15.0811C1.13675 15.1431 1.16154 15.2175 1.17394 15.2795C1.17394 15.2919 1.18634 15.3043 1.18634 15.3167C2.62448 19.9534 6.95129 23.338 12.0592 23.338C14.4271 23.338 16.6215 22.619 18.444 21.3792C18.4564 21.3668 18.4812 21.3544 18.4936 21.3544C18.6052 21.28 18.7043 21.2056 18.8035 21.1188C20.8987 19.5691 22.4485 17.3251 23.0931 14.7216C23.1303 14.5976 23.1551 14.4861 23.1923 14.3621C23.1923 14.3373 23.2047 14.3001 23.2047 14.2753C23.3659 13.5314 23.4403 12.7504 23.4403 11.9569C23.4403 10.4196 23.1427 8.93186 22.5476 7.53091C22.4361 7.25816 22.1261 7.13419 21.8534 7.24577C21.5806 7.35735 21.4566 7.66729 21.5682 7.94004C22.1013 9.21701 22.3741 10.5684 22.3741 11.9569C22.3741 12.8124 22.2625 13.643 22.0765 14.4365C21.9154 14.9324 21.6426 15.4035 21.2707 15.825C21.2831 15.639 21.2831 15.4655 21.2831 15.2795C21.2831 13.2463 20.7252 11.1015 19.6838 9.08063C20.4524 8.42355 20.9359 7.6177 21.0971 6.71267C21.1467 6.42752 20.9607 6.15477 20.6756 6.09278C20.3904 6.04319 20.1177 6.22915 20.0557 6.5143C19.9441 7.10939 19.6342 7.66729 19.1507 8.12601C19.0019 7.87805 18.8407 7.6301 18.6796 7.38214C17.7497 6.01839 16.6463 4.84061 15.4437 3.89838C17.0431 3.99756 18.506 4.39428 19.6962 5.05137C19.8821 5.16294 20.1301 5.15055 20.3037 5.01417C20.5268 4.82821 20.564 4.49347 20.3656 4.27031C18.6548 1.88994 15.7041 0.563385 12.0592 0.563385C5.7983 0.575783 0.69043 5.68365 0.69043 11.9569Z" fill="white"/>
</mask>
<g mask="url(#mask0_2110_1273)">
<path d="M23.4527 0.57579H0.69043V23.338H23.4527V0.57579Z" fill="white"/>
</g>
<path d="M26.7627 7.24577H32.4161V8.41116H30.3332V14.2257H28.8331V8.41116H26.7627V7.24577Z" fill="white"/>
<path d="M33.2095 14.2257V7.24577H34.7096V9.99807H37.3379V7.24577H38.8628V14.2257H37.3627V11.1635H34.7096V14.2257H33.2095Z" fill="white"/>
<path d="M40.0781 7.24577H44.7521V8.41116H41.5782V10.0353H44.5537V11.2007H41.5782V13.0603H44.8637V14.2257H40.0781V7.24577Z" fill="white"/>
<path d="M52.1901 7.24577H53.8886L55.1036 12.49H55.116L56.2442 7.24577H57.6699L55.897 14.2257H54.2358L52.9836 8.90707H52.9588L51.6074 14.2257H49.9089L48.2104 7.24577H49.7478L50.8264 12.49H50.8388L52.1901 7.24577Z" fill="white"/>
<path d="M58.1787 10.7295C58.1787 8.67152 59.2201 7.097 61.5261 7.097C63.8321 7.097 64.8735 8.67152 64.8735 10.7295C64.8735 12.7876 63.8321 14.3621 61.5261 14.3621C59.2201 14.3621 58.1787 12.7876 58.1787 10.7295ZM59.778 10.7295C59.778 11.9321 60.0632 13.2835 61.5385 13.2835C63.0138 13.2835 63.299 11.9321 63.299 10.7295C63.299 9.52696 63.0138 8.17561 61.5385 8.17561C60.0508 8.188 59.778 9.53936 59.778 10.7295Z" fill="white"/>
<path d="M67.3654 14.2257H65.8652V7.24577H68.8283C70.0309 7.25817 71.2583 7.6425 71.2583 9.06824C71.2583 9.97328 70.6756 10.5808 69.8077 10.7543V10.7791C70.9607 10.9031 70.9607 11.6098 71.0847 12.5768C71.1591 13.0231 71.2087 13.8414 71.4938 14.2257H69.8449C69.7209 13.6058 69.6465 12.9735 69.5846 12.3536C69.5474 11.9693 69.4482 11.4362 68.9523 11.4114H67.3654V14.2257ZM67.3654 10.246H68.6299C69.287 10.2336 69.6713 9.91129 69.6713 9.2914C69.6713 8.67151 69.287 8.41116 68.6299 8.39876H67.3778V10.246H67.3654Z" fill="white"/>
<path d="M72.4111 14.2257V7.24577H73.8989V13.0603H76.9239V14.2257H72.4111Z" fill="white"/>
<path d="M77.7422 7.24577H80.1226C82.2922 7.23337 83.6435 8.31198 83.6435 10.7295C83.6435 13.1595 82.2922 14.2381 80.1226 14.2133H77.7422V7.24577ZM79.2423 13.0603H80.011C81.7838 13.0851 82.0442 11.8453 82.0442 10.7295C82.0442 9.61374 81.7838 8.38636 80.011 8.39876H79.2423V13.0603Z" fill="white"/>
<path d="M87.437 14.2257V7.24578H90.0529C91.2927 7.17139 92.5697 7.69209 92.5697 9.05585C92.5697 9.82451 92.0366 10.3452 91.3423 10.5808V10.6056C92.2225 10.7915 92.8796 11.399 92.8796 12.428C92.8796 13.8042 91.1439 14.3125 90.0653 14.2381H87.437V14.2257ZM90.1025 13.0603C90.8092 13.0603 91.2927 12.9363 91.2927 12.1305C91.2927 11.3246 90.8092 11.2007 90.1025 11.2007H88.9371V13.0603H90.1025ZM90.1025 10.0477C90.7348 10.0477 91.0819 9.78731 91.0819 9.22941C91.0819 8.67152 90.7348 8.41116 90.1025 8.41116H88.9371V10.0477H90.1025Z" fill="white"/>
<path d="M93.3511 14.2257L95.8678 7.24577H97.6407L100.071 14.2257H98.5705L98.0746 12.7504H95.3099L94.7892 14.2257H93.3511ZM97.6903 11.585L96.7357 8.60952H96.7109L95.6942 11.585H97.6903Z" fill="white"/>
<path d="M105.017 14.2257L102.265 8.42356L102.24 8.44836V14.2257H100.839V7.24577H103.059L105.712 12.738L105.736 12.7132V7.24577H107.137V14.2257H105.017Z" fill="white"/>
<path d="M109.865 10.2584H109.89L112.208 7.24577H113.956L111.39 10.37L114.167 14.2257H112.307L109.89 10.6676H109.865V14.2257H108.365V7.24577H109.865V10.2584Z" fill="white"/>
</svg>
